<svg width="52" height="36" viewBox="0 0 52 36" fill="none" xmlns="http://www.w3.org/2000/svg">
<rect width="36" height="36" rx="18" fill="white"/>
<path fill-rule="evenodd" clip-rule="evenodd" d="M19.1286 11.9156C19.7843 13.9157 20.1122 14.9157 20.5982 15.4018C21.0843 15.8878 22.0843 16.2157 24.0844 16.8714C25.8417 17.4476 27 18 27 18C27 18 25.8417 18.5524 24.0844 19.1286C22.0843 19.7843 21.0843 20.1122 20.5982 20.5982C20.1122 21.0843 19.7843 22.0843 19.1286 24.0844C18.5524 25.8417 18 27 18 27C18 27 17.4476 25.8417 16.8714 24.0844C16.2157 22.0843 15.8878 21.0843 15.4018 20.5982C14.9157 20.1122 13.9157 19.7843 11.9156 19.1286C10.1583 18.5524 9 18 9 18C9 18 10.1583 17.4476 11.9156 16.8714C13.9157 16.2157 14.9157 15.8878 15.4018 15.4018C15.8878 14.9157 16.2157 13.9157 16.8714 11.9156C17.4476 10.1583 18 9 18 9C18 9 18.5524 10.1583 19.1286 11.9156Z" fill="#0C0D13"/>
<rect x="36" y="17.5" width="16" height="1" fill="url(#paint0_linear_273_7150)"/>
<defs>
<linearGradient id="paint0_linear_273_7150" x1="36" y1="18.5" x2="52" y2="18.5" gradientUnits="userSpaceOnUse">
<stop stop-color="white"/>
<stop offset="0.498875" stop-color="white" stop-opacity="0.52108"/>
<stop offset="1" stop-color="white" stop-opacity="0.04"/>
</linearGradient>
</defs>
</svg>
