<svg width="18" height="18" viewBox="0 0 18 18" fill="none" xmlns="http://www.w3.org/2000/svg">
<path fill-rule="evenodd" clip-rule="evenodd" d="M9 1C4.58011 1 1 4.67017 1 9.20125C1 12.8261 3.29343 15.8972 6.47084 16.9846C6.86863 17.0602 7.01596 16.8084 7.01596 16.5869C7.01596 16.4286 7.01277 16.0641 7.00896 15.5699C7.00745 15.375 6.83323 15.2317 6.6471 15.2565C4.82822 15.4987 4.35701 14.2357 4.31346 14.1056C4.31084 14.0977 4.30846 14.0908 4.30548 14.0831C3.98539 13.2575 3.5427 12.9656 3.44204 12.9079C3.42814 12.8999 3.41371 12.8915 3.40063 12.8821C2.75351 12.42 3.38293 12.399 3.46628 12.3982C3.47222 12.3981 3.4782 12.3984 3.48412 12.3989C4.25299 12.4623 4.67492 13.1941 4.70154 13.2416C4.70247 13.2432 4.70339 13.2449 4.70433 13.2465C5.34764 14.3761 6.35444 14.1899 6.87957 13.9876C6.97491 13.9509 7.03816 13.8598 7.05939 13.7566C7.08644 13.625 7.12209 13.5051 7.16417 13.3969C7.26047 13.1492 7.12677 12.7739 6.87434 12.7225C5.32432 12.4072 3.89257 11.525 3.89257 8.77331C3.89257 7.95316 4.15172 7.27216 4.59095 6.7226C4.66545 6.62939 4.68726 6.50189 4.65434 6.38569C4.5595 6.05091 4.45465 5.38482 4.74642 4.53923C4.77626 4.45275 4.84567 4.38838 4.93407 4.38494C5.19186 4.37493 5.81914 4.45085 6.88276 5.16642C6.95491 5.21495 7.04386 5.23023 7.12721 5.20838C7.72762 5.05093 8.36381 4.9719 9 4.96721C9.63164 4.96721 10.2718 5.0503 10.8728 5.20833C10.9561 5.23024 11.0451 5.21495 11.1172 5.16642C12.1809 4.45085 12.8081 4.37493 13.0659 4.38494C13.1543 4.38838 13.2237 4.45275 13.2536 4.53923C13.5456 5.38565 13.4403 6.0522 13.3454 6.38666C13.3126 6.50234 13.3339 6.62929 13.4077 6.7224C13.8433 7.272 14.1025 7.95306 14.1025 8.77331C14.1025 11.5258 12.6753 12.4005 11.1263 12.7154C10.8715 12.7672 10.7359 13.152 10.8333 13.4019C10.931 13.6527 10.9939 13.9655 10.9939 14.3415C10.9939 15.439 10.984 16.3201 10.984 16.5919C10.984 16.8135 11.1265 17.0652 11.5341 16.9846C14.7115 15.8972 17 12.8261 17 9.20628C17 4.67017 13.4199 1 9 1Z" fill="#0E0F16"/>
</svg>
