<svg width="40" height="40" viewBox="0 0 40 40" fill="none" xmlns="http://www.w3.org/2000/svg">
<rect width="40" height="40" rx="20" fill="#61AAF5"/>
<path fill-rule="evenodd" clip-rule="evenodd" d="M13.2403 10.9109C13.6963 11.0184 13.9827 11.1694 14.3087 11.4743C15.1488 12.2599 15.1675 13.648 14.349 14.4631C13.4473 15.3612 11.7175 15.3494 10.8785 14.4395C10.2649 13.7739 10.1361 12.8384 10.5441 12.0098C10.9877 11.1089 12.121 10.6471 13.2403 10.9109ZM25.7634 16.5994C26.6884 16.7773 27.3428 17.1182 27.9776 17.7529C28.7619 18.537 29.16 19.4098 29.3524 20.7673C29.4187 21.2353 29.4348 22.0894 29.4356 25.1956C29.4363 27.724 29.4175 29.0558 29.3809 29.0784C29.3503 29.0973 28.4501 29.113 27.3806 29.1131C25.5879 29.1133 25.4305 29.1058 25.365 29.0162C25.3087 28.9393 25.2939 28.1778 25.2939 25.3766C25.2939 22.0525 25.2873 21.8084 25.1868 21.4157C25.0482 20.874 24.9134 20.6166 24.6089 20.3121C23.5507 19.2542 21.8045 19.7229 21.184 21.2315C21.0714 21.5052 21.0675 21.6151 21.0407 25.2955L21.0131 29.0781L19.0006 29.0926C17.572 29.1029 16.9772 29.0894 16.9503 29.0459C16.8868 28.943 16.902 16.9388 16.9658 16.8604C17.0088 16.8075 17.4839 16.7914 18.9978 16.7914C20.7485 16.7914 20.9774 16.8013 21.0072 16.8787C21.0256 16.9268 21.0415 17.2933 21.0426 17.6933L21.0444 18.4204L21.2176 18.1995C22.3466 16.7599 23.8487 16.2311 25.7634 16.5994ZM14.655 16.8787C14.6734 16.9268 14.6885 19.6696 14.6885 22.9739C14.6885 28.2327 14.6782 28.9903 14.6061 29.0501C14.4872 29.1487 10.6541 29.1354 10.591 29.0361C10.5385 28.9534 10.5302 16.8806 10.5826 16.8282C10.6029 16.808 11.5199 16.7914 12.6205 16.7914C14.3942 16.7914 14.6253 16.8013 14.655 16.8787Z" fill="#0E0F16"/>
</svg>
