<svg width="134" height="26" viewBox="0 0 134 26" fill="none" xmlns="http://www.w3.org/2000/svg">
<path fill-rule="evenodd" clip-rule="evenodd" d="M134 13C134 15.6537 133.497 17.9113 132.492 19.7728C131.495 21.6343 130.134 23.0562 128.408 24.0385C126.691 25.0128 124.76 25.5 122.615 25.5C120.454 25.5 118.515 25.0089 116.798 24.0266C115.08 23.0444 113.723 21.6225 112.726 19.7609C111.728 17.8994 111.23 15.6458 111.23 13C111.23 10.3463 111.728 8.08872 112.726 6.22719C113.723 4.36565 115.08 2.94772 116.798 1.97339C118.515 0.991128 120.454 0.5 122.615 0.5C124.76 0.5 126.691 0.991128 128.408 1.97339C130.134 2.94772 131.495 4.36565 132.492 6.22719C133.497 8.08872 134 10.3463 134 13ZM128.788 13C128.788 11.2811 128.531 9.83143 128.017 8.65114C127.51 7.47085 126.794 6.57573 125.868 5.96578C124.942 5.35583 123.857 5.05086 122.615 5.05086C121.372 5.05086 120.288 5.35583 119.362 5.96578C118.436 6.57573 117.716 7.47085 117.201 8.65114C116.695 9.83143 116.442 11.2811 116.442 13C116.442 14.7189 116.695 16.1686 117.201 17.3489C117.716 18.5292 118.436 19.4243 119.362 20.0342C120.288 20.6442 121.372 20.9491 122.615 20.9491C123.857 20.9491 124.942 20.6442 125.868 20.0342C126.794 19.4243 127.51 18.5292 128.017 17.3489C128.531 16.1686 128.788 14.7189 128.788 13ZM93.7861 19.6185L91.9824 25.1675H86.474L94.8673 0.832878H101.492L109.873 25.1675H104.365L102.565 19.6185H93.7861ZM101.262 15.6024L98.2745 6.39371H98.0845L95.0914 15.6024H101.262ZM79.4401 2.3049C77.6752 1.33057 75.5699 0.843401 73.1244 0.843401H64.4343V25.178H73.0531C75.5225 25.178 77.6436 24.6908 79.4164 23.7165C81.1972 22.7422 82.5624 21.344 83.5121 19.5221C84.4698 17.7002 84.9486 15.5218 84.9486 12.9869C84.9486 10.46 84.4698 8.28954 83.5121 6.47553C82.5624 4.66152 81.2051 3.27132 79.4401 2.3049ZM76.674 19.9617C75.6372 20.5004 74.359 20.7697 72.8395 20.7697H69.5748V5.25167H72.8513C74.371 5.25167 75.6491 5.521 76.6859 6.05965C77.7227 6.59831 78.5023 7.43798 79.0247 8.57867C79.5549 9.71935 79.82 11.1888 79.82 12.9869C79.82 14.8009 79.5549 16.2822 79.0247 17.4309C78.5023 18.5715 77.7188 19.4152 76.674 19.9617ZM15.1954 2.29438C13.4304 1.32005 11.3252 0.832878 8.87958 0.832878H0.189453V25.1675H8.80834C11.2777 25.1675 13.3988 24.6803 15.1716 23.706C16.9524 22.7316 18.3176 21.3335 19.2674 19.5116C20.225 17.6897 20.7038 15.5113 20.7038 12.9764C20.7038 10.4495 20.225 8.27901 19.2674 6.46501C18.3176 4.651 16.9603 3.26079 15.1954 2.29438ZM12.4292 19.9512C11.3924 20.4899 10.1142 20.7592 8.59465 20.7592H5.32991V5.24115H8.60652C10.1261 5.24115 11.4043 5.51048 12.4411 6.04913C13.4779 6.58779 14.2575 7.42746 14.7798 8.56814C15.3101 9.70883 15.5752 11.1782 15.5752 12.9764C15.5752 14.7904 15.3101 16.2717 14.7798 17.4203C14.2575 18.561 13.474 19.4046 12.4292 19.9512ZM45.7374 15.5858L42.1392 25.1898V0.806015L50.4207 3.08544L45.7397 15.5795L49.465 5.70164L52.5719 18.0235H52.8174L55.7279 5.70164L59.4905 15.5858L56.3042 25.1941H48.9594L45.7374 15.5858ZM63.1244 25.1941L59.4905 15.5858L54.763 3.08544L63.1244 0.924753V25.1941ZM24.5117 25.1675V0.832878H40.8947V5.0748H29.6521V10.8733H40.0518V15.1152H29.6521V20.9256H40.9422V25.1675H24.5117Z" fill="#3A3D4A"/>
</svg>
