<svg width="70" height="70" viewBox="0 0 70 70" fill="none" xmlns="http://www.w3.org/2000/svg">
<path fill-rule="evenodd" clip-rule="evenodd" d="M39.3889 11.3384C41.9389 19.1165 43.2139 23.0056 45.1042 24.8958C46.9944 26.786 50.8835 28.0611 58.6616 30.6111C65.4956 32.8516 70 35 70 35C70 35 65.4956 37.1484 58.6616 39.3889C50.8835 41.9389 46.9944 43.2139 45.1042 45.1042C43.2139 46.9944 41.9389 50.8835 39.3889 58.6616C37.1484 65.4956 35 70 35 70C35 70 32.8516 65.4956 30.6111 58.6616C28.0611 50.8835 26.7861 46.9944 24.8958 45.1042C23.0056 43.2139 19.1165 41.9389 11.3384 39.3889C4.50439 37.1484 0 35 0 35C0 35 4.50439 32.8516 11.3384 30.6111C19.1165 28.0611 23.0056 26.786 24.8958 24.8958C26.786 23.0056 28.0611 19.1165 30.6111 11.3384C32.8516 4.50438 35 0 35 0C35 0 37.1484 4.50439 39.3889 11.3384Z" fill="url(#paint0_radial_247_906)"/>
<defs>
<radialGradient id="paint0_radial_247_906" cx="0" cy="0" r="1" gradientUnits="userSpaceOnUse" gradientTransform="translate(61.5) rotate(117.929) scale(93.9415 24.1426)">
<stop stop-color="#89C3FF"/>
<stop offset="1" stop-color="#61AAF5"/>
</radialGradient>
</defs>
</svg>
