<svg width="24" height="24" viewBox="0 0 24 24" fill="none" xmlns="http://www.w3.org/2000/svg">
<path fill-rule="evenodd" clip-rule="evenodd" d="M2.44082 11.8182C7.52961 9.60824 10.9173 8.13976 12.6184 7.42733C17.46 5.40635 18.4778 5.05741 19.132 5.04287C19.2774 5.04287 19.5973 5.07195 19.8154 5.24642C19.9899 5.39182 20.0335 5.58083 20.0626 5.72622C20.0916 5.87162 20.1207 6.17694 20.0916 6.40957C19.8299 9.17206 18.6959 15.8747 18.1143 18.9571C17.8671 20.2656 17.3873 20.7018 16.9221 20.7454C15.9043 20.8327 15.1337 20.0766 14.1596 19.4369C12.6184 18.4337 11.7606 17.8085 10.263 16.8198C8.53283 15.6857 9.65236 15.0605 10.641 14.0428C10.9027 13.781 15.3663 9.71002 15.4536 9.34653C15.4681 9.30291 15.4681 9.12844 15.3663 9.0412C15.2646 8.95397 15.1192 8.98305 15.0029 9.01213C14.8429 9.0412 12.4003 10.6696 7.64592 13.8828C6.94803 14.3626 6.32284 14.5953 5.7558 14.5807C5.13061 14.5662 3.93838 14.2318 3.03694 13.941C1.94648 13.592 1.07412 13.403 1.14681 12.7924C1.19043 12.4725 1.62661 12.1526 2.44082 11.8182Z" fill="#0E0F16"/>
</svg>
