<svg width="40" height="40" viewBox="0 0 40 40" fill="none" xmlns="http://www.w3.org/2000/svg">
<rect width="40" height="40" rx="20" fill="#61AAF5"/>
<path fill-rule="evenodd" clip-rule="evenodd" d="M28.8228 11.949L29.0803 12.058L29.2201 12.2151L29.3599 12.3722L29.434 12.7662L29.5082 13.1601L29.3568 14.4401L29.2052 15.7201L29.0065 17.0801L28.8078 18.4401L28.4456 20.6971L28.0833 22.9542L27.6039 25.6571L27.1244 28.3601L26.9956 28.8001L26.8666 29.2401L26.6672 29.5851L26.4676 29.9301L26.214 30.0848L25.9603 30.2395L25.5545 30.2398L25.1488 30.2401L24.7742 30.1125L24.3996 29.9848L23.46 29.3491L22.5203 28.7134L20.1617 27.1367L17.8032 25.5601L17.3817 25.1453L16.9603 24.7305V24.4014V24.0722L17.0748 23.8561L17.1893 23.6401L18.2948 22.5538L19.4003 21.4675L21.3674 19.6175L23.3345 17.7675L23.7074 17.331L24.0803 16.8946V16.7718V16.6491L23.9124 16.5315L23.7444 16.4139L23.4959 16.5006L23.2472 16.5873L18.8212 19.5393L14.3951 22.4913L13.9392 22.7L13.4835 22.9086L12.8699 22.9442L12.2563 22.9797L11.6283 22.8415L11.0003 22.7033L9.84027 22.3467L8.68027 21.9901L8.21531 21.8226L7.75035 21.6551L7.51531 21.4354L7.28027 21.2159V20.9956V20.7753L7.58747 20.483L7.89475 20.1908L10.8075 18.925L13.7203 17.6591L16.1203 16.6216L18.5203 15.5841L20.2403 14.8645L21.9603 14.1449L24.0003 13.3196L26.0403 12.4942L26.7957 12.2403L27.5512 11.9865L27.8757 11.922L28.2003 11.8576L28.3828 11.8489L28.5654 11.8401L28.8228 11.949Z" fill="#0E0F16"/>
</svg>
