<svg width="18" height="18" viewBox="0 0 18 18" fill="none" xmlns="http://www.w3.org/2000/svg">
<path fill-rule="evenodd" clip-rule="evenodd" d="M1.8311 8.86362C5.6477 7.20613 8.18845 6.10477 9.46429 5.57045C13.0955 4.05472 13.8588 3.79301 14.3495 3.7821C14.4586 3.7821 14.6985 3.80391 14.862 3.93477C14.9929 4.04381 15.0256 4.18557 15.0474 4.29462C15.0692 4.40366 15.091 4.63266 15.0692 4.80713C14.8729 6.879 14.0224 11.906 13.5862 14.2178C13.4008 15.1992 13.041 15.5263 12.692 15.559C11.9287 15.6244 11.3508 15.0574 10.6202 14.5776C9.46429 13.8252 8.82092 13.3563 7.69775 12.6148C6.40011 11.7642 7.23976 11.2953 7.98127 10.532C8.17755 10.3357 11.5252 7.28246 11.5907 7.00985C11.6016 6.97714 11.6016 6.84628 11.5252 6.78085C11.4489 6.71543 11.3399 6.73724 11.2526 6.75905C11.1327 6.78086 9.30072 8.00216 5.73493 10.4121C5.21151 10.7719 4.74262 10.9464 4.31734 10.9355C3.84844 10.9246 2.95427 10.6738 2.27819 10.4557C1.46035 10.194 0.806076 10.0522 0.860599 9.59423C0.893313 9.35433 1.22045 9.11443 1.8311 8.86362Z" fill="#0E0F16"/>
</svg>
