<svg width="18" height="18" viewBox="0 0 18 18" fill="none" xmlns="http://www.w3.org/2000/svg">
<path fill-rule="evenodd" clip-rule="evenodd" d="M8.24532 14.2489C8.24979 14.29 8.2543 14.3307 8.25887 14.371C8.3101 14.8231 8.33572 15.0492 8.15067 15.1437C7.96561 15.2382 7.82183 15.1071 7.53427 14.8448C7.26428 14.5986 6.99481 14.2752 6.73646 13.8619C6.20783 13.016 5.79905 11.8893 5.61187 10.5875C5.5675 10.2789 5.54532 10.1247 5.64024 10.0201C5.73516 9.91555 5.8983 9.92309 6.2246 9.93818C6.61183 9.95609 7.01318 9.97035 7.426 9.98065C7.70164 9.98752 7.83947 9.99096 7.92425 10.0757C8.00904 10.1605 8.01248 10.2984 8.01935 10.574C8.05398 11.9623 8.13351 13.2209 8.24532 14.2489ZM10.574 9.98065C10.2984 9.98752 10.1605 9.99096 10.0757 10.0757C9.99096 10.1605 9.98753 10.2984 9.98065 10.574C9.94603 11.9623 9.86649 13.2209 9.75468 14.2489C9.75021 14.29 9.7457 14.3307 9.74113 14.371C9.6899 14.8231 9.66429 15.0492 9.84934 15.1437C10.0344 15.2382 10.1782 15.1071 10.4657 14.8448C10.7357 14.5986 11.0052 14.2752 11.2635 13.8619C11.7922 13.016 12.2009 11.8893 12.3881 10.5875C12.4325 10.2789 12.4547 10.1247 12.3598 10.0201C12.2648 9.91555 12.1017 9.92309 11.7754 9.93818C11.3882 9.95608 10.9868 9.97035 10.574 9.98065ZM12.3881 7.41252C12.4325 7.72106 12.4547 7.87533 12.3598 7.97989C12.2648 8.08445 12.1017 8.0769 11.7754 8.06182C11.3882 8.04391 10.9868 8.02964 10.574 8.01935C10.2984 8.01247 10.1605 8.00904 10.0757 7.92425C9.99096 7.83947 9.98753 7.70163 9.98065 7.42596C9.94603 6.03772 9.86649 4.77908 9.75468 3.75108C9.75022 3.71002 9.7457 3.66932 9.74113 3.62901C9.6899 3.17687 9.66429 2.95081 9.84934 2.85631C10.0344 2.76182 10.1782 2.89293 10.4657 3.15517C10.7357 3.40139 11.0052 3.72478 11.2635 4.13814C11.7922 4.98396 12.2009 6.11073 12.3881 7.41252ZM14.2489 9.75468C14.2283 9.75692 14.218 9.75804 14.2106 9.75922C14.0765 9.78063 13.9784 9.88133 13.9605 10.0159C13.9595 10.0233 13.9586 10.0344 13.9568 10.0564C13.9045 10.6904 13.8059 11.3009 13.6664 11.8791C13.4112 12.9372 13.2837 13.4663 13.5193 13.565C13.755 13.6636 14.0111 13.2519 14.5233 12.4285C14.9131 11.8018 15.1993 11.1039 15.3578 10.3587C15.4286 10.0257 15.464 9.85928 15.3591 9.74528C15.2542 9.63128 15.0702 9.65465 14.7021 9.7014C14.5566 9.71988 14.4054 9.73765 14.2489 9.75468V9.75468ZM15.3578 7.64131C15.4286 7.97424 15.464 8.14071 15.3591 8.25471C15.2542 8.36872 15.0702 8.34534 14.7021 8.29859C14.5566 8.28012 14.4054 8.26234 14.2489 8.24532V8.24532C14.2283 8.24308 14.218 8.24195 14.2106 8.24077C14.0765 8.21937 13.9784 8.11866 13.9605 7.98408C13.9595 7.97665 13.9586 7.96561 13.9568 7.94355C13.9045 7.3096 13.8059 6.69906 13.6664 6.12094C13.4112 5.0628 13.2837 4.53373 13.5193 4.43504C13.755 4.33636 14.0111 4.74806 14.5233 5.57145C14.9131 6.19818 15.1993 6.89614 15.3578 7.64131ZM17 9C17 13.4183 13.4183 17 9 17C4.58172 17 1 13.4183 1 9C1 4.58196 4.58134 1.00038 8.9993 0.999999L9 0.999999C13.4183 0.999998 17 4.58172 17 9ZM3.29791 9.7014C2.92984 9.65466 2.7458 9.63128 2.64091 9.74528C2.53602 9.85929 2.57142 10.0258 2.64222 10.3587C2.80069 11.1039 3.08686 11.8018 3.47672 12.4285C3.98892 13.2519 4.24502 13.6636 4.48069 13.565C4.71635 13.4663 4.58875 12.9372 4.33357 11.8791C4.19415 11.3009 4.09548 10.6904 4.04321 10.0565C4.04139 10.0344 4.04048 10.0233 4.03949 10.0159C4.02159 9.88133 3.92348 9.78063 3.78941 9.75922C3.78201 9.75804 3.7717 9.75692 3.75108 9.75468V9.75468C3.59456 9.73765 3.44338 9.71988 3.29791 9.7014ZM4.04321 7.94354C4.04139 7.96561 4.04048 7.97665 4.03949 7.98408C4.02159 8.11866 3.92348 8.21937 3.78941 8.24077C3.78201 8.24195 3.7717 8.24307 3.75108 8.24532V8.24532C3.59456 8.26234 3.44338 8.28011 3.29791 8.29859C2.92984 8.34534 2.7458 8.36872 2.64091 8.25471C2.53602 8.14071 2.57142 7.97424 2.64222 7.64131C2.80069 6.89613 3.08686 6.19818 3.47673 5.57145C3.98893 4.74806 4.24503 4.33636 4.48069 4.43504C4.71635 4.53373 4.58876 5.06279 4.33357 6.12093C4.19415 6.69906 4.09548 7.3096 4.04321 7.94354ZM6.2246 8.06182C5.8983 8.0769 5.73516 8.08445 5.64024 7.97989C5.54532 7.87533 5.5675 7.72106 5.61187 7.41252C5.79905 6.11073 6.20783 4.98395 6.73646 4.13814C6.99481 3.72478 7.26428 3.40139 7.53427 3.15517C7.82183 2.89293 7.96561 2.76182 8.15066 2.85631C8.33572 2.95081 8.3101 3.17687 8.25887 3.62901C8.2543 3.66932 8.24979 3.71002 8.24532 3.75108C8.13351 4.77908 8.05397 6.03772 8.01935 7.42596C8.01248 7.70163 8.00904 7.83947 7.92425 7.92425C7.83947 8.00904 7.70164 8.01247 7.42599 8.01935C7.01318 8.02964 6.61183 8.04391 6.2246 8.06182Z" fill="#0E0F16"/>
</svg>
