<svg width="40" height="40" viewBox="0 0 40 40" fill="none" xmlns="http://www.w3.org/2000/svg">
<path d="M23.4229 35.8327V33.6203C23.4229 33.0417 23.8755 32.5642 24.4534 32.5332L28.7948 32.3297C29.6692 32.2828 30.399 31.6462 30.564 30.7863L30.7634 26.9068C31.1274 25.011 34.1629 26.1523 33.8285 24.0348C33.3694 22.1558 32.0108 20.2943 31.673 18.5505C31.3572 16.9202 31.2595 15.1405 30.9572 13.3789" stroke="#999999" stroke-width="2" stroke-linecap="round"/>
<path d="M9.77873 11.7935C10.6992 11.7935 11.4454 11.0473 11.4454 10.1269C11.4454 9.2064 10.6992 8.46021 9.77873 8.46021C8.85825 8.46021 8.11206 9.2064 8.11206 10.1269C8.11206 11.0473 8.85825 11.7935 9.77873 11.7935Z" stroke="#999999" stroke-width="2" stroke-linecap="round" stroke-linejoin="round"/>
<path d="M25.5826 11.6993C24.6621 11.6993 23.9159 10.9531 23.9159 10.0326C23.9159 9.11216 24.6621 8.36597 25.5826 8.36597C26.5031 8.36597 27.2493 9.11216 27.2493 10.0326C27.2493 10.9531 26.5031 11.6993 25.5826 11.6993Z" stroke="#999999" stroke-width="2" stroke-linecap="round" stroke-linejoin="round"/>
<path d="M11.1287 11.2859L13.1509 13.3082V18.6871" stroke="#999999" stroke-width="2" stroke-linecap="round" stroke-linejoin="round"/>
<path d="M24.3512 11.2434L22.2859 13.3099V27.3721" stroke="#999999" stroke-width="2" stroke-linecap="round" stroke-linejoin="round"/>
<path d="M17.4731 7.69214V23.5424" stroke="#999999" stroke-width="2" stroke-linecap="round" stroke-linejoin="round"/>
<path d="M17.4984 7.6661C16.5779 7.6661 15.8317 6.9199 15.8317 5.99943C15.8317 5.07896 16.5779 4.33276 17.4984 4.33276C18.4188 4.33276 19.165 5.07896 19.165 5.99943C19.165 6.9199 18.4188 7.6661 17.4984 7.6661Z" stroke="#999999" stroke-width="2" stroke-linecap="round" stroke-linejoin="round"/>
<path d="M9.35599 35.8325C9.35599 35.8325 10.2 27.8743 8.81922 24.5488C7.43854 21.2235 5.88817 18.0967 6.18194 14.6484" stroke="#999999" stroke-width="2" stroke-linecap="round"/>
</svg>
