<svg width="40" height="40" viewBox="0 0 40 40" fill="none" xmlns="http://www.w3.org/2000/svg">
<path d="M9.70874 30.5548L11.3268 28.9363" stroke="#999999" stroke-width="2" stroke-linecap="round" stroke-linejoin="round"/>
<path d="M30.7424 30.5185L29.1226 28.9001" stroke="#999999" stroke-width="2" stroke-linecap="round" stroke-linejoin="round"/>
<path d="M9.66968 9.51904L11.2878 11.1358" stroke="#999999" stroke-width="2" stroke-linecap="round" stroke-linejoin="round"/>
<path d="M30.7067 9.48291L29.0869 11.1013" stroke="#999999" stroke-width="2" stroke-linecap="round" stroke-linejoin="round"/>
<path d="M20.1904 33.3333V35.0003" stroke="#999999" stroke-width="2" stroke-linecap="round" stroke-linejoin="round"/>
<path d="M20.1904 5V6.667" stroke="#999999" stroke-width="2" stroke-linecap="round" stroke-linejoin="round"/>
<path d="M6.93211 20H5.19043" stroke="#999999" stroke-width="2" stroke-linecap="round" stroke-linejoin="round"/>
<path d="M35.1904 20H33.4487" stroke="#999999" stroke-width="2" stroke-linecap="round" stroke-linejoin="round"/>
<path d="M20.1909 13.1372C21.1918 16.4256 23.7653 18.9992 27.0534 20.0002C23.7653 21.001 21.1918 23.5745 20.1909 26.863C19.1901 23.5745 16.6166 21.001 13.3284 20.0002C16.6166 18.9992 19.1901 16.4256 20.1909 13.1372Z" stroke="#999999" stroke-width="2" stroke-linecap="round" stroke-linejoin="round"/>
<path d="M35.1905 20C35.1905 11.7167 28.4753 5 20.1905 5C11.9056 5 5.19043 11.7167 5.19043 20C5.19043 28.2848 11.9056 35 20.1905 35C28.4753 35 35.1905 28.2848 35.1905 20Z" stroke="#999999" stroke-width="2" stroke-linecap="round" stroke-linejoin="round"/>
</svg>
