<svg width="40" height="40" viewBox="0 0 40 40" fill="none" xmlns="http://www.w3.org/2000/svg">
<path d="M26.9623 32.8128C26.9623 29.7653 24.9099 26.1052 19.2598 25.1013" stroke="#999999" stroke-width="2" stroke-linecap="round" stroke-linejoin="round"/>
<path fill-rule="evenodd" clip-rule="evenodd" d="M23.0172 12.7517C23.0172 16.6062 19.8929 19.7305 16.0384 19.7305C12.1856 19.7305 9.06128 16.6062 9.06128 12.7517C9.06128 8.89723 12.1856 5.77295 16.0384 5.77295C19.8929 5.77295 23.0172 8.89723 23.0172 12.7517Z" stroke="#999999" stroke-width="2" stroke-linecap="round" stroke-linejoin="round"/>
<path d="M29.0229 24.2874C33.6028 25.2275 35.0001 28.5425 35.0001 31.0869" stroke="#999999" stroke-width="2" stroke-linecap="round" stroke-linejoin="round"/>
<path d="M27.4734 8.59448C29.8287 9.08558 31.5929 11.176 31.5847 13.6751C31.5767 15.8867 30.1826 17.7703 28.2246 18.5021" stroke="#999999" stroke-width="2" stroke-linecap="round" stroke-linejoin="round"/>
<path d="M9.14242 32.2448L8.9812 31.8086C8.37338 30.1634 7.07828 28.8664 5.43557 28.2578L5 28.0963L5.43557 27.9349C7.07828 27.3261 8.37338 26.0291 8.9812 24.3841L9.14242 23.9478L9.30363 24.3841C9.91145 26.0291 11.2065 27.3261 12.8493 27.9349L13.285 28.0963L12.8493 28.2578C11.2065 28.8664 9.91145 30.1634 9.30363 31.8086L9.14242 32.2448Z" stroke="#999999" stroke-width="2" stroke-linecap="round" stroke-linejoin="round"/>
<path d="M17.6179 34.2271C17.3439 33.3259 16.6398 32.6206 15.74 32.3462C16.6398 32.0721 17.3439 31.3667 17.6179 30.4656C17.8917 31.3667 18.5959 32.0721 19.4957 32.3462C18.5959 32.6206 17.8917 33.3259 17.6179 34.2271Z" stroke="#999999" stroke-width="2" stroke-linecap="round" stroke-linejoin="round"/>
</svg>
