<svg width="40" height="40" viewBox="0 0 40 40" fill="none" xmlns="http://www.w3.org/2000/svg">
<path d="M11.3243 10.479H28.674C32.5725 10.479 35 13.2309 35 17.1261V27.6374C35 31.5326 32.5725 34.2844 28.6725 34.2844H11.3243C7.42595 34.2844 5 31.5326 5 27.6374V17.1261C5 13.2309 7.4373 10.479 11.3243 10.479Z" stroke="#999999" stroke-width="2" stroke-linecap="round" stroke-linejoin="round"/>
<path d="M14.4011 10.452V9.41498C14.4011 7.37173 16.0568 5.71606 18.1001 5.71606H21.9011C23.9444 5.71606 25.6001 7.37173 25.6001 9.41498V10.4621" stroke="#999999" stroke-width="2" stroke-linecap="round" stroke-linejoin="round"/>
<path d="M16.7569 25.6788L16.5886 25.2232C15.9539 23.5052 14.6013 22.1508 12.8858 21.5149L12.4309 21.3464L12.8858 21.1778C14.6013 20.5421 15.9539 19.1876 16.5886 17.4696L16.7569 17.0139L16.9253 17.4696C17.5601 19.1876 18.9126 20.5421 20.6283 21.1778L21.0833 21.3464L20.6283 21.5149C18.9126 22.1508 17.5601 23.5052 16.9253 25.2232L16.7569 25.6788Z" stroke="#999999" stroke-width="2" stroke-linecap="round" stroke-linejoin="round"/>
<path d="M25.6081 27.749C25.322 26.8078 24.5866 26.0713 23.647 25.785C24.5866 25.4985 25.322 24.762 25.6081 23.8208C25.8941 24.762 26.6295 25.4985 27.5691 25.785C26.6295 26.0713 25.8941 26.8078 25.6081 27.749Z" stroke="#999999" stroke-width="2" stroke-linecap="round" stroke-linejoin="round"/>
</svg>
