<svg width="40" height="40" viewBox="0 0 40 40" fill="none" xmlns="http://www.w3.org/2000/svg">
<path d="M17.6564 27.8341C18.8472 27.6608 20.0594 27.8358 21.2617 27.808C24.0507 27.741 26.2361 25.3838 28.3592 23.784C29.4437 22.9678 30.9634 23.0758 31.9219 24.0391C32.9869 25.1073 32.9869 26.8413 31.9219 27.9095C29.6286 30.211 27.6036 32.3473 24.4956 33.556C20.1837 35.2326 16.1827 34.4181 11.8152 33.556C10.1254 33.2208 8.56818 33.2011 6.85718 33.2011" stroke="#999999" stroke-width="2" stroke-linecap="round" stroke-linejoin="round"/>
<path d="M17.6532 27.7661H20.0071C21.6886 27.7661 23.0462 26.5572 23.0462 24.8757C23.0462 23.4787 22.1009 22.3616 20.7464 22.0214C18.8081 21.5356 16.8729 21.1544 14.8495 21.2017C11.6418 21.2804 9.39914 23.0666 6.85718 24.7694" stroke="#999999" stroke-width="2" stroke-linecap="round" stroke-linejoin="round"/>
<path d="M25.7927 6.31714L26.0263 6.94857C26.9073 9.32949 28.7845 11.2067 31.1655 12.0877L31.7968 12.3214L31.1655 12.555C28.7845 13.436 26.9073 15.3133 26.0263 17.6942L25.7927 18.3257L25.559 17.6942C24.678 15.3133 22.8008 13.436 20.4198 12.555L19.7883 12.3214L20.4198 12.0877C22.8008 11.2067 24.678 9.32949 25.559 6.94857L25.7927 6.31714Z" stroke="#999999" stroke-width="2" stroke-linecap="round" stroke-linejoin="round"/>
<path d="M13.5083 3.9021C14.0143 5.5645 15.3152 6.86552 16.9775 7.3715C15.3152 7.87748 14.0143 9.1785 13.5083 10.8409C13.0023 9.1785 11.7014 7.87748 10.0391 7.3715C11.7014 6.86552 13.0023 5.5645 13.5083 3.9021Z" stroke="#999999" stroke-width="2" stroke-linecap="round" stroke-linejoin="round"/>
</svg>
