<svg width="109" height="28" viewBox="0 0 109 28" fill="none" xmlns="http://www.w3.org/2000/svg">
<path fill-rule="evenodd" clip-rule="evenodd" d="M3.39945 21.0622C4.44867 21.7467 5.59231 22.0889 6.83039 22.0889C7.98452 22.0889 8.92881 21.8296 9.66327 21.3111C10.3977 20.7719 10.9643 20.0874 11.363 19.2578C11.7344 18.5053 12.0072 17.7284 12.1814 16.9271V18.6667C12.1814 18.9985 12.2024 19.4133 12.2443 19.9111C12.2863 20.4089 12.3178 20.8444 12.3388 21.2178L12.4017 21.7778H14.6995V6.22222H12.1814V10.5337C12.1429 10.3378 12.101 10.145 12.0555 9.95556C11.7827 8.73185 11.2581 7.75704 10.4817 7.03111C9.72622 6.28444 8.61405 5.91111 7.14515 5.91111C5.80216 5.91111 4.58507 6.2637 3.49388 6.96889C2.42369 7.67407 1.57382 8.63852 0.944293 9.86222C0.314764 11.0859 0 12.4756 0 14.0311C0 15.5867 0.304272 16.9763 0.912817 18.2C1.54235 19.403 2.37122 20.357 3.39945 21.0622ZM12.1814 14.0311C12.1814 15.0681 12.0135 16.0222 11.6778 16.8933C11.342 17.7437 10.8174 18.4281 10.1039 18.9467C9.41145 19.4652 8.53011 19.7244 7.45991 19.7244C6.51562 19.7244 5.66576 19.4859 4.91032 19.0089C4.17587 18.5111 3.58831 17.837 3.14764 16.9867C2.72796 16.1156 2.51811 15.1304 2.51811 14.0311C2.51811 12.3719 2.94829 11.003 3.80865 9.92445C4.669 8.82519 5.88609 8.27556 7.45991 8.27556C8.50913 8.27556 9.37998 8.52445 10.0725 9.02222C10.7859 9.49926 11.3105 10.1733 11.6463 11.0444C12.003 11.8948 12.1814 12.8904 12.1814 14.0311ZM21.3831 18.9467C20.7745 18.3867 20.4388 17.6607 20.3758 16.7689H18.0466C18.0046 17.08 18.0256 17.4637 18.1095 17.92C18.1935 18.3763 18.3613 18.843 18.6131 19.32C18.8859 19.797 19.2637 20.2533 19.7463 20.6889C20.2289 21.1037 20.827 21.4459 21.5405 21.7156C22.2749 21.9644 23.1562 22.0889 24.1845 22.0889C25.3176 22.0889 26.2724 21.9022 27.0488 21.5289C27.8462 21.1556 28.4443 20.637 28.843 19.9733C29.2627 19.2889 29.4725 18.5111 29.4725 17.64C29.4725 16.9141 29.3361 16.3126 29.0633 15.8356C28.8115 15.3378 28.4653 14.923 28.0246 14.5911C27.5839 14.2593 27.0803 13.9689 26.5137 13.72C25.9472 13.4711 25.3596 13.2222 24.7511 12.9733C24.1425 12.7244 23.5654 12.4859 23.0198 12.2578C22.4952 12.0089 22.0651 11.7393 21.7293 11.4489C21.3936 11.1378 21.2257 10.7541 21.2257 10.2978C21.2257 9.67556 21.4565 9.17778 21.9182 8.80444C22.3798 8.43111 23.0408 8.24444 23.9012 8.24444C24.7406 8.24444 25.3806 8.46222 25.8212 8.89778C26.2829 9.31259 26.5872 9.98667 26.7341 10.92H28.9059C28.885 9.92445 28.6751 9.05333 28.2764 8.30667C27.8987 7.53926 27.3426 6.94815 26.6082 6.53333C25.8947 6.11852 25.0134 5.91111 23.9641 5.91111C23.1877 5.91111 22.4743 6.02519 21.8237 6.25333C21.1942 6.48148 20.6381 6.80296 20.1555 7.21778C19.6938 7.61185 19.3371 8.08889 19.0853 8.64889C18.8335 9.18815 18.7076 9.76889 18.7076 10.3911C18.7076 11.1378 18.8754 11.7807 19.2112 12.32C19.5469 12.8385 19.9876 13.2844 20.5332 13.6578C21.0998 14.0104 21.6978 14.3215 22.3274 14.5911C22.9779 14.84 23.6074 15.0785 24.216 15.3067C24.7406 15.4726 25.2022 15.6489 25.6009 15.8356C26.0206 16.0222 26.3459 16.2607 26.5767 16.5511C26.8285 16.8207 26.9544 17.1941 26.9544 17.6711C26.9544 18.0652 26.86 18.4282 26.6711 18.76C26.4823 19.0711 26.178 19.32 25.7583 19.5067C25.3596 19.6933 24.8035 19.7867 24.09 19.7867C22.9149 19.7867 22.0126 19.5067 21.3831 18.9467ZM46.7506 9.27111C46.5685 9.69657 46.4321 10.0898 46.3414 10.4507V6.22222H43.8233V21.7778H46.3414V12.806C46.4866 12.3116 46.6965 11.8074 46.971 11.2933C47.3906 10.5259 47.9572 9.88296 48.6707 9.36445C49.4051 8.82519 50.3075 8.55556 51.3777 8.55556V5.91111C50.5173 5.91111 49.7828 6.07704 49.1743 6.40889C48.5658 6.74074 48.0621 7.16593 47.6634 7.68445C47.2857 8.18222 46.9814 8.71111 46.7506 9.27111ZM60.162 22.0889C58.924 22.0889 57.7803 21.7467 56.7311 21.0622C55.7029 20.357 54.874 19.403 54.2445 18.2C53.6359 16.9763 53.3316 15.5867 53.3316 14.0311C53.3316 12.4756 53.6464 11.0859 54.2759 9.86222C54.9055 8.63852 55.7553 7.67407 56.8255 6.96889C57.9167 6.2637 59.1338 5.91111 60.4768 5.91111C61.9457 5.91111 63.0579 6.28444 63.8133 7.03111C64.5897 7.75704 65.1143 8.73185 65.3871 9.95556C65.4326 10.145 65.4746 10.3378 65.513 10.5337V6.22222H68.0311V21.7778H65.7334L65.6704 21.2178C65.6494 20.8444 65.618 20.4089 65.576 19.9111C65.534 19.4133 65.513 18.9985 65.513 18.6667V16.9271C65.3388 17.7284 65.066 18.5053 64.6946 19.2578C64.2959 20.0874 63.7294 20.7719 62.9949 21.3111C62.2605 21.8296 61.3162 22.0889 60.162 22.0889ZM65.0094 16.8933C65.3452 16.0222 65.513 15.0681 65.513 14.0311C65.513 12.8904 65.3347 11.8948 64.9779 11.0444C64.6422 10.1733 64.1176 9.49926 63.4041 9.02222C62.7116 8.52445 61.8408 8.27556 60.7916 8.27556C59.2177 8.27556 58.0007 8.82519 57.1403 9.92445C56.2799 11.003 55.8498 12.3719 55.8498 14.0311C55.8498 15.1304 56.0596 16.1156 56.4793 16.9867C56.92 17.837 57.5075 18.5111 58.242 19.0089C58.9974 19.4859 59.8473 19.7244 60.7916 19.7244C61.8618 19.7244 62.7431 19.4652 63.4356 18.9467C64.149 18.4281 64.6737 17.7437 65.0094 16.8933ZM84.0162 21.5413L77.9715 6.22222H80.6785L85.3107 18.4995L89.9326 6.22222H92.6081L83.8262 28H81.0877L84.0162 21.5413ZM102.706 13.8157L108.185 6.22222H105.132L101.251 11.819L97.1685 6.22222H94.0208L99.7653 13.9056L94.0208 21.7778H97.0741L101.221 15.8998L105.447 21.7778H108.5L102.706 13.8157ZM74.9665 0H72.4484V21.7778H74.9665V0ZM31.5942 6.22222H34.9622V2.17778H37.4803V6.22222H40.8483V8.55556H37.4803V21.7778H34.9622V8.55556H31.5942V6.22222Z" fill="url(#paint0_radial_375_1438)"/>
<defs>
<radialGradient id="paint0_radial_375_1438" cx="0" cy="0" r="1" gradientUnits="userSpaceOnUse" gradientTransform="translate(54.25) rotate(90) scale(37.625 72.8984)">
<stop stop-color="#9CF100"/>
<stop offset="1" stop-color="#00A500"/>
</radialGradient>
</defs>
</svg>
