<svg width="198" height="36" viewBox="0 0 198 36" fill="none" xmlns="http://www.w3.org/2000/svg">
<path d="M36 0H47.5L2 36H0L36 0Z" fill="url(#paint0_radial_449_1789)"/>
<path d="M54 0H65.5L23.5 36H21.5L54 0Z" fill="url(#paint1_radial_449_1789)"/>
<path d="M36 0H47.5L46 36H44L36 0Z" fill="url(#paint2_radial_449_1789)"/>
<path fill-rule="evenodd" clip-rule="evenodd" d="M77.3851 26.0711C78.5842 26.8533 79.8912 27.2444 81.3062 27.2444C82.6252 27.2444 83.7044 26.9481 84.5437 26.3556C85.3831 25.7393 86.0306 24.957 86.4863 24.0089C86.9107 23.1489 87.2225 22.261 87.4216 21.3453V23.3333C87.4216 23.7126 87.4456 24.1867 87.4935 24.7556C87.5415 25.3244 87.5775 25.8222 87.6014 26.2489L87.6734 26.8889H90.2994V9.11111H87.4216V14.0385C87.3776 13.8146 87.3297 13.5943 87.2777 13.3778C86.9659 11.9793 86.3664 10.8652 85.479 10.0356C84.6157 9.18222 83.3446 8.75556 81.6659 8.75556C80.131 8.75556 78.7401 9.15852 77.493 9.96445C76.2699 10.7704 75.2987 11.8726 74.5792 13.2711C73.8597 14.6696 73.5 16.2578 73.5 18.0356C73.5 19.8133 73.8477 21.4015 74.5432 22.8C75.2627 24.1748 76.21 25.2652 77.3851 26.0711ZM87.4216 18.0356C87.4216 19.2207 87.2297 20.3111 86.846 21.3067C86.4623 22.2785 85.8627 23.0607 85.0474 23.6533C84.2559 24.2459 83.2487 24.5422 82.0256 24.5422C80.9464 24.5422 79.9752 24.2696 79.1118 23.7244C78.2724 23.1556 77.6009 22.3852 77.0973 21.4133C76.6177 20.4178 76.3778 19.2919 76.3778 18.0356C76.3778 16.1393 76.8695 14.5748 77.8527 13.3422C78.836 12.0859 80.227 11.4578 82.0256 11.4578C83.2247 11.4578 84.22 11.7422 85.0114 12.3111C85.8268 12.8563 86.4263 13.6267 86.81 14.6222C87.2177 15.5941 87.4216 16.7319 87.4216 18.0356ZM97.9378 23.6533C97.2423 23.0133 96.8586 22.1837 96.7867 21.1644H94.1247C94.0767 21.52 94.1007 21.9585 94.1966 22.48C94.2925 23.0015 94.4844 23.5348 94.7722 24.08C95.0839 24.6252 95.5156 25.1467 96.0672 25.6444C96.6188 26.1185 97.3023 26.5096 98.1177 26.8178C98.957 27.1022 99.9643 27.2444 101.139 27.2444C102.434 27.2444 103.526 27.0311 104.413 26.6044C105.324 26.1778 106.008 25.5852 106.463 24.8267C106.943 24.0444 107.183 23.1556 107.183 22.16C107.183 21.3304 107.027 20.643 106.715 20.0978C106.427 19.5289 106.032 19.0548 105.528 18.6756C105.024 18.2963 104.449 17.9644 103.801 17.68C103.154 17.3956 102.482 17.1111 101.787 16.8267C101.091 16.5422 100.432 16.2696 99.8084 16.0089C99.2088 15.7244 98.7172 15.4163 98.3335 15.0844C97.9498 14.7289 97.7579 14.2904 97.7579 13.7689C97.7579 13.0578 98.0217 12.4889 98.5493 12.0622C99.0769 11.6356 99.8324 11.4222 100.816 11.4222C101.775 11.4222 102.506 11.6711 103.01 12.1689C103.538 12.643 103.885 13.4133 104.053 14.48H106.535C106.511 13.3422 106.272 12.3467 105.816 11.4933C105.384 10.6163 104.749 9.94074 103.909 9.46667C103.094 8.99259 102.087 8.75556 100.888 8.75556C100 8.75556 99.1849 8.88593 98.4414 9.14667C97.722 9.40741 97.0864 9.77482 96.5348 10.2489C96.0072 10.6993 95.5995 11.2444 95.3118 11.8844C95.024 12.5007 94.8801 13.1644 94.8801 13.8756C94.8801 14.7289 95.0719 15.4637 95.4557 16.08C95.8394 16.6726 96.343 17.1822 96.9665 17.6089C97.614 18.0119 98.2975 18.3674 99.017 18.6756C99.7604 18.96 100.48 19.2326 101.175 19.4933C101.775 19.683 102.303 19.8844 102.758 20.0978C103.238 20.3111 103.61 20.5837 103.873 20.9156C104.161 21.2237 104.305 21.6504 104.305 22.1956C104.305 22.6459 104.197 23.0607 103.981 23.44C103.765 23.7956 103.418 24.08 102.938 24.2933C102.482 24.5067 101.847 24.6133 101.031 24.6133C99.6885 24.6133 98.6573 24.2933 97.9378 23.6533ZM126.929 12.5956C126.721 13.0818 126.565 13.5311 126.462 13.9436V9.11111H123.584V26.8889H126.462V16.6354C126.628 16.0704 126.867 15.4942 127.181 14.9067C127.661 14.0296 128.308 13.2948 129.124 12.7022C129.963 12.0859 130.994 11.7778 132.217 11.7778V8.75556C131.234 8.75556 130.395 8.94519 129.699 9.32445C129.004 9.70371 128.428 10.1896 127.972 10.7822C127.541 11.3511 127.193 11.9556 126.929 12.5956ZM142.257 27.2444C140.842 27.2444 139.535 26.8533 138.336 26.0711C137.16 25.2652 136.213 24.1748 135.494 22.8C134.798 21.4015 134.45 19.8133 134.45 18.0356C134.45 16.2578 134.81 14.6696 135.53 13.2711C136.249 11.8726 137.22 10.7704 138.443 9.96445C139.691 9.15852 141.081 8.75556 142.616 8.75556C144.295 8.75556 145.566 9.18222 146.429 10.0356C147.317 10.8652 147.916 11.9793 148.228 13.3778C148.28 13.5943 148.328 13.8146 148.372 14.0385V9.11111H151.25V26.8889H148.624L148.552 26.2489C148.528 25.8222 148.492 25.3244 148.444 24.7556C148.396 24.1867 148.372 23.7126 148.372 23.3333V21.3453C148.173 22.261 147.861 23.1489 147.437 24.0089C146.981 24.957 146.334 25.7393 145.494 26.3556C144.655 26.9481 143.576 27.2444 142.257 27.2444ZM147.796 21.3067C148.18 20.3111 148.372 19.2207 148.372 18.0356C148.372 16.7319 148.168 15.5941 147.76 14.6222C147.377 13.6267 146.777 12.8563 145.962 12.3111C145.17 11.7422 144.175 11.4578 142.976 11.4578C141.177 11.4578 139.786 12.0859 138.803 13.3422C137.82 14.5748 137.328 16.1393 137.328 18.0356C137.328 19.2919 137.568 20.4178 138.048 21.4133C138.551 22.3852 139.223 23.1556 140.062 23.7244C140.926 24.2696 141.897 24.5422 142.976 24.5422C144.199 24.5422 145.206 24.2459 145.998 23.6533C146.813 23.0607 147.413 22.2785 147.796 21.3067ZM169.518 26.6186L162.61 9.11111H165.704L170.998 23.1422L176.28 9.11111H179.338L169.301 34H166.172L169.518 26.6186ZM190.878 17.7894L197.14 9.11111H193.651L189.215 15.5074L184.55 9.11111H180.952L187.518 17.8922L180.952 26.8889H184.442L189.181 20.1712L194.011 26.8889H197.5L190.878 17.7894ZM159.176 2H156.298V26.8889H159.176V2ZM109.608 9.11111H113.457V4.48889H116.335V9.11111H120.184V11.7778H116.335V26.8889H113.457V11.7778H109.608V9.11111Z" fill="url(#paint3_radial_449_1789)"/>
<defs>
<radialGradient id="paint0_radial_449_1789" cx="0" cy="0" r="1" gradientUnits="userSpaceOnUse" gradientTransform="translate(32.5 -3.5) rotate(99.5742) scale(52.6078)">
<stop stop-color="#9CF100"/>
<stop offset="1" stop-color="#00A500"/>
</radialGradient>
<radialGradient id="paint1_radial_449_1789" cx="0" cy="0" r="1" gradientUnits="userSpaceOnUse" gradientTransform="translate(60 -2.85357e-06) rotate(106.429) scale(40.6602 40.6602)">
<stop stop-color="#9CF100"/>
<stop offset="1" stop-color="#00A500"/>
</radialGradient>
<radialGradient id="paint2_radial_449_1789" cx="0" cy="0" r="1" gradientUnits="userSpaceOnUse" gradientTransform="translate(50 34.5) rotate(-130.533) scale(45.3927 45.3927)">
<stop stop-color="#9CF100"/>
<stop offset="1" stop-color="#00A500"/>
</radialGradient>
<radialGradient id="paint3_radial_449_1789" cx="0" cy="0" r="1" gradientUnits="userSpaceOnUse" gradientTransform="translate(135.5 2) rotate(90) scale(43 83.3125)">
<stop stop-color="#9CF100"/>
<stop offset="1" stop-color="#00A500"/>
</radialGradient>
</defs>
</svg>
