<svg width="1056" height="80" viewBox="0 0 1056 80" fill="none" xmlns="http://www.w3.org/2000/svg">
<rect x="8" width="80" height="80" rx="40" fill="white" fill-opacity="0.02"/>
<rect x="8.5" y="0.5" width="79" height="79" rx="39.5" stroke="url(#paint0_linear_337_1187)" stroke-opacity="0.08"/>
<path d="M39.6665 64.9997C44.2665 64.9997 47.9998 61.2664 47.9998 56.6665V48.3333H39.6665C35.0665 48.3333 31.3333 52.0665 31.3333 56.6665C31.3333 61.2664 35.0665 64.9997 39.6665 64.9997Z" fill="#0ACF83"/>
<path d="M31.3333 40C31.3333 35.4 35.0665 31.6667 39.6665 31.6667H47.9998V48.3332H39.6665C35.0665 48.3332 31.3333 44.5999 31.3333 40Z" fill="#A259FF"/>
<path d="M31.3333 23.3335C31.3333 18.7335 35.0665 15.0002 39.6665 15.0002H47.9998V31.6667H39.6665C35.0665 31.6667 31.3333 27.9334 31.3333 23.3335Z" fill="#F24E1E"/>
<path d="M47.9998 15.0002H56.333C60.933 15.0002 64.6663 18.7335 64.6663 23.3335C64.6663 27.9334 60.933 31.6667 56.333 31.6667H47.9998V15.0002Z" fill="#FF7262"/>
<path d="M64.6663 40C64.6663 44.5999 60.933 48.3332 56.333 48.3332C51.7331 48.3332 47.9998 44.5999 47.9998 40C47.9998 35.4 51.7331 31.6667 56.333 31.6667C60.933 31.6667 64.6663 35.4 64.6663 40Z" fill="#1ABCFE"/>
<rect x="104" width="80" height="80" rx="40" fill="white" fill-opacity="0.02"/>
<rect x="104.5" y="0.5" width="79" height="79" rx="39.5" stroke="url(#paint1_linear_337_1187)" stroke-opacity="0.08"/>
<path d="M121.929 49.0129C121.977 49.1212 122.031 49.2212 122.089 49.3212C122.116 49.3796 122.154 49.44 122.187 49.4941C122.241 49.6025 122.3 49.7066 122.356 49.8108L122.683 50.3608C122.743 50.4629 122.802 50.5629 122.87 50.6629C122.985 50.8587 123.12 51.0504 123.239 51.2462C123.293 51.3275 123.343 51.4087 123.404 51.49C123.633 51.8462 123.841 52.1421 124.064 52.4296C124.222 52.6441 124.381 52.8546 124.552 53.065C124.608 53.1441 124.67 53.2233 124.729 53.3025L125.189 53.8608C125.245 53.9254 125.302 54.0004 125.362 54.067C125.566 54.3129 125.783 54.5504 126 54.7921C126 54.7962 126.006 54.8004 126.01 54.8066C126.279 55.1441 126.568 55.4441 126.885 55.7108L126.893 55.7191C127.06 55.89 127.227 56.0587 127.404 56.2254L127.614 56.4275C127.845 56.6441 128.077 56.8587 128.32 57.067C128.325 57.067 128.327 57.0712 128.331 57.0733L128.45 57.1775C128.662 57.3629 128.877 57.5462 129.095 57.717L129.356 57.9358C129.533 58.0775 129.716 58.2108 129.897 58.3504L130.181 58.567C130.375 58.7129 130.581 58.8545 130.779 58.9962C130.852 59.0483 130.925 59.1004 131 59.1483L131.06 59.1962L131.645 59.5795L131.895 59.7462C132.202 59.942 132.506 60.1254 132.81 60.3087C132.897 60.3525 132.985 60.4004 133.066 60.4504C133.291 60.5795 133.525 60.7108 133.752 60.8295C133.877 60.9004 134.006 60.9608 134.135 61.0254C134.291 61.1129 134.454 61.1983 134.62 61.2858C134.666 61.3004 134.704 61.315 134.741 61.3358L134.75 61.3275C134.818 61.3587 134.883 61.392 134.95 61.4254C135.2 61.5504 135.46 61.6691 135.731 61.7858C135.781 61.8066 135.835 61.8275 135.889 61.8566C136.189 61.9879 136.489 62.1129 136.8 62.2337C136.87 62.2545 136.945 62.29 137.018 62.317C137.3 62.4233 137.589 62.5316 137.877 62.6337L137.981 62.6712C138.3 62.7795 138.614 62.8837 138.939 62.9816C139.014 63.0025 139.091 63.0295 139.17 63.0504C139.502 63.1504 139.822 63.2691 140.158 63.3316C161.56 67.2129 167.779 50.5275 167.779 50.5275C162.554 57.2983 153.281 59.0837 144.5 57.0962C144.175 57.0212 143.85 56.917 143.52 56.8212C143.056 56.6897 142.595 56.5445 142.139 56.3858L142.337 56.4462L142.208 56.3962C141.925 56.3004 141.652 56.1941 141.375 56.0879C141.307 56.0591 141.238 56.0327 141.168 56.0087L141.145 56.0025C140.839 55.8795 140.541 55.7545 140.245 55.6233C140.181 55.6025 140.127 55.5733 140.062 55.5483C139.712 55.3956 139.364 55.2358 139.02 55.0691L139.308 55.1962C139.233 55.163 139.159 55.1269 139.087 55.0879C138.891 54.9962 138.695 54.8921 138.504 54.7941C138.358 54.725 138.214 54.6513 138.072 54.5733L138.114 54.5941C137.879 54.4691 137.643 54.3337 137.406 54.2066C137.335 54.1566 137.254 54.115 137.172 54.0691C136.819 53.8639 136.471 53.6514 136.127 53.4316L136.258 53.5108C136.17 53.4563 136.084 53.3987 136 53.3379L136.012 53.3462C135.788 53.2087 135.569 53.0642 135.354 52.9129C135.283 52.8671 135.218 52.8171 135.145 52.7671C134.921 52.6138 134.7 52.4555 134.483 52.2921L134.533 52.3275C134.445 52.2566 134.352 52.19 134.258 52.1212C134.075 51.9775 133.889 51.84 133.706 51.69L133.46 51.4941C133.198 51.2857 132.941 51.071 132.689 50.8504L132.687 50.8483L131.964 50.1921L131.756 49.9962C131.585 49.8233 131.41 49.6587 131.235 49.4879L131.033 49.2796C130.817 49.0659 130.607 48.8471 130.402 48.6233L130.389 48.6087L130.354 48.5796C130.133 48.3373 129.916 48.0921 129.702 47.8441C129.645 47.7796 129.593 47.7108 129.535 47.6421L129.062 47.0691C128.849 46.8014 128.64 46.5298 128.437 46.2546L128.354 46.1379C123.483 39.5212 121.72 30.39 125.618 22.8983L122.177 27.2504C117.75 33.5816 118.297 41.815 121.683 48.5379C121.76 48.7025 121.845 48.8566 121.929 49.0129V49.0129Z" fill="#1266A9"/>
<path d="M136.839 39.8921L136.816 39.8587L136.797 39.8337L136.839 39.8921Z" fill="black"/>
<path d="M139.168 42.6253L139.356 42.8128C139.593 43.042 139.837 43.2649 140.085 43.4878L140.116 43.5149C140.366 43.7357 140.647 43.967 140.937 44.192L140.981 44.2253C141.052 44.2732 141.112 44.3295 141.181 44.3774C141.472 44.6024 141.766 44.817 142.072 45.0316L142.104 45.0503C142.233 45.1441 142.37 45.2295 142.516 45.3211C142.574 45.3586 142.641 45.4086 142.704 45.4461C142.924 45.5878 143.141 45.7191 143.364 45.8545C143.399 45.8691 143.431 45.8878 143.464 45.9024C143.652 46.017 143.856 46.1274 144.052 46.2274C144.12 46.2691 144.187 46.3003 144.258 46.3399C144.397 46.4086 144.535 46.4816 144.668 46.5524L144.735 46.5816C145.016 46.7191 145.304 46.8482 145.585 46.9753C145.656 47.0024 145.716 47.0253 145.777 47.0545C146.008 47.1545 146.243 47.2503 146.474 47.3378C146.579 47.3732 146.677 47.4149 146.774 47.4461C146.987 47.5253 147.21 47.5982 147.42 47.6711L147.712 47.7649C148.016 47.8586 148.324 47.9816 148.647 48.0316C165.174 50.7524 168.999 38.092 168.999 38.092C165.556 43.0232 158.891 45.3732 151.789 43.5378C151.435 43.4484 151.083 43.3477 150.735 43.2357L150.854 43.2691C150.754 43.242 150.666 43.2107 150.57 43.1816C150.354 43.1066 150.131 43.0336 149.92 42.9566L149.62 42.8441C149.387 42.7503 149.149 42.6628 148.922 42.5628C148.852 42.5316 148.787 42.5107 148.733 42.4795C148.441 42.3482 148.147 42.2191 147.862 42.0816L147.433 41.8586L147.185 41.7336C146.993 41.6336 146.816 41.5295 146.633 41.4232C146.586 41.4013 146.541 41.3762 146.497 41.3482L146.504 41.3503C146.283 41.2128 146.054 41.0795 145.841 40.9399C145.77 40.9003 145.706 40.8524 145.639 40.8107L145.206 40.5295C144.906 40.3211 144.612 40.0982 144.314 39.8816C144.247 39.8211 144.183 39.7711 144.118 39.717C140.995 37.2732 138.533 33.9336 137.364 30.1524C136.133 26.2211 136.404 21.8128 138.531 18.2357L135.916 21.9191C132.706 26.5045 132.887 32.6336 135.387 37.4836C135.843 38.3795 136.306 39.1357 136.816 39.8566C137.291 40.5357 137.816 41.3316 138.449 41.8774C138.674 42.1336 138.916 42.3774 139.168 42.6253V42.6253Z" fill="#1266A9"/>
<path d="M147.47 17.9315C145.577 20.6961 145.395 24.1294 146.699 27.1773C148.085 30.4148 150.916 32.9565 154.216 34.1607C154.352 34.2127 154.483 34.2565 154.622 34.3065L154.806 34.3627C154.997 34.4232 155.191 34.494 155.389 34.5377C164.516 36.2898 166.987 29.8752 167.652 28.9315C165.479 32.0357 161.835 32.7815 157.364 31.7002C156.975 31.6055 156.593 31.4872 156.218 31.3461L156.287 31.369C155.821 31.2077 155.365 31.0199 154.92 30.8065L154.999 30.8419C154.145 30.4252 153.412 29.9752 152.731 29.4586C148.735 26.4377 146.264 20.6857 148.872 16.0002L147.47 17.9315Z" fill="#1266A9"/>
<rect x="200" width="80" height="80" rx="40" fill="white" fill-opacity="0.02"/>
<rect x="200.5" y="0.5" width="79" height="79" rx="39.5" stroke="url(#paint2_linear_337_1187)" stroke-opacity="0.08"/>
<path d="M256.839 34.1001C256.761 32.383 256.995 30.8611 256.214 29.5733C254.341 26.3733 249.658 24.5001 240.292 24.5001V24.7733H240.097H240.292V24.5001C230.927 24.5001 226.01 26.3733 224.136 29.6123C223.395 30.9391 223.473 32.422 223.356 34.1391C223.278 35.505 222.653 36.9489 222.927 38.5098C223.239 40.5391 223.356 42.5684 223.668 44.4415C223.902 45.9635 226.01 47.2513 226.205 48.6952C226.751 52.6756 230.888 54.5098 240.253 54.5098V54.822H240.019H240.292V54.5098C249.658 54.5098 253.639 52.6756 254.146 48.6952C254.341 47.2123 256.292 45.9635 256.526 44.4415C256.839 42.5684 256.956 40.5391 257.268 38.5098C257.541 36.9489 256.917 35.4659 256.839 34.1001V34.1001Z" fill="#EFCCA3"/>
<path d="M240.136 35.5049C241.814 35.5439 242.985 36.5976 244.078 37.5732C245.366 38.7049 247.551 39.4854 248.448 40.461C249.346 41.4366 250.517 42.4122 250.946 43.9341C251.375 45.4561 251.492 47.4073 251.492 47.9146C251.492 48.4219 251.766 48.3048 252.546 47.9146C254.38 47.017 256.409 44.5975 256.409 44.5975C256.175 46.1195 254.185 47.4853 253.99 48.9292C253.522 52.9097 249.658 54.8219 240.097 54.8219H240.058H240.292" fill="#CCAC8D"/>
<path d="M246.302 32.461C246.653 33.6707 247.902 37.7683 245.483 36.4024C245.483 36.4024 246.497 36.9878 247.122 39.2122C247.785 41.4365 249.385 41.7097 249.385 41.7097C249.385 41.7097 252 42.217 253.951 40.539C255.59 39.1341 255.863 36.6366 255.161 34.7244C254.458 32.8512 253.209 32.2658 251.375 31.8756C249.541 31.4463 245.873 31.0951 246.302 32.461V32.461Z" fill="#CCAC8D"/>
<path d="M250.946 40.3439C252.843 40.3439 254.38 38.8064 254.38 36.9097C254.38 35.0131 252.843 33.4756 250.946 33.4756C249.049 33.4756 247.512 35.0131 247.512 36.9097C247.512 38.8064 249.049 40.3439 250.946 40.3439Z" fill="black"/>
<path d="M250.048 36.2853C250.544 36.2853 250.946 35.8835 250.946 35.3878C250.946 34.8921 250.544 34.4902 250.048 34.4902C249.553 34.4902 249.151 34.8921 249.151 35.3878C249.151 35.8835 249.553 36.2853 250.048 36.2853Z" fill="white"/>
<path d="M245.717 36.7537C245.717 36.7537 248.8 38.861 250.478 40.9293C252.156 42.9975 252.117 43.3878 252.117 43.3878L250.907 43.9341C250.907 43.9341 249.19 40.6951 247.083 39.4854C244.936 38.2756 244.702 37.261 244.702 37.261L245.717 36.7537V36.7537Z" fill="#EFCCA3"/>
<path d="M240.253 35.5049C238.575 35.5439 237.327 36.5976 236.195 37.5732C234.907 38.7049 232.644 39.4854 231.746 40.461C230.848 41.4366 229.639 42.4122 229.209 43.9341C228.78 45.4561 228.624 47.4073 228.624 47.9146C228.624 48.4219 228.702 48.4609 227.57 47.9146C225.736 47.0561 223.707 44.5975 223.707 44.5975C223.941 46.1195 225.931 47.4853 226.127 48.9292C226.673 52.9097 230.536 54.8219 240.097 54.8219H240.292" fill="#CCAC8D"/>
<path d="M249.307 42.1C247.434 39.7976 244.429 37.6512 240.253 37.6512H240.214C236.039 37.6512 233.034 39.7976 231.161 42.1C229.21 44.4805 229.366 45.4171 229.366 47.6805C229.366 55.8755 232.253 53.5341 234.166 54.5487C236.117 55.5243 238.146 55.2121 240.214 55.2121H240.253C242.361 55.2121 244.351 55.4853 246.302 54.5097C248.214 53.5341 251.102 55.9536 251.102 47.7585C251.141 45.4951 251.258 44.4805 249.307 42.1V42.1Z" fill="#56332B"/>
<path d="M240.058 39.6805C240.058 39.6805 239.785 43.466 239.239 44.2074L240.253 43.9733L240.058 39.6805Z" fill="#442823"/>
<path d="M240.331 39.6805C240.331 39.6805 240.605 43.466 241.151 44.2074L240.136 43.9733L240.331 39.6805Z" fill="#442823"/>
<path d="M237.053 38.7829C236.663 37.8854 238.068 36.4415 240.292 36.4025C242.517 36.4025 243.922 37.8464 243.531 38.7829C243.141 39.7195 241.736 39.9927 240.292 40.0317C238.887 39.9927 237.444 39.7195 237.053 38.7829V38.7829Z" fill="#56332B"/>
<path d="M240.292 39.6805C240.292 39.5244 241.619 39.4854 242.322 39.0171C242.322 39.0171 240.878 39.4854 240.565 39.2903C240.253 39.1342 240.175 38.6659 240.175 38.6659C240.175 38.6659 240.058 39.1342 239.824 39.2903C239.551 39.4464 237.912 39.0171 237.912 39.0171C237.912 39.0171 240.097 39.5635 240.097 39.6805C240.097 39.7976 240.058 40.1878 240.058 40.461C240.058 41.4366 240.058 43.8561 240.214 44.0512C240.448 44.4025 240.37 41.4366 240.37 40.461C240.331 40.1488 240.331 39.8366 240.292 39.6805V39.6805Z" fill="black"/>
<path d="M240.37 44.9097C241.034 44.9097 242.205 45.378 243.258 46.1194C242.244 44.9877 241.034 44.2073 240.37 44.2073C239.668 44.2073 238.185 45.0658 237.131 46.3145C238.224 45.456 239.629 44.9097 240.37 44.9097Z" fill="#7F4A41"/>
<path d="M240.097 51.817C238.614 51.817 237.17 51.3487 235.844 50.9975C235.57 50.9194 235.297 51.1146 235.024 51.0365C232.566 50.256 230.575 48.9292 229.366 47.2511V47.6414C229.366 55.8365 232.253 53.5341 234.166 54.5097C236.117 55.4853 238.146 55.1731 240.214 55.1731H240.253C242.361 55.1731 244.351 55.4463 246.302 54.4707C248.214 53.495 251.102 55.8755 251.102 47.6804C251.102 47.3682 251.102 47.056 251.141 46.7828C250.009 48.617 247.941 50.0609 245.366 50.9194C245.131 50.9975 244.585 50.8024 244.351 50.8414C242.946 51.3097 241.697 51.817 240.097 51.817V51.817Z" fill="#442823"/>
<path d="M236.39 47.4073C236.39 47.4073 235.414 50.3342 236.078 51.622L235.18 51.2318C235.18 51.2318 235.844 48.2659 236.39 47.4073V47.4073ZM244.117 47.4073C244.117 47.4073 245.092 50.3342 244.429 51.622L245.326 51.2318C245.326 51.2318 244.624 48.2659 244.117 47.4073Z" fill="#442823"/>
<path d="M233.892 32.461C233.541 33.6707 232.292 37.7683 234.712 36.4024C234.712 36.4024 233.697 36.9878 233.073 39.2122C232.448 41.4365 230.809 41.7097 230.809 41.7097C230.809 41.7097 228.195 42.217 226.244 40.539C224.605 39.1341 224.331 36.6366 225.034 34.7244C225.736 32.8122 226.985 32.2658 228.819 31.8756C230.653 31.4463 234.283 31.0951 233.892 32.461V32.461Z" fill="#CCAC8D"/>
<path d="M240.253 44.2072C241.307 44.2072 244.585 46.4706 244.624 49.2413V49.0852C244.624 46.1974 241.97 43.895 240.253 43.895C238.536 43.895 235.883 46.2365 235.883 49.0852V49.2413C235.922 46.4706 239.2 44.2072 240.253 44.2072Z" fill="black"/>
<path d="M241.105 38.8042C241.272 38.7611 241.342 38.4724 241.261 38.1594C241.181 37.8463 240.98 37.6275 240.813 37.6706C240.646 37.7136 240.576 38.0023 240.657 38.3153C240.737 38.6284 240.938 38.8472 241.105 38.8042Z" fill="#331712"/>
<path d="M239.099 38.7983C239.264 38.8494 239.475 38.6405 239.571 38.3317C239.667 38.0229 239.611 37.7312 239.446 37.6801C239.282 37.6291 239.071 37.8379 238.975 38.1467C238.879 38.4555 238.935 38.7472 239.099 38.7983Z" fill="#331712"/>
<path d="M229.444 40.3439C231.34 40.3439 232.878 38.8064 232.878 36.9097C232.878 35.0131 231.34 33.4756 229.444 33.4756C227.547 33.4756 226.01 35.0131 226.01 36.9097C226.01 38.8064 227.547 40.3439 229.444 40.3439Z" fill="black"/>
<path d="M230.341 36.2853C230.837 36.2853 231.239 35.8835 231.239 35.3878C231.239 34.8921 230.837 34.4902 230.341 34.4902C229.845 34.4902 229.444 34.8921 229.444 35.3878C229.444 35.8835 229.845 36.2853 230.341 36.2853Z" fill="white"/>
<path d="M241.268 36.9488C241.268 36.9098 240.37 37.339 240.136 37.3781C239.902 37.339 239.005 36.9098 239.005 36.9488H241.268Z" fill="#7F4A41"/>
<path d="M234.439 36.7537C234.439 36.7537 231.356 38.861 229.678 40.9293C228 42.9975 228.039 43.3878 228.039 43.3878L229.249 43.9341C229.249 43.9341 230.966 40.6951 233.073 39.4854C235.18 38.2756 235.453 37.261 235.453 37.261L234.439 36.7537Z" fill="#EFCCA3"/>
<path d="M227.688 30.5099C227.688 30.5099 226.634 33.3977 224.292 34.6074C224.292 34.6074 227.961 34.1782 227.688 30.5099ZM252.312 30.5099C252.312 30.5099 253.366 33.3977 255.707 34.6074C255.707 34.6074 252.039 34.1782 252.312 30.5099ZM245.639 35.8952C245.639 35.8952 243.336 33.4757 240.253 33.3977H240.292H240.331C237.21 33.4757 234.946 35.8952 234.946 35.8952C237.639 34.0221 239.941 34.0611 240.331 34.0611C240.292 34.0611 242.946 34.0221 245.639 35.8952V35.8952ZM242.946 30.8221C242.946 30.8221 241.775 29.1831 240.214 29.144H240.292C239.122 29.1831 237.6 30.8221 237.6 30.8221C238.927 29.5343 240.292 29.5733 240.292 29.5733C240.292 29.5733 241.58 29.5343 242.946 30.8221ZM229.444 42.8025C229.444 42.8025 227.61 43.7001 226.283 43.1538H226.244C225.073 42.4903 224.488 40.5001 224.488 40.5001C224.488 40.5001 225.658 44.0123 229.444 42.8025V42.8025ZM250.829 42.8025C250.829 42.8025 252.663 43.7001 253.99 43.1538C255.551 42.4903 255.785 40.5001 255.785 40.5001C255.785 40.5001 254.614 44.0123 250.829 42.8025V42.8025Z" fill="#CCAC8D"/>
<path d="M231.551 30.3146C232.566 30.1195 234.244 30.0805 235.57 30.5098C237.248 31.0951 235.883 33.2415 236.234 33.3585C236.585 33.4756 237.053 31.8756 240.175 32.0317C243.336 32.1878 243.688 33.5927 244.117 33.3585C244.546 33.1244 243.688 29.4561 248.409 30.3146C248.409 30.3146 243.453 28.9878 243.687 32.578C243.687 32.578 240.839 30.3927 236.858 32.3439C236.897 32.3439 237.912 28.9878 231.551 30.3146V30.3146ZM248.839 30.3146C248.917 30.3146 248.956 30.3537 248.995 30.3537C249.034 30.3537 248.956 30.3146 248.839 30.3146ZM230.185 25.5146C230.185 25.5146 225.97 30.822 225.346 32.8512C224.722 34.9195 224.253 43.3878 223.707 44.5975L221.756 36.2463L225.346 27.5439L230.185 25.5146V25.5146ZM250.009 25.5146C250.009 25.5146 254.224 30.822 254.848 32.8512C255.473 34.9195 255.941 43.3878 256.487 44.5975L258.439 36.2463L254.848 27.5439L250.009 25.5146V25.5146Z" fill="#CCAC8D"/>
<path d="M249.814 25.5147C249.814 25.5147 254.341 29.3001 255.668 33.6708C256.995 38.0415 256.449 43.3488 257.463 44.0122C258.907 44.9488 260.546 39.3684 261.092 38.783C261.951 37.8464 264.8 35.4659 264.995 35.0367C265.19 34.6074 259.219 28.0903 256.605 26.8025C253.444 25.3196 249.541 25.2026 249.814 25.5147V25.5147Z" fill="#56332B"/>
<path d="M253.678 27.8562C253.678 27.8562 259.024 34.6854 258.946 43.1927L261.092 38.822C261.053 38.822 259.18 33.2415 253.678 27.8562V27.8562Z" fill="#442823"/>
<path d="M230.185 25.5147C230.185 25.5147 225.658 29.3001 224.331 33.6708C223.005 38.0415 223.551 43.3488 222.536 44.0122C221.092 44.9488 219.453 39.3684 218.907 38.783C218.049 37.8464 215.2 35.4659 215.005 35.0367C214.81 34.6074 220.78 28.0903 223.395 26.8025C226.556 25.3196 230.458 25.2026 230.185 25.5147V25.5147Z" fill="#56332B"/>
<path d="M226.322 27.8562C226.322 27.8562 220.975 34.6854 221.053 43.1927L218.946 38.822C218.946 38.822 220.819 33.2415 226.322 27.8562Z" fill="#442823"/>
<path d="M223.434 43.3488C223.434 43.3488 223.824 45.4561 224.448 46.1195C225.073 46.7829 224.644 45.6122 224.644 45.6122C224.644 45.6122 223.98 45.261 224.097 42.5683C224.214 39.8756 223.434 43.3488 223.434 43.3488V43.3488ZM256.722 43.3488C256.722 43.3488 256.331 45.4561 255.707 46.1195C255.083 46.7829 255.512 45.6122 255.512 45.6122C255.512 45.6122 256.175 45.261 256.058 42.5683C255.941 39.8756 256.722 43.3488 256.722 43.3488V43.3488Z" fill="#CCAC8D"/>
<path d="M236.195 42.0611C236.367 42.0611 236.507 41.9213 236.507 41.7489C236.507 41.5764 236.367 41.4366 236.195 41.4366C236.022 41.4366 235.883 41.5764 235.883 41.7489C235.883 41.9213 236.022 42.0611 236.195 42.0611Z" fill="#442823"/>
<path d="M234.4 43.9342C234.572 43.9342 234.712 43.7944 234.712 43.622C234.712 43.4496 234.572 43.3098 234.4 43.3098C234.227 43.3098 234.088 43.4496 234.088 43.622C234.088 43.7944 234.227 43.9342 234.4 43.9342Z" fill="#442823"/>
<path d="M233.814 42.0611C233.987 42.0611 234.127 41.9213 234.127 41.7489C234.127 41.5764 233.987 41.4366 233.814 41.4366C233.642 41.4366 233.502 41.5764 233.502 41.7489C233.502 41.9213 233.642 42.0611 233.814 42.0611Z" fill="#442823"/>
<path d="M243.805 42.0611C243.977 42.0611 244.117 41.9213 244.117 41.7489C244.117 41.5764 243.977 41.4366 243.805 41.4366C243.632 41.4366 243.492 41.5764 243.492 41.7489C243.492 41.9213 243.632 42.0611 243.805 42.0611Z" fill="#442823"/>
<path d="M245.6 43.9342C245.772 43.9342 245.912 43.7944 245.912 43.622C245.912 43.4496 245.772 43.3098 245.6 43.3098C245.427 43.3098 245.287 43.4496 245.287 43.622C245.287 43.7944 245.427 43.9342 245.6 43.9342Z" fill="#442823"/>
<path d="M246.185 42.0611C246.358 42.0611 246.497 41.9213 246.497 41.7489C246.497 41.5764 246.358 41.4366 246.185 41.4366C246.013 41.4366 245.873 41.5764 245.873 41.7489C245.873 41.9213 246.013 42.0611 246.185 42.0611Z" fill="#442823"/>
<rect x="296" width="80" height="80" rx="40" fill="white" fill-opacity="0.02"/>
<rect x="296.5" y="0.5" width="79" height="79" rx="39.5" stroke="url(#paint3_linear_337_1187)" stroke-opacity="0.08"/>
<path d="M335.82 15.0002C323.127 15.0002 323.919 20.5047 323.919 20.5047L323.933 26.2074H336.046V27.9196H319.122C319.122 27.9196 311 26.9984 311 39.8056C311 52.6131 318.089 52.1589 318.089 52.1589H322.32V46.2157C322.32 46.2157 322.092 39.1264 329.296 39.1264H341.31C341.31 39.1264 348.06 39.2354 348.06 32.6031V21.6369C348.06 21.6369 349.085 15.0002 335.82 15.0002ZM329.141 18.8352C329.427 18.835 329.71 18.8912 329.975 19.0006C330.239 19.11 330.48 19.2705 330.682 19.4729C330.884 19.6753 331.045 19.9156 331.154 20.1801C331.264 20.4446 331.32 20.7281 331.32 21.0143C331.32 21.3005 331.264 21.584 331.154 21.8485C331.045 22.113 330.884 22.3533 330.682 22.5557C330.48 22.7581 330.239 22.9186 329.975 23.028C329.71 23.1374 329.427 23.1936 329.141 23.1934C328.854 23.1936 328.571 23.1374 328.306 23.028C328.042 22.9186 327.802 22.7581 327.599 22.5557C327.397 22.3533 327.236 22.113 327.127 21.8485C327.018 21.584 326.961 21.3005 326.962 21.0143C326.961 20.7281 327.018 20.4446 327.127 20.1801C327.236 19.9156 327.397 19.6753 327.599 19.4729C327.802 19.2705 328.042 19.11 328.306 19.0006C328.571 18.8912 328.854 18.835 329.141 18.8352V18.8352Z" fill="url(#paint4_linear_337_1187)"/>
<path d="M336.18 64.7398C348.873 64.7398 348.081 59.2353 348.081 59.2353L348.066 53.5328H335.954V51.8206H352.877C352.877 51.8206 360.999 52.7418 360.999 39.9342C360.999 27.1269 353.91 27.5811 353.91 27.5811H349.679V33.5241C349.679 33.5241 349.907 40.6134 342.703 40.6134H330.689C330.689 40.6134 323.94 40.5044 323.94 47.1369V58.1033C323.94 58.1033 322.915 64.7398 336.18 64.7398H336.18ZM342.859 60.9052C342.573 60.9054 342.289 60.8492 342.025 60.7398C341.76 60.6304 341.52 60.4699 341.318 60.2675C341.115 60.0651 340.955 59.8248 340.845 59.5603C340.736 59.2958 340.68 59.0123 340.68 58.7261C340.68 58.4399 340.736 58.1564 340.845 57.8918C340.955 57.6273 341.115 57.387 341.318 57.1846C341.52 56.9822 341.76 56.8216 342.025 56.7122C342.289 56.6028 342.573 56.5466 342.859 56.5468C343.145 56.5466 343.429 56.6028 343.693 56.7122C343.958 56.8216 344.198 56.9821 344.4 57.1845C344.603 57.3869 344.763 57.6272 344.873 57.8917C344.982 58.1562 345.038 58.4397 345.038 58.7259C345.038 59.0121 344.982 59.2956 344.873 59.5601C344.763 59.8246 344.603 60.0649 344.4 60.2673C344.198 60.4697 343.958 60.6302 343.693 60.7396C343.429 60.8491 343.145 60.9052 342.859 60.905V60.9052Z" fill="url(#paint5_linear_337_1187)"/>
<rect x="392" width="80" height="80" rx="40" fill="white" fill-opacity="0.02"/>
<rect x="392.5" y="0.5" width="79" height="79" rx="39.5" stroke="url(#paint6_linear_337_1187)" stroke-opacity="0.08"/>
<path d="M445.737 47.9103L417.19 64.8612L454.153 62.3528L456.999 25.0819L445.737 47.9101L445.737 47.9103Z" fill="url(#paint7_linear_337_1187)"/>
<path d="M454.213 62.3273L451.036 40.4001L442.383 51.827L454.213 62.3275V62.3273Z" fill="url(#paint8_linear_337_1187)"/>
<path d="M454.256 62.3273L430.982 60.5004L417.314 64.8133L454.256 62.3273V62.3273Z" fill="url(#paint9_linear_337_1187)"/>
<path d="M417.347 64.8183L423.161 45.7703L410.366 48.5058L417.347 64.8181L417.347 64.8183Z" fill="url(#paint10_linear_337_1187)"/>
<path d="M442.381 51.8897L437.03 30.9342L421.72 45.2859L442.381 51.8901V51.8897Z" fill="url(#paint11_linear_337_1187)"/>
<path d="M455.786 31.2293L441.313 19.4089L437.283 32.4381L455.786 31.2293V31.2293Z" fill="url(#paint12_linear_337_1187)"/>
<path d="M449.018 15.1944L440.506 19.8986L435.135 15.1315L449.018 15.1946V15.1944Z" fill="url(#paint13_linear_337_1187)"/>
<path d="M407 54.8955L410.566 48.3923L407.681 40.6448L407 54.8955Z" fill="url(#paint14_linear_337_1187)"/>
<path d="M407.49 40.4002L410.392 48.632L423.002 45.8029L437.399 32.4228L441.462 19.5174L435.064 15.0002L424.188 19.0707C420.761 22.2581 414.111 28.5645 413.872 28.683C413.634 28.8043 409.481 36.6551 407.49 40.4002V40.4002Z" fill="white"/>
<path d="M417.68 25.6117C425.107 18.2479 434.681 13.8973 438.355 17.6045C442.028 21.3117 438.133 30.3207 430.706 37.6822C423.28 45.0434 413.824 49.6338 410.152 45.9266C406.478 42.2219 410.253 32.9731 417.68 25.6117V25.6117Z" fill="url(#paint15_linear_337_1187)"/>
<path d="M417.347 64.8106L423.116 45.702L442.274 51.857C435.347 58.3528 427.643 63.8441 417.347 64.8106V64.8106Z" fill="url(#paint16_linear_337_1187)"/>
<path d="M437.424 32.3851L442.343 51.8673C448.129 45.7829 453.323 39.2418 455.866 31.1512L437.425 32.3851H437.424Z" fill="url(#paint17_linear_337_1187)"/>
<path d="M455.816 31.2494C457.785 25.309 458.239 16.7869 448.957 15.2046L441.34 19.4114L455.816 31.2494V31.2494Z" fill="url(#paint18_linear_337_1187)"/>
<path d="M407 54.8097C407.273 64.614 414.346 64.7602 417.359 64.8461L410.399 48.5916L407 54.8097Z" fill="#9E1209"/>
<path d="M437.452 32.4155C441.898 35.1485 450.86 40.6374 451.042 40.7382C451.324 40.8971 454.905 34.6993 455.718 31.1965L437.452 32.4155V32.4155Z" fill="url(#paint19_radial_337_1187)"/>
<path d="M423.108 45.702L430.82 60.581C435.38 58.1079 438.951 55.0948 442.222 51.8672L423.108 45.702Z" fill="url(#paint20_radial_337_1187)"/>
<path d="M410.369 48.6118L409.276 61.6233C411.338 64.4396 414.175 64.6845 417.15 64.465C414.997 59.1074 410.697 48.3948 410.369 48.6118Z" fill="url(#paint21_linear_337_1187)"/>
<path d="M441.295 19.4442L456.616 21.5942C455.798 18.1295 453.287 15.8935 449.007 15.1946L441.295 19.4442V19.4442Z" fill="url(#paint22_linear_337_1187)"/>
<rect x="488" width="80" height="80" rx="40" fill="white" fill-opacity="0.02"/>
<rect x="488.5" y="0.5" width="79" height="79" rx="39.5" stroke="url(#paint23_linear_337_1187)" stroke-opacity="0.08"/>
<path d="M546.053 43.0555C544.309 43.0646 542.793 43.4847 541.524 44.1057C541.058 43.1833 540.592 42.3614 540.51 41.7586C540.419 41.0554 540.309 40.6262 540.419 39.786C540.528 38.9458 541.021 37.7494 541.012 37.6581C541.003 37.5668 540.903 37.1376 539.898 37.1284C538.894 37.1193 538.026 37.3202 537.925 37.585C537.825 37.8499 537.633 38.4526 537.505 39.0737C537.332 39.9869 535.496 43.2473 534.446 44.9551C534.108 44.2884 533.816 43.7039 533.752 43.2381C533.661 42.5349 533.551 42.1057 533.661 41.2655C533.77 40.4253 534.263 39.2289 534.254 39.1376C534.245 39.0463 534.145 38.617 533.14 38.6079C532.135 38.5988 531.268 38.7997 531.167 39.0645C531.067 39.3294 530.957 39.9504 530.747 40.5531C530.537 41.1559 528.099 46.5989 527.46 48.0053C527.131 48.7268 526.848 49.3022 526.647 49.6949C526.647 49.6949 526.638 49.7223 526.61 49.7679C526.437 50.1058 526.336 50.2885 526.336 50.2885C526.336 50.2885 526.336 50.2885 526.336 50.2976C526.199 50.5442 526.053 50.7725 525.98 50.7725C525.925 50.7725 525.825 50.115 525.998 49.22C526.364 47.3295 527.231 44.3888 527.222 44.2884C527.222 44.2336 527.386 43.7222 526.656 43.4573C525.943 43.1925 525.688 43.6308 525.624 43.6308C525.56 43.6308 525.514 43.7861 525.514 43.7861C525.514 43.7861 526.309 40.4801 523.998 40.4801C522.555 40.4801 520.564 42.06 519.578 43.4847C518.957 43.8226 517.633 44.5441 516.217 45.3204C515.678 45.6217 515.121 45.9231 514.601 46.2062C514.564 46.1697 514.528 46.124 514.491 46.0875C511.697 43.1011 506.528 40.9915 506.747 36.9823C506.829 35.5211 507.331 31.6854 516.674 27.0278C524.364 23.2377 530.482 24.288 531.542 26.6168C533.058 29.9411 528.263 36.1147 520.318 37.0097C517.286 37.3476 515.697 36.1786 515.295 35.7403C514.875 35.2836 514.811 35.2562 514.656 35.3476C514.4 35.4845 514.564 35.8955 514.656 36.133C514.893 36.754 515.87 37.8499 517.523 38.3887C518.984 38.8636 522.537 39.1285 526.838 37.4663C531.651 35.6033 535.414 30.4251 534.309 26.0871C533.204 21.6852 525.898 20.2331 518.984 22.6898C514.875 24.151 510.418 26.4524 507.213 29.4479C503.404 33.0096 502.801 36.1056 503.048 37.4024C503.934 42.0052 510.281 45.0007 512.82 47.2199C512.692 47.293 512.573 47.3569 512.473 47.4117C511.203 48.0419 506.363 50.5716 505.158 53.2475C503.788 56.2795 505.377 58.453 506.427 58.7453C509.687 59.6494 513.039 58.0238 514.838 55.3388C516.637 52.6538 516.418 49.1652 515.587 47.567C515.578 47.5487 515.569 47.5305 515.551 47.5122C515.879 47.3204 516.217 47.1195 516.546 46.9277C517.194 46.5441 517.834 46.188 518.382 45.8957C518.071 46.745 517.843 47.7588 517.733 49.22C517.596 50.9369 518.3 53.1653 519.222 54.042C519.633 54.4256 520.117 54.4347 520.427 54.4347C521.505 54.4347 521.989 53.5397 522.528 52.4803C523.185 51.1835 523.779 49.6766 523.779 49.6766C523.779 49.6766 523.039 53.7498 525.049 53.7498C525.779 53.7498 526.519 52.8 526.848 52.3159C526.848 52.3251 526.848 52.3251 526.848 52.3251C526.848 52.3251 526.866 52.2977 526.902 52.2337C526.975 52.115 527.021 52.042 527.021 52.042C527.021 52.042 527.021 52.0328 527.021 52.0237C527.313 51.5123 527.971 50.3524 528.948 48.4254C530.208 45.9414 531.423 42.8363 531.423 42.8363C531.423 42.8363 531.533 43.5943 531.907 44.8546C532.126 45.5943 532.583 46.4071 532.948 47.1925C532.656 47.6035 532.473 47.8318 532.473 47.8318C532.473 47.8318 532.473 47.8318 532.482 47.841C532.245 48.1515 531.989 48.4894 531.706 48.8182C530.711 50.0054 529.523 51.3661 529.359 51.7588C529.167 52.2246 529.213 52.5625 529.578 52.8365C529.843 53.0374 530.318 53.0648 530.802 53.0374C531.697 52.9735 532.327 52.7543 532.638 52.6173C533.122 52.4438 533.688 52.1789 534.218 51.7862C535.195 51.0648 535.788 50.0328 535.734 48.672C535.706 47.9232 535.46 47.1743 535.158 46.4711C535.25 46.3432 535.332 46.2154 535.423 46.0875C536.967 43.8317 538.163 41.3568 538.163 41.3568C538.163 41.3568 538.273 42.1148 538.647 43.3751C538.83 44.0144 539.204 44.7085 539.533 45.3843C538.081 46.5624 537.186 47.9323 536.866 48.8273C536.291 50.4894 536.738 51.2383 537.588 51.4118C537.971 51.494 538.519 51.3114 538.921 51.1378C539.432 50.9734 540.035 50.6903 540.61 50.2702C541.588 49.5488 542.528 48.5442 542.474 47.1834C542.446 46.5624 542.282 45.9505 542.053 45.3569C543.286 44.8455 544.875 44.5624 546.903 44.7998C551.25 45.3112 552.108 48.0236 551.944 49.1652C551.78 50.3068 550.866 50.9278 550.565 51.1196C550.264 51.3113 550.163 51.3753 550.191 51.5123C550.227 51.7132 550.373 51.7041 550.629 51.6675C550.985 51.6036 552.912 50.7451 552.994 48.6446C553.131 45.9596 550.574 43.0281 546.053 43.0555ZM512.519 54.3616C511.076 55.9324 509.066 56.5261 508.199 56.0238C507.267 55.485 507.633 53.1653 509.404 51.5031C510.482 50.4894 511.87 49.5488 512.793 48.9734C513.003 48.8455 513.313 48.6629 513.688 48.4346C513.751 48.398 513.788 48.3798 513.788 48.3798C513.861 48.3341 513.934 48.2885 514.007 48.2428C514.656 50.6173 514.035 52.7086 512.519 54.3616ZM523.021 47.2199C522.519 48.4437 521.469 51.5762 520.829 51.4027C520.281 51.2566 519.943 48.8821 520.72 46.535C521.112 45.3569 521.943 43.9505 522.427 43.4025C523.213 42.5258 524.08 42.2335 524.29 42.5897C524.555 43.0555 523.332 46.4528 523.021 47.2199ZM531.688 51.3661C531.478 51.4757 531.277 51.5488 531.186 51.494C531.122 51.4575 531.277 51.3114 531.277 51.3114C531.277 51.3114 532.364 50.1424 532.793 49.6127C533.04 49.3022 533.332 48.9369 533.642 48.5259C533.642 48.5624 533.642 48.6081 533.642 48.6446C533.642 50.0419 532.291 50.9826 531.688 51.3661ZM538.373 49.841C538.218 49.7314 538.245 49.3661 538.766 48.2245C538.967 47.777 539.441 47.0282 540.254 46.3067C540.346 46.5989 540.41 46.882 540.4 47.1469C540.391 48.9095 539.131 49.567 538.373 49.841Z" fill="#CD6799"/>
<rect x="584" width="80" height="80" rx="40" fill="white" fill-opacity="0.02"/>
<rect x="584.5" y="0.5" width="79" height="79" rx="39.5" stroke="url(#paint24_linear_337_1187)" stroke-opacity="0.08"/>
<path fill-rule="evenodd" clip-rule="evenodd" d="M617.295 14.9996C614.537 15.0017 612.305 17.2402 612.307 19.9986C612.305 22.7569 614.539 24.9955 617.297 24.9975H622.288V20.0006C622.29 17.2422 620.056 15.0037 617.295 14.9996C617.297 14.9996 617.297 14.9996 617.295 14.9996ZM617.295 28.3328H603.991C601.232 28.3349 598.998 30.5734 599 33.3318C598.996 36.0901 601.23 38.3286 603.989 38.3327H617.295C620.054 38.3307 622.288 36.0922 622.286 33.3338C622.288 30.5734 620.054 28.3349 617.295 28.3328Z" fill="#36C5F0"/>
<path fill-rule="evenodd" clip-rule="evenodd" d="M648.9 33.3318C648.902 30.5734 646.667 28.3349 643.909 28.3328C641.15 28.3349 638.916 30.5734 638.918 33.3318V38.3327H643.909C646.667 38.3307 648.902 36.0922 648.9 33.3318ZM635.593 33.3318V19.9986C635.595 17.2422 633.363 15.0037 630.604 14.9996C627.846 15.0017 625.611 17.2402 625.613 19.9986V33.3318C625.609 36.0901 627.844 38.3286 630.602 38.3327C633.361 38.3307 635.595 36.0922 635.593 33.3318Z" fill="#2EB67D"/>
<path fill-rule="evenodd" clip-rule="evenodd" d="M630.602 64.9992C633.36 64.9972 635.595 62.7586 635.593 60.0003C635.595 57.2419 633.36 55.0034 630.602 55.0013H625.611V60.0003C625.609 62.7566 627.844 64.9951 630.602 64.9992ZM630.602 51.664H643.909C646.667 51.6619 648.902 49.4234 648.9 46.665C648.904 43.9066 646.669 41.6681 643.911 41.6641H630.604C627.846 41.6661 625.611 43.9046 625.613 46.663C625.611 49.4234 627.844 51.6619 630.602 51.664Z" fill="#ECB22E"/>
<path fill-rule="evenodd" clip-rule="evenodd" d="M599 46.6649C598.998 49.4233 601.232 51.6618 603.991 51.6639C606.749 51.6618 608.984 49.4233 608.982 46.6649V41.666H603.991C601.232 41.6681 598.998 43.9066 599 46.6649ZM612.307 46.6649V59.9981C612.303 62.7565 614.537 64.995 617.295 64.9991C620.054 64.9971 622.288 62.7586 622.286 60.0002V46.669C622.29 43.9106 620.056 41.6721 617.297 41.6681C614.537 41.6681 612.305 43.9066 612.307 46.6649Z" fill="#E01E5A"/>
<rect x="680" width="80" height="80" rx="40" fill="white" fill-opacity="0.02"/>
<rect x="680.5" y="0.5" width="79" height="79" rx="39.5" stroke="url(#paint25_linear_337_1187)" stroke-opacity="0.08"/>
<path d="M720.308 63.6155C707.181 63.6155 696.5 52.9359 696.5 39.8078C696.5 26.6796 707.181 16.0001 720.308 16.0001C733.436 16.0001 744.116 26.6806 744.116 39.8083C744.116 52.9359 733.436 63.6155 720.308 63.6155Z" fill="#85EA2D"/>
<path d="M720 17.3833C732.491 17.3833 742.616 27.5086 742.616 39.9996C742.616 52.4901 732.491 62.616 720 62.616C707.509 62.616 697.383 52.4901 697.383 39.9996C697.383 27.5091 707.509 17.3833 720 17.3833ZM720 15.0001C706.215 15.0001 695 26.2148 695 39.9996C695 53.7844 706.215 64.9991 720 64.9991C733.784 64.9991 745 53.7844 745 39.9996C745 26.2148 733.784 15.0001 720 15.0001Z" fill="#173647"/>
<path d="M710.959 31.6943C710.882 32.5498 710.988 33.4343 710.931 34.2993C710.863 35.1648 710.758 36.0203 710.585 36.8759C710.344 38.0967 709.585 39.0197 708.537 39.7887C710.576 41.1155 710.806 43.1723 710.94 45.2587C711.008 46.3835 710.979 47.5179 711.094 48.6328C711.181 49.4978 711.517 49.7192 712.412 49.7477C712.777 49.7572 713.151 49.7477 713.575 49.7477V52.4202C710.931 52.8719 708.749 52.1223 708.21 49.8826C708.037 49.0655 707.922 48.229 707.884 47.383C707.826 46.489 707.922 45.595 707.855 44.701C707.662 42.2494 707.345 41.4228 705 41.3074V38.2601C705.173 38.2216 705.336 38.1926 705.509 38.1736C706.797 38.1062 707.345 37.7119 707.624 36.4431C707.759 35.732 707.836 35.0109 707.864 34.2803C707.961 32.8866 707.922 31.4639 708.162 30.0797C708.498 28.0898 709.729 27.1283 711.777 27.0129C712.354 26.9839 712.94 27.0129 713.603 27.0129V29.7434C713.325 29.7628 713.084 29.8008 712.834 29.8008C711.171 29.7429 711.084 30.31 710.959 31.6943ZM714.161 38.0197H714.122C713.161 37.9717 712.334 38.7213 712.286 39.6828C712.238 40.6537 712.987 41.4808 713.949 41.5283H714.064C715.016 41.5862 715.833 40.8551 715.891 39.9037V39.8077C715.91 38.8368 715.132 38.0392 714.161 38.0197ZM720.188 38.0197C719.256 37.9907 718.477 38.7213 718.448 39.6443C718.448 39.7023 718.448 39.7503 718.458 39.8077C718.458 40.8556 719.169 41.5288 720.246 41.5288C721.304 41.5288 721.967 40.8366 721.967 39.7503C721.957 38.7023 721.255 38.0102 720.188 38.0197ZM726.36 38.0197C725.38 38.0002 724.562 38.7793 724.534 39.7597C724.534 40.7402 725.322 41.5283 726.302 41.5283H726.322C727.206 41.6822 728.1 40.8266 728.158 39.7982C728.206 38.8463 727.341 38.0197 726.36 38.0197ZM734.83 38.1636C733.714 38.1157 733.156 37.7409 732.878 36.683C732.705 36.0103 732.599 35.3082 732.561 34.6161C732.484 33.3278 732.493 32.0301 732.407 30.7418C732.205 27.685 729.994 26.6181 726.783 27.1463V29.7998C727.292 29.7998 727.687 29.7998 728.081 29.8093C728.763 29.8188 729.283 30.0787 729.35 30.8382C729.417 31.5304 729.417 32.232 729.485 32.9341C729.619 34.3283 729.696 35.741 729.936 37.1157C730.148 38.2501 730.927 39.0961 731.897 39.7882C730.196 40.9321 729.696 42.5662 729.609 44.4026C729.562 45.6619 729.533 46.9307 729.466 48.2C729.408 49.3534 729.004 49.7282 727.841 49.7571C727.514 49.7666 727.197 49.7956 726.832 49.8151V52.5356C727.514 52.5356 728.139 52.5741 728.763 52.5356C730.705 52.4202 731.878 51.4782 732.263 49.5937C732.426 48.5553 732.522 47.5079 732.551 46.46C732.618 45.4985 732.609 44.5276 732.705 43.5761C732.849 42.0859 733.532 41.4708 735.022 41.3748C735.166 41.3554 735.301 41.3269 735.436 41.2789V38.2311C735.185 38.2021 735.012 38.1736 734.83 38.1636Z" fill="#173647"/>
<rect x="776" width="80" height="80" rx="40" fill="white" fill-opacity="0.02"/>
<rect x="776.5" y="0.5" width="79" height="79" rx="39.5" stroke="url(#paint26_linear_337_1187)" stroke-opacity="0.08"/>
<path d="M802.109 15.0002H829.793C831.14 15.0002 832.448 15.2151 833.717 15.6643C835.553 16.3284 837.212 17.5002 838.461 19.0236C839.731 20.5471 840.57 22.422 840.863 24.3752C840.98 25.0978 841 25.8205 841 26.5431V53.5546C841 54.4139 840.96 55.2928 840.785 56.1327C840.394 58.0662 839.477 59.8826 838.149 61.3474C836.841 62.8123 835.123 63.906 833.268 64.4919C832.136 64.8435 830.964 64.9998 829.774 64.9998C829.246 64.9998 802.031 64.9998 801.621 64.9802C799.629 64.8826 797.658 64.238 795.998 63.1248C794.378 62.031 793.05 60.5076 792.191 58.7498C791.449 57.2459 791.078 55.5663 791.078 53.8866V26.1134C791.039 24.4533 791.391 22.8127 792.113 21.3283C792.952 19.5705 794.26 18.0276 795.881 16.9338C797.54 15.801 799.493 15.137 801.484 15.0393C801.679 15.0002 801.894 15.0002 802.109 15.0002V15.0002Z" fill="url(#paint27_linear_337_1187)"/>
<path d="M833.171 55.8983C832.995 55.6248 832.8 55.3514 832.585 55.0975C832.097 54.5116 831.531 54.0038 830.906 53.5741C830.125 53.0467 829.207 52.7147 828.27 52.6757C827.606 52.6366 826.943 52.7538 826.318 52.9882C825.693 53.203 825.088 53.5155 824.502 53.828C823.819 54.1795 823.136 54.5311 822.413 54.8241C821.554 55.1756 820.656 55.4491 819.738 55.6444C818.587 55.8592 817.415 55.9373 816.263 55.9178C814.174 55.8788 812.085 55.5663 810.094 54.9803C808.337 54.453 806.658 53.7303 805.076 52.8124C803.69 52.0116 802.402 51.0936 801.191 50.0585C800.196 49.1991 799.278 48.2812 798.419 47.3046C797.833 46.621 797.267 45.8984 796.74 45.1562C796.525 44.8632 796.33 44.5507 796.154 44.2382L791 38.6719V26.0744C791 19.9611 795.939 15.0002 802.05 15.0002H811.91L819.211 22.422C835.689 33.6329 830.359 45.996 830.359 45.996C830.359 45.996 835.045 51.2694 833.171 55.8983V55.8983Z" fill="url(#paint28_linear_337_1187)"/>
<path d="M819.25 22.422C835.728 33.6328 830.398 45.996 830.398 45.996C830.398 45.996 835.084 51.2889 833.19 55.9178C833.19 55.9178 831.257 52.6756 828.016 52.6756C824.893 52.6756 823.058 55.9178 816.771 55.9178C802.773 55.9178 796.154 44.2187 796.154 44.2187C808.766 52.5194 817.376 46.6405 817.376 46.6405C811.695 43.3398 799.61 27.5587 799.61 27.5587C810.133 36.5234 814.682 38.8867 814.682 38.8867C811.968 36.6406 804.354 25.6642 804.354 25.6642C810.445 31.836 822.55 40.4492 822.55 40.4492C825.986 30.918 819.25 22.422 819.25 22.422Z" fill="white"/>
<rect x="872" width="80" height="80" rx="40" fill="white" fill-opacity="0.02"/>
<rect x="872.5" y="0.5" width="79" height="79" rx="39.5" stroke="url(#paint29_linear_337_1187)" stroke-opacity="0.08"/>
<path d="M912 25.0001C905.333 25.0001 901.167 28.3326 899.5 34.9969C902 31.6644 904.917 30.4152 908.25 31.248C910.152 31.7232 911.511 33.1031 913.016 34.6299C915.467 37.117 918.303 39.9956 924.5 39.9956C931.166 39.9956 935.333 36.6631 937 29.9982C934.5 33.3307 931.583 34.5805 928.25 33.7477C926.348 33.2725 924.989 31.8926 923.484 30.3658C921.033 27.8787 918.196 25.0001 912 25.0001V25.0001ZM899.5 39.9956C892.834 39.9956 888.666 43.328 887 49.993C889.5 46.6605 892.416 45.4107 895.75 46.2441C897.652 46.7199 899.011 48.0991 900.516 49.6253C902.967 52.1125 905.804 54.9917 912 54.9917C918.667 54.9917 922.833 51.6592 924.5 44.9943C922 48.3267 919.083 49.5766 915.75 48.7431C913.848 48.2686 912.489 46.8881 910.984 45.3619C908.533 42.8747 905.696 39.9956 899.5 39.9956V39.9956Z" fill="#06B6D4"/>
<rect x="968" width="80" height="80" rx="40" fill="white" fill-opacity="0.02"/>
<rect x="968.5" y="0.5" width="79" height="79" rx="39.5" stroke="url(#paint30_linear_337_1187)" stroke-opacity="0.08"/>
<path d="M983 15.0002H1033V64.9998H983V15.0002Z" fill="#017ACB"/>
<path d="M1007.01 33.5157H1009.41V37.6563H1002.92V56.078L1002.75 56.1249C1002.52 56.1874 999.43 56.1874 998.765 56.1171L998.234 56.0702V37.6563H991.75V33.5157L993.805 33.4923C994.93 33.4767 997.82 33.4767 1000.23 33.4923C1002.63 33.5079 1005.68 33.5157 1007.01 33.5157V33.5157ZM1025.31 54.1249C1024.36 55.1327 1023.34 55.6952 1021.63 56.1561C1020.89 56.3593 1020.77 56.3671 1019.09 56.3593C1017.42 56.3515 1017.29 56.3515 1016.48 56.1405C1014.37 55.6015 1012.68 54.5468 1011.52 53.0546C1011.2 52.6327 1010.66 51.7578 1010.66 51.6484C1010.66 51.6171 1010.73 51.5468 1010.84 51.4999C1010.94 51.4531 1011.15 51.3203 1011.32 51.2187C1011.49 51.1171 1011.8 50.9296 1012.02 50.8203C1012.23 50.7109 1012.84 50.3515 1013.37 50.0312C1013.9 49.7109 1014.38 49.4531 1014.44 49.4531C1014.49 49.4531 1014.59 49.5625 1014.67 49.6953C1015.14 50.4843 1016.23 51.4921 1017.01 51.8359C1017.48 52.039 1018.54 52.2656 1019.05 52.2656C1019.52 52.2656 1020.37 52.0624 1020.84 51.8515C1021.33 51.6249 1021.58 51.3984 1021.87 50.9453C1022.08 50.625 1022.1 50.539 1022.09 49.9296C1022.09 49.3672 1022.06 49.2109 1021.91 48.9531C1021.47 48.2343 1020.87 47.8594 1018.47 46.7969C1015.98 45.6953 1014.87 45.0391 1013.96 44.1563C1013.29 43.5 1013.16 43.3203 1012.73 42.5C1012.19 41.4454 1012.12 41.1016 1012.11 39.5313C1012.1 38.4298 1012.12 38.0704 1012.24 37.6954C1012.41 37.1329 1012.94 36.047 1013.18 35.7735C1013.68 35.1876 1013.86 35.0079 1014.21 34.7189C1015.27 33.8439 1016.93 33.2657 1018.52 33.2111C1018.69 33.2111 1019.29 33.2423 1019.84 33.2814C1021.44 33.4142 1022.52 33.8048 1023.57 34.6407C1024.36 35.2657 1025.55 36.7345 1025.44 36.9298C1025.36 37.047 1022.24 39.1251 1022.04 39.1876C1021.91 39.2266 1021.83 39.1797 1021.66 38.9766C1020.59 37.7032 1020.16 37.4298 1019.13 37.3673C1018.4 37.3204 1018.01 37.4063 1017.52 37.7345C1017 38.0782 1016.75 38.6016 1016.75 39.3282C1016.76 40.3907 1017.16 40.8907 1018.66 41.6329C1019.63 42.1094 1020.46 42.5 1020.52 42.5C1020.62 42.5 1022.62 43.5 1023.15 43.8125C1025.59 45.2422 1026.58 46.7109 1026.84 49.2422C1027.02 51.1484 1026.48 52.8906 1025.31 54.1249V54.1249Z" fill="white"/>
<defs>
<linearGradient id="paint0_linear_337_1187" x1="47.3197" y1="80" x2="87.9307" y2="37.5508" gradientUnits="userSpaceOnUse">
<stop stop-color="white"/>
<stop offset="0.5" stop-color="white" stop-opacity="0"/>
<stop offset="1" stop-color="white"/>
</linearGradient>
<linearGradient id="paint1_linear_337_1187" x1="143.32" y1="80" x2="183.931" y2="37.5508" gradientUnits="userSpaceOnUse">
<stop stop-color="white"/>
<stop offset="0.5" stop-color="white" stop-opacity="0"/>
<stop offset="1" stop-color="white"/>
</linearGradient>
<linearGradient id="paint2_linear_337_1187" x1="239.32" y1="80" x2="279.931" y2="37.5508" gradientUnits="userSpaceOnUse">
<stop stop-color="white"/>
<stop offset="0.5" stop-color="white" stop-opacity="0"/>
<stop offset="1" stop-color="white"/>
</linearGradient>
<linearGradient id="paint3_linear_337_1187" x1="335.32" y1="80" x2="375.931" y2="37.5508" gradientUnits="userSpaceOnUse">
<stop stop-color="white"/>
<stop offset="0.5" stop-color="white" stop-opacity="0"/>
<stop offset="1" stop-color="white"/>
</linearGradient>
<linearGradient id="paint4_linear_337_1187" x1="315.805" y1="19.474" x2="340.583" y2="44.005" gradientUnits="userSpaceOnUse">
<stop stop-color="#387EB8"/>
<stop offset="1" stop-color="#366994"/>
</linearGradient>
<linearGradient id="paint5_linear_337_1187" x1="331.014" y1="35.2264" x2="357.623" y2="60.3807" gradientUnits="userSpaceOnUse">
<stop stop-color="#FFE052"/>
<stop offset="1" stop-color="#FFC331"/>
</linearGradient>
<linearGradient id="paint6_linear_337_1187" x1="431.32" y1="80" x2="471.931" y2="37.5508" gradientUnits="userSpaceOnUse">
<stop stop-color="white"/>
<stop offset="0.5" stop-color="white" stop-opacity="0"/>
<stop offset="1" stop-color="white"/>
</linearGradient>
<linearGradient id="paint7_linear_337_1187" x1="450.929" y1="69.3957" x2="440.393" y2="50.7662" gradientUnits="userSpaceOnUse">
<stop stop-color="#FB7655"/>
<stop offset="0.41" stop-color="#E42B1E"/>
<stop offset="0.99" stop-color="#990000"/>
<stop offset="1" stop-color="#990000"/>
</linearGradient>
<linearGradient id="paint8_linear_337_1187" x1="456.183" y1="53.7517" x2="441.372" y2="50.8586" gradientUnits="userSpaceOnUse">
<stop stop-color="#871101"/>
<stop offset="0.99" stop-color="#911209"/>
<stop offset="1" stop-color="#911209"/>
</linearGradient>
<linearGradient id="paint9_linear_337_1187" x1="445.307" y1="69.9599" x2="445.116" y2="60.5658" gradientUnits="userSpaceOnUse">
<stop stop-color="#871101"/>
<stop offset="0.99" stop-color="#911209"/>
<stop offset="1" stop-color="#911209"/>
</linearGradient>
<linearGradient id="paint10_linear_337_1187" x1="416.765" y1="47.1482" x2="421.169" y2="60.0608" gradientUnits="userSpaceOnUse">
<stop stop-color="white"/>
<stop offset="0.23" stop-color="#E57252"/>
<stop offset="0.46" stop-color="#DE3B20"/>
<stop offset="0.99" stop-color="#A60003"/>
<stop offset="1" stop-color="#A60003"/>
</linearGradient>
<linearGradient id="paint11_linear_337_1187" x1="431.26" y1="34.3601" x2="432.059" y2="48.3362" gradientUnits="userSpaceOnUse">
<stop stop-color="white"/>
<stop offset="0.23" stop-color="#E4714E"/>
<stop offset="0.56" stop-color="#BE1A0D"/>
<stop offset="0.99" stop-color="#A80D00"/>
<stop offset="1" stop-color="#A80D00"/>
</linearGradient>
<linearGradient id="paint12_linear_337_1187" x1="444.123" y1="21.4407" x2="445.29" y2="31.5911" gradientUnits="userSpaceOnUse">
<stop stop-color="white"/>
<stop offset="0.18" stop-color="#E46342"/>
<stop offset="0.4" stop-color="#C82410"/>
<stop offset="0.99" stop-color="#A80D00"/>
<stop offset="1" stop-color="#A80D00"/>
</linearGradient>
<linearGradient id="paint13_linear_337_1187" x1="437.025" y1="17.9129" x2="438.671" y2="10.9305" gradientUnits="userSpaceOnUse">
<stop stop-color="white"/>
<stop offset="0.54" stop-color="#C81F11"/>
<stop offset="0.99" stop-color="#BF0905"/>
<stop offset="1" stop-color="#BF0905"/>
</linearGradient>
<linearGradient id="paint14_linear_337_1187" x1="407.985" y1="43.6567" x2="412.291" y2="46.356" gradientUnits="userSpaceOnUse">
<stop stop-color="white"/>
<stop offset="0.31" stop-color="#DE4024"/>
<stop offset="0.99" stop-color="#BF190B"/>
<stop offset="1" stop-color="#BF190B"/>
</linearGradient>
<linearGradient id="paint15_linear_337_1187" x1="402.317" y1="54.142" x2="441.016" y2="14.236" gradientUnits="userSpaceOnUse">
<stop stop-color="#BD0012"/>
<stop offset="0.07" stop-color="white"/>
<stop offset="0.17" stop-color="white"/>
<stop offset="0.27" stop-color="#C82F1C"/>
<stop offset="0.33" stop-color="#820C01"/>
<stop offset="0.46" stop-color="#A31601"/>
<stop offset="0.72" stop-color="#B31301"/>
<stop offset="0.99" stop-color="#E82609"/>
<stop offset="1" stop-color="#E82609"/>
</linearGradient>
<linearGradient id="paint16_linear_337_1187" x1="432.002" y1="58.1618" x2="421.051" y2="53.5621" gradientUnits="userSpaceOnUse">
<stop stop-color="#8C0C01"/>
<stop offset="0.54" stop-color="#990C00"/>
<stop offset="0.99" stop-color="#A80D0E"/>
<stop offset="1" stop-color="#A80D0E"/>
</linearGradient>
<linearGradient id="paint17_linear_337_1187" x1="452.052" y1="44.1514" x2="440.772" y2="36.1387" gradientUnits="userSpaceOnUse">
<stop stop-color="#7E110B"/>
<stop offset="0.99" stop-color="#9E0C00"/>
<stop offset="1" stop-color="#9E0C00"/>
</linearGradient>
<linearGradient id="paint18_linear_337_1187" x1="455.862" y1="27.0974" x2="450.557" y2="21.7122" gradientUnits="userSpaceOnUse">
<stop stop-color="#79130D"/>
<stop offset="0.99" stop-color="#9E120B"/>
<stop offset="1" stop-color="#9E120B"/>
</linearGradient>
<radialGradient id="paint19_radial_337_1187" cx="0" cy="0" r="1" gradientUnits="userSpaceOnUse" gradientTransform="translate(443.297 35.0344) scale(12.7082 6.6405)">
<stop stop-color="#A80D00"/>
<stop offset="0.99" stop-color="#7E0E08"/>
<stop offset="1" stop-color="#7E0E08"/>
</radialGradient>
<radialGradient id="paint20_radial_337_1187" cx="0" cy="0" r="1" gradientUnits="userSpaceOnUse" gradientTransform="translate(425.698 51.7816) scale(16.8937 13.151)">
<stop stop-color="#A30C00"/>
<stop offset="0.99" stop-color="#800E08"/>
<stop offset="1" stop-color="#800E08"/>
</radialGradient>
<linearGradient id="paint21_linear_337_1187" x1="413.73" y1="64.7996" x2="404.219" y2="56.9045" gradientUnits="userSpaceOnUse">
<stop stop-color="#8B2114"/>
<stop offset="0.43" stop-color="#9E100A"/>
<stop offset="0.99" stop-color="#B3100C"/>
<stop offset="1" stop-color="#B3100C"/>
</linearGradient>
<linearGradient id="paint22_linear_337_1187" x1="446.025" y1="17.4728" x2="448.724" y2="24.3021" gradientUnits="userSpaceOnUse">
<stop stop-color="#B31000"/>
<stop offset="0.44" stop-color="#910F08"/>
<stop offset="0.99" stop-color="#791C12"/>
<stop offset="1" stop-color="#791C12"/>
</linearGradient>
<linearGradient id="paint23_linear_337_1187" x1="527.32" y1="80" x2="567.931" y2="37.5508" gradientUnits="userSpaceOnUse">
<stop stop-color="white"/>
<stop offset="0.5" stop-color="white" stop-opacity="0"/>
<stop offset="1" stop-color="white"/>
</linearGradient>
<linearGradient id="paint24_linear_337_1187" x1="623.32" y1="80" x2="663.931" y2="37.5508" gradientUnits="userSpaceOnUse">
<stop stop-color="white"/>
<stop offset="0.5" stop-color="white" stop-opacity="0"/>
<stop offset="1" stop-color="white"/>
</linearGradient>
<linearGradient id="paint25_linear_337_1187" x1="719.32" y1="80" x2="759.931" y2="37.5508" gradientUnits="userSpaceOnUse">
<stop stop-color="white"/>
<stop offset="0.5" stop-color="white" stop-opacity="0"/>
<stop offset="1" stop-color="white"/>
</linearGradient>
<linearGradient id="paint26_linear_337_1187" x1="815.32" y1="80" x2="855.931" y2="37.5508" gradientUnits="userSpaceOnUse">
<stop stop-color="white"/>
<stop offset="0.5" stop-color="white" stop-opacity="0"/>
<stop offset="1" stop-color="white"/>
</linearGradient>
<linearGradient id="paint27_linear_337_1187" x1="820.732" y1="13.2161" x2="811.282" y2="66.7887" gradientUnits="userSpaceOnUse">
<stop stop-color="#FAAE42"/>
<stop offset="1" stop-color="#EF3E31"/>
</linearGradient>
<linearGradient id="paint28_linear_337_1187" x1="816.5" y1="15.808" x2="809.584" y2="55.0171" gradientUnits="userSpaceOnUse">
<stop stop-color="#E39F3A"/>
<stop offset="1" stop-color="#D33929"/>
</linearGradient>
<linearGradient id="paint29_linear_337_1187" x1="911.32" y1="80" x2="951.931" y2="37.5508" gradientUnits="userSpaceOnUse">
<stop stop-color="white"/>
<stop offset="0.5" stop-color="white" stop-opacity="0"/>
<stop offset="1" stop-color="white"/>
</linearGradient>
<linearGradient id="paint30_linear_337_1187" x1="1007.32" y1="80" x2="1047.93" y2="37.5508" gradientUnits="userSpaceOnUse">
<stop stop-color="white"/>
<stop offset="0.5" stop-color="white" stop-opacity="0"/>
<stop offset="1" stop-color="white"/>
</linearGradient>
</defs>
</svg>
