<svg width="1060" height="1060" viewBox="0 0 1060 1060" fill="none" xmlns="http://www.w3.org/2000/svg">
<path opacity="0.2" d="M142.748 530C142.748 743.873 316.127 917.252 530 917.252C743.873 917.252 917.252 743.873 917.252 530C917.252 316.127 743.873 142.748 530 142.748C316.127 142.748 142.748 316.127 142.748 530ZM530 916.252C316.679 916.252 143.748 743.321 143.748 530C143.748 316.679 316.679 143.748 530 143.748C743.321 143.748 916.252 316.679 916.252 530C916.252 743.321 743.321 916.252 530 916.252ZM530 833.704C362.269 833.704 226.296 697.731 226.296 530C226.296 362.269 362.269 226.296 530 226.296C697.731 226.296 833.704 362.269 833.704 530C833.704 697.731 697.731 833.704 530 833.704ZM225.296 530C225.296 698.283 361.717 834.704 530 834.704C698.283 834.704 834.704 698.283 834.704 530C834.704 361.717 698.283 225.296 530 225.296C361.717 225.296 225.296 361.717 225.296 530ZM289.5 530C289.5 662.824 397.176 770.5 530 770.5C662.824 770.5 770.5 662.824 770.5 530C770.5 397.176 662.824 289.5 530 289.5C397.176 289.5 289.5 397.176 289.5 530ZM530 769.5C397.728 769.5 290.5 662.272 290.5 530C290.5 397.728 397.728 290.5 530 290.5C662.272 290.5 769.5 397.728 769.5 530C769.5 662.272 662.272 769.5 530 769.5ZM530 711.411C429.81 711.411 348.589 630.19 348.589 530C348.589 429.81 429.81 348.589 530 348.589C630.19 348.589 711.411 429.81 711.411 530C711.411 630.19 630.19 711.411 530 711.411ZM347.589 530C347.589 630.743 429.257 712.411 530 712.411C630.743 712.411 712.411 630.743 712.411 530C712.411 429.257 630.743 347.589 530 347.589C429.257 347.589 347.589 429.257 347.589 530ZM530 660.965C457.67 660.965 399.035 602.33 399.035 530C399.035 457.67 457.67 399.035 530 399.035C602.33 399.035 660.965 457.67 660.965 530C660.965 602.33 602.33 660.965 530 660.965ZM398.035 530C398.035 602.882 457.118 661.965 530 661.965C602.882 661.965 661.965 602.882 661.965 530C661.965 457.118 602.882 398.035 530 398.035C457.118 398.035 398.035 457.118 398.035 530ZM530 1009.5C265.179 1009.5 50.5 794.821 50.5 530C50.5 265.179 265.179 50.5 530 50.5C794.821 50.5 1009.5 265.179 1009.5 530C1009.5 794.821 794.821 1009.5 530 1009.5ZM143.248 530C143.248 743.597 316.403 916.752 530 916.752C743.597 916.752 916.752 743.597 916.752 530C916.752 316.403 743.597 143.248 530 143.248C316.403 143.248 143.248 316.403 143.248 530ZM530 834.204C361.993 834.204 225.796 698.007 225.796 530C225.796 361.993 361.993 225.796 530 225.796C698.007 225.796 834.204 361.993 834.204 530C834.204 698.007 698.007 834.204 530 834.204ZM290 530C290 662.548 397.452 770 530 770C662.548 770 770 662.548 770 530C770 397.452 662.548 290 530 290C397.452 290 290 397.452 290 530ZM530 711.911C429.533 711.911 348.089 630.467 348.089 530C348.089 429.533 429.533 348.089 530 348.089C630.467 348.089 711.911 429.533 711.911 530C711.911 630.467 630.467 711.911 530 711.911ZM530 661.465C457.394 661.465 398.535 602.606 398.535 530C398.535 457.394 457.394 398.535 530 398.535C602.606 398.535 661.465 457.394 661.465 530C661.465 602.606 602.606 661.465 530 661.465Z" stroke="url(#paint0_radial_323_59357)"/>
<defs>
<radialGradient id="paint0_radial_323_59357" cx="0" cy="0" r="1" gradientUnits="userSpaceOnUse" gradientTransform="translate(530 530) rotate(90) scale(1168.5)">
<stop offset="0.0817502" stop-color="white" stop-opacity="0"/>
<stop offset="1" stop-color="white"/>
</radialGradient>
</defs>
</svg>
