<svg width="1481" height="833" viewBox="0 0 1481 833" fill="none" xmlns="http://www.w3.org/2000/svg">
<g clip-path="url(#clip0_369_1432)">
<path fill-rule="evenodd" clip-rule="evenodd" d="M347.75 -596H397.75L-801.75 1429H-851.75L347.75 -596ZM455.25 -596H505.25L-694.25 1429H-744.25L455.25 -596ZM612.75 -596H562.75L-636.75 1429H-586.75L612.75 -596ZM670.25 -596H720.25L-479.25 1429H-529.25L670.25 -596ZM827.75 -596H777.75L-421.75 1429H-371.75L827.75 -596ZM885.25 -596H935.25L-264.25 1429H-314.25L885.25 -596ZM1042.75 -596H992.75L-206.75 1429H-156.75L1042.75 -596ZM1100.25 -596H1150.25L-49.25 1429H-99.25L1100.25 -596ZM1257.75 -596H1207.75L8.25 1429H58.25L1257.75 -596ZM1315.25 -596H1365.25L165.75 1429H115.75L1315.25 -596ZM1472.75 -596H1422.75L223.25 1429H273.25L1472.75 -596ZM1530.25 -596H1580.25L380.75 1429H330.75L1530.25 -596ZM1687.75 -596H1637.75L438.25 1429H488.25L1687.75 -596ZM1745.25 -596H1795.25L595.75 1429H545.75L1745.25 -596ZM1902.75 -596H1852.75L653.25 1429H703.25L1902.75 -596ZM1960.25 -596H2010.25L810.75 1429H760.75L1960.25 -596ZM2117.75 -596H2067.75L868.25 1429H918.25L2117.75 -596ZM2175.25 -596H2225.25L1025.75 1429H975.75L2175.25 -596ZM2332.75 -596H2282.75L1083.25 1429H1133.25L2332.75 -596Z" fill="url(#paint0_linear_369_1432)"/>
</g>
<defs>
<linearGradient id="paint0_linear_369_1432" x1="2332.75" y1="-210" x2="-109.25" y2="1257.5" gradientUnits="userSpaceOnUse">
<stop stop-color="white"/>
<stop offset="1" stop-color="white" stop-opacity="0"/>
</linearGradient>
<clipPath id="clip0_369_1432">
<rect width="1481" height="833" fill="white"/>
</clipPath>
</defs>
</svg>
