<svg width="208" height="60" viewBox="0 0 208 60" fill="none" xmlns="http://www.w3.org/2000/svg">
<path fill-rule="evenodd" clip-rule="evenodd" d="M22.2854 17.8374C19.9348 16.7017 17.2143 16.1339 14.1241 16.1339H0.456055V43.8661H14.1241C17.2143 43.8661 19.9348 43.3115 22.2854 42.2022C24.6359 41.0664 26.4717 39.4686 27.7922 37.4084C29.1127 35.3219 29.7731 32.8394 29.7731 29.9604C29.7731 27.108 29.1127 24.6517 27.7922 22.5916C26.4717 20.5314 24.6359 18.9467 22.2854 17.8374ZM17.1747 35.8237C16.1974 36.3256 15.0485 36.5765 13.7279 36.5765H9.8058V23.4235H13.7279C15.0485 23.4235 16.1974 23.6744 17.1747 24.1763C18.1783 24.6781 18.9575 25.4176 19.5121 26.3948C20.0668 27.3721 20.3441 28.5607 20.3441 29.9604C20.3441 31.3867 20.0668 32.6017 19.5121 33.6052C18.9575 34.5825 18.1783 35.3219 17.1747 35.8237ZM52.2276 43.7076C54.3934 44.2358 56.6383 44.5 58.9626 44.5C61.8416 44.5 64.2318 44.0773 66.1334 43.2322C68.035 42.3606 69.4613 41.2249 70.4121 39.8251C71.3894 38.3989 71.878 36.8407 71.878 35.1502C71.878 33.6975 71.6006 32.4828 71.046 31.5055C70.4913 30.5282 69.7517 29.7359 68.8274 29.1285C67.9293 28.521 66.9389 28.0323 65.8561 27.6626C64.7733 27.2929 63.6771 27.0023 62.5678 26.791C61.485 26.5798 60.4812 26.3817 59.5569 26.1968C58.6588 26.0118 57.9326 25.7874 57.3779 25.5233C56.8233 25.2328 56.5459 24.8498 56.5459 24.3743C56.5459 24.0574 56.6516 23.7669 56.8629 23.5028C57.1006 23.2386 57.4836 23.0273 58.0118 22.8689C58.54 22.7104 59.2531 22.6312 60.1511 22.6312C61.3661 22.6312 62.6074 22.8028 63.8752 23.1462C65.1694 23.4896 66.5031 24.0046 67.8766 24.6913L70.6894 17.9167C69.2367 17.0978 67.5993 16.4904 65.7768 16.0943C63.9544 15.6981 62.1055 15.5 60.2304 15.5C57.3779 15.5 54.9877 15.9226 53.0596 16.7678C51.1579 17.6129 49.7186 18.7486 48.7413 20.1749C47.7904 21.5746 47.315 23.1331 47.315 24.8498C47.315 26.3288 47.5924 27.5702 48.147 28.5738C48.7017 29.5511 49.4279 30.3435 50.326 30.9509C51.2503 31.5583 52.2541 32.047 53.3369 32.4167C54.4462 32.7864 55.5424 33.0902 56.6252 33.3279C57.708 33.5391 58.6984 33.7505 59.5965 33.9617C60.5208 34.1467 61.2604 34.3844 61.8151 34.6748C62.3697 34.9653 62.647 35.3615 62.647 35.8634C62.647 36.1803 62.5282 36.4576 62.2905 36.6953C62.0528 36.9066 61.6698 37.0784 61.1416 37.2104C60.6397 37.3161 59.9399 37.3688 59.0418 37.3688C57.5099 37.3688 55.9252 37.1443 54.2877 36.6953C52.6766 36.2199 51.2107 35.5992 49.8902 34.8333L46.8792 41.6475C48.279 42.4926 50.0618 43.1795 52.2276 43.7076ZM108.32 28.7445L97.7814 16.1339H90.0956V43.8661H99.2076V31.2556L109.747 43.8661H117.432V16.1339H108.32V28.7445ZM157.162 16.1339L145.039 43.8661H154.547L156.405 39.0328H166.952L168.809 43.8661H178.476L166.353 16.1339H157.162ZM164.363 32.2979L161.678 25.3125L158.993 32.2979H164.363ZM200.808 17.4017C198.933 16.5565 196.7 16.1339 194.112 16.1339H180.761V43.8661H190.111V36.8934H192.657L197.361 43.8661H207.345L201.521 35.3312C203.08 34.538 204.308 33.4741 205.205 32.1394C206.235 30.5812 206.75 28.7323 206.75 26.5929C206.75 24.4536 206.235 22.6047 205.205 21.0465C204.175 19.4618 202.709 18.2468 200.808 17.4017ZM196.371 28.97C195.764 29.5511 194.813 29.8416 193.518 29.8416H190.111V23.3443H193.518C194.813 23.3443 195.764 23.6348 196.371 24.2159C197.004 24.797 197.321 25.5893 197.321 26.5929C197.321 27.5965 197.004 28.3889 196.371 28.97ZM33.9794 16.1339V43.8661H43.3291V16.1339H33.9794ZM75.4525 16.1339V43.8661H84.8023V16.1339H75.4525ZM128.75 23.3839V43.8661H138.1V23.3839H146.222V16.1339H120.629V23.3839H128.75Z" fill="#494D5E"/>
</svg>
