<svg width="193" height="36" viewBox="0 0 193 36" fill="none" xmlns="http://www.w3.org/2000/svg">
<path fill-rule="evenodd" clip-rule="evenodd" d="M0.921875 8.30769L18.1526 0.5L35.3834 8.30769L18.1527 35.5L0.921875 8.30769ZM105.895 22.4711L103.944 24.3966V27.9615H99.8845V8.65384H103.944V19.5827L109.877 13.9622H114.717L108.888 19.895L115.237 27.9615H110.319L105.895 22.4711ZM54.2393 13.1815H48.4106V9.74673H64.2835V13.1815H58.4547V27.9615H54.2393V13.1815ZM71.5037 28.1697C70.0292 28.1697 68.7021 27.8661 67.5225 27.259C66.3602 26.6345 65.4495 25.7758 64.7903 24.6829C64.1311 23.59 63.8015 22.3496 63.8015 20.9618C63.8015 19.5741 64.1311 18.3337 64.7903 17.2408C65.4495 16.1479 66.3602 15.2979 67.5225 14.6908C68.7021 14.0662 70.0292 13.754 71.5037 13.754C72.9783 13.754 74.2967 14.0662 75.459 14.6908C76.6212 15.2979 77.532 16.1479 78.1912 17.2408C78.8504 18.3337 79.18 19.5741 79.18 20.9618C79.18 22.3496 78.8504 23.59 78.1912 24.6829C77.532 25.7758 76.6212 26.6345 75.459 27.259C74.2967 27.8661 72.9783 28.1697 71.5037 28.1697ZM71.5037 24.839C72.5446 24.839 73.3946 24.4921 74.0538 23.7982C74.7304 23.0869 75.0686 22.1415 75.0686 20.9618C75.0686 19.7822 74.7304 18.8455 74.0538 18.1516C73.3946 17.4403 72.5446 17.0847 71.5037 17.0847C70.4629 17.0847 69.6042 17.4403 68.9276 18.1516C68.2511 18.8455 67.9128 19.7822 67.9128 20.9618C67.9128 22.1415 68.2511 23.0869 68.9276 23.7982C69.6042 24.4921 70.4629 24.839 71.5037 24.839ZM94.5916 15.3153C93.5334 14.2744 92.137 13.754 90.4022 13.754C89.4481 13.754 88.5721 13.9188 87.7741 14.2484C86.9761 14.5606 86.3082 15.0117 85.7704 15.6015V13.9622H81.8933V27.9615H85.9526V21.0399C85.9526 19.7909 86.2562 18.8541 86.8633 18.2296C87.4705 17.5878 88.2858 17.2668 89.3093 17.2668C90.2287 17.2668 90.9313 17.5444 91.417 18.0995C91.9028 18.6373 92.1456 19.4613 92.1456 20.5715V27.9615H96.2049V19.947C96.2049 17.9 95.6672 16.3561 94.5916 15.3153ZM130.088 22.1068C130.14 21.4302 130.166 21.0659 130.166 21.0139C130.166 19.5567 129.845 18.2817 129.203 17.1888C128.578 16.0785 127.711 15.2285 126.601 14.6387C125.491 14.0489 124.25 13.754 122.88 13.754C121.475 13.754 120.2 14.0662 119.055 14.6908C117.927 15.2979 117.034 16.1566 116.375 17.2668C115.733 18.3597 115.412 19.5914 115.412 20.9618C115.412 22.3496 115.741 23.59 116.401 24.6829C117.06 25.7758 117.997 26.6345 119.211 27.259C120.425 27.8661 121.822 28.1697 123.4 28.1697C125.933 28.1697 127.859 27.4151 129.177 25.9059L127.017 23.564C126.531 24.0323 126.002 24.3793 125.43 24.6048C124.875 24.813 124.233 24.9171 123.504 24.9171C122.446 24.9171 121.561 24.6655 120.85 24.1625C120.139 23.6594 119.688 22.9742 119.497 22.1068H130.088ZM120.59 17.6051C121.215 17.0847 121.986 16.8245 122.906 16.8245C123.808 16.8245 124.571 17.0934 125.196 17.6311C125.82 18.1516 126.202 18.8541 126.341 19.7389H119.445C119.584 18.8368 119.965 18.1255 120.59 17.6051ZM146.581 21.0139C146.581 21.0659 146.555 21.4302 146.503 22.1068H135.913C136.104 22.9742 136.555 23.6594 137.266 24.1625C137.977 24.6655 138.862 24.9171 139.92 24.9171C140.649 24.9171 141.29 24.813 141.846 24.6048C142.418 24.3793 142.947 24.0323 143.433 23.564L145.593 25.9059C144.274 27.4151 142.349 28.1697 139.816 28.1697C138.237 28.1697 136.841 27.8661 135.627 27.259C134.412 26.6345 133.475 25.7758 132.816 24.6829C132.157 23.59 131.827 22.3496 131.827 20.9618C131.827 19.5914 132.148 18.3597 132.79 17.2668C133.449 16.1566 134.343 15.2979 135.47 14.6908C136.615 14.0662 137.89 13.754 139.296 13.754C140.666 13.754 141.906 14.0489 143.017 14.6387C144.127 15.2285 144.994 16.0785 145.619 17.1888C146.261 18.2817 146.581 19.5567 146.581 21.0139ZM139.322 16.8245C138.402 16.8245 137.63 17.0847 137.006 17.6051C136.381 18.1255 136 18.8368 135.861 19.7389H142.756C142.618 18.8541 142.236 18.1516 141.611 17.6311C140.987 17.0934 140.224 16.8245 139.322 16.8245ZM161.098 14.6647C160.039 14.0576 158.86 13.754 157.559 13.754C155.633 13.754 154.167 14.3611 153.161 15.5755V13.9622H149.284V33.0096H153.343V26.4783C154.367 27.6059 155.772 28.1697 157.559 28.1697C158.86 28.1697 160.039 27.8748 161.098 27.285C162.173 26.6778 163.014 25.8365 163.622 24.7609C164.229 23.668 164.532 22.4017 164.532 20.9618C164.532 19.522 164.229 18.2643 163.622 17.1888C163.014 16.0959 162.173 15.2545 161.098 14.6647ZM159.406 23.7982C158.747 24.4921 157.897 24.839 156.856 24.839C155.815 24.839 154.957 24.4921 154.28 23.7982C153.621 23.0869 153.291 22.1415 153.291 20.9618C153.291 19.7822 153.621 18.8455 154.28 18.1516C154.957 17.4403 155.815 17.0847 156.856 17.0847C157.897 17.0847 158.747 17.4403 159.406 18.1516C160.083 18.8455 160.421 19.7822 160.421 20.9618C160.421 22.1415 160.083 23.0869 159.406 23.7982ZM180.963 21.0139C180.963 21.0659 180.937 21.4302 180.885 22.1068H170.294C170.485 22.9742 170.936 23.6594 171.647 24.1625C172.359 24.6655 173.243 24.9171 174.302 24.9171C175.03 24.9171 175.672 24.813 176.227 24.6048C176.8 24.3793 177.329 24.0323 177.814 23.564L179.974 25.9059C178.656 27.4151 176.73 28.1697 174.197 28.1697C172.619 28.1697 171.222 27.8661 170.008 27.259C168.794 26.6345 167.857 25.7758 167.198 24.6829C166.539 23.59 166.209 22.3496 166.209 20.9618C166.209 19.5914 166.53 18.3597 167.172 17.2668C167.831 16.1566 168.724 15.2979 169.852 14.6908C170.997 14.0662 172.272 13.754 173.677 13.754C175.047 13.754 176.288 14.0489 177.398 14.6387C178.508 15.2285 179.376 16.0785 180 17.1888C180.642 18.2817 180.963 19.5567 180.963 21.0139ZM173.703 16.8245C172.784 16.8245 172.012 17.0847 171.387 17.6051C170.763 18.1255 170.381 18.8368 170.242 19.7389H177.138C176.999 18.8541 176.617 18.1516 175.993 17.6311C175.368 17.0934 174.605 16.8245 173.703 16.8245ZM189.494 14.2744C188.679 14.6214 188.028 15.1331 187.543 15.8097V13.9622H183.665V27.9615H187.725V21.3522C187.725 20.0511 188.054 19.0797 188.714 18.4378C189.373 17.7786 190.284 17.449 191.446 17.449C191.602 17.449 191.906 17.4663 192.357 17.501V13.754C191.281 13.754 190.327 13.9275 189.494 14.2744Z" fill="#3A3D4A"/>
</svg>
