<svg width="214" height="60" viewBox="0 0 214 60" fill="none" xmlns="http://www.w3.org/2000/svg">
<path fill-rule="evenodd" clip-rule="evenodd" d="M30.3053 3L31.1533 3.0008L45.8592 3.01474L46.7088 3.01555L47.1302 3.77068L54.3579 16.7226L54.7767 17.4731L54.3525 18.2204L47.6415 30.0403L54.3649 41.7794L54.7979 42.5354L54.3671 43.2928L46.9951 56.2547L46.5712 57H45.7288H31.2227H30.3781L29.9548 56.2518L23.7428 45.2731L9.87956 44.9783L9.04831 44.9607L8.6368 44.2211L1.2065 30.8671L0.797852 30.1327L1.19983 29.3944L8.48308 16.0182L8.90217 15.2485H9.76294H23.4164L29.8821 3.75235L30.3053 3ZM29.2687 30.0422L23.2696 19.3647L11.3201 19.3803L5.66963 29.8597L5.69297 30.5361L11.4575 40.6349L23.2301 40.8699L29.2687 30.0422ZM27.2156 41.9756L27.1845 42.8646L32.5517 52.6044L44.4513 52.5883L49.9574 42.463L44.3059 32.1739H32.8503L27.2156 41.9756ZM32.5427 27.498H44.3059L49.977 17.3897L44.1 7.09695H32.8697L27.22 16.9066L27.186 17.7766L32.5427 27.498ZM82.9434 24.2854C83.4918 24.6701 83.766 25.2104 83.766 25.9064V26.1537H87.7419V25.824C87.7419 23.9924 87.0747 22.6187 85.7402 21.7029C84.4058 20.7688 82.6874 20.3017 80.5852 20.3017C79.2142 20.3017 77.9711 20.5124 76.8561 20.9336C75.7592 21.3366 74.8818 21.9593 74.2237 22.8018C73.5656 23.6444 73.2366 24.6701 73.2366 25.8789C73.2366 27.1793 73.5565 28.2142 74.1963 28.9835C74.8361 29.7527 75.5947 30.3114 76.4722 30.6594C77.3496 31.0074 78.483 31.3554 79.8723 31.7034C80.8046 31.9232 81.5266 32.1246 82.0385 32.3078C82.5686 32.4726 82.9982 32.7108 83.3272 33.0221C83.6746 33.3152 83.8482 33.6998 83.8482 34.176C83.8482 34.7988 83.5649 35.3116 82.9982 35.7146C82.4498 36.1175 81.5358 36.319 80.2562 36.319C79.1594 36.319 78.3093 36.09 77.7061 35.6321C77.1028 35.1559 76.8012 34.5149 76.8012 33.709L76.8286 33.2694H72.8253L72.7979 33.8738C72.7979 35.8336 73.5108 37.2989 74.9366 38.2696C76.3808 39.2221 78.1997 39.6983 80.3933 39.6983C82.8063 39.6983 84.6983 39.2037 86.0693 38.2147C87.4586 37.2073 88.1532 35.6321 88.1532 33.4892C88.1532 32.262 87.8333 31.2821 87.1935 30.5495C86.572 29.8168 85.8133 29.2765 84.9176 28.9285C84.0402 28.5805 82.9159 28.2417 81.5449 27.912C80.6126 27.6922 79.8723 27.4907 79.3239 27.3076C78.7938 27.1244 78.355 26.8863 78.0077 26.5932C77.6604 26.2819 77.4867 25.8972 77.4867 25.4393C77.4867 24.9082 77.7609 24.4869 78.3093 24.1755C78.876 23.8459 79.6621 23.681 80.6675 23.681C81.6363 23.681 82.395 23.8825 82.9434 24.2854ZM96.6745 35.1926C95.925 34.4233 95.5502 33.3427 95.5502 31.9506V28.0494C95.5502 26.6573 95.9158 25.5859 96.6471 24.8349C97.3965 24.0656 98.3471 23.681 99.4988 23.681C100.687 23.681 101.592 24.0565 102.213 24.8074C102.853 25.5401 103.173 26.6207 103.173 28.0494H107.204C107.204 26.3643 106.875 24.9448 106.217 23.7909C105.559 22.6187 104.654 21.7487 103.502 21.1809C102.369 20.5948 101.071 20.3017 99.6084 20.3017H99.2246C97.7073 20.3017 96.3271 20.6314 95.0841 21.2908C93.8593 21.9502 92.8905 22.9117 92.1776 24.1755C91.4646 25.4393 91.1082 26.9321 91.1082 28.6538V31.3462C91.1082 33.1229 91.4646 34.6431 92.1776 35.9069C92.8905 37.1524 93.8685 38.0956 95.1115 38.7367C96.3546 39.3777 97.7621 39.6983 99.3342 39.6983H99.7181C101.144 39.6983 102.424 39.4052 103.557 38.8191C104.69 38.2147 105.577 37.3355 106.217 36.1816C106.875 35.0094 107.204 33.6174 107.204 32.0056H103.338C103.338 33.4709 103.027 34.5607 102.405 35.275C101.784 35.971 100.824 36.319 99.5262 36.319C98.3745 36.319 97.424 35.9435 96.6745 35.1926ZM122 35.7146H114.515L113.198 39.4235H109.113L115.94 20.5765H120.986L127.813 39.4235H123.371L122 35.7146ZM115.666 32.5001H120.876C120.181 30.4304 119.341 27.9669 118.353 25.1097H118.216L115.666 32.5001ZM130.378 20.5765V39.4235H142.827L142.361 35.9069H134.629V20.5765H130.378ZM145.547 39.4235V20.5765H158.791L158.325 23.9557H149.715V28.0768H157.749V31.4561H149.715V36.0443H158.408L158.874 39.4235H145.547ZM166.048 39.4235H170.244V23.9832H175.563V20.5765H160.701V23.9832H166.048V39.4235ZM194.418 31.3462C194.418 33.0679 194.044 34.5607 193.294 35.8245C192.545 37.0883 191.53 38.0498 190.251 38.7092C188.989 39.3686 187.582 39.6983 186.028 39.6983C184.474 39.6983 183.057 39.3686 181.778 38.7092C180.516 38.0498 179.511 37.0883 178.761 35.8245C178.012 34.5607 177.637 33.0679 177.637 31.3462V28.6538C177.637 26.9321 178.012 25.4393 178.761 24.1755C179.511 22.9117 180.516 21.9502 181.778 21.2908C183.057 20.6314 184.474 20.3017 186.028 20.3017C187.582 20.3017 188.989 20.6314 190.251 21.2908C191.53 21.9502 192.545 22.9117 193.294 24.1755C194.044 25.4393 194.418 26.9321 194.418 28.6538V31.3462ZM189.976 28.0494C189.976 26.6573 189.611 25.5859 188.88 24.8349C188.148 24.0656 187.198 23.681 186.028 23.681C184.858 23.681 183.907 24.0656 183.176 24.8349C182.445 25.5859 182.079 26.6573 182.079 28.0494V31.9506C182.079 33.3427 182.445 34.4233 183.176 35.1926C183.907 35.9435 184.858 36.319 186.028 36.319C187.198 36.319 188.148 35.9435 188.88 35.1926C189.611 34.4233 189.976 33.3427 189.976 31.9506V28.0494ZM202.919 29.4505C203.266 30.0183 203.54 30.4487 203.742 30.7418L209.637 39.4235H213.229V20.5765H209.363V31.6484L209.28 31.7309C209.116 31.4927 208.887 31.1173 208.595 30.6044L207.772 29.3132L201.85 20.5765H198.257V39.4235H202.124V28.379L202.233 28.2966C202.343 28.4798 202.572 28.8644 202.919 29.4505Z" fill="#494D5E"/>
</svg>
