<svg width="1150" height="162" viewBox="0 0 1150 162" fill="none" xmlns="http://www.w3.org/2000/svg">
<path fill-rule="evenodd" clip-rule="evenodd" d="M121.76 13.4605C108.707 7.15347 93.6 4.00047 76.44 4.00047H0.540039V158H76.44C93.6 158 108.707 154.92 121.76 148.76C134.813 142.453 145.007 133.58 152.34 122.14C159.673 110.553 163.34 96.7675 163.34 80.7805C163.34 64.9405 159.673 51.3005 152.34 39.8605C145.007 28.4205 134.813 19.6205 121.76 13.4605ZM93.38 113.34C87.953 116.127 81.573 117.52 74.24 117.52H52.46V44.4805H74.24C81.573 44.4805 87.953 45.8735 93.38 48.6605C98.9531 51.4475 103.28 55.5535 106.36 60.9805C109.44 66.4075 110.98 73.0075 110.98 80.7805C110.98 88.7005 109.44 95.4475 106.36 101.02C103.28 106.447 98.9531 110.553 93.38 113.34ZM288.032 157.12C300.059 160.053 312.525 161.52 325.432 161.52C341.419 161.52 354.692 159.173 365.252 154.48C375.812 149.64 383.732 143.333 389.012 135.56C394.439 127.64 397.152 118.987 397.152 109.6C397.152 101.533 395.612 94.7875 392.532 89.3605C389.452 83.9335 385.345 79.5335 380.212 76.1605C375.225 72.7875 369.725 70.0735 363.712 68.0205C357.699 65.9675 351.612 64.3535 345.452 63.1805C339.439 62.0075 333.865 60.9075 328.732 59.8805C323.745 58.8535 319.712 57.6075 316.632 56.1405C313.552 54.5275 312.012 52.4005 312.012 49.7605C312.012 48.0005 312.599 46.3875 313.772 44.9205C315.092 43.4535 317.219 42.2805 320.152 41.4005C323.085 40.5205 327.045 40.0805 332.032 40.0805C338.779 40.0805 345.672 41.0335 352.712 42.9405C359.899 44.8475 367.305 47.7075 374.932 51.5205L390.552 13.9005C382.485 9.35346 373.392 5.98046 363.272 3.78046C353.152 1.58047 342.885 0.480469 332.472 0.480469C316.632 0.480469 303.359 2.82746 292.652 7.52046C282.092 12.2135 274.099 18.5205 268.672 26.4405C263.392 34.2135 260.752 42.8675 260.752 52.4005C260.752 60.6135 262.292 67.5075 265.372 73.0805C268.452 78.5075 272.485 82.9075 277.472 86.2805C282.605 89.6535 288.179 92.3675 294.192 94.4205C300.352 96.4735 306.439 98.1605 312.452 99.4805C318.465 100.653 323.965 101.827 328.952 103C334.085 104.027 338.192 105.347 341.272 106.96C344.352 108.573 345.892 110.773 345.892 113.56C345.892 115.32 345.232 116.86 343.912 118.18C342.592 119.353 340.465 120.307 337.532 121.04C334.745 121.627 330.859 121.92 325.872 121.92C317.365 121.92 308.565 120.673 299.472 118.18C290.525 115.54 282.385 112.093 275.052 107.84L258.332 145.68C266.105 150.373 276.005 154.187 288.032 157.12ZM599.52 74.0285L540.996 4.00047H498.316V158H548.916V87.9725L607.44 158H650.12V4.00047H599.52V74.0285ZM870.74 4.00047L803.42 158H856.22L866.536 131.16H925.104L935.42 158H989.1L921.78 4.00047H870.74ZM910.729 93.7605L895.82 54.9704L880.911 93.7605H910.729ZM1113.11 11.0405C1102.7 6.34747 1090.3 4.00047 1075.93 4.00047H1001.79V158H1053.71V119.28H1067.85L1093.97 158H1149.41L1117.07 110.605C1125.73 106.2 1132.55 100.292 1137.53 92.8805C1143.25 84.2275 1146.11 73.9605 1146.11 62.0805C1146.11 50.2005 1143.25 39.9335 1137.53 31.2805C1131.81 22.4805 1123.67 15.7335 1113.11 11.0405ZM1088.47 75.2805C1085.1 78.5075 1079.82 80.1205 1072.63 80.1205H1053.71V44.0405H1072.63C1079.82 44.0405 1085.1 45.6535 1088.47 48.8805C1091.99 52.1075 1093.75 56.5075 1093.75 62.0805C1093.75 67.6535 1091.99 72.0535 1088.47 75.2805ZM186.698 4.00047V158H238.618V4.00047H186.698ZM417.002 4.00047V158H468.922V4.00047H417.002ZM712.97 44.2605V158H764.89V44.2605H809.99V4.00047H667.87V44.2605H712.97Z" fill="#3A3D4A"/>
</svg>
