<svg width="174" height="28" viewBox="0 0 174 28" fill="none" xmlns="http://www.w3.org/2000/svg">
<path fill-rule="evenodd" clip-rule="evenodd" d="M14.2719 27.5254H18.3533L11.6617 18.7932L17.8787 10.9153H13.7973L9.85835 16.8H9.38379L5.25497 10.9153H1.26852L7.39056 18.7932L0.793945 27.5254H4.78039L9.28886 20.9763H9.76344L14.2719 27.5254ZM37.3196 26.339C37.9523 25.6114 38.2688 24.8995 38.2688 24.2034V4.27119H21.6586V7.59322H34.4722V24.2034H25.4552V20.8814H21.6586V24.2034C21.6586 25.0893 21.9908 25.8644 22.6552 26.5288C23.3196 27.1932 24.0947 27.5254 24.9807 27.5254H34.9468C35.8327 27.5254 36.6235 27.13 37.3196 26.339ZM49.1841 27.5254H62.4722V24.678H49.1841V13.7627H59.1502V18.0339H52.5061L49.6586 20.8814H59.1502L62.4722 17.5593V14.2373C62.4722 13.3199 62.14 12.5446 61.4756 11.9119C60.8429 11.2475 60.0676 10.9153 59.1502 10.9153H49.1841C48.2666 10.9153 47.4756 11.2475 46.8112 11.9119C46.1785 12.5446 45.862 13.3199 45.862 14.2373V24.2034C45.862 25.1208 46.1785 25.9119 46.8112 26.5763C47.4756 27.209 48.2666 27.5254 49.1841 27.5254ZM71.9619 27.5254H78.6059V24.678H71.9619V13.7627H78.6059V10.9153H71.9619V4.27119L68.6398 7.59322V10.9153H66.7415L63.8941 13.7627H68.6398V24.2034C68.6398 25.1208 68.9563 25.9119 69.589 26.5763C70.2534 27.209 71.0444 27.5254 71.9619 27.5254ZM93.8053 27.5254H110.416V20.8814H106.62V24.2034H97.6029V4.27119H93.8053V27.5254ZM126.797 27.5254H130.119V14.2373C130.119 13.3199 129.788 12.5446 129.124 11.9119C128.49 11.2475 127.714 10.9153 126.797 10.9153H116.357L113.509 13.7627H126.797V24.678H116.831V20.3593H123.475L126.323 17.5593H116.831C115.915 17.5593 115.123 17.8915 114.458 18.5559C113.826 19.1886 113.509 19.9639 113.509 20.8814V24.2034C113.509 25.1208 113.826 25.9119 114.458 26.5763C115.123 27.209 115.915 27.5254 116.831 27.5254H123.95L126.797 25.1051V27.5254ZM152.834 26.5763C153.499 25.9119 153.83 25.1208 153.83 24.2034V14.2373C153.83 13.3199 153.499 12.5446 152.834 11.9119C152.2 11.2475 151.424 10.9153 150.508 10.9153H142.915L140.542 13.2881V0L137.22 3.32203V28L140.542 24.7254V27.5254H150.508C151.424 27.5254 152.2 27.209 152.834 26.5763ZM150.508 13.7627V24.678H140.542V13.7627H150.508ZM171.104 13.7627L174 10.9153H163.085C162.166 10.9153 161.377 11.2475 160.712 11.9119C160.078 12.5446 159.763 13.3199 159.763 14.2373V17.0847C159.763 18.0022 160.078 18.7932 160.712 19.4576C161.377 20.0903 162.166 20.4068 163.085 20.4068H169.729V24.678H159.763V27.5254H169.729C170.646 27.5254 171.421 27.209 172.053 26.5763C172.718 25.9119 173.051 25.1208 173.051 24.2034V20.8814C173.051 19.9639 172.718 19.1886 172.053 18.5559C171.421 17.8915 170.646 17.5593 169.729 17.5593H163.085V13.7627H171.104Z" fill="#3A3D4A"/>
</svg>
