<svg width="236" height="60" viewBox="0 0 236 60" fill="none" xmlns="http://www.w3.org/2000/svg">
<path fill-rule="evenodd" clip-rule="evenodd" d="M0 18.0923L21.1692 8.5L42.3385 18.0923L21.1693 51.5L0 18.0923ZM128.967 35.493L126.57 37.8587V42.2385H121.583V18.5176H126.57V31.9445L133.859 25.0392H139.805L132.644 32.3281L140.444 42.2385H134.402L128.967 35.493ZM65.5043 24.0802H58.3433V19.8603H77.8443V24.0802H70.6832V42.2385H65.5043V24.0802ZM86.7149 42.4942C84.9033 42.4942 83.2729 42.1212 81.8236 41.3753C80.3957 40.6081 79.2768 39.5531 78.4669 38.2104C77.657 36.8677 77.2521 35.3438 77.2521 33.6388C77.2521 31.9338 77.657 30.41 78.4669 29.0673C79.2768 27.7246 80.3957 26.6803 81.8236 25.9343C83.2729 25.1671 84.9033 24.7835 86.7149 24.7835C88.5264 24.7835 90.1462 25.1671 91.5741 25.9343C93.0021 26.6803 94.121 27.7246 94.9309 29.0673C95.7407 30.41 96.1457 31.9338 96.1457 33.6388C96.1457 35.3438 95.7407 36.8677 94.9309 38.2104C94.121 39.5531 93.0021 40.6081 91.5741 41.3753C90.1462 42.1212 88.5264 42.4942 86.7149 42.4942ZM86.7149 38.4022C87.9936 38.4022 89.0379 37.976 89.8478 37.1234C90.679 36.2496 91.0946 35.0881 91.0946 33.6388C91.0946 32.1896 90.679 31.0387 89.8478 30.1862C89.0379 29.3124 87.9936 28.8755 86.7149 28.8755C85.4361 28.8755 84.3811 29.3124 83.5499 30.1862C82.7187 31.0387 82.3032 32.1896 82.3032 33.6388C82.3032 35.0881 82.7187 36.2496 83.5499 37.1234C84.3811 37.976 85.4361 38.4022 86.7149 38.4022ZM115.08 26.7016C113.78 25.4228 112.064 24.7835 109.933 24.7835C108.761 24.7835 107.685 24.9859 106.704 25.3909C105.724 25.7745 104.903 26.3286 104.243 27.0533V25.0392H99.4792V42.2385H104.466V33.7347C104.466 32.2002 104.839 31.0494 105.585 30.2821C106.331 29.4935 107.333 29.0993 108.59 29.0993C109.72 29.0993 110.583 29.4403 111.18 30.1223C111.777 30.783 112.075 31.7953 112.075 33.1593V42.2385H117.062V32.3921C117.062 29.8772 116.401 27.9804 115.08 26.7016ZM158.689 35.0455C158.753 34.2143 158.785 33.7667 158.785 33.7028C158.785 31.9125 158.391 30.3461 157.603 29.0034C156.835 27.6394 155.77 26.595 154.406 25.8704C153.042 25.1458 151.518 24.7835 149.834 24.7835C148.108 24.7835 146.541 25.1671 145.135 25.9343C143.749 26.6803 142.652 27.7353 141.842 29.0993C141.053 30.442 140.659 31.9551 140.659 33.6388C140.659 35.3438 141.064 36.8677 141.874 38.2104C142.684 39.5531 143.835 40.6081 145.326 41.3753C146.818 42.1212 148.534 42.4942 150.473 42.4942C153.585 42.4942 155.951 41.5671 157.571 39.7129L154.917 36.8357C154.32 37.4112 153.67 37.8374 152.967 38.1145C152.285 38.3702 151.496 38.4981 150.601 38.4981C149.301 38.4981 148.214 38.1891 147.341 37.571C146.467 36.9529 145.913 36.1111 145.678 35.0455H158.689ZM147.021 29.5149C147.788 28.8755 148.736 28.5558 149.866 28.5558C150.974 28.5558 151.912 28.8861 152.679 29.5468C153.447 30.1862 153.915 31.0494 154.086 32.1363H145.614C145.785 31.0281 146.254 30.1542 147.021 29.5149ZM178.953 33.7028C178.953 33.7667 178.921 34.2143 178.857 35.0455H165.846C166.08 36.1111 166.635 36.9529 167.508 37.571C168.382 38.1891 169.469 38.4981 170.769 38.4981C171.664 38.4981 172.453 38.3702 173.135 38.1145C173.838 37.8374 174.488 37.4112 175.085 36.8357L177.738 39.7129C176.119 41.5671 173.753 42.4942 170.641 42.4942C168.702 42.4942 166.986 42.1212 165.494 41.3753C164.002 40.6081 162.852 39.5531 162.042 38.2104C161.232 36.8677 160.827 35.3438 160.827 33.6388C160.827 31.9551 161.221 30.442 162.01 29.0993C162.82 27.7353 163.917 26.6803 165.303 25.9343C166.709 25.1671 168.276 24.7835 170.002 24.7835C171.686 24.7835 173.209 25.1458 174.574 25.8704C175.938 26.595 177.003 27.6394 177.77 29.0034C178.559 30.3461 178.953 31.9125 178.953 33.7028ZM170.034 28.5558C168.904 28.5558 167.956 28.8755 167.189 29.5149C166.421 30.1542 165.953 31.0281 165.782 32.1363H174.254C174.083 31.0494 173.614 30.1862 172.847 29.5468C172.08 28.8861 171.142 28.5558 170.034 28.5558ZM196.787 25.9024C195.487 25.1564 194.038 24.7835 192.44 24.7835C190.074 24.7835 188.273 25.5294 187.037 27.0213V25.0392H182.273V48.4404H187.261V40.4162C188.518 41.8016 190.244 42.4942 192.44 42.4942C194.038 42.4942 195.487 42.1319 196.787 41.4073C198.109 40.6613 199.142 39.6277 199.888 38.3063C200.634 36.9636 201.007 35.4078 201.007 33.6388C201.007 31.8699 200.634 30.3247 199.888 29.0034C199.142 27.6607 198.109 26.627 196.787 25.9024ZM194.709 37.1234C193.899 37.976 192.855 38.4022 191.576 38.4022C190.298 38.4022 189.243 37.976 188.412 37.1234C187.602 36.2496 187.197 35.0881 187.197 33.6388C187.197 32.1896 187.602 31.0387 188.412 30.1862C189.243 29.3124 190.298 28.8755 191.576 28.8755C192.855 28.8755 193.899 29.3124 194.709 30.1862C195.541 31.0387 195.956 32.1896 195.956 33.6388C195.956 35.0881 195.541 36.2496 194.709 37.1234ZM221.193 33.7028C221.193 33.7667 221.161 34.2143 221.097 35.0455H208.086C208.321 36.1111 208.875 36.9529 209.748 37.571C210.622 38.1891 211.709 38.4981 213.009 38.4981C213.904 38.4981 214.693 38.3702 215.375 38.1145C216.078 37.8374 216.728 37.4112 217.325 36.8357L219.978 39.7129C218.359 41.5671 215.993 42.4942 212.881 42.4942C210.942 42.4942 209.226 42.1212 207.734 41.3753C206.243 40.6081 205.092 39.5531 204.282 38.2104C203.472 36.8677 203.067 35.3438 203.067 33.6388C203.067 31.9551 203.461 30.442 204.25 29.0993C205.06 27.7353 206.157 26.6803 207.543 25.9343C208.949 25.1671 210.516 24.7835 212.242 24.7835C213.926 24.7835 215.45 25.1458 216.814 25.8704C218.178 26.595 219.243 27.6394 220.01 29.0034C220.799 30.3461 221.193 31.9125 221.193 33.7028ZM212.274 28.5558C211.144 28.5558 210.196 28.8755 209.429 29.5149C208.662 30.1542 208.193 31.0281 208.022 32.1363H216.494C216.323 31.0494 215.855 30.1862 215.087 29.5468C214.32 28.8861 213.382 28.5558 212.274 28.5558ZM231.675 25.4228C230.673 25.8491 229.874 26.4778 229.277 27.309V25.0392H224.514V42.2385H229.501V34.1184C229.501 32.5199 229.906 31.3264 230.716 30.5379C231.525 29.728 232.644 29.323 234.072 29.323C234.264 29.323 234.637 29.3444 235.191 29.387V24.7835C233.87 24.7835 232.698 24.9966 231.675 25.4228Z" fill="#494D5E"/>
</svg>
