<svg width="124" height="24" viewBox="0 0 124 24" fill="none" xmlns="http://www.w3.org/2000/svg">
<path d="M124 12C124 14.4414 123.538 16.5184 122.613 18.231C121.696 19.9436 120.443 21.2517 118.856 22.1554C117.276 23.0518 115.499 23.5 113.526 23.5C111.538 23.5 109.754 23.0482 108.174 22.1445C106.594 21.2408 105.345 19.9327 104.428 18.2201C103.51 16.5074 103.052 14.4341 103.052 12C103.052 9.55862 103.51 7.48162 104.428 5.76901C105.345 4.0564 106.594 2.7519 108.174 1.85551C109.754 0.951838 111.538 0.5 113.526 0.5C115.499 0.5 117.276 0.951838 118.856 1.85551C120.443 2.7519 121.696 4.0564 122.613 5.76901C123.538 7.48162 124 9.55862 124 12ZM119.205 12C119.205 10.4186 118.969 9.08492 118.495 7.99905C118.029 6.91318 117.371 6.08967 116.519 5.52852C115.667 4.96737 114.669 4.68679 113.526 4.68679C112.383 4.68679 111.385 4.96737 110.533 5.52852C109.681 6.08967 109.019 6.91318 108.546 7.99905C108.08 9.08492 107.847 10.4186 107.847 12C107.847 13.5814 108.08 14.9151 108.546 16.001C109.019 17.0868 109.681 17.9103 110.533 18.4715C111.385 19.0326 112.383 19.3132 113.526 19.3132C114.669 19.3132 115.667 19.0326 116.519 18.4715C117.371 17.9103 118.029 17.0868 118.495 16.001C118.969 14.9151 119.205 13.5814 119.205 12Z" fill="#3A3D4A"/>
<path d="M85.3442 23.1994H80.2764L87.9982 0.811523H94.0927L101.804 23.1994H96.7358L91.1328 5.92749H90.9581L85.3442 23.1994ZM85.0274 14.3995H96.998V18.0943H85.0274V14.3995Z" fill="#3A3D4A"/>
<path d="M67.9128 23.2047H59.9834V0.816895H67.9783C70.2282 0.816895 72.1651 1.26509 73.7888 2.16148C75.4125 3.05058 76.6613 4.32957 77.5351 5.99845C78.4161 7.66734 78.8566 9.66417 78.8566 11.989C78.8566 14.321 78.4161 16.3251 77.5351 18.0013C76.6613 19.6775 75.4053 20.9638 73.767 21.8602C72.1359 22.7565 70.1845 23.2047 67.9128 23.2047ZM64.7126 19.1491H67.7162C69.1142 19.1491 70.2901 18.9013 71.244 18.4058C72.2051 17.9029 72.926 17.1268 73.4065 16.0774C73.8944 15.0206 74.1383 13.6578 74.1383 11.989C74.1383 10.3346 73.8944 8.98277 73.4065 7.93334C72.926 6.88391 72.2088 6.11141 71.2549 5.61585C70.301 5.12029 69.1251 4.8725 67.7271 4.8725H64.7126V19.1491Z" fill="#3A3D4A"/>
<path d="M23.2705 23.1994V0.811523H38.3429V4.71409H27.9997V10.0487H37.5674V13.9513H27.9997V19.2968H38.3866V23.1994H23.2705Z" fill="#3A3D4A"/>
<path d="M8.81218 23.1994H0.882812V0.811523H8.87772C11.1276 0.811523 13.0645 1.25972 14.6882 2.15611C16.312 3.04521 17.5607 4.3242 18.4345 5.99308C19.3155 7.66197 19.756 9.6588 19.756 11.9836C19.756 14.3156 19.3155 16.3198 18.4345 17.9959C17.5607 19.6721 16.3047 20.9584 14.6664 21.8548C13.0354 22.7512 11.084 23.1994 8.81218 23.1994ZM5.61204 19.1438H8.61559C10.0136 19.1438 11.1895 18.896 12.1434 18.4004C13.1045 17.8976 13.8254 17.1214 14.306 16.072C14.7938 15.0153 15.0377 13.6525 15.0377 11.9836C15.0377 10.3293 14.7938 8.9774 14.306 7.92797C13.8254 6.87854 13.1082 6.10604 12.1543 5.61048C11.2005 5.11492 10.0245 4.86713 8.62651 4.86713H5.61204V19.1438Z" fill="#3A3D4A"/>
<path d="M46.227 5.2862L49.0854 16.6223H49.3112L51.9888 5.2862L55.4505 14.3796L52.5191 23.2193H45.7619L42.7976 14.3796L46.227 5.2862Z" fill="#3A3D4A" fill-opacity="0.5"/>
<path d="M39.4873 0.782227V23.2153L47.1063 2.87929L39.4873 0.782227Z" fill="#3A3D4A"/>
<path d="M58.7936 23.2193V0.891466L51.1012 2.87929L58.7936 23.2193Z" fill="#3A3D4A"/>
</svg>
