<svg width="166" height="36" viewBox="0 0 166 36" fill="none" xmlns="http://www.w3.org/2000/svg">
<path fill-rule="evenodd" clip-rule="evenodd" d="M16.4607 1.44096C18.4202 -0.46362 21.5885 -0.482663 23.522 1.39863L29.3508 7.0699C31.2661 8.93332 31.2478 11.961 29.3099 13.8506L23.5344 19.4825C21.6186 21.3505 18.5303 21.418 16.5778 19.6347L15.7605 18.8882C13.8095 17.1064 10.7246 17.172 8.80811 19.0363L7.34298 20.4615C5.92113 21.8447 3.63708 21.908 2.17129 20.605C0.623617 19.2291 0.585604 16.8707 2.0875 15.4108L16.4607 1.44096ZM32.3497 15.3631C33.821 13.9116 36.2038 13.8795 37.6996 15.291C39.2335 16.7384 39.2462 19.1435 37.7278 20.6224L23.4107 34.5683C21.4517 36.4767 18.2923 36.4773 16.3535 34.5698L9.81526 28.1378C8.36917 26.715 8.37386 24.4099 9.82588 22.9778C11.2911 21.5326 13.6715 21.5255 15.1298 22.9619L16.3592 24.1731C18.3066 26.0913 21.4853 26.0818 23.4415 24.1517L32.3497 15.3631ZM56.1501 11.6773C57.3835 11.6773 58.4828 11.9446 59.4475 12.4793C60.4283 13.0138 61.1953 13.7686 61.7489 14.7435C62.3024 15.7183 62.5789 16.8427 62.5789 18.1163C62.5789 19.3899 62.3024 20.5221 61.7489 21.5126C61.1953 22.4876 60.4283 23.2423 59.4475 23.777C58.4828 24.3116 57.3835 24.579 56.1501 24.579C54.4419 24.579 53.0899 24.0128 52.0935 22.8806V28.9895H49.1282V11.8188H51.9512V13.4698C52.4415 12.8723 53.0424 12.4242 53.7543 12.1255C54.4816 11.8267 55.2804 11.6773 56.1501 11.6773ZM55.8182 22.0552C56.9092 22.0552 57.803 21.6935 58.499 20.9702C59.2106 20.2469 59.5664 19.2956 59.5664 18.1163C59.5664 16.9369 59.2106 15.9856 58.499 15.2623C57.803 14.5391 56.9092 14.1774 55.8182 14.1774C55.1061 14.1774 54.4659 14.3425 53.8967 14.6727C53.327 14.9872 52.8764 15.4432 52.5443 16.0407C52.2121 16.6382 52.0461 17.3301 52.0461 18.1163C52.0461 18.9024 52.2121 19.5944 52.5443 20.1918C52.8764 20.7894 53.327 21.2534 53.8967 21.5834C54.4659 21.898 55.1061 22.0552 55.8182 22.0552ZM68.357 6.91287H65.3914V24.4137H68.357V6.91287ZM77.0876 11.6773C78.9538 11.6773 80.3771 12.1255 81.3579 13.0217C82.3545 13.9022 82.8522 15.2389 82.8522 17.0314V24.4137H80.0531V22.8806C79.6894 23.4311 79.1677 23.8556 78.4874 24.1543C77.8232 24.4375 77.0166 24.579 76.0675 24.579C75.1185 24.579 74.2884 24.4217 73.5768 24.1072C72.8651 23.777 72.3115 23.3289 71.9161 22.7627C71.5368 22.181 71.3469 21.5285 71.3469 20.8051C71.3469 19.6729 71.7658 18.7688 72.6043 18.0927C73.4584 17.4008 74.7945 17.055 76.6133 17.055H79.8872V16.8662C79.8872 15.9856 79.6179 15.3096 79.0806 14.8378C78.5583 14.3661 77.7757 14.1303 76.7317 14.1303C76.0201 14.1303 75.3162 14.2403 74.6208 14.4605C73.9404 14.6806 73.3634 14.9872 72.8886 15.3804L71.7262 13.2339C72.3908 12.7308 73.1891 12.3455 74.1225 12.0782C75.0554 11.811 76.0441 11.6773 77.0876 11.6773ZM76.6842 22.4325C77.4277 22.4325 78.0841 22.2675 78.6533 21.9373C79.2387 21.5913 79.6498 21.1039 79.8872 20.4749V19.0126H76.8267C75.1185 19.0126 74.265 19.5708 74.265 20.6872C74.265 21.2219 74.4783 21.6464 74.9051 21.9609C75.3324 22.2754 75.9251 22.4325 76.6842 22.4325ZM92.3576 25.428L98.2881 11.8188H95.4415L91.4319 21.1353L87.4469 11.8188H84.3629L89.8903 24.4609L89.6768 24.9562C89.392 25.5852 89.0758 26.0333 88.7278 26.3006C88.3955 26.5679 87.9687 26.7017 87.4469 26.7017C87.0515 26.7017 86.656 26.623 86.2605 26.4657C85.8812 26.3085 85.5488 26.0963 85.2645 25.8289L84.0781 27.9988C84.4736 28.3605 84.9796 28.6435 85.5963 28.848C86.213 29.0523 86.838 29.1545 87.4704 29.1545C88.5932 29.1545 89.55 28.8715 90.341 28.3055C91.1319 27.755 91.804 26.796 92.3576 25.428ZM116.13 11.6773C117.728 11.6773 118.993 12.1412 119.926 13.0689C120.859 13.9809 121.326 15.3568 121.326 17.1965V24.4137H118.36V17.5738C118.36 16.4731 118.115 15.6476 117.625 15.0972C117.134 14.5312 116.431 14.2482 115.513 14.2482C114.517 14.2482 113.719 14.5784 113.118 15.2389C112.517 15.8835 112.216 16.8112 112.216 18.0219V24.4137H109.25V17.5738C109.25 16.4731 109.006 15.6476 108.515 15.0972C108.025 14.5312 107.321 14.2482 106.404 14.2482C105.392 14.2482 104.585 14.5705 103.984 15.2151C103.399 15.8598 103.106 16.7954 103.106 18.0219V24.4137H100.141V11.8188H102.964V13.4226C103.438 12.8566 104.032 12.4242 104.743 12.1255C105.455 11.8267 106.246 11.6773 107.116 11.6773C108.065 11.6773 108.902 11.858 109.63 12.2197C110.374 12.5657 110.959 13.0845 111.386 13.7765C111.908 13.116 112.58 12.6049 113.402 12.2434C114.225 11.8659 115.134 11.6773 116.13 11.6773ZM134.558 24.4137H137.38V11.8188H134.415V18.187C134.415 19.4135 134.099 20.3569 133.466 21.0174C132.85 21.662 132.011 21.9843 130.952 21.9843C130.003 21.9843 129.267 21.7092 128.746 21.1589C128.24 20.5927 127.986 19.7437 127.986 18.6115V11.8188H125.021V19.0126C125.021 20.8523 125.504 22.2437 126.468 23.1872C127.449 24.1151 128.785 24.5788 130.477 24.5788C131.299 24.5788 132.066 24.4294 132.778 24.1307C133.49 23.8162 134.083 23.3759 134.558 22.8099V24.4137ZM145.176 24.579C144.148 24.579 143.144 24.4452 142.163 24.1779C141.183 23.9106 140.4 23.5726 139.815 23.1637L140.954 20.923C141.523 21.3004 142.203 21.6071 142.994 21.843C143.8 22.0631 144.591 22.1731 145.366 22.1731C147.137 22.1731 148.023 21.7092 148.023 20.7815C148.023 20.3412 147.794 20.0346 147.335 19.8618C146.892 19.6888 146.173 19.5237 145.176 19.3663C144.133 19.2092 143.278 19.0283 142.614 18.8239C141.966 18.6194 141.397 18.2657 140.906 17.7625C140.432 17.2436 140.194 16.5282 140.194 15.6162C140.194 14.4212 140.693 13.4698 141.689 12.7623C142.701 12.0389 144.061 11.6773 145.769 11.6773C146.639 11.6773 147.509 11.7795 148.379 11.9839C149.249 12.1727 149.96 12.4321 150.514 12.7623L149.375 15.0029C148.3 14.374 147.09 14.0595 145.746 14.0595C144.876 14.0595 144.211 14.1931 143.753 14.4605C143.31 14.7121 143.089 15.0501 143.089 15.4747C143.089 15.9464 143.326 16.2845 143.8 16.4888C144.291 16.6776 145.042 16.8584 146.054 17.0314C147.066 17.1886 147.896 17.3693 148.545 17.5738C149.193 17.7783 149.747 18.1242 150.206 18.6117C150.68 19.099 150.917 19.7909 150.917 20.6872C150.917 21.8665 150.403 22.8099 149.375 23.5176C148.347 24.2251 146.947 24.579 145.176 24.579ZM165.333 19.0598C165.364 18.6824 165.38 18.3915 165.38 18.187C165.38 16.8977 165.104 15.7655 164.55 14.7906C164.012 13.8001 163.253 13.0374 162.273 12.5028C161.307 11.9525 160.209 11.6773 158.975 11.6773C157.726 11.6773 156.603 11.9525 155.606 12.5028C154.61 13.0532 153.827 13.8235 153.258 14.8142C152.704 15.7891 152.427 16.8899 152.427 18.1163C152.427 19.3586 152.712 20.4749 153.282 21.4656C153.866 22.4405 154.689 23.2031 155.749 23.7534C156.809 24.3037 158.034 24.579 159.426 24.579C160.517 24.579 161.497 24.406 162.367 24.06C163.237 23.7141 163.957 23.2031 164.526 22.5269L162.937 20.7108C162.035 21.6228 160.888 22.0788 159.497 22.0788C158.406 22.0788 157.488 21.8115 156.745 21.2768C156.018 20.7264 155.567 19.9874 155.393 19.0598H165.333ZM156.555 14.885C157.22 14.319 158.026 14.0359 158.975 14.0359C159.939 14.0359 160.746 14.319 161.395 14.885C162.043 15.4511 162.431 16.1901 162.557 17.1021H155.369C155.511 16.1745 155.907 15.4353 156.555 14.885Z" fill="#3A3D4A"/>
</svg>
