<svg width="239" height="60" viewBox="0 0 239 60" fill="none" xmlns="http://www.w3.org/2000/svg">
<path fill-rule="evenodd" clip-rule="evenodd" d="M33.8856 25.8603V19.7039L25.2024 11H0V21.6145L20.1196 21.6145L23.2964 24.7989V36.4749L33.8856 25.8603ZM0 34.1397V40.2961L4.34159 44.648L8.68319 49H33.8856V38.3855H13.766L10.5893 35.2011L10.5893 23.5251L0 34.1397ZM185.471 42.355C183.773 42.355 182.241 41.9161 180.875 41.0381C179.509 40.1602 178.428 38.8699 177.632 37.1673C176.836 35.4513 176.438 33.3562 176.438 30.882C176.438 28.3281 176.849 26.1997 177.672 24.4971C178.494 22.7944 179.588 21.5241 180.954 20.686C182.32 19.8347 183.813 19.4091 185.431 19.4091C186.678 19.4091 187.719 19.6219 188.554 20.0475C189.39 20.4599 190.066 20.9787 190.584 21.6039C191.101 22.2291 191.492 22.8476 191.757 23.4595H191.937V12.2659H198.104V41.9959H192.036V38.4243H191.757C191.479 39.0362 191.074 39.6481 190.544 40.26C190.013 40.8586 189.33 41.3574 188.495 41.7564C187.672 42.1555 186.664 42.355 185.471 42.355ZM187.4 37.4466C188.395 37.4466 189.237 37.1739 189.927 36.6285C190.63 36.0698 191.161 35.2983 191.519 34.314C191.89 33.3296 192.076 32.179 192.076 30.8621C192.076 29.5319 191.897 28.3813 191.539 27.4102C191.181 26.4259 190.65 25.6677 189.947 25.1356C189.244 24.5902 188.395 24.3175 187.4 24.3175C186.392 24.3175 185.544 24.5968 184.854 25.1555C184.164 25.7142 183.64 26.4857 183.282 27.4701C182.924 28.4411 182.745 29.5718 182.745 30.8621C182.745 32.1524 182.924 33.2964 183.282 34.294C183.64 35.2784 184.164 36.0499 184.854 36.6086C185.557 37.1673 186.406 37.4466 187.4 37.4466ZM99.3042 23.5992C99.7154 22.2158 100.398 21.1716 101.353 20.4666C102.308 19.7483 103.403 19.3891 104.636 19.3891C104.954 19.3891 105.286 19.4091 105.631 19.449C105.989 19.4756 106.307 19.5288 106.586 19.6086V25.0757C106.294 24.9826 105.89 24.9094 105.372 24.8562C104.868 24.7897 104.397 24.7565 103.96 24.7565C103.071 24.7565 102.269 24.956 101.552 25.3551C100.836 25.7408 100.272 26.2862 99.8613 26.9912C99.4634 27.6829 99.2644 28.481 99.2644 29.3856V41.9959H93.1168V19.6884H99.0655V23.5992H99.3042ZM74.3755 41.0381C76.0334 41.9693 78.003 42.4349 80.2844 42.4349C82.1147 42.4349 83.7262 42.1555 85.1189 41.5968C86.5116 41.0248 87.6456 40.2334 88.521 39.2224C89.4096 38.1982 89.9932 37.001 90.2718 35.6309L84.5817 35.2518C84.3828 35.7971 84.0777 36.2627 83.6666 36.6485C83.2686 37.0342 82.7912 37.3269 82.2341 37.5264C81.677 37.7259 81.0536 37.8257 80.3639 37.8257C79.3692 37.8257 78.4872 37.5996 77.7179 37.1473C76.9619 36.6817 76.3716 36.0233 75.9472 35.1719C75.5654 34.3941 75.3553 33.4762 75.317 32.4184H90.4707V30.7424C90.4707 28.8402 90.2055 27.1841 89.6749 25.7741C89.1444 24.3508 88.4016 23.1735 87.4466 22.2424C86.4917 21.2979 85.3776 20.5929 84.1042 20.1274C82.8309 19.6485 81.4582 19.4091 79.9859 19.4091C77.8107 19.4091 75.914 19.8946 74.2959 20.8656C72.691 21.8367 71.4442 23.1868 70.5556 24.9161C69.6802 26.6454 69.2425 28.654 69.2425 30.9419C69.2425 33.2964 69.6802 35.3382 70.5556 37.0675C71.4442 38.7834 72.7175 40.107 74.3755 41.0381ZM75.3456 28.6074C75.4154 27.8751 75.5894 27.21 75.8676 26.6121C76.239 25.814 76.7695 25.1821 77.4592 24.7166C78.1622 24.251 79.0177 24.0182 80.0257 24.0182C81.0337 24.0182 81.876 24.251 82.5524 24.7166C83.2421 25.1688 83.7594 25.814 84.1042 26.652C84.3435 27.2334 84.4997 27.8852 84.573 28.6074H75.3456ZM56.7881 36.8879L66.9943 23.7389V19.6884H49.0687V24.6367H59.5933V24.7964L48.7106 38.3046V41.9959H67.3723V37.0475H56.7881V36.8879ZM111.58 40.9982C113.224 41.956 115.167 42.4349 117.409 42.4349C119.664 42.4349 121.607 41.956 123.238 40.9982C124.883 40.0272 126.143 38.6837 127.018 36.9677C127.907 35.2385 128.351 33.2299 128.351 30.9419C128.351 28.6274 127.907 26.6121 127.018 24.8961C126.143 23.1669 124.883 21.8234 123.238 20.8656C121.607 19.8946 119.664 19.4091 117.409 19.4091C115.167 19.4091 113.224 19.8946 111.58 20.8656C109.948 21.8234 108.688 23.1669 107.799 24.8961C106.924 26.6121 106.486 28.6274 106.486 30.9419C106.486 33.2299 106.924 35.2385 107.799 36.9677C108.688 38.6837 109.948 40.0272 111.58 40.9982ZM120.015 36.7482C119.325 37.3202 118.47 37.6062 117.449 37.6062C116.414 37.6062 115.545 37.3202 114.842 36.7482C114.153 36.1629 113.629 35.3648 113.271 34.3539C112.926 33.3429 112.753 32.1923 112.753 30.902C112.753 29.5984 112.926 28.4478 113.271 27.4501C113.629 26.4525 114.153 25.6677 114.842 25.0957C115.545 24.5237 116.414 24.2377 117.449 24.2377C118.47 24.2377 119.325 24.5237 120.015 25.0957C120.705 25.6677 121.222 26.4525 121.567 27.4501C121.925 28.4478 122.104 29.5984 122.104 30.902C122.104 32.1923 121.925 33.3429 121.567 34.3539C121.222 35.3648 120.705 36.1629 120.015 36.7482ZM141.084 42.4349C138.816 42.4349 136.866 41.9493 135.235 40.9783C133.604 39.9939 132.35 38.6438 131.475 36.9278C130.599 35.1986 130.162 33.2032 130.162 30.9419C130.162 28.654 130.599 26.6454 131.475 24.9161C132.363 23.1868 133.624 21.8367 135.255 20.8656C136.886 19.8946 138.829 19.4091 141.084 19.4091C143.021 19.4091 144.712 19.7616 146.158 20.4666C147.617 21.1716 148.77 22.1626 149.619 23.4396C150.468 24.7166 150.932 26.2197 151.012 27.949H145.203C145.096 27.204 144.871 26.5522 144.526 25.9936C144.181 25.4349 143.724 25.0026 143.153 24.6966C142.583 24.3907 141.92 24.2377 141.164 24.2377C140.209 24.2377 139.373 24.4971 138.657 25.0159C137.954 25.5213 137.404 26.2729 137.006 27.2705C136.621 28.2549 136.429 29.4521 136.429 30.8621C136.429 32.2721 136.621 33.4826 137.006 34.4935C137.404 35.5045 137.954 36.276 138.657 36.8081C139.373 37.3402 140.209 37.6062 141.164 37.6062C142.225 37.6062 143.12 37.2737 143.85 36.6086C144.579 35.9302 145.03 34.999 145.203 33.8151H151.012C150.919 35.5178 150.462 37.0209 149.639 38.3245C148.817 39.6148 147.683 40.6258 146.237 41.3574C144.791 42.0757 143.074 42.4349 141.084 42.4349ZM157.856 40.9982C159.501 41.956 161.444 42.4349 163.685 42.4349C165.94 42.4349 167.883 41.956 169.515 40.9982C171.159 40.0272 172.419 38.6837 173.295 36.9677C174.183 35.2385 174.628 33.2299 174.628 30.9419C174.628 28.6274 174.183 26.6121 173.295 24.8961C172.419 23.1669 171.159 21.8234 169.515 20.8656C167.883 19.8946 165.94 19.4091 163.685 19.4091C161.444 19.4091 159.501 19.8946 157.856 20.8656C156.225 21.8234 154.965 23.1669 154.076 24.8961C153.2 26.6121 152.763 28.6274 152.763 30.9419C152.763 33.2299 153.2 35.2385 154.076 36.9677C154.965 38.6837 156.225 40.0272 157.856 40.9982ZM166.292 36.7482C165.602 37.3202 164.746 37.6062 163.725 37.6062C162.691 37.6062 161.822 37.3202 161.119 36.7482C160.429 36.1629 159.905 35.3648 159.547 34.3539C159.202 33.3429 159.03 32.1923 159.03 30.902C159.03 29.5984 159.202 28.4478 159.547 27.4501C159.905 26.4525 160.429 25.6677 161.119 25.0957C161.822 24.5237 162.691 24.2377 163.725 24.2377C164.746 24.2377 165.602 24.5237 166.292 25.0957C166.981 25.6677 167.499 26.4525 167.843 27.4501C168.201 28.4478 168.381 29.5984 168.381 30.902C168.381 32.1923 168.201 33.3429 167.843 34.3539C167.499 35.3648 166.981 36.1629 166.292 36.7482ZM205.923 41.0381C207.581 41.9693 209.55 42.4349 211.832 42.4349C213.662 42.4349 215.274 42.1555 216.666 41.5968C218.059 41.0248 219.193 40.2334 220.068 39.2224C220.957 38.1982 221.541 37.001 221.819 35.6309L216.129 35.2518C215.93 35.7971 215.625 36.2627 215.214 36.6485C214.816 37.0342 214.339 37.3269 213.782 37.5264C213.224 37.7259 212.601 37.8257 211.911 37.8257C210.917 37.8257 210.035 37.5996 209.265 37.1473C208.509 36.6817 207.919 36.0233 207.495 35.1719C207.113 34.3941 206.903 33.4762 206.864 32.4184H222.018V30.7424C222.018 28.8402 221.753 27.1841 221.222 25.7741C220.692 24.3508 219.949 23.1735 218.994 22.2424C218.039 21.2979 216.925 20.5929 215.652 20.1274C214.378 19.6485 213.006 19.4091 211.533 19.4091C209.358 19.4091 207.461 19.8946 205.843 20.8656C204.238 21.8367 202.992 23.1868 202.103 24.9161C201.228 26.6454 200.79 28.654 200.79 30.9419C200.79 33.2964 201.228 35.3382 202.103 37.0675C202.992 38.7834 204.265 40.107 205.923 41.0381ZM206.893 28.6074C206.963 27.8751 207.137 27.21 207.415 26.6121C207.786 25.814 208.317 25.1821 209.007 24.7166C209.71 24.251 210.565 24.0182 211.573 24.0182C212.581 24.0182 213.423 24.251 214.1 24.7166C214.79 25.1688 215.307 25.814 215.652 26.652C215.891 27.2334 216.047 27.8852 216.12 28.6074H206.893ZM230.852 23.5992C231.263 22.2158 231.946 21.1716 232.901 20.4666C233.856 19.7483 234.95 19.3891 236.184 19.3891C236.502 19.3891 236.833 19.4091 237.178 19.449C237.536 19.4756 237.855 19.5288 238.133 19.6086V25.0757C237.842 24.9826 237.437 24.9094 236.92 24.8562C236.416 24.7897 235.945 24.7565 235.507 24.7565C234.618 24.7565 233.816 24.956 233.1 25.3551C232.384 25.7408 231.82 26.2862 231.409 26.9912C231.011 27.6829 230.812 28.481 230.812 29.3856V41.9959H224.664V19.6884H230.613V23.5992H230.852Z" fill="#494D5E"/>
</svg>
