<svg width="150" height="36" viewBox="0 0 150 36" fill="none" xmlns="http://www.w3.org/2000/svg">
<path fill-rule="evenodd" clip-rule="evenodd" d="M21.5383 0.000291765L20.9595 -0.000244141L20.6707 0.501329L16.258 8.16555H6.93978H6.35232L6.0663 8.67868L1.09563 17.5963L0.821289 18.0885L1.10018 18.5781L6.17121 27.4809L6.45206 27.974L7.01937 27.9857L16.4807 28.1822L20.7203 35.5015L21.0092 36.0003H21.5856H31.4858H32.0607L32.35 35.5034L37.3812 26.862L37.6752 26.3571L37.3797 25.8531L32.7911 18.0269L37.3712 10.1468L37.6608 9.64865L37.3749 9.1483L32.4421 0.513547L32.1546 0.0101215L31.5748 0.00958467L21.5383 0.000291765ZM16.1578 10.9097L20.2521 18.0282L16.1309 25.2467L8.0963 25.0901L4.16211 18.3574L4.14618 17.9065L8.00254 10.9201L16.1578 10.9097ZM18.8296 26.5766L18.8509 25.9839L22.6964 19.4493L30.5146 19.6312L34.3716 26.3088L30.6139 33.0591L22.4927 33.0698L18.8296 26.5766ZM30.5867 16.1691L22.4865 16.332L18.8307 9.85096L18.8539 9.27093L22.7097 2.7311H30.3741L34.3851 9.59305L30.5867 16.1691ZM56.0025 8.7534L55.5523 8.89921C54.7823 9.14858 54.077 9.5653 53.4871 10.1195C52.9004 10.6706 52.4709 11.3679 52.2426 12.1397L52.1998 12.2844C51.945 13.1458 51.9606 14.0647 52.2445 14.917L52.299 15.0809L52.3082 15.1085C52.6204 16.046 53.2343 16.8536 54.0539 17.4053L54.3538 17.6069C54.9918 18.0362 55.6999 18.3508 56.4461 18.5367L56.8419 18.6353L58.3656 19.0148L59.9194 19.4189L60.4555 19.5584C61.1234 19.7323 61.7376 20.0696 62.2426 20.54C62.7334 20.9973 63.0121 21.638 63.0121 22.3088V22.4789C63.0121 23.2583 62.6899 24.0031 62.1219 24.5368L62.095 24.562C61.5003 25.1206 60.737 25.4661 59.9248 25.5443L59.3893 25.5958L59.1023 25.6234C58.1167 25.718 57.1229 25.5678 56.2092 25.1862L56.0152 25.1051C55.2387 24.7805 54.5916 24.2077 54.1751 23.4762L54.0586 23.2714C53.7337 22.7004 53.1278 22.3471 52.4708 22.3454L52.4588 22.3454C51.9231 22.3443 51.5272 22.8443 51.6512 23.3655C51.8114 24.0403 52.1034 24.6768 52.5105 25.2384L52.5489 25.2913C52.9793 25.8858 53.5428 26.3714 54.1942 26.7093L54.6115 26.9258C55.5367 27.406 56.5637 27.6566 57.606 27.6566H58.5079H59.5076C60.488 27.6566 61.4561 27.4386 62.3419 27.0182L62.4199 26.9812L62.6318 26.8807C63.4222 26.5056 64.0859 25.9079 64.5413 25.1609C64.9982 24.4121 65.2402 23.552 65.2408 22.6748L65.2409 22.4536L65.2414 21.926C65.2421 21.2441 65.0961 20.5702 64.8135 19.9497L64.7979 19.9156C64.5279 19.3228 64.0953 18.8186 63.5503 18.4617C62.9978 18.0995 62.3929 17.8244 61.7568 17.646L59.2399 16.9399L56.6061 16.2009C56.0518 16.0454 55.5409 15.7641 55.113 15.379C54.6989 15.0063 54.4625 14.4754 54.4625 13.9183V13.5501V13.3449C54.4625 12.6802 54.7265 12.0426 55.1966 11.5725L55.2296 11.5396C55.6882 11.081 56.2626 10.7554 56.8917 10.5975C57.5267 10.4381 58.1863 10.401 58.8353 10.4881L59.3462 10.5566L59.8296 10.6215C60.4874 10.7098 61.1033 10.9946 61.5966 11.4387L61.6888 11.5217C62.1261 11.9155 62.4637 12.4075 62.6738 12.9572C62.8664 13.4609 63.3497 13.7936 63.8889 13.7936H63.9321H64.1087C64.5295 13.7936 64.8707 13.4524 64.8707 13.0316C64.8707 12.5311 64.7507 12.0379 64.5208 11.5934L64.3053 11.1767C63.9379 10.466 63.3571 9.88823 62.6444 9.52457L62.2623 9.32957L61.8624 9.12562C61.1494 8.76204 60.3763 8.53095 59.5807 8.44359L59.2031 8.40212L59.0308 8.38325C58.1022 8.28151 57.1626 8.37771 56.2739 8.66551L56.0025 8.7534ZM95.7237 18.0684V26.4322C95.7237 27.0481 96.223 27.5473 96.8389 27.5473C97.4548 27.5473 97.9541 27.0481 97.9541 26.4322V18.0684V9.70464C97.9541 9.08875 97.4548 8.58947 96.8389 8.58947C96.223 8.58947 95.7237 9.08875 95.7237 9.70464V18.0684ZM116.168 11.935V12.8643C116.168 13.3775 115.752 13.7936 115.239 13.7936C114.726 13.7936 114.31 14.2097 114.31 14.7229C114.31 15.2361 114.726 15.6522 115.239 15.6522C115.752 15.6522 116.168 16.0683 116.168 16.5815V19.8367V23.092C116.168 23.7082 116.255 24.3213 116.424 24.9137L116.526 25.2683L116.654 25.7145C116.803 26.2347 117.117 26.6925 117.548 27.0195C117.98 27.3467 118.506 27.5257 119.047 27.5298L119.793 27.5354L120.443 27.5403C120.955 27.5442 121.373 27.1301 121.373 26.618C121.373 26.1048 120.957 25.6887 120.443 25.6887H120.248H120.144C119.53 25.6887 118.979 25.3093 118.761 24.7353C118.522 24.1049 118.399 23.4361 118.399 22.7618V19.717V17.1391C118.399 16.3179 119.065 15.6522 119.886 15.6522H120.443C120.957 15.6522 121.373 15.2361 121.373 14.7229C121.373 14.2097 120.957 13.7936 120.443 13.7936H119.886C119.065 13.7936 118.399 13.1279 118.399 12.3067V11.935V11.1915C118.399 10.5756 117.9 10.0764 117.284 10.0764C116.668 10.0764 116.168 10.5756 116.168 11.1915V11.935ZM70.4287 14.6311C69.6104 15.1826 68.922 15.9177 68.4221 16.7685C67.9222 17.6196 67.6586 18.5889 67.6586 19.576V20.6705V21.765C67.6586 22.7521 67.9222 23.7213 68.4221 24.5724C68.922 25.4233 69.6104 26.1583 70.4287 26.7098C71.2389 27.2557 72.1936 27.5473 73.1706 27.5473H73.7103H74.2664C75.2355 27.5473 76.1854 27.2774 77.0097 26.7678L77.2545 26.6165C77.9194 26.2057 78.4602 25.622 78.8192 24.9278L79.1888 24.2133C79.3065 23.9857 79.3679 23.7332 79.3679 23.477C79.3679 23.2614 79.1931 23.0867 78.9776 23.0867H78.2527H77.526C77.3115 23.0867 77.1376 23.2606 77.1376 23.4751C77.1376 23.7241 77.0386 23.9628 76.8626 24.1388L76.225 24.7761C75.6409 25.3604 74.8486 25.6887 74.0225 25.6887H73.8917H73.5272C72.8395 25.6887 72.1684 25.477 71.6052 25.0824C71.0399 24.6866 70.5986 24.1385 70.3325 23.5018L70.2213 23.2357L70.2138 23.2177C69.8767 22.4108 69.7031 21.545 69.7031 20.6705C69.7031 19.7959 69.8767 18.9301 70.2138 18.1232L70.2213 18.1052L70.3325 17.8391C70.5986 17.2024 71.0399 16.6543 71.6052 16.2585C72.1684 15.8639 72.8395 15.6522 73.5272 15.6522H73.8248H73.9323C74.7397 15.6522 75.5236 15.9236 76.1581 16.4228L76.7203 16.8649C76.9838 17.072 77.1376 17.3887 77.1376 17.7238C77.1376 18.0168 77.3751 18.2543 77.668 18.2543H78.2527H78.9776C79.1931 18.2543 79.3679 18.0795 79.3679 17.864C79.3679 17.6077 79.3065 17.3552 79.1888 17.1277L78.7921 16.3607C78.4157 15.6328 77.8466 15.0222 77.1469 14.5956L77.0264 14.5222C76.2482 14.0474 75.3543 13.7959 74.4427 13.7954L73.7541 13.7951L73.1706 13.7947C72.1937 13.794 71.2389 14.0852 70.4287 14.6311ZM83.9453 14.4973L83.4709 14.7951C83.0057 15.0871 82.6247 15.4954 82.3655 15.9797L82.1568 16.3696C82.0341 16.5988 81.97 16.8547 81.97 17.1146C81.97 17.3334 82.1474 17.5108 82.3662 17.5108H82.8826C83.4666 17.5108 84.0268 17.2788 84.4398 16.8658L84.7241 16.5815C85.3191 15.9865 86.1261 15.6522 86.9676 15.6522H87.0745H87.487C88.1434 15.6522 88.784 15.8543 89.3215 16.231C89.8394 16.5935 90.1479 17.1859 90.1479 17.818V18.0431V18.0919C90.1479 18.7807 89.6617 19.3737 88.9862 19.5088L88.4665 19.6128C88.0396 19.6982 87.6053 19.7412 87.17 19.7412H86.2853H86.2139C85.2503 19.7412 84.3015 19.9779 83.4509 20.4307L83.3167 20.5022C82.5714 20.8992 82.0069 21.5673 81.7399 22.3685L81.6947 22.5038C81.4531 23.2289 81.4341 24.0097 81.6403 24.7457C81.8469 25.4823 82.2636 26.1428 82.8396 26.6464L82.9134 26.711C83.5303 27.2502 84.3218 27.5473 85.1411 27.5473H85.5404H85.9969C86.7946 27.5473 87.5807 27.3561 88.2893 26.9898L88.699 26.7779C89.1357 26.5521 89.499 26.2065 89.7464 25.7817C89.8523 25.5998 90.1304 25.6735 90.1324 25.8839L90.1367 26.3392L90.1376 26.4322C90.1433 27.0497 90.6455 27.5473 91.2631 27.5473C91.8789 27.5473 92.3782 27.0481 92.3782 26.4322V21.9774V18.0161C92.3782 16.9802 91.9967 15.9805 91.3065 15.208C90.6208 14.4407 89.6564 13.9799 88.6286 13.9286L87.6823 13.8813L86.526 13.8237C85.6171 13.7785 84.7162 14.0136 83.9453 14.4973ZM103.645 14.5657C102.87 15.0622 102.247 15.7638 101.846 16.5926L101.694 16.9071L101.588 17.1242C101.154 18.0223 100.928 19.0072 100.928 20.005V20.7292V21.3291C100.928 22.4064 101.191 23.4674 101.695 24.4197L101.773 24.5687L101.937 24.8779C102.382 25.7188 103.067 26.4081 103.905 26.8578C104.749 27.3105 105.692 27.5473 106.65 27.5473H106.938H107.65C108.335 27.5473 109.014 27.4226 109.653 27.1793C110.29 26.9373 110.862 26.5514 111.325 26.0517L111.536 25.824L112.109 25.2059C112.329 24.9686 112.451 24.657 112.451 24.3334C112.451 24.0554 112.226 23.8301 111.948 23.8301H111.668C111.163 23.8301 110.674 24.0085 110.287 24.3339L109.782 24.7594L109.665 24.8575C109.027 25.3944 108.22 25.6887 107.386 25.6887H107.248C106.491 25.6887 105.744 25.5071 105.071 25.159L104.998 25.1212C104.381 24.8025 103.89 24.2861 103.602 23.6547L103.459 23.3406C103.261 22.9053 103.158 22.4324 103.158 21.954C103.158 21.5531 103.483 21.228 103.884 21.228H107.991H111.429C112.198 21.228 112.819 20.6026 112.815 19.8341C112.809 18.9151 112.61 18.0076 112.23 17.1708L112.093 16.8681L111.974 16.6072C111.587 15.7526 110.951 15.0345 110.15 14.546C109.345 14.0557 108.421 13.7975 107.48 13.7999L106.875 13.8014L106.239 13.8029C105.319 13.8051 104.42 14.0697 103.645 14.5657ZM125.866 14.5976C125.033 15.1679 124.355 15.9358 123.891 16.8326L123.844 16.9242L123.83 16.9511C123.345 17.8916 123.093 18.9349 123.094 19.9932L123.096 20.6415L123.097 21.4089C123.098 22.3911 123.319 23.3607 123.742 24.2471L123.776 24.3174C124.219 25.2452 124.901 26.0386 125.751 26.6165L125.787 26.6407C126.656 27.2315 127.683 27.5473 128.734 27.5473H129.21H129.783C130.771 27.5473 131.738 27.2553 132.562 26.708C133.39 26.1579 134.061 25.4022 134.509 24.515L134.662 24.213L134.786 23.9673C135.254 23.0404 135.497 22.0161 135.496 20.9776L135.496 20.8704L135.495 20.0816C135.494 19.4856 135.413 18.8925 135.254 18.3184L135.128 17.8662C134.888 17.0033 134.423 16.2199 133.78 15.5967L133.449 15.2757C132.602 14.4548 131.487 13.9674 130.309 13.903L129.635 13.8661L128.669 13.8133C127.674 13.7588 126.688 14.0345 125.866 14.5976ZM138.1 20.6705V26.4322C138.1 27.0481 138.599 27.5473 139.215 27.5473C139.831 27.5473 140.33 27.0481 140.33 26.4322V23.2606V20.299C140.33 19.4243 140.504 18.5583 140.841 17.7512L140.856 17.7145L141.054 17.2409C141.267 16.7329 141.648 16.3136 142.133 16.0537C142.626 15.7901 143.176 15.6522 143.735 15.6522H144.048H144.44C144.947 15.6522 145.445 15.7772 145.892 16.0161C146.329 16.2501 146.662 16.64 146.826 17.1082L146.982 17.5584L147.025 17.6799C147.269 18.3795 147.393 19.1151 147.393 19.856V23.142V26.618C147.393 27.1313 147.809 27.5473 148.322 27.5473C148.836 27.5473 149.252 27.1313 149.252 26.618V21.9343V18.1087C149.252 16.9642 148.797 15.8667 147.988 15.0574C147.179 14.2482 146.081 13.7936 144.937 13.7936H144.671H144.112C143.147 13.7936 142.213 14.1344 141.474 14.756L141.067 15.0988C140.775 15.3439 140.33 15.1368 140.33 14.756C140.33 14.2245 139.9 13.7936 139.368 13.7936H139.215C138.599 13.7936 138.1 14.2929 138.1 14.9088V20.6705ZM109.257 16.4886L109.41 16.6253C109.92 17.0807 110.277 17.6818 110.433 18.3472C110.556 18.8694 110.16 19.3694 109.623 19.3694H106.916H103.549C103.333 19.3694 103.158 19.1947 103.158 18.9791C103.158 18.7229 103.22 18.4704 103.337 18.2428L103.716 17.5108L103.928 17.1011C104.153 16.6644 104.499 16.3011 104.924 16.0537C105.35 15.8054 105.834 15.6727 106.327 15.6686L106.948 15.6634L107.065 15.6624C107.873 15.6558 108.654 15.9504 109.257 16.4886ZM131.832 16.7049C132.589 17.3808 133.057 18.3213 133.141 19.3324L133.185 19.8627L133.258 20.7492C133.325 21.55 133.199 22.3551 132.892 23.0974L132.876 23.1352C132.579 23.8511 132.104 24.4788 131.495 24.9579C130.893 25.4313 130.149 25.6887 129.383 25.6887H129.29H128.826C128.294 25.6887 127.769 25.5572 127.3 25.3058C126.834 25.0568 126.456 24.6713 126.216 24.2011L126.068 23.9119L125.945 23.6712C125.683 23.1598 125.49 22.6165 125.369 22.055L125.298 21.7239C125.131 20.9503 125.152 20.1481 125.357 19.3839L125.464 18.9862L125.559 18.6359C125.772 17.8428 126.191 17.1196 126.772 16.5388C127.339 15.9711 128.109 15.6522 128.912 15.6522H129.156C130.121 15.6522 131.051 16.0074 131.771 16.65L131.832 16.7049ZM90.1479 22.496C90.1479 23.2999 89.7928 24.0627 89.1777 24.5803L89.0041 24.7263L88.8111 24.8888C88.1973 25.4054 87.4207 25.6887 86.6184 25.6887H86.0369C85.6003 25.6887 85.1674 25.6086 84.7598 25.4523C84.3675 25.3016 84.058 24.9911 83.9086 24.5984L83.8103 24.3401L83.7068 24.0677C83.5592 23.6794 83.56 23.2503 83.7089 22.8625C83.8566 22.4775 84.1526 22.168 84.5307 22.0034L85.0924 21.7589C85.8528 21.4277 86.6723 21.2539 87.5016 21.2477L88.1963 21.2425L88.8799 21.2375C89.5787 21.2323 90.1479 21.7973 90.1479 22.496Z" fill="#3A3D4A"/>
</svg>
