<svg width="128" height="30" viewBox="0 0 128 30" fill="none" xmlns="http://www.w3.org/2000/svg">
<path fill-rule="evenodd" clip-rule="evenodd" d="M14.0767 1.76472V27.3616L3.91144 15.8298C1.14595 12.6927 1.08016 7.95149 3.7575 4.73553C5.32658 2.8508 7.62754 1.76472 10.0508 1.76472H14.0767ZM22.7223 0H14.0767H10.0508C7.12018 0 4.33742 1.31365 2.43982 3.59295C-0.798086 7.48211 -0.718566 13.2159 2.62599 17.0101L12.9137 28.6808L14.0767 30L15.2397 28.6808L31.3678 10.3847L22.7223 0ZM120.475 3.91302C121.797 3.91302 123.087 3.94556 124.344 4.01053C125.623 4.05396 126.794 4.14059 127.856 4.27075L127.563 8.62793H119.174C118.697 8.62793 118.329 8.75799 118.069 9.01821C117.808 9.25666 117.678 9.59263 117.678 10.0262V12.8226H126.393V16.9522H117.678V20.4315C117.678 20.8651 117.808 21.212 118.069 21.4721C118.329 21.7106 118.697 21.8297 119.174 21.8297H127.563L127.856 26.187C126.794 26.2954 125.623 26.3822 124.344 26.4471C123.087 26.4905 121.797 26.5122 120.475 26.5122C119.174 26.5339 117.895 26.5447 116.638 26.5447C115.142 26.5447 113.928 26.1003 112.996 25.2115C112.064 24.3227 111.598 23.1629 111.598 21.7322V8.72555C111.598 7.27305 112.064 6.11332 112.996 5.24623C113.928 4.35739 115.142 3.91302 116.638 3.91302H120.475ZM75.6122 4.01053C76.1108 4.01053 76.5444 4.15147 76.9129 4.43325C77.3031 4.71512 77.5632 5.10529 77.6933 5.60386L83.839 26.4471H77.5958L76.2402 21.1144H69.3589L68.0033 26.4471H61.7601L67.9058 5.60386C68.0358 5.10529 68.2851 4.71512 68.6536 4.43325C69.0439 4.15147 69.4882 4.01053 69.9869 4.01053H75.6122ZM73.6613 10.9692L75.1243 16.7246H70.4748L71.9379 10.9692C72.0246 10.6007 72.1004 10.2105 72.1655 9.79855C72.2522 9.36496 72.3172 8.96401 72.3606 8.59539H73.2385C73.3035 8.96401 73.3686 9.36496 73.4336 9.79855C73.4987 10.2105 73.5745 10.6007 73.6613 10.9692ZM104.428 12.9201L109.89 4.01053H103.354L98.2233 12.7576H96.5925C96.6154 12.6393 96.6366 12.5201 96.6561 12.3999C96.8078 11.5761 96.8836 10.774 96.8836 9.99369V4.01053H85.6582V26.4471H96.8836V18.9358C96.8836 18.3071 96.797 17.6134 96.6235 16.8547L96.6163 16.8222H98.2322L103.485 26.4471H110.248L104.655 16.9522C104.417 16.4971 104.092 16.0851 103.68 15.7166C103.268 15.3265 102.91 15.0446 102.607 14.8712V14.7736C102.91 14.6002 103.224 14.3617 103.55 14.0582C103.875 13.7331 104.167 13.3537 104.428 12.9201ZM56.8935 8.66047V26.4471H45.6355V8.66047H39.1321V4.01053H45.6355H56.8935H63.3644V8.66047H56.8935Z" fill="#3A3D4A"/>
</svg>
