<svg width="211" height="60" viewBox="0 0 211 60" fill="none" xmlns="http://www.w3.org/2000/svg">
<path fill-rule="evenodd" clip-rule="evenodd" d="M16.5575 46.4237H21.5135L13.388 35.8203L20.9372 26.2542H15.9812L11.1982 33.4H10.6219L5.60836 26.2542H0.767679L8.20158 35.8203L0.191406 46.4237H5.03209L10.5067 38.4712H11.0829L16.5575 46.4237ZM44.544 44.9831C45.3123 44.0995 45.6966 43.2351 45.6966 42.3898V18.1864H25.5271V22.2203H41.0864V42.3898H30.1373V38.3559H25.5271V42.3898C25.5271 43.4656 25.9305 44.4068 26.7373 45.2136C27.544 46.0203 28.4852 46.4237 29.561 46.4237H41.6627C42.7385 46.4237 43.6988 45.9436 44.544 44.9831ZM58.9508 46.4237H75.0864V42.9661H58.9508V29.7119H71.0525V34.8983H62.9847L59.5271 38.3559H71.0525L75.0864 34.322V30.2881C75.0864 29.1741 74.683 28.2327 73.8763 27.4644C73.108 26.6576 72.1666 26.2542 71.0525 26.2542H58.9508C57.8368 26.2542 56.8762 26.6576 56.0695 27.4644C55.3012 28.2327 54.9169 29.1741 54.9169 30.2881V42.3898C54.9169 43.5039 55.3012 44.4644 56.0695 45.2712C56.8762 46.0395 57.8368 46.4237 58.9508 46.4237ZM86.6096 46.4237H94.6774V42.9661H86.6096V29.7119H94.6774V26.2542H86.6096V18.1864L82.5757 22.2203V26.2542H80.2706L76.813 29.7119H82.5757V42.3898C82.5757 43.5039 82.96 44.4644 83.7282 45.2712C84.535 46.0395 85.4955 46.4237 86.6096 46.4237ZM113.134 46.4237H133.304V38.3559H128.694V42.3898H117.745V18.1864H113.134V46.4237ZM153.196 46.4237H157.23V30.2881C157.23 29.1741 156.828 28.2327 156.021 27.4644C155.251 26.6576 154.309 26.2542 153.196 26.2542H140.518L137.06 29.7119H153.196V42.9661H141.094V37.722H149.162L152.619 34.322H141.094C139.981 34.322 139.019 34.7254 138.213 35.5322C137.445 36.3005 137.06 37.2419 137.06 38.3559V42.3898C137.06 43.5039 137.445 44.4644 138.213 45.2712C139.019 46.0395 139.981 46.4237 141.094 46.4237H149.738L153.196 43.4848V46.4237ZM184.812 45.2712C185.619 44.4644 186.021 43.5039 186.021 42.3898V30.2881C186.021 29.1741 185.619 28.2327 184.812 27.4644C184.042 26.6576 183.1 26.2542 181.987 26.2542H172.766L169.885 29.1356V13L165.851 17.0339V47L169.885 43.0237V46.4237H181.987C183.1 46.4237 184.042 46.0395 184.812 45.2712ZM181.987 29.7119V42.9661H169.885V29.7119H181.987ZM206.997 29.7119L210.514 26.2542H197.259C196.143 26.2542 195.185 26.6576 194.378 27.4644C193.608 28.2327 193.225 29.1741 193.225 30.2881V33.7458C193.225 34.8598 193.608 35.8203 194.378 36.6271C195.185 37.3954 196.143 37.7797 197.259 37.7797H205.327V42.9661H193.225V46.4237H205.327C206.44 46.4237 207.382 46.0395 208.149 45.2712C208.956 44.4644 209.361 43.5039 209.361 42.3898V38.3559C209.361 37.2419 208.956 36.3005 208.149 35.5322C207.382 34.7254 206.44 34.322 205.327 34.322H197.259V29.7119H206.997Z" fill="#494D5E"/>
</svg>
