<svg width="192" height="60" viewBox="0 0 192 60" fill="none" xmlns="http://www.w3.org/2000/svg">
<path fill-rule="evenodd" clip-rule="evenodd" d="M18.0584 10.6811C20.3446 8.45911 24.0409 8.43689 26.2966 10.6317L33.0969 17.2482C35.3314 19.4222 35.3101 22.9545 33.0492 25.1591L26.3111 31.7296C24.0761 33.9089 20.473 33.9877 18.1951 31.9072L17.2416 31.0363C14.9654 28.9575 11.3663 29.034 9.13046 31.209L7.42114 32.8717C5.76232 34.4855 3.09759 34.5593 1.3875 33.0392C-0.418117 31.4339 -0.462465 28.6825 1.28975 26.9793L18.0584 10.6811ZM36.5956 26.9236C38.3122 25.2302 41.092 25.1928 42.8372 26.8395C44.6267 28.5282 44.6416 31.3341 42.8701 33.0595L26.1668 49.3297C23.8813 51.5561 20.1953 51.5568 17.9334 49.3314L10.3055 41.8274C8.61836 40.1675 8.62383 37.4783 10.3179 35.8074C12.0273 34.1213 14.8044 34.1131 16.5058 35.7889L17.9401 37.2019C20.212 39.4398 23.9205 39.4287 26.2027 37.177L36.5956 26.9236ZM64.3628 22.6235C65.8017 22.6235 67.0842 22.9354 68.2097 23.5591C69.354 24.1827 70.2488 25.0634 70.8947 26.2007C71.5405 27.338 71.8631 28.6498 71.8631 30.1356C71.8631 31.6216 71.5405 32.9425 70.8947 34.0981C70.2488 35.2356 69.354 36.116 68.2097 36.7398C67.0842 37.3636 65.8017 37.6755 64.3628 37.6755C62.3698 37.6755 60.7925 37.015 59.6301 35.6941V42.821H56.1705V22.7886H59.4641V24.7147C60.0361 24.0177 60.7372 23.4949 61.5677 23.1464C62.4162 22.7978 63.3481 22.6235 64.3628 22.6235ZM63.9756 34.7311C65.2484 34.7311 66.2911 34.3091 67.1031 33.4652C67.9333 32.6213 68.3485 31.5115 68.3485 30.1356C68.3485 28.7597 67.9333 27.6499 67.1031 26.806C66.2911 25.9623 65.2484 25.5404 63.9756 25.5404C63.1448 25.5404 62.3979 25.733 61.7338 26.1182C61.0691 26.4851 60.5435 27.0171 60.156 27.7142C59.7684 28.4113 59.5747 29.2184 59.5747 30.1356C59.5747 31.0528 59.7684 31.8602 60.156 32.5571C60.5435 33.2543 61.0691 33.7956 61.7338 34.1806C62.3979 34.5477 63.1448 34.7311 63.9756 34.7311ZM78.6041 17.065H75.1443V37.4827H78.6041V17.065ZM88.7898 22.6235C90.967 22.6235 92.6276 23.1464 93.7719 24.192C94.9345 25.2192 95.5152 26.7787 95.5152 28.87V37.4827H92.2495V35.6941C91.8253 36.3363 91.2166 36.8316 90.4229 37.18C89.6481 37.5104 88.707 37.6755 87.5998 37.6755C86.4926 37.6755 85.5241 37.4919 84.6939 37.125C83.8636 36.7398 83.2178 36.217 82.7564 35.5565C82.3139 34.8779 82.0923 34.1165 82.0923 33.2726C82.0923 31.9518 82.5811 30.897 83.5593 30.1081C84.5557 29.301 86.1146 28.8975 88.2364 28.8975H92.056V28.6772C92.056 27.6499 91.7419 26.8612 91.115 26.3108C90.5057 25.7605 89.5927 25.4853 88.3746 25.4853C87.5444 25.4853 86.7232 25.6137 85.9119 25.8705C85.1181 26.1274 84.4449 26.4851 83.891 26.9438L82.5349 24.4396C83.3103 23.8526 84.2416 23.4031 85.3306 23.0912C86.4189 22.7795 87.5724 22.6235 88.7898 22.6235ZM88.3192 35.1713C89.1866 35.1713 89.9524 34.9787 90.6164 34.5935C91.2994 34.1898 91.7791 33.6213 92.056 32.8874V31.1814H88.4854C86.4926 31.1814 85.4968 31.8326 85.4968 33.1351C85.4968 33.7588 85.7457 34.2541 86.2436 34.621C86.7421 34.9879 87.4336 35.1713 88.3192 35.1713ZM106.605 38.666L113.524 22.7886H110.203L105.525 33.6578L100.876 22.7886H97.2777L103.726 37.5377L103.477 38.1155C103.145 38.8494 102.776 39.3722 102.37 39.684C101.982 39.9959 101.484 40.152 100.876 40.152C100.414 40.152 99.9529 40.0602 99.4915 39.8766C99.0491 39.6933 98.6613 39.4456 98.3296 39.1337L96.9454 41.6653C97.4068 42.0872 97.9972 42.4174 98.7167 42.656C99.4361 42.8944 100.165 43.0136 100.903 43.0136C102.213 43.0136 103.329 42.6835 104.252 42.0231C105.175 41.3809 105.959 40.262 106.605 38.666ZM134.339 22.6235C136.203 22.6235 137.679 23.1647 138.768 24.247C139.857 25.311 140.401 26.9163 140.401 29.0626V37.4827H136.941V29.5028C136.941 28.2187 136.655 27.2555 136.083 26.6134C135.511 25.9531 134.69 25.6229 133.62 25.6229C132.457 25.6229 131.526 26.0081 130.825 26.7787C130.124 27.5308 129.773 28.6131 129.773 30.0256V37.4827H126.313V29.5028C126.313 28.2187 126.028 27.2555 125.456 26.6134C124.883 25.9531 124.062 25.6229 122.992 25.6229C121.811 25.6229 120.87 25.9989 120.169 26.751C119.487 27.5031 119.145 28.5946 119.145 30.0256V37.4827H115.685V22.7886H118.979V24.6597C119.532 23.9994 120.224 23.4949 121.055 23.1464C121.885 22.7978 122.808 22.6235 123.822 22.6235C124.93 22.6235 125.907 22.8344 126.756 23.2563C127.624 23.66 128.306 24.2653 128.805 25.0726C129.413 24.302 130.197 23.7058 131.156 23.284C132.116 22.8436 133.177 22.6235 134.339 22.6235ZM155.838 37.4827H159.131V22.7886H155.672V30.2182C155.672 31.6491 155.303 32.7497 154.565 33.5203C153.845 34.2724 152.867 34.6484 151.631 34.6484C150.524 34.6484 149.666 34.3274 149.057 33.6854C148.467 33.0248 148.172 32.0343 148.172 30.7134V22.7886H144.712V31.1814C144.712 33.3277 145.275 34.951 146.401 36.0518C147.544 37.1342 149.104 37.6753 151.078 37.6753C152.037 37.6753 152.932 37.501 153.762 37.1525C154.593 36.7856 155.284 36.2719 155.838 35.6115V37.4827ZM168.226 37.6755C167.027 37.6755 165.855 37.5194 164.712 37.2076C163.568 36.8957 162.654 36.5014 161.971 36.0243L163.3 33.4102C163.964 33.8504 164.758 34.2083 165.68 34.4834C166.621 34.7403 167.544 34.8686 168.448 34.8686C170.514 34.8686 171.548 34.3274 171.548 33.2451C171.548 32.7314 171.28 32.3737 170.745 32.1721C170.228 31.9702 169.389 31.7776 168.226 31.5941C167.009 31.4107 166.012 31.1996 165.238 30.9612C164.481 30.7227 163.817 30.3099 163.245 29.7229C162.691 29.1176 162.414 28.2829 162.414 27.2189C162.414 25.8247 162.996 24.7147 164.158 23.8893C165.339 23.0454 166.926 22.6235 168.918 22.6235C169.933 22.6235 170.948 22.7428 171.963 22.9812C172.978 23.2014 173.808 23.5041 174.454 23.8893L173.125 26.5034C171.871 25.7697 170.459 25.4028 168.891 25.4028C167.876 25.4028 167.101 25.5586 166.566 25.8705C166.05 26.1641 165.791 26.5584 165.791 27.0538C165.791 27.6041 166.068 27.9986 166.621 28.237C167.193 28.4572 168.07 28.6681 169.251 28.87C170.432 29.0533 171.4 29.2642 172.157 29.5028C172.913 29.7414 173.559 30.1449 174.094 30.7136C174.647 31.2822 174.924 32.0893 174.924 33.1351C174.924 34.511 174.325 35.6115 173.125 36.4371C171.926 37.2626 170.293 37.6755 168.226 37.6755ZM191.742 31.2364C191.78 30.7962 191.798 30.4567 191.798 30.2182C191.798 28.7139 191.475 27.3931 190.829 26.2557C190.202 25.1001 189.316 24.2103 188.172 23.5867C187.046 22.9446 185.764 22.6235 184.325 22.6235C182.868 22.6235 181.558 22.9446 180.395 23.5867C179.233 24.2287 178.319 25.1275 177.655 26.2833C177.009 27.4206 176.686 28.7049 176.686 30.1356C176.686 31.585 177.019 32.8874 177.683 34.0432C178.365 35.1805 179.325 36.0702 180.561 36.7123C181.798 37.3544 183.227 37.6755 184.851 37.6755C186.124 37.6755 187.268 37.4736 188.283 37.07C189.298 36.6665 190.137 36.0702 190.801 35.2814L188.947 33.1626C187.895 34.2266 186.557 34.7586 184.934 34.7586C183.661 34.7586 182.591 34.4467 181.723 33.8229C180.875 33.1809 180.349 32.3187 180.146 31.2364H191.742ZM181.502 26.3658C182.277 25.7054 183.218 25.3753 184.325 25.3753C185.45 25.3753 186.391 25.7054 187.148 26.3658C187.905 27.0263 188.357 27.8885 188.504 28.9525H180.118C180.284 27.8702 180.746 27.0079 181.502 26.3658Z" fill="#494D5E"/>
</svg>
