<svg width="163" height="60" viewBox="0 0 163 60" fill="none" xmlns="http://www.w3.org/2000/svg">
<path fill-rule="evenodd" clip-rule="evenodd" d="M17.8838 13.2353V45.658L5.00788 31.0511C1.50492 27.0774 1.42159 21.0719 4.81289 16.9983C6.80039 14.611 9.71494 13.2353 12.7844 13.2353H17.8838ZM28.8349 11H17.8838H12.7844C9.07228 11 5.54745 12.664 3.14383 15.5511C-0.957523 20.4773 -0.856798 27.7402 3.37964 32.5461L16.4108 47.329L17.8838 49L19.3569 47.329L39.786 24.1539L28.8349 11ZM152.655 15.9565C154.33 15.9565 155.964 15.9977 157.556 16.08C159.176 16.135 160.659 16.2447 162.004 16.4096L161.634 21.9287H151.007C150.403 21.9287 149.936 22.0935 149.607 22.4231C149.277 22.7251 149.113 23.1507 149.113 23.6999V27.242H160.151V32.4728H149.113V36.8799C149.113 37.4292 149.277 37.8685 149.607 38.198C149.936 38.5 150.403 38.651 151.007 38.651H161.634L162.004 44.1702C160.659 44.3075 159.176 44.4174 157.556 44.4997C155.964 44.5547 154.33 44.5821 152.655 44.5821C151.007 44.6096 149.387 44.6233 147.795 44.6233C145.9 44.6233 144.362 44.0603 143.182 42.9346C142.001 41.8087 141.411 40.3397 141.411 38.5275V22.0524C141.411 20.2125 142.001 18.7435 143.182 17.6452C144.362 16.5194 145.9 15.9565 147.795 15.9565H152.655ZM95.8289 16.08C96.4605 16.08 97.0096 16.2585 97.4764 16.6154C97.9707 16.9725 98.3002 17.4667 98.4649 18.0982L106.249 44.4997H98.3414L96.6243 37.7449H87.908L86.1909 44.4997H78.2828L86.0674 18.0982C86.2321 17.4667 86.5479 16.9725 87.0147 16.6154C87.5089 16.2585 88.0718 16.08 88.7034 16.08H95.8289ZM93.3576 24.8943L95.2108 32.1846H89.3215L91.1747 24.8943C91.2845 24.4275 91.3806 23.9333 91.4629 23.4115C91.5728 22.8623 91.6552 22.3544 91.7101 21.8875H92.8221C92.9045 22.3544 92.987 22.8623 93.0693 23.4115C93.1517 23.9333 93.2478 24.4275 93.3576 24.8943ZM132.328 27.3655L139.248 16.08H130.969L124.47 27.1597H122.404C122.433 27.0098 122.46 26.8588 122.484 26.7065C122.677 25.6631 122.773 24.6471 122.773 23.6587V16.08H108.554V44.4997H122.773V34.9854C122.773 34.189 122.663 33.3103 122.443 32.3493L122.434 32.3081H124.481L131.134 44.4997H139.701L132.617 32.4728C132.315 31.8963 131.903 31.3745 131.381 30.9077C130.859 30.4135 130.406 30.0565 130.022 29.8369V29.7132C130.406 29.4936 130.804 29.1915 131.216 28.8071C131.628 28.3953 131.999 27.9147 132.328 27.3655ZM72.1185 21.9699V44.4997H57.8583V21.9699H49.6207V16.08H57.8583H72.1185H80.3149V21.9699H72.1185Z" fill="#494D5E"/>
</svg>
