<svg width="134" height="28" viewBox="0 0 134 28" fill="none" xmlns="http://www.w3.org/2000/svg">
<path fill-rule="evenodd" clip-rule="evenodd" d="M32.3441 0V27.7005H25.9405V0H32.3441ZM0 17.2193C0 15.0731 0.399444 13.1889 1.19833 11.5668C2.02218 9.94474 3.13314 8.69697 4.53119 7.82353C5.92924 6.95009 7.48957 6.51337 9.21217 6.51337C10.6851 6.51337 11.9708 6.81283 13.0693 7.41176C14.1927 8.01069 15.054 8.79679 15.6532 9.77005V6.81283H22.0568V27.7005H15.6532V24.7433C15.0291 25.7166 14.1553 26.5027 13.0318 27.1016C11.9334 27.7005 10.6477 28 9.17472 28C7.47708 28 5.92924 27.5633 4.53119 26.6898C3.13314 25.7914 2.02218 24.5312 1.19833 22.9091C0.399444 21.262 0 19.3654 0 17.2193ZM15.6532 17.2567C15.6532 15.6595 15.2038 14.3993 14.3051 13.4759C13.4313 12.5526 12.3578 12.0909 11.0846 12.0909C9.81133 12.0909 8.72535 12.5526 7.8266 13.4759C6.95282 14.3743 6.51592 15.6221 6.51592 17.2193C6.51592 18.8164 6.95282 20.0891 7.8266 21.0374C8.72535 21.9608 9.81133 22.4225 11.0846 22.4225C12.3578 22.4225 13.4313 21.9608 14.3051 21.0374C15.2038 20.1141 15.6532 18.8538 15.6532 17.2567ZM73.831 17.2193C73.831 15.0731 74.2305 13.1889 75.0293 11.5668C75.8532 9.94474 76.9642 8.69697 78.3622 7.82353C79.7603 6.95009 81.3206 6.51337 83.0432 6.51337C84.5161 6.51337 85.8018 6.81283 86.9003 7.41176C88.0238 8.01069 88.885 8.79679 89.4842 9.77005V6.81283H95.8878V27.7005H89.4842V24.7433C88.8601 25.7166 87.9863 26.5027 86.8629 27.1016C85.7644 27.7005 84.4787 28 83.0057 28C81.3081 28 79.7603 27.5633 78.3622 26.6898C76.9642 25.7914 75.8532 24.5312 75.0293 22.9091C74.2305 21.262 73.831 19.3654 73.831 17.2193ZM89.4842 17.2567C89.4842 15.6595 89.0348 14.3993 88.1361 13.4759C87.2623 12.5526 86.1888 12.0909 84.9156 12.0909C83.6424 12.0909 82.5564 12.5526 81.6576 13.4759C80.7838 14.3743 80.3469 15.6221 80.3469 17.2193C80.3469 18.8164 80.7838 20.0891 81.6576 21.0374C82.5564 21.9608 83.6424 22.4225 84.9156 22.4225C86.1888 22.4225 87.2623 21.9608 88.1361 21.0374C89.0348 20.1141 89.4842 18.8538 89.4842 17.2567ZM111.418 27.7005V22.2727H109.134C108.434 22.2727 107.935 22.1355 107.636 21.861C107.336 21.5865 107.186 21.1373 107.186 20.5134V12.1283H111.38V6.81283H107.186V1.72192H100.783V6.81283H98.2362V12.1283H100.783V20.4385C100.783 23.0089 101.432 24.8681 102.73 26.016C104.028 27.139 105.838 27.7005 108.16 27.7005H111.418ZM133.933 16.9198C133.933 17.5187 133.896 18.1426 133.821 18.7914H119.329C119.429 20.0891 119.84 21.0873 120.564 21.7861C121.313 22.4599 122.225 22.7968 123.298 22.7968C124.896 22.7968 126.007 22.123 126.631 20.7754H133.447C133.097 22.1479 132.46 23.3832 131.537 24.4813C130.638 25.5793 129.502 26.4403 128.129 27.0642C126.756 27.6881 125.22 28 123.523 28C121.476 28 119.653 27.5633 118.055 26.6898C116.458 25.8164 115.209 24.5686 114.311 22.9465C113.412 21.3244 112.963 19.4278 112.963 17.2567C112.963 15.0856 113.399 13.1889 114.273 11.5668C115.172 9.94474 116.42 8.69697 118.018 7.82353C119.616 6.95009 121.451 6.51337 123.523 6.51337C125.545 6.51337 127.343 6.93761 128.915 7.7861C130.488 8.63458 131.711 9.84492 132.585 11.4171C133.484 12.9893 133.933 14.8235 133.933 16.9198ZM127.38 15.2353C127.38 14.1373 127.005 13.2638 126.257 12.615C125.508 11.9661 124.571 11.6417 123.448 11.6417C122.374 11.6417 121.463 11.9537 120.714 12.5775C119.99 13.2014 119.541 14.0873 119.366 15.2353H127.38ZM69.0484 8.87272C67.5255 7.30053 65.4659 6.51443 62.8695 6.51443C61.3965 6.51443 60.0359 6.87629 58.7877 7.6C57.5394 8.3237 56.5533 9.25953 55.8293 10.4075C55.1303 9.15971 54.1566 8.19893 52.9083 7.52513C51.6851 6.85133 50.287 6.51443 48.7142 6.51443C47.391 6.51443 46.2052 6.77647 45.1567 7.30053C44.1081 7.79964 43.2593 8.48591 42.6102 9.35935V6.73903H36.2065V27.6267H42.6102V16.2845C42.6102 14.9369 42.9597 13.9012 43.6587 13.1775C44.3827 12.4289 45.3689 12.0545 46.6171 12.0545C47.8654 12.0545 48.839 12.4289 49.538 13.1775C50.262 13.9012 50.624 14.9369 50.624 16.2845V27.6267H56.9902V16.2845C56.9902 14.9369 57.3397 13.9012 58.0387 13.1775C58.7627 12.4289 59.7488 12.0545 60.9971 12.0545C62.2453 12.0545 63.219 12.4289 63.918 13.1775C64.642 13.9012 65.004 14.9369 65.004 16.2845V20.7988C65.7843 19.9256 66.9191 19.376 68.1822 19.376C69.4506 19.376 70.5896 19.9302 71.3701 20.8097V15.4235C71.3701 12.6285 70.5962 10.4449 69.0484 8.87272ZM71.3701 24.48V27.6267H65.004V24.48C65.004 22.722 66.4291 21.2969 68.1871 21.2969C69.945 21.2969 71.3701 22.722 71.3701 24.48Z" fill="#3A3D4A"/>
</svg>
