<svg width="167" height="60" viewBox="0 0 167 60" fill="none" xmlns="http://www.w3.org/2000/svg">
<path d="M166.456 30C166.456 33.2906 165.833 36.09 164.587 38.3983C163.35 40.7066 161.662 42.4697 159.523 43.6877C157.393 44.8959 154.999 45.5 152.339 45.5C149.66 45.5 147.255 44.891 145.126 43.673C142.996 42.455 141.313 40.6919 140.077 38.3836C138.84 36.0753 138.222 33.2807 138.222 30C138.222 26.7094 138.84 23.91 140.077 21.6017C141.313 19.2934 142.996 17.5352 145.126 16.327C147.255 15.109 149.66 14.5 152.339 14.5C154.999 14.5 157.393 15.109 159.523 16.327C161.662 17.5352 163.35 19.2934 164.587 21.6017C165.833 23.91 166.456 26.7094 166.456 30ZM159.994 30C159.994 27.8685 159.675 26.071 159.037 24.6074C158.409 23.1439 157.521 22.0339 156.373 21.2776C155.224 20.5212 153.88 20.1431 152.339 20.1431C150.798 20.1431 149.454 20.5212 148.306 21.2776C147.157 22.0339 146.264 23.1439 145.626 24.6074C144.998 26.071 144.684 27.8685 144.684 30C144.684 32.1315 144.998 33.929 145.626 35.3926C146.264 36.8561 147.157 37.9661 148.306 38.7224C149.454 39.4788 150.798 39.8569 152.339 39.8569C153.88 39.8569 155.224 39.4788 156.373 38.7224C157.521 37.9661 158.409 36.8561 159.037 35.3926C159.675 33.929 159.994 32.1315 159.994 30Z" fill="#494D5E"/>
<path d="M114.355 45.0939H107.524L117.932 14.9189H126.146L136.539 45.0939H129.709L122.157 21.8144H121.922L114.355 45.0939ZM113.928 33.2331H130.062V38.2132H113.928V33.2331Z" fill="#494D5E"/>
<path d="M90.8564 45.1012H80.1689V14.9263H90.9447C93.9772 14.9263 96.5877 15.5304 98.7762 16.7385C100.965 17.9369 102.648 19.6607 103.826 21.9101C105.013 24.1595 105.607 26.8509 105.607 29.9843C105.607 33.1275 105.013 35.8287 103.826 38.0879C102.648 40.3471 100.955 42.0807 98.7468 43.2889C96.5485 44.4971 93.9183 45.1012 90.8564 45.1012ZM86.5431 39.6349H90.5914C92.4757 39.6349 94.0606 39.301 95.3463 38.633C96.6417 37.9553 97.6133 36.9092 98.261 35.4947C98.9185 34.0704 99.2473 32.2336 99.2473 29.9843C99.2473 27.7545 98.9185 25.9325 98.261 24.518C97.6133 23.1036 96.6466 22.0624 95.361 21.3944C94.0753 20.7265 92.4904 20.3925 90.6061 20.3925H86.5431V39.6349Z" fill="#494D5E"/>
<path d="M30.6904 45.0939V14.9189H51.0054V20.1789H37.0646V27.369H49.9602V32.629H37.0646V39.8339H51.0643V45.0939H30.6904Z" fill="#494D5E"/>
<path d="M11.2011 45.0936H0.513672V14.9187H11.2894C14.3219 14.9187 16.9324 15.5228 19.121 16.731C21.3095 17.9293 22.9926 19.6532 24.1702 21.9025C25.3577 24.1519 25.9515 26.8433 25.9515 29.9767C25.9515 33.1199 25.3577 35.8211 24.1702 38.0803C22.9926 40.3395 21.2997 42.0732 19.0915 43.2814C16.8932 44.4895 14.263 45.0936 11.2011 45.0936ZM6.88784 39.6274H10.9361C12.8204 39.6274 14.4053 39.2934 15.691 38.6255C16.9864 37.9477 17.958 36.9016 18.6057 35.4872C19.2633 34.0629 19.592 32.2261 19.592 29.9767C19.592 27.747 19.2633 25.9249 18.6057 24.5104C17.958 23.096 16.9913 22.0548 15.7057 21.3869C14.4201 20.7189 12.8351 20.385 10.9508 20.385H6.88784V39.6274Z" fill="#494D5E"/>
<path d="M61.6317 20.9505L65.4844 36.2295H65.7888L69.3977 20.9505L74.0635 33.2068L70.1124 45.1212H61.0049L57.0096 33.2068L61.6317 20.9505Z" fill="#3A3D4A" fill-opacity="0.5"/>
<path d="M52.5479 14.8799V45.1158L62.8169 17.7064L52.5479 14.8799Z" fill="#494D5E"/>
<path d="M78.5694 45.1212V15.0271L68.2014 17.7064L78.5694 45.1212Z" fill="#494D5E"/>
</svg>
