<svg width="217" height="82" viewBox="0 0 217 82" fill="none" xmlns="http://www.w3.org/2000/svg">
<rect width="216.755" height="82" rx="25" fill="white"/>
<path fill-rule="evenodd" clip-rule="evenodd" d="M52.7126 52.7433V29H47.226V52.7433H52.7126ZM26.0267 38.9144C25.3422 40.3048 25 41.9198 25 43.7594C25 45.5989 25.3422 47.2246 26.0267 48.6364C26.7326 50.0267 27.6845 51.107 28.8824 51.877C30.0802 52.6257 31.4064 53 32.861 53C34.123 53 35.2246 52.7433 36.1658 52.2299C37.1283 51.7166 37.877 51.0428 38.4118 50.2086V52.7433H43.8984V34.8396H38.4118V37.3743C37.8984 36.5401 37.1604 35.8663 36.1979 35.3529C35.2567 34.8396 34.1551 34.5829 32.893 34.5829C31.4171 34.5829 30.0802 34.9572 28.8824 35.7059C27.6845 36.4545 26.7326 37.5241 26.0267 38.9144ZM37.2567 40.5508C38.0267 41.3422 38.4118 42.4225 38.4118 43.7914C38.4118 45.1604 38.0267 46.2406 37.2567 47.0321C36.508 47.8235 35.5882 48.2193 34.4973 48.2193C33.4064 48.2193 32.4759 47.8235 31.7059 47.0321C30.9572 46.2193 30.5829 45.1283 30.5829 43.7594C30.5829 42.3904 30.9572 41.3209 31.7059 40.5508C32.4759 39.7594 33.4064 39.3636 34.4973 39.3636C35.5882 39.3636 36.508 39.7594 37.2567 40.5508ZM89.2857 38.9144C88.6012 40.3048 88.2589 41.9198 88.2589 43.7594C88.2589 45.5989 88.6012 47.2246 89.2857 48.6364C89.9915 50.0267 90.9434 51.107 92.1413 51.877C93.3391 52.6257 94.6653 53 96.1199 53C97.3819 53 98.4835 52.7433 99.4247 52.2299C100.387 51.7166 101.136 51.0428 101.671 50.2086V52.7433H107.157V34.8396H101.671V37.3743C101.157 36.5401 100.419 35.8663 99.4568 35.3529C98.5156 34.8396 97.414 34.5829 96.152 34.5829C94.676 34.5829 93.3391 34.9572 92.1413 35.7059C90.9434 36.4545 89.9915 37.5241 89.2857 38.9144ZM100.516 40.5508C101.286 41.3422 101.671 42.4225 101.671 43.7914C101.671 45.1604 101.286 46.2406 100.516 47.0321C99.767 47.8235 98.8472 48.2193 97.7563 48.2193C96.6654 48.2193 95.7349 47.8235 94.9648 47.0321C94.2161 46.2193 93.8418 45.1283 93.8418 43.7594C93.8418 42.3904 94.2161 41.3209 94.9648 40.5508C95.7349 39.7594 96.6654 39.3636 97.7563 39.3636C98.8472 39.3636 99.767 39.7594 100.516 40.5508ZM120.464 48.0909V52.7433H117.672C115.683 52.7433 114.132 52.262 113.02 51.2995C111.907 50.3155 111.351 48.7219 111.351 46.5187V39.3957H109.169V34.8396H111.351V30.4759H116.838V34.8396H120.431V39.3957H116.838V46.5829C116.838 47.1176 116.966 47.5027 117.223 47.738C117.48 47.9733 117.907 48.0909 118.506 48.0909H120.464ZM139.659 45.107C139.723 44.5508 139.755 44.016 139.755 43.5027C139.755 41.7059 139.37 40.1337 138.6 38.7861C137.851 37.4385 136.803 36.4011 135.456 35.6738C134.108 34.9465 132.568 34.5829 130.835 34.5829C129.06 34.5829 127.488 34.9572 126.119 35.7059C124.75 36.4545 123.68 37.5241 122.91 38.9144C122.161 40.3048 121.787 41.9305 121.787 43.7914C121.787 45.6524 122.172 47.2781 122.942 48.6685C123.712 50.0588 124.782 51.1283 126.151 51.877C127.52 52.6257 129.081 53 130.835 53C132.29 53 133.605 52.7326 134.782 52.1979C135.958 51.6631 136.931 50.9251 137.702 49.984C138.493 49.0428 139.038 47.984 139.338 46.8075H133.498C132.964 47.9626 132.012 48.5401 130.643 48.5401C129.723 48.5401 128.942 48.2513 128.3 47.6738C127.68 47.0749 127.327 46.2193 127.242 45.107H139.659ZM133.177 39.8128C133.819 40.369 134.14 41.1176 134.14 42.0588H127.274C127.423 41.0749 127.808 40.3155 128.429 39.7807C129.071 39.246 129.851 38.9786 130.771 38.9786C131.734 38.9786 132.536 39.2567 133.177 39.8128Z" fill="#132739"/>
<path fill-rule="evenodd" clip-rule="evenodd" d="M78.8719 34.5825C81.0965 34.5825 82.8612 35.2563 84.166 36.6039C85.4922 37.9515 86.1553 39.8232 86.1553 42.2189V46.8363C85.4865 46.0824 84.5103 45.6073 83.4233 45.6073C82.3413 45.6073 81.3693 46.0779 80.7007 46.8257V42.9569C80.7007 41.8018 80.3906 40.9141 79.7703 40.2938C79.1713 39.652 78.3371 39.3312 77.2676 39.3312C76.1981 39.3312 75.3531 39.652 74.7328 40.2938C74.1339 40.9141 73.8344 41.8018 73.8344 42.9569V52.6788H68.3799V42.9569C68.3799 41.8018 68.0697 40.9141 67.4494 40.2938C66.8505 39.652 66.0162 39.3312 64.9467 39.3312C63.8772 39.3312 63.0323 39.652 62.412 40.2938C61.813 40.9141 61.5136 41.8018 61.5136 42.9569V52.6788H56.0269V34.775H61.5136V37.021C62.0697 36.2724 62.797 35.6841 63.6954 35.2563C64.5938 34.8071 65.6098 34.5825 66.7435 34.5825C68.0911 34.5825 69.289 34.8713 70.3371 35.4488C71.4066 36.0264 72.2408 36.8499 72.8398 37.9194C73.4601 36.9355 74.305 36.1333 75.3745 35.513C76.444 34.8927 77.6098 34.5825 78.8719 34.5825ZM86.1544 52.6804V49.982C86.1544 48.4758 84.9334 47.2548 83.4271 47.2548C81.9209 47.2548 80.6998 48.4758 80.6998 49.982V52.6804H86.1544Z" fill="url(#paint0_radial_145_915)"/>
<path fill-rule="evenodd" clip-rule="evenodd" d="M180.888 28.3342C181.729 28.3342 182.569 28.4529 183.368 28.7209C188.289 30.3209 190.062 35.7209 188.581 40.4409C187.741 42.8529 186.368 45.0542 184.569 46.8529C181.994 49.3462 179.169 51.5595 176.128 53.4662L175.794 53.6675L175.448 53.4529C172.396 51.5595 169.554 49.3462 166.956 46.8395C165.169 45.0409 163.794 42.8529 162.941 40.4409C161.434 35.7209 163.208 30.3209 168.182 28.6929C168.569 28.5595 168.968 28.4662 169.368 28.4142H169.528C169.902 28.3595 170.274 28.3342 170.648 28.3342H170.794C171.634 28.3595 172.448 28.5062 173.236 28.7742H173.314C173.368 28.7995 173.408 28.8275 173.434 28.8529C173.729 28.9475 174.008 29.0542 174.274 29.2009L174.781 29.4275C174.904 29.4928 175.041 29.5926 175.16 29.6788C175.235 29.7335 175.303 29.7827 175.354 29.8142C175.376 29.827 175.398 29.8399 175.421 29.853C175.535 29.9197 175.654 29.9892 175.754 30.0662C177.236 28.9342 179.034 28.3209 180.888 28.3342ZM184.434 37.9342C184.981 37.9195 185.448 37.4809 185.488 36.9195V36.7609C185.528 34.8929 184.396 33.2009 182.674 32.5475C182.128 32.3595 181.528 32.6542 181.328 33.2142C181.141 33.7742 181.434 34.3875 181.994 34.5862C182.849 34.9062 183.421 35.7475 183.421 36.6795V36.7209C183.396 37.0262 183.488 37.3209 183.674 37.5475C183.861 37.7742 184.141 37.9062 184.434 37.9342Z" fill="#D22E2E"/>
<path fill-rule="evenodd" clip-rule="evenodd" d="M180.888 28.3342C181.729 28.3342 182.569 28.4529 183.368 28.7209C188.289 30.3209 190.062 35.7209 188.581 40.4409C187.741 42.8529 186.368 45.0542 184.569 46.8529C181.994 49.3462 179.169 51.5595 176.128 53.4662L175.794 53.6675L175.448 53.4529C172.396 51.5595 169.554 49.3462 166.956 46.8395C165.169 45.0409 163.794 42.8529 162.941 40.4409C161.434 35.7209 163.208 30.3209 168.182 28.6929C168.569 28.5595 168.968 28.4662 169.368 28.4142H169.528C169.902 28.3595 170.274 28.3342 170.648 28.3342H170.794C171.634 28.3595 172.448 28.5062 173.236 28.7742H173.314C173.368 28.7995 173.408 28.8275 173.434 28.8529C173.729 28.9475 174.008 29.0542 174.274 29.2009L174.781 29.4275C174.904 29.4928 175.041 29.5926 175.16 29.6788C175.235 29.7335 175.303 29.7827 175.354 29.8142C175.376 29.827 175.398 29.8399 175.421 29.853C175.535 29.9197 175.654 29.9892 175.754 30.0662C177.236 28.9342 179.034 28.3209 180.888 28.3342ZM184.434 37.9342C184.981 37.9195 185.448 37.4809 185.488 36.9195V36.7609C185.528 34.8929 184.396 33.2009 182.674 32.5475C182.128 32.3595 181.528 32.6542 181.328 33.2142C181.141 33.7742 181.434 34.3875 181.994 34.5862C182.849 34.9062 183.421 35.7475 183.421 36.6795V36.7209C183.396 37.0262 183.488 37.3209 183.674 37.5475C183.861 37.7742 184.141 37.9062 184.434 37.9342Z" fill="url(#paint1_radial_145_915)"/>
<defs>
<radialGradient id="paint0_radial_145_915" cx="0" cy="0" r="1" gradientUnits="userSpaceOnUse" gradientTransform="translate(86.2157 52.6238) rotate(-149.154) scale(35.1864 35.1879)">
<stop stop-color="#EA68FF"/>
<stop offset="1" stop-color="#0285FF"/>
</radialGradient>
<radialGradient id="paint1_radial_145_915" cx="0" cy="0" r="1" gradientUnits="userSpaceOnUse" gradientTransform="translate(184 50) rotate(-134.908) scale(30.5915 34.6917)">
<stop stop-color="#EA68FF"/>
<stop offset="1" stop-color="#0285FF"/>
</radialGradient>
</defs>
</svg>
