<svg width="137" height="32" viewBox="0 0 137 32" fill="none" xmlns="http://www.w3.org/2000/svg">
<path fill-rule="evenodd" clip-rule="evenodd" d="M16.5 0C13.235 0 11.1612 4.07184 7.01346 12.2155L7.01345 12.2155L4.78581 16.5893C1.27099 23.4904 -0.486426 26.941 1.0707 29.4705C2.62783 32 6.50934 32 14.2724 32H18.7276C26.4907 32 30.3722 32 31.9293 29.4705C33.4864 26.941 31.729 23.4904 28.2142 16.5893L25.9865 12.2155C21.8388 4.07185 19.765 0 16.5 0ZM11.3886 12.941L11.3886 12.941L11.3886 12.941L8.97498 15.5224C5.16669 19.5955 3.26254 21.6321 3.83915 23.6889C4.41577 25.7458 7.10648 26.515 12.4879 28.0535L15.5764 28.9365C20.9578 30.475 23.6485 31.2442 25.2307 29.8046C26.813 28.3649 26.2806 25.6318 25.2158 20.1655L24.541 16.7011C23.2845 10.2507 22.6563 7.02543 20.393 6.37837C18.1296 5.7313 15.8826 8.13453 11.3886 12.941ZM20.5307 13.3116C19.4161 12.6172 17.8395 13.562 14.6863 15.4517L12.9927 16.4667C10.3207 18.068 8.98462 18.8687 8.9766 20.0609C8.96858 21.253 10.2937 22.0786 12.9439 23.7296L14.4649 24.6772C17.1151 26.3283 18.4402 27.1539 19.5114 26.6241C20.5826 26.0943 20.7187 24.546 20.9909 21.4496L21.1635 19.4871C21.4847 15.833 21.6454 14.006 20.5307 13.3116ZM20.1105 16.7645C19.5545 16.1488 18.4311 16.4491 16.1845 17.0497L14.9779 17.3723C13.074 17.8812 12.1221 18.1357 11.9089 18.8588C11.6956 19.5819 12.3566 20.3139 13.6787 21.7778L14.4374 22.618L14.4374 22.618C15.7595 24.0819 16.4205 24.8138 17.1641 24.678C17.9077 24.5421 18.2611 23.6248 18.9677 21.7903L19.4156 20.6275C20.2496 18.4626 20.6665 17.3802 20.1105 16.7645Z" fill="url(#paint0_radial_194_1511)"/>
<path d="M48.28 9.54523C50.1577 9.54523 51.6638 10.044 52.7983 11.0416C53.9523 12.0391 54.5293 13.4474 54.5293 15.2665V21.4866H51.0379V20.0196H51.0086C49.8154 21.2714 48.1626 21.8973 46.0501 21.8973C44.8374 21.8582 43.9474 21.4866 43.3802 20.7824C42.7934 20.0391 42.5 19.2176 42.5 18.3178C42.5 17.1834 42.9108 16.2934 43.7323 15.6479C44.5538 15.0024 45.5318 14.6797 46.6663 14.6797H51.0379C50.9988 14.0342 50.7641 13.5061 50.3337 13.0954C49.9034 12.665 49.2971 12.4499 48.5147 12.4499C47.9866 12.4499 47.5073 12.5477 47.077 12.7433C46.6663 12.9389 46.3924 13.154 46.2555 13.3888L46.0795 13.7115L42.9108 12.89C43.7518 10.6601 45.5416 9.54523 48.28 9.54523ZM47.4584 19.3447C48.3778 19.3056 49.1993 19.0611 49.923 18.6112C50.6663 18.1027 51.0379 17.4768 51.0379 16.7335H49.1015C48.0844 16.7335 47.3411 16.8313 46.8716 17.0269C46.4218 17.2029 46.1577 17.5452 46.0795 18.0538C46.0208 18.445 46.099 18.7579 46.3142 18.9927C46.5293 19.2078 46.9108 19.3252 47.4584 19.3447Z" fill="#16151A"/>
<path d="M64.6901 21.4572C63.2818 21.9071 61.9713 22.0929 60.7586 22.0147C59.4872 21.9364 58.3625 21.5844 57.3845 20.9584C56.426 20.3325 55.8197 19.5501 55.5654 18.6112L58.5287 17.8191C58.6852 18.3081 59.096 18.6504 59.761 18.846C60.3087 19.1002 61.1106 19.1883 62.1669 19.11C63.2035 19.0318 63.8588 18.7677 64.1326 18.3178C64.25 18.1222 64.2598 17.9169 64.162 17.7017C64.0642 17.467 63.8784 17.3105 63.6045 17.2323C63.4089 17.1932 62.4994 17.0954 60.8759 16.9389C59.3698 16.802 58.3625 16.6553 57.8539 16.4988C56.9737 16.1858 56.3576 15.6675 56.0055 14.9438C55.673 14.2005 55.6534 13.3496 55.9468 12.3912C56.2598 11.3936 57.0031 10.6406 58.1767 10.132C59.3698 9.62347 60.7977 9.44743 62.4603 9.60391C63.6534 9.70171 64.6412 10.0342 65.4236 10.6015C66.2256 11.1491 66.7243 11.8631 66.9199 12.7433L64.1033 13.5061C63.8686 12.8411 63.1351 12.4303 61.9028 12.2738C60.7292 12.1369 59.849 12.2934 59.2622 12.7433C58.9884 12.9976 58.871 13.2421 58.9102 13.4768C58.9493 13.7115 59.1253 13.8973 59.4383 14.0342C59.5752 14.132 60.3282 14.2298 61.6974 14.3276L63.7806 14.445C64.739 14.5623 65.4725 14.8068 65.9811 15.1785C66.5092 15.5501 66.8808 16.1467 67.096 16.9682C67.3111 17.9071 67.1938 18.7971 66.7439 19.6381C66.294 20.4792 65.6094 21.0856 64.6901 21.4572Z" fill="#16151A"/>
<path d="M73.8077 10.0733H76.683V13.2714H73.837V15.4425C73.837 17.9462 74.6292 18.9438 76.2136 18.4352V21.78C75.7246 21.8778 75.3236 21.9267 75.0106 21.9267C73.4654 21.9267 72.2527 21.4866 71.3725 20.6064C70.4923 19.7066 70.0522 18.3863 70.0522 16.6455V13.2714H68.0864V10.0733C69.2013 10.0733 69.9446 9.88753 70.3162 9.51589C70.6879 9.12469 70.9813 8.30318 71.1964 7.05135H73.8077V10.0733Z" fill="#16151A"/>
<path d="M83.0908 10.0733V11.7457C83.6971 10.7873 84.548 10.132 85.6433 9.77995C86.7387 9.42787 87.7852 9.46699 88.7827 9.89731L87.6971 13.3888C87.6776 13.3692 87.5896 13.3301 87.4331 13.2714C87.2962 13.2127 87.0614 13.1638 86.7289 13.1247C86.416 13.0856 86.0834 13.0758 85.7314 13.0954C83.971 13.2518 83.0908 14.3472 83.0908 16.3814V21.4866H79.3353V10.0733H83.0908Z" fill="#16151A"/>
<path d="M94.6392 9.54523C96.517 9.54523 98.0231 10.044 99.1576 11.0416C100.312 12.0391 100.889 13.4474 100.889 15.2665V21.4866H97.3972V20.0196H97.3678C96.1747 21.2714 94.5219 21.8973 92.4094 21.8973C91.1967 21.8582 90.3067 21.4866 89.7395 20.7824C89.1527 20.0391 88.8593 19.2176 88.8593 18.3178C88.8593 17.1834 89.27 16.2934 90.0915 15.6479C90.9131 15.0024 91.8911 14.6797 93.0255 14.6797H97.3972C97.358 14.0342 97.1233 13.5061 96.693 13.0954C96.2627 12.665 95.6563 12.4499 94.8739 12.4499C94.3458 12.4499 93.8666 12.5477 93.4363 12.7433C93.0255 12.9389 92.7517 13.154 92.6148 13.3888L92.4387 13.7115L89.27 12.89C90.1111 10.6601 91.9008 9.54523 94.6392 9.54523ZM93.8177 19.3447C94.737 19.3056 95.5585 19.0611 96.2823 18.6112C97.0255 18.1027 97.3972 17.4768 97.3972 16.7335H95.4607C94.4436 16.7335 93.7003 16.8313 93.2309 17.0269C92.781 17.2029 92.517 17.5452 92.4387 18.0538C92.3801 18.445 92.4583 18.7579 92.6735 18.9927C92.8886 19.2078 93.27 19.3252 93.8177 19.3447Z" fill="#16151A"/>
<path d="M107.302 21.4572H103.546V4H107.302V21.4572Z" fill="#16151A"/>
<path d="M119.031 15.1785V10.0733H122.787V20.3423C122.787 22.4743 122.2 24.2836 121.026 25.7702C119.853 27.2567 118.288 28 116.332 28C114.356 27.9609 112.528 26.9731 110.845 25.0367L112.723 22.7775C113.858 23.9707 115.07 24.5183 116.361 24.4205C118.259 24.3032 119.149 22.6699 119.031 19.5208C118.034 20.9682 116.655 21.6919 114.894 21.6919C113.525 21.6919 112.351 21.2029 111.373 20.2249C110.415 19.2665 109.936 18.0245 109.936 16.4988V10.0733H113.662V15.1785C113.662 15.9804 113.916 16.665 114.425 17.2323C114.953 17.7995 115.589 18.0831 116.332 18.0831C117.075 18.0831 117.711 17.7995 118.239 17.2323C118.767 16.665 119.031 15.9804 119.031 15.1785Z" fill="#16151A"/>
<path d="M132.324 10.0733H136.372L132.03 15.912L135.932 21.4866H131.883L129.771 18.4645L127.512 21.4866H123.434L127.776 15.6479L123.874 10.0733H127.923L130.064 13.1247L132.324 10.0733Z" fill="#16151A"/>
<defs>
<radialGradient id="paint0_radial_194_1511" cx="0" cy="0" r="1" gradientUnits="userSpaceOnUse" gradientTransform="translate(32 1.87755e-06) rotate(135) scale(45.2548 45.2548)">
<stop stop-color="#1B31F8"/>
<stop offset="0.559722" stop-color="#348EF8"/>
<stop offset="1" stop-color="#621BF8"/>
</radialGradient>
</defs>
</svg>
