<svg width="124" height="124" viewBox="0 0 124 124" fill="none" xmlns="http://www.w3.org/2000/svg">
<g clip-path="url(#clip0_180_458)">
<rect width="124" height="124" rx="62" fill="white"/>
<rect width="124" height="124" fill="url(#paint0_radial_180_458)"/>
<path fill-rule="evenodd" clip-rule="evenodd" d="M62.1127 18.9382C54.2226 18.9382 49.2109 28.7782 39.1876 48.4581L39.1876 48.4582L33.8043 59.0279C25.3104 75.705 21.0635 84.0435 24.8264 90.1563C28.5894 96.2691 37.9694 96.2691 56.7294 96.2691H67.496C86.2561 96.2691 95.6361 96.2691 99.399 90.1563C103.162 84.0435 98.915 75.705 90.4211 59.0279L85.0378 48.4582C75.0145 28.7782 70.0029 18.9382 62.1127 18.9382ZM49.7606 50.2113L49.7606 50.2113L49.7606 50.2113L43.9278 56.4496C34.7247 66.2926 30.1232 71.2141 31.5166 76.1847C32.9101 81.1552 39.4124 83.0142 52.4171 86.7321L59.8807 88.8659C72.8854 92.5838 79.3877 94.4427 83.2113 90.9637C87.0349 87.4846 85.7484 80.8798 83.1753 67.6701L81.5445 59.2981C78.5082 43.7099 76.99 35.9158 71.5204 34.3521C66.0509 32.7884 60.6208 38.5961 49.7606 50.2113ZM71.8533 51.1069C69.1597 49.4288 65.3497 51.7121 57.7297 56.2787L53.6371 58.7314C47.1798 62.6012 43.9511 64.5362 43.9317 67.4171C43.9124 70.2981 47.1146 72.2931 53.5191 76.2831L57.1946 78.573C63.5991 82.563 66.8013 84.558 69.39 83.2777C71.9786 81.9974 72.3076 78.256 72.9655 70.773L73.3824 66.0305C74.1588 57.2002 74.5469 52.785 71.8533 51.1069ZM70.8378 59.4512C69.4941 57.9633 66.7795 58.689 61.3503 60.1404L58.4344 60.9199C53.8335 62.1498 51.5331 62.7648 51.0178 64.5123C50.5025 66.2598 52.0999 68.0286 55.2948 71.5663L57.1283 73.5966L57.1283 73.5966C60.3232 77.1343 61.9206 78.9031 63.7176 78.5748C65.5146 78.2464 66.3685 76.0297 68.0763 71.5964L69.1586 68.7866C71.1739 63.5549 72.1815 60.9391 70.8378 59.4512Z" fill="white"/>
</g>
<defs>
<radialGradient id="paint0_radial_180_458" cx="0" cy="0" r="1" gradientUnits="userSpaceOnUse" gradientTransform="translate(123.595 -5.91278e-05) rotate(135) scale(175.362)">
<stop stop-color="#1B31F8"/>
<stop offset="0.485634" stop-color="#348EF8"/>
<stop offset="1" stop-color="#621BF8"/>
</radialGradient>
<clipPath id="clip0_180_458">
<rect width="124" height="124" rx="62" fill="white"/>
</clipPath>
</defs>
</svg>
