<svg width="674" height="402" viewBox="0 0 674 402" fill="none" xmlns="http://www.w3.org/2000/svg">
<path fill-rule="evenodd" clip-rule="evenodd" d="M518.451 2.65998C517.827 3.03501 516.987 2.78246 516.574 2.09587C516.162 1.40929 516.333 0.548679 516.958 0.173642C517.582 -0.201394 518.422 0.0511635 518.835 0.737746C519.247 1.42433 519.076 2.28494 518.451 2.65998ZM74.1128 3.36235C73.7597 3.68029 73.1899 3.62316 72.8401 3.23473C72.4904 2.8463 72.4931 2.27367 72.8463 1.95573C73.1994 1.63778 73.7692 1.69492 74.1189 2.08334C74.4686 2.47177 74.4659 3.0444 74.1128 3.36235ZM131.852 6.39603C131.541 5.87766 131.751 5.17968 132.321 4.83707C132.891 4.49445 133.606 4.63693 133.917 5.1553C134.229 5.67368 134.019 6.37165 133.449 6.71427C132.879 7.05689 132.164 6.91441 131.852 6.39603ZM339.899 36.6377C339.46 36.3416 338.886 36.4251 338.616 36.8241C338.347 37.2231 338.485 37.7867 338.924 38.0827C339.363 38.3788 339.937 38.2953 340.206 37.8963C340.475 37.4972 340.338 36.9337 339.899 36.6377ZM671.16 2.74945C671.368 3.38858 672.007 3.75365 672.588 3.56486C673.169 3.37608 673.472 2.70492 673.264 2.06579C673.056 1.42667 672.417 1.0616 671.836 1.25038C671.255 1.43917 670.952 2.11032 671.16 2.74945ZM99.5473 113.547C99.3363 112.967 99.6823 112.309 100.32 112.077C100.958 111.845 101.646 112.126 101.857 112.706C102.068 113.286 101.722 113.945 101.084 114.177C100.447 114.409 99.7584 114.127 99.5473 113.547ZM146.657 101.057C147.434 101.222 148.186 100.784 148.336 100.077C148.486 99.3712 147.978 98.6648 147.201 98.4997C146.424 98.3346 145.673 98.7732 145.523 99.4795C145.373 100.186 145.881 100.892 146.657 101.057ZM287.503 81.6168C287.094 81.7112 286.679 81.4231 286.575 80.9734C286.471 80.5236 286.718 80.0825 287.127 79.9881C287.536 79.8937 287.952 80.1818 288.056 80.6315C288.159 81.0813 287.912 81.5224 287.503 81.6168ZM455.961 106.394C456.675 106.758 457.522 106.527 457.852 105.878C458.183 105.229 457.872 104.408 457.159 104.045C456.445 103.681 455.598 103.912 455.268 104.561C454.937 105.21 455.248 106.03 455.961 106.394ZM614.718 114.468C614.953 114.076 615.493 113.969 615.923 114.227C616.354 114.486 616.512 115.013 616.277 115.405C616.042 115.796 615.502 115.904 615.072 115.645C614.641 115.386 614.483 114.859 614.718 114.468ZM1.33956 230.204C1.36797 229.798 1.09158 229.448 0.722227 229.422C0.352872 229.396 0.0304187 229.705 0.00200811 230.111C-0.0264025 230.517 0.249988 230.867 0.619343 230.893C0.988699 230.919 1.31115 230.611 1.33956 230.204ZM210.765 174.751C211.426 174.904 211.826 175.617 211.658 176.345C211.49 177.072 210.818 177.538 210.156 177.386C209.495 177.233 209.095 176.519 209.263 175.792C209.431 175.064 210.103 174.598 210.765 174.751ZM350.946 213.055C351.436 212.491 351.417 211.673 350.905 211.228C350.393 210.783 349.58 210.879 349.09 211.442C348.601 212.006 348.619 212.823 349.131 213.269C349.643 213.714 350.456 213.618 350.946 213.055ZM498.066 163.159C497.845 163.558 497.309 163.685 496.87 163.441C496.43 163.198 496.254 162.676 496.475 162.277C496.696 161.878 497.232 161.751 497.671 161.995C498.111 162.238 498.287 162.759 498.066 163.159ZM647.485 220.141C647.161 220.806 647.388 221.584 647.993 221.879C648.597 222.174 649.35 221.874 649.675 221.209C649.999 220.544 649.772 219.766 649.167 219.471C648.563 219.176 647.81 219.476 647.485 220.141ZM63.2846 310.19C63.7449 310.142 64.1612 310.513 64.2144 311.02C64.2676 311.526 63.9376 311.976 63.4773 312.024C63.0171 312.072 62.6008 311.701 62.5476 311.195C62.4943 310.689 62.8243 310.239 63.2846 310.19ZM265.646 292.122C265.518 291.728 265.124 291.504 264.766 291.62C264.408 291.736 264.222 292.15 264.35 292.544C264.478 292.937 264.872 293.162 265.23 293.046C265.588 292.93 265.774 292.516 265.646 292.122ZM299.121 256.83C299.267 257.34 298.931 257.884 298.37 258.045C297.808 258.206 297.235 257.923 297.089 257.413C296.942 256.903 297.279 256.359 297.84 256.198C298.401 256.037 298.974 256.32 299.121 256.83ZM509.776 253.576C509.866 254.146 510.36 254.541 510.878 254.459C511.396 254.377 511.743 253.848 511.652 253.278C511.562 252.709 511.069 252.313 510.551 252.395C510.033 252.477 509.686 253.006 509.776 253.576ZM648.949 267.573C648.926 267.135 649.298 266.76 649.779 266.735C650.26 266.709 650.669 267.044 650.692 267.481C650.715 267.919 650.343 268.294 649.862 268.319C649.381 268.344 648.972 268.01 648.949 267.573ZM39.5143 401.18C39.78 401.622 40.3213 401.785 40.7233 401.543C41.1253 401.302 41.2358 400.748 40.9701 400.305C40.7044 399.863 40.1631 399.701 39.7611 399.942C39.3591 400.184 39.2486 400.738 39.5143 401.18ZM181.829 362.883C181.355 362.441 181.365 361.66 181.851 361.139C182.337 360.617 183.116 360.553 183.589 360.995C184.063 361.437 184.053 362.218 183.567 362.739C183.081 363.26 182.303 363.324 181.829 362.883ZM357.752 370.755C358.06 370.457 358.09 369.99 357.82 369.71C357.55 369.431 357.082 369.445 356.774 369.742C356.467 370.039 356.436 370.506 356.706 370.786C356.976 371.066 357.445 371.052 357.752 370.755ZM460.428 334.869C460.506 335.269 460.212 335.662 459.772 335.748C459.333 335.833 458.913 335.579 458.835 335.179C458.758 334.779 459.051 334.386 459.491 334.3C459.931 334.215 460.35 334.469 460.428 334.869ZM555.169 351.413C555.721 351.965 556.575 352.006 557.077 351.504C557.579 351.002 557.538 350.148 556.986 349.596C556.434 349.044 555.58 349.003 555.078 349.505C554.577 350.007 554.617 350.861 555.169 351.413Z" fill="url(#paint0_linear_184_596)"/>
<defs>
<linearGradient id="paint0_linear_184_596" x1="336.665" y1="0" x2="336.665" y2="401.655" gradientUnits="userSpaceOnUse">
<stop stop-color="white"/>
<stop offset="1" stop-color="white" stop-opacity="0"/>
</linearGradient>
</defs>
</svg>
