<svg width="120" height="120" viewBox="0 0 120 120" fill="none" xmlns="http://www.w3.org/2000/svg">
<g clip-path="url(#clip0_350_1085)">
<path d="M59.9961 112.491C95.0002 112.491 112.492 88.9882 112.492 59.9956C112.492 31.0029 95.0002 7.49976 59.9961 7.49976C24.9919 7.49976 7.50024 31.0029 7.50024 59.9956C7.50024 88.9882 24.9919 112.491 59.9961 112.491Z" fill="url(#paint0_radial_350_1085)"/>
<path d="M59.9961 112.491C95.0002 112.491 112.492 88.9882 112.492 59.9956C112.492 31.0029 95.0002 7.49976 59.9961 7.49976C24.9919 7.49976 7.50024 31.0029 7.50024 59.9956C7.50024 88.9882 24.9919 112.491 59.9961 112.491Z" fill="url(#paint1_radial_350_1085)"/>
<path d="M59.9961 112.491C95.0002 112.491 112.492 88.9882 112.492 59.9956C112.492 31.0029 95.0002 7.49976 59.9961 7.49976C24.9919 7.49976 7.50024 31.0029 7.50024 59.9956C7.50024 88.9882 24.9919 112.491 59.9961 112.491Z" fill="url(#paint2_radial_350_1085)"/>
<path d="M59.9961 112.491C95.0002 112.491 112.492 88.9882 112.492 59.9956C112.492 31.0029 95.0002 7.49976 59.9961 7.49976C24.9919 7.49976 7.50024 31.0029 7.50024 59.9956C7.50024 88.9882 24.9919 112.491 59.9961 112.491Z" fill="url(#paint3_radial_350_1085)" fill-opacity="0.6"/>
<path d="M59.9961 112.491C95.0002 112.491 112.492 88.9882 112.492 59.9956C112.492 31.0029 95.0002 7.49976 59.9961 7.49976C24.9919 7.49976 7.50024 31.0029 7.50024 59.9956C7.50024 88.9882 24.9919 112.491 59.9961 112.491Z" fill="url(#paint4_radial_350_1085)"/>
<path d="M59.9961 112.491C95.0002 112.491 112.492 88.9882 112.492 59.9956C112.492 31.0029 95.0002 7.49976 59.9961 7.49976C24.9919 7.49976 7.50024 31.0029 7.50024 59.9956C7.50024 88.9882 24.9919 112.491 59.9961 112.491Z" fill="url(#paint5_radial_350_1085)"/>
<path d="M59.9961 112.491C95.0002 112.491 112.492 88.9882 112.492 59.9956C112.492 31.0029 95.0002 7.49976 59.9961 7.49976C24.9919 7.49976 7.50024 31.0029 7.50024 59.9956C7.50024 88.9882 24.9919 112.491 59.9961 112.491Z" fill="url(#paint6_radial_350_1085)"/>
<path d="M59.9961 112.491C95.0002 112.491 112.492 88.9882 112.492 59.9956C112.492 31.0029 95.0002 7.49976 59.9961 7.49976C24.9919 7.49976 7.50024 31.0029 7.50024 59.9956C7.50024 88.9882 24.9919 112.491 59.9961 112.491Z" fill="url(#paint7_radial_350_1085)"/>
<path d="M37.4997 80.6255V69.1479C37.4997 66.167 35.0831 63.7505 32.1022 63.7505C28.9494 63.7505 26.4577 66.4433 26.4117 69.5958C26.3372 74.7012 25.6315 81.4566 22.4997 82.5005C11.2493 86.2505 7.49983 103.126 16.8747 110.625C24.3749 116.626 31.8747 116.25 37.4997 116.25H47.8644C50.4244 116.25 52.4997 114.175 52.4997 111.615C52.4997 109.86 51.5077 108.255 49.9373 107.469L48.7497 106.875H51.4469C53.1677 106.875 54.6676 105.704 55.0849 104.035L55.3402 103.014C55.8022 101.166 54.4045 99.3755 52.4997 99.3755L53.7341 98.7583C55.2758 97.9874 56.2497 96.4117 56.2497 94.688C56.2497 92.9643 55.2758 91.3886 53.7341 90.6177L52.4997 90.0005H59.0622C61.651 90.0005 63.7497 87.9018 63.7497 85.313C63.7497 82.7242 61.651 80.6255 59.0622 80.6255H37.4997Z" fill="url(#paint8_radial_350_1085)"/>
<path d="M48.7501 71.2497C48.7501 71.2497 52.965 66.3641 60.9376 67.4999C68.9102 68.6357 71.2501 74.9997 71.2501 74.9997" stroke="#402A32" stroke-width="7.5625" stroke-linecap="round" stroke-linejoin="round"/>
<ellipse cx="33.8139" cy="50.3264" rx="17.5249" ry="17.5249" fill="url(#paint9_radial_350_1085)"/>
<circle cx="72.1659" cy="52.2868" r="15.9162" fill="url(#paint10_radial_350_1085)"/>
<path d="M39.0714 60.8421C47.7823 60.8421 54.8438 53.7806 54.8438 45.0697C54.8438 36.3589 47.7823 29.2974 39.0714 29.2974C30.3606 29.2974 23.2991 36.3589 23.2991 45.0697C23.2991 53.7806 30.3606 60.8421 39.0714 60.8421Z" fill="white"/>
<path d="M80.8809 61.1297C89.6711 61.1297 96.797 54.0038 96.797 45.2135C96.797 36.4233 89.6711 29.2974 80.8809 29.2974C72.0906 29.2974 64.9647 36.4233 64.9647 45.2135C64.9647 54.0038 72.0906 61.1297 80.8809 61.1297Z" fill="white"/>
<path fill-rule="evenodd" clip-rule="evenodd" d="M48.75 43.1248C48.75 49.338 43.7132 54.3748 37.5 54.3748C31.2868 54.3748 26.25 49.338 26.25 43.1248C26.25 36.9116 31.2868 31.8748 37.5 31.8748C43.7132 31.8748 48.75 36.9116 48.75 43.1248ZM89.9999 43.1248C89.9999 49.338 84.9631 54.3748 78.7499 54.3748C72.5367 54.3748 67.4999 49.338 67.4999 43.1248C67.4999 36.9116 72.5367 31.8748 78.7499 31.8748C84.9631 31.8748 89.9999 36.9116 89.9999 43.1248Z" fill="url(#paint11_linear_350_1085)"/>
<g filter="url(#filter0_f_350_1085)">
<path fill-rule="evenodd" clip-rule="evenodd" d="M47.6364 107.58L47.8405 106.763C48.3024 104.915 46.9047 103.125 44.9999 103.125L46.2343 102.508C47.776 101.737 48.7499 100.161 48.7499 98.4377C48.7499 96.7141 47.776 95.1383 46.2343 94.3675L44.9999 93.7502H51.5624C54.1512 93.7502 56.2499 91.6516 56.2499 89.0627C56.2499 86.4739 54.1512 84.3752 51.5624 84.3752H29.9999V72.8977C29.9999 69.9168 27.5834 67.5002 24.6024 67.5002C21.4496 67.5002 18.958 70.1931 18.912 73.3456C18.8541 77.3122 18.4152 82.2748 16.7534 84.7809C22.518 96.1884 32.8113 104.608 47.6364 107.58Z" fill="#E4694E"/>
</g>
<path d="M37.4997 80.6255V69.1479C37.4997 66.167 35.0831 63.7505 32.1022 63.7505C28.9494 63.7505 26.4577 66.4433 26.4117 69.5958C26.3372 74.7012 25.6315 81.4566 22.4997 82.5005C11.2493 86.2505 7.49983 103.126 16.8747 110.625C24.3749 116.626 31.8747 116.25 37.4997 116.25H47.8644C50.4244 116.25 52.4997 114.175 52.4997 111.615C52.4997 109.86 51.5077 108.255 49.9373 107.469L48.7497 106.875H51.4469C53.1677 106.875 54.6676 105.704 55.0849 104.035L55.3402 103.014C55.8022 101.166 54.4045 99.3755 52.4997 99.3755L53.7341 98.7583C55.2758 97.9874 56.2497 96.4117 56.2497 94.688C56.2497 92.9643 55.2758 91.3886 53.7341 90.6177L52.4997 90.0005H59.0622C61.651 90.0005 63.7497 87.9018 63.7497 85.313C63.7497 82.7242 61.651 80.6255 59.0622 80.6255H37.4997Z" fill="url(#paint12_radial_350_1085)"/>
<path d="M37.4997 80.6255V69.1479C37.4997 66.167 35.0831 63.7505 32.1022 63.7505C28.9494 63.7505 26.4577 66.4433 26.4117 69.5958C26.3372 74.7012 25.6315 81.4566 22.4997 82.5005C11.2493 86.2505 7.49983 103.126 16.8747 110.625C24.3749 116.626 31.8747 116.25 37.4997 116.25H47.8644C50.4244 116.25 52.4997 114.175 52.4997 111.615C52.4997 109.86 51.5077 108.255 49.9373 107.469L48.7497 106.875H51.4469C53.1677 106.875 54.6676 105.704 55.0849 104.035L55.3402 103.014C55.8022 101.166 54.4045 99.3755 52.4997 99.3755L53.7341 98.7583C55.2758 97.9874 56.2497 96.4117 56.2497 94.688C56.2497 92.9643 55.2758 91.3886 53.7341 90.6177L52.4997 90.0005H59.0622C61.651 90.0005 63.7497 87.9018 63.7497 85.313C63.7497 82.7242 61.651 80.6255 59.0622 80.6255H37.4997Z" fill="url(#paint13_radial_350_1085)"/>
<path d="M46.8749 16.8755C45.6249 15.6255 41.9999 13.1255 37.4999 13.1255C32.9999 13.1255 29.3749 15.6255 28.1249 16.8755" stroke="#402A32" stroke-width="3.78125" stroke-linecap="round" stroke-linejoin="round"/>
<path d="M69.3752 31.875C69.3752 31.875 73.1252 28.125 80.6252 28.125C88.1252 28.125 91.8752 31.875 91.8752 31.875" stroke="#402A32" stroke-width="3.78125" stroke-linecap="round" stroke-linejoin="round"/>
<g opacity="0.8" filter="url(#filter1_f_350_1085)">
<rect x="37.5" y="86.2495" width="26.25" height="3.75" fill="#FFA048"/>
</g>
<path d="M41.2499 90.0005H52.4999C54.5709 90.0005 56.2499 91.6794 56.2499 93.7505L41.2499 90.0005Z" fill="url(#paint14_linear_350_1085)"/>
<path d="M41.2499 106.875H48.7499C50.8209 106.875 52.4999 108.554 52.4999 110.625L41.2499 106.875Z" fill="url(#paint15_linear_350_1085)"/>
<path d="M41.2499 99.375H52.4999C54.5709 99.375 56.2499 101.054 56.2499 103.125L41.2499 99.375Z" fill="url(#paint16_linear_350_1085)"/>
</g>
<defs>
<filter id="filter0_f_350_1085" x="9.19092" y="59.9377" width="54.6215" height="55.2046" filterUnits="userSpaceOnUse" color-interpolation-filters="sRGB">
<feFlood flood-opacity="0" result="BackgroundImageFix"/>
<feBlend mode="normal" in="SourceGraphic" in2="BackgroundImageFix" result="shape"/>
<feGaussianBlur stdDeviation="3.78125" result="effect1_foregroundBlur_350_1085"/>
</filter>
<filter id="filter1_f_350_1085" x="31.8281" y="80.5776" width="37.5938" height="15.0938" filterUnits="userSpaceOnUse" color-interpolation-filters="sRGB">
<feFlood flood-opacity="0" result="BackgroundImageFix"/>
<feBlend mode="normal" in="SourceGraphic" in2="BackgroundImageFix" result="shape"/>
<feGaussianBlur stdDeviation="2.83594" result="effect1_foregroundBlur_350_1085"/>
</filter>
<radialGradient id="paint0_radial_350_1085" cx="0" cy="0" r="1" gradientUnits="userSpaceOnUse" gradientTransform="translate(95.6252 33.7498) rotate(132.839) scale(140.637)">
<stop stop-color="#FFF478"/>
<stop offset="0.474827" stop-color="#FFB02E"/>
<stop offset="1" stop-color="#F70A8D"/>
</radialGradient>
<radialGradient id="paint1_radial_350_1085" cx="0" cy="0" r="1" gradientUnits="userSpaceOnUse" gradientTransform="translate(95.6252 33.7498) rotate(131.878) scale(146.058)">
<stop stop-color="#FFF478"/>
<stop offset="0.474827" stop-color="#FFB02E"/>
<stop offset="1" stop-color="#F70A8D"/>
</radialGradient>
<radialGradient id="paint2_radial_350_1085" cx="0" cy="0" r="1" gradientUnits="userSpaceOnUse" gradientTransform="translate(60.0003 46.8748) rotate(101.31) scale(66.9246 85.7177)">
<stop offset="0.787821" stop-color="#F59639" stop-opacity="0"/>
<stop offset="0.972509" stop-color="#FF7DCE"/>
</radialGradient>
<radialGradient id="paint3_radial_350_1085" cx="0" cy="0" r="1" gradientUnits="userSpaceOnUse" gradientTransform="translate(67.5003 52.4998) rotate(135) scale(153.796)">
<stop offset="0.314853" stop-opacity="0"/>
<stop offset="1"/>
</radialGradient>
<radialGradient id="paint4_radial_350_1085" cx="0" cy="0" r="1" gradientUnits="userSpaceOnUse" gradientTransform="translate(60.0002 63.7498) rotate(77.692) scale(105.551)">
<stop offset="0.507903" stop-color="#7D6133" stop-opacity="0"/>
<stop offset="1" stop-color="#715B32"/>
</radialGradient>
<radialGradient id="paint5_radial_350_1085" cx="0" cy="0" r="1" gradientUnits="userSpaceOnUse" gradientTransform="translate(61.8752 61.8748) rotate(55.7131) scale(49.9257 36.1887)">
<stop stop-color="#FFB849"/>
<stop offset="1" stop-color="#FFB847" stop-opacity="0"/>
</radialGradient>
<radialGradient id="paint6_radial_350_1085" cx="0" cy="0" r="1" gradientUnits="userSpaceOnUse" gradientTransform="translate(76.8752 67.4998) rotate(9.86581) scale(43.7723)">
<stop stop-color="#FFA64B"/>
<stop offset="0.900412" stop-color="#FFAE46" stop-opacity="0"/>
</radialGradient>
<radialGradient id="paint7_radial_350_1085" cx="0" cy="0" r="1" gradientUnits="userSpaceOnUse" gradientTransform="translate(65.6252 56.2498) rotate(43.9708) scale(221.449)">
<stop offset="0.185425" stop-opacity="0"/>
<stop offset="1" stop-opacity="0.4"/>
</radialGradient>
<radialGradient id="paint8_radial_350_1085" cx="0" cy="0" r="1" gradientUnits="userSpaceOnUse" gradientTransform="translate(58.1249 82.5005) rotate(-178.264) scale(61.9034 57.7262)">
<stop offset="0.0661917" stop-color="#FFEA67"/>
<stop offset="0.593499" stop-color="#FFC13F"/>
<stop offset="0.904482" stop-color="#DF9030"/>
</radialGradient>
<radialGradient id="paint9_radial_350_1085" cx="0" cy="0" r="1" gradientUnits="userSpaceOnUse" gradientTransform="translate(47.4444 36.6959) rotate(135) scale(38.2596 19.8019)">
<stop stop-color="#392108"/>
<stop offset="1" stop-color="#C87928" stop-opacity="0"/>
</radialGradient>
<radialGradient id="paint10_radial_350_1085" cx="0" cy="0" r="1" gradientUnits="userSpaceOnUse" gradientTransform="translate(84.5451 39.9075) rotate(133.664) scale(35.5508 20.069)">
<stop stop-color="#392108"/>
<stop offset="1" stop-color="#C87928" stop-opacity="0"/>
</radialGradient>
<linearGradient id="paint11_linear_350_1085" x1="61.8749" y1="26.2498" x2="58.1249" y2="52.4998" gradientUnits="userSpaceOnUse">
<stop stop-color="#553B3E"/>
<stop offset="1" stop-color="#3D2432"/>
</linearGradient>
<radialGradient id="paint12_radial_350_1085" cx="0" cy="0" r="1" gradientUnits="userSpaceOnUse" gradientTransform="translate(58.1249 82.5005) rotate(-178.264) scale(61.9034 57.7262)">
<stop offset="0.0661917" stop-color="#FFEA67"/>
<stop offset="0.593499" stop-color="#FFC13F"/>
<stop offset="0.904482" stop-color="#DF9030"/>
</radialGradient>
<radialGradient id="paint13_radial_350_1085" cx="0" cy="0" r="1" gradientUnits="userSpaceOnUse" gradientTransform="translate(39.3749 84.3755) rotate(172.235) scale(41.6318 42.6883)">
<stop offset="0.499571" stop-color="#FFEA67" stop-opacity="0"/>
<stop offset="0.851196" stop-color="#F9708E"/>
</radialGradient>
<linearGradient id="paint14_linear_350_1085" x1="46.8749" y1="90.0005" x2="52.4999" y2="95.6255" gradientUnits="userSpaceOnUse">
<stop stop-color="#FA9428"/>
<stop offset="1" stop-color="#FA9428" stop-opacity="0"/>
</linearGradient>
<linearGradient id="paint15_linear_350_1085" x1="43.1249" y1="106.875" x2="48.7499" y2="112.5" gradientUnits="userSpaceOnUse">
<stop stop-color="#FA9428"/>
<stop offset="1" stop-color="#FA9428" stop-opacity="0"/>
</linearGradient>
<linearGradient id="paint16_linear_350_1085" x1="43.1249" y1="99.375" x2="48.7499" y2="105" gradientUnits="userSpaceOnUse">
<stop stop-color="#FA9428"/>
<stop offset="1" stop-color="#FA9428" stop-opacity="0"/>
</linearGradient>
<clipPath id="clip0_350_1085">
<rect width="120" height="120" fill="white"/>
</clipPath>
</defs>
</svg>
