<svg width="121" height="120" viewBox="0 0 121 120" fill="none" xmlns="http://www.w3.org/2000/svg">
<path d="M55.4502 41.0232C56.9833 41.0249 58.5621 41.0266 60.1876 41.0271C61.8131 41.0266 63.3919 41.0249 64.9251 41.0232C103.112 40.9815 113.012 40.9706 112.453 60.5273C111.627 89.4191 95.6954 111.984 60.3634 112.687L60.1876 112.687L60.0118 112.687C24.6798 111.984 8.74812 89.4191 7.92199 60.5273C7.3628 40.9706 17.2636 40.9815 55.4502 41.0232Z" fill="url(#paint0_radial_237_9874)"/>
<path d="M55.4502 41.0232C56.9833 41.0249 58.5621 41.0266 60.1876 41.0271C61.8131 41.0266 63.3919 41.0249 64.9251 41.0232C103.112 40.9815 113.012 40.9706 112.453 60.5273C111.627 89.4191 95.6954 111.984 60.3634 112.687L60.1876 112.687L60.0118 112.687C24.6798 111.984 8.74812 89.4191 7.92199 60.5273C7.3628 40.9706 17.2636 40.9815 55.4502 41.0232Z" fill="url(#paint1_radial_237_9874)"/>
<path d="M55.4502 41.0232C56.9833 41.0249 58.5621 41.0266 60.1876 41.0271C61.8131 41.0266 63.3919 41.0249 64.9251 41.0232C103.112 40.9815 113.012 40.9706 112.453 60.5273C111.627 89.4191 95.6954 111.984 60.3634 112.687L60.1876 112.687L60.0118 112.687C24.6798 111.984 8.74812 89.4191 7.92199 60.5273C7.3628 40.9706 17.2636 40.9815 55.4502 41.0232Z" fill="url(#paint2_radial_237_9874)"/>
<path d="M97.4013 49.0586C97.4013 53.2211 82.8138 56.5586 60.0513 56.5586C37.2888 56.5586 22.5513 53.1836 22.5513 49.0586C22.5513 44.9336 37.2513 41.5586 60.0513 41.5586C82.8513 41.5586 97.4013 44.9336 97.4013 49.0586Z" fill="url(#paint3_radial_237_9874)"/>
<path d="M59.8636 108.833C54.7636 108.833 50.6011 104.671 50.6011 99.5706C50.6011 94.4706 54.7636 90.3081 59.8636 90.3081C64.9636 90.3081 69.1261 94.4706 69.1261 99.5706C69.1261 104.671 64.9636 108.833 59.8636 108.833Z" fill="url(#paint4_linear_237_9874)"/>
<g filter="url(#filter0_f_237_9874)">
<path d="M106.089 53.3325C103.628 55.9692 98.2959 58.7817 94.6045 59.895" stroke="#FFF500" stroke-opacity="0.5" stroke-width="4.71875" stroke-linecap="round"/>
</g>
<path d="M75.7445 32.8053C72.3955 37.7649 66.7224 41.026 60.2876 41.026C53.8528 41.026 48.1796 37.7649 44.8307 32.8053C42.1028 35.6311 38.2754 37.3885 34.0376 37.3885C25.7533 37.3885 19.0376 30.6727 19.0376 22.3885C19.0376 14.1042 25.7533 7.38847 34.0376 7.38847C36.6146 7.38847 39.0398 8.03832 41.1583 9.18309C43.256 10.3166 46.0899 10.0823 47.867 8.49269C51.1638 5.54387 55.5163 3.75098 60.2876 3.75098C65.0589 3.75098 69.4114 5.54387 72.7082 8.49269C74.4853 10.0823 77.3192 10.3166 79.4169 9.18309C81.5354 8.03832 83.9606 7.38847 86.5376 7.38847C94.8219 7.38847 101.538 14.1042 101.538 22.3885C101.538 30.6727 94.8219 37.3885 86.5376 37.3885C82.2998 37.3885 78.4724 35.6311 75.7445 32.8053Z" fill="url(#paint5_radial_237_9874)"/>
<path d="M75.7445 32.8053C72.3955 37.7649 66.7224 41.026 60.2876 41.026C53.8528 41.026 48.1796 37.7649 44.8307 32.8053C42.1028 35.6311 38.2754 37.3885 34.0376 37.3885C25.7533 37.3885 19.0376 30.6727 19.0376 22.3885C19.0376 14.1042 25.7533 7.38847 34.0376 7.38847C36.6146 7.38847 39.0398 8.03832 41.1583 9.18309C43.256 10.3166 46.0899 10.0823 47.867 8.49269C51.1638 5.54387 55.5163 3.75098 60.2876 3.75098C65.0589 3.75098 69.4114 5.54387 72.7082 8.49269C74.4853 10.0823 77.3192 10.3166 79.4169 9.18309C81.5354 8.03832 83.9606 7.38847 86.5376 7.38847C94.8219 7.38847 101.538 14.1042 101.538 22.3885C101.538 30.6727 94.8219 37.3885 86.5376 37.3885C82.2998 37.3885 78.4724 35.6311 75.7445 32.8053Z" fill="url(#paint6_radial_237_9874)"/>
<path d="M75.7445 32.8053C72.3955 37.7649 66.7224 41.026 60.2876 41.026C53.8528 41.026 48.1796 37.7649 44.8307 32.8053C42.1028 35.6311 38.2754 37.3885 34.0376 37.3885C25.7533 37.3885 19.0376 30.6727 19.0376 22.3885C19.0376 14.1042 25.7533 7.38847 34.0376 7.38847C36.6146 7.38847 39.0398 8.03832 41.1583 9.18309C43.256 10.3166 46.0899 10.0823 47.867 8.49269C51.1638 5.54387 55.5163 3.75098 60.2876 3.75098C65.0589 3.75098 69.4114 5.54387 72.7082 8.49269C74.4853 10.0823 77.3192 10.3166 79.4169 9.18309C81.5354 8.03832 83.9606 7.38847 86.5376 7.38847C94.8219 7.38847 101.538 14.1042 101.538 22.3885C101.538 30.6727 94.8219 37.3885 86.5376 37.3885C82.2998 37.3885 78.4724 35.6311 75.7445 32.8053Z" fill="url(#paint7_radial_237_9874)" style="mix-blend-mode:multiply"/>
<path d="M75.7445 32.8053C72.3955 37.7649 66.7224 41.026 60.2876 41.026C53.8528 41.026 48.1796 37.7649 44.8307 32.8053C42.1028 35.6311 38.2754 37.3885 34.0376 37.3885C25.7533 37.3885 19.0376 30.6727 19.0376 22.3885C19.0376 14.1042 25.7533 7.38847 34.0376 7.38847C36.6146 7.38847 39.0398 8.03832 41.1583 9.18309C43.256 10.3166 46.0899 10.0823 47.867 8.49269C51.1638 5.54387 55.5163 3.75098 60.2876 3.75098C65.0589 3.75098 69.4114 5.54387 72.7082 8.49269C74.4853 10.0823 77.3192 10.3166 79.4169 9.18309C81.5354 8.03832 83.9606 7.38847 86.5376 7.38847C94.8219 7.38847 101.538 14.1042 101.538 22.3885C101.538 30.6727 94.8219 37.3885 86.5376 37.3885C82.2998 37.3885 78.4724 35.6311 75.7445 32.8053Z" fill="url(#paint8_radial_237_9874)"/>
<path d="M75.7445 32.8053C72.3955 37.7649 66.7224 41.026 60.2876 41.026C53.8528 41.026 48.1796 37.7649 44.8307 32.8053C42.1028 35.6311 38.2754 37.3885 34.0376 37.3885C25.7533 37.3885 19.0376 30.6727 19.0376 22.3885C19.0376 14.1042 25.7533 7.38847 34.0376 7.38847C36.6146 7.38847 39.0398 8.03832 41.1583 9.18309C43.256 10.3166 46.0899 10.0823 47.867 8.49269C51.1638 5.54387 55.5163 3.75098 60.2876 3.75098C65.0589 3.75098 69.4114 5.54387 72.7082 8.49269C74.4853 10.0823 77.3192 10.3166 79.4169 9.18309C81.5354 8.03832 83.9606 7.38847 86.5376 7.38847C94.8219 7.38847 101.538 14.1042 101.538 22.3885C101.538 30.6727 94.8219 37.3885 86.5376 37.3885C82.2998 37.3885 78.4724 35.6311 75.7445 32.8053Z" fill="url(#paint9_radial_237_9874)"/>
<path d="M75.7445 32.8053C72.3955 37.7649 66.7224 41.026 60.2876 41.026C53.8528 41.026 48.1796 37.7649 44.8307 32.8053C42.1028 35.6311 38.2754 37.3885 34.0376 37.3885C25.7533 37.3885 19.0376 30.6727 19.0376 22.3885C19.0376 14.1042 25.7533 7.38847 34.0376 7.38847C36.6146 7.38847 39.0398 8.03832 41.1583 9.18309C43.256 10.3166 46.0899 10.0823 47.867 8.49269C51.1638 5.54387 55.5163 3.75098 60.2876 3.75098C65.0589 3.75098 69.4114 5.54387 72.7082 8.49269C74.4853 10.0823 77.3192 10.3166 79.4169 9.18309C81.5354 8.03832 83.9606 7.38847 86.5376 7.38847C94.8219 7.38847 101.538 14.1042 101.538 22.3885C101.538 30.6727 94.8219 37.3885 86.5376 37.3885C82.2998 37.3885 78.4724 35.6311 75.7445 32.8053Z" fill="url(#paint10_radial_237_9874)" style="mix-blend-mode:multiply"/>
<g filter="url(#filter1_f_237_9874)">
<path d="M46.3042 33.068V12.6043C46.3042 11.102 47.4339 9.88414 48.5537 8.88259V8.88259C51.7098 6.05963 55.8765 4.34326 60.4441 4.34326C65.0117 4.34326 69.1785 6.05963 72.3345 8.8826V8.8826C73.6706 10.0776 75.136 11.4828 75.136 13.2753V32.3118C73.1958 35.1214 70.4705 37.3471 67.277 38.6721H53.6112C50.7099 37.4684 48.195 35.5211 46.3042 33.068Z" fill="url(#paint11_radial_237_9874)"/>
<path d="M46.3042 33.068V12.6043C46.3042 11.102 47.4339 9.88414 48.5537 8.88259V8.88259C51.7098 6.05963 55.8765 4.34326 60.4441 4.34326C65.0117 4.34326 69.1785 6.05963 72.3345 8.8826V8.8826C73.6706 10.0776 75.136 11.4828 75.136 13.2753V32.3118C73.1958 35.1214 70.4705 37.3471 67.277 38.6721H53.6112C50.7099 37.4684 48.195 35.5211 46.3042 33.068Z" fill="url(#paint12_radial_237_9874)"/>
<path d="M46.3042 33.068V12.6043C46.3042 11.102 47.4339 9.88414 48.5537 8.88259V8.88259C51.7098 6.05963 55.8765 4.34326 60.4441 4.34326C65.0117 4.34326 69.1785 6.05963 72.3345 8.8826V8.8826C73.6706 10.0776 75.136 11.4828 75.136 13.2753V32.3118C73.1958 35.1214 70.4705 37.3471 67.277 38.6721H53.6112C50.7099 37.4684 48.195 35.5211 46.3042 33.068Z" fill="url(#paint13_radial_237_9874)" style="mix-blend-mode:multiply"/>
</g>
<g filter="url(#filter2_f_237_9874)">
<path d="M44.3403 15.0758C44.3403 12.9764 42.1469 11.4656 40.2999 10.4676V10.4676C38.3876 9.43425 36.1985 8.84766 33.8724 8.84766C26.3945 8.84766 20.3325 14.9097 20.3325 22.3875C20.3325 29.8653 26.3945 35.9273 33.8724 35.9273C37.6977 35.9273 41.1525 34.341 43.6148 31.7903C43.8447 32.1308 44.0868 32.4624 44.3403 32.7846V15.0758Z" fill="url(#paint14_radial_237_9874)"/>
<path d="M44.3403 15.0758C44.3403 12.9764 42.1469 11.4656 40.2999 10.4676V10.4676C38.3876 9.43425 36.1985 8.84766 33.8724 8.84766C26.3945 8.84766 20.3325 14.9097 20.3325 22.3875C20.3325 29.8653 26.3945 35.9273 33.8724 35.9273C37.6977 35.9273 41.1525 34.341 43.6148 31.7903C43.8447 32.1308 44.0868 32.4624 44.3403 32.7846V15.0758Z" fill="url(#paint15_radial_237_9874)"/>
<path d="M44.3403 15.0758C44.3403 12.9764 42.1469 11.4656 40.2999 10.4676V10.4676C38.3876 9.43425 36.1985 8.84766 33.8724 8.84766C26.3945 8.84766 20.3325 14.9097 20.3325 22.3875C20.3325 29.8653 26.3945 35.9273 33.8724 35.9273C37.6977 35.9273 41.1525 34.341 43.6148 31.7903C43.8447 32.1308 44.0868 32.4624 44.3403 32.7846V15.0758Z" fill="url(#paint16_radial_237_9874)" style="mix-blend-mode:multiply"/>
</g>
<g filter="url(#filter3_f_237_9874)">
<path d="M75.1365 14.8543C75.1365 12.6913 77.3964 11.1348 79.2993 10.1065V10.1065C81.2695 9.04186 83.525 8.4375 85.9216 8.4375C93.626 8.4375 99.8716 14.6831 99.8716 22.3875C99.8716 30.0919 93.626 36.3375 85.9216 36.3375C81.9804 36.3375 78.421 34.7031 75.884 32.0751C75.6471 32.426 75.3978 32.7676 75.1365 33.0995V14.8543Z" fill="url(#paint17_radial_237_9874)" style="mix-blend-mode:multiply"/>
</g>
<path d="M15.4001 37.6137C17.5333 37.6137 19.2626 35.8844 19.2626 33.7512C19.2626 31.618 17.5333 29.8887 15.4001 29.8887C13.2669 29.8887 11.5376 31.618 11.5376 33.7512C11.5376 35.8844 13.2669 37.6137 15.4001 37.6137Z" fill="url(#paint18_radial_237_9874)"/>
<path d="M101.576 41.25C103.647 41.25 105.326 39.5711 105.326 37.5C105.326 35.4289 103.647 33.75 101.576 33.75C99.5046 33.75 97.8257 35.4289 97.8257 37.5C97.8257 39.5711 99.5046 41.25 101.576 41.25Z" fill="url(#paint19_radial_237_9874)"/>
<path d="M90.2868 27.5614C93.1449 27.5614 95.4618 25.2445 95.4618 22.3864C95.4618 19.5284 93.1449 17.2114 90.2868 17.2114C87.4287 17.2114 85.1118 19.5284 85.1118 22.3864C85.1118 25.2445 87.4287 27.5614 90.2868 27.5614Z" fill="url(#paint20_radial_237_9874)"/>
<path d="M20.9133 21.9374C23.7714 21.9374 26.0883 19.6205 26.0883 16.7624C26.0883 13.9043 23.7714 11.5874 20.9133 11.5874C18.0552 11.5874 15.7383 13.9043 15.7383 16.7624C15.7383 19.6205 18.0552 21.9374 20.9133 21.9374Z" fill="url(#paint21_radial_237_9874)"/>
<path d="M51.1501 50.277C50.8022 49.3548 49.8724 48.7976 48.8868 48.7976C40.6233 48.7976 33.9243 42.0986 33.9243 33.8351C33.9243 25.5715 40.6233 18.8726 48.8868 18.8726C52.2422 18.8726 55.3395 19.977 57.8353 21.8422C59.2094 22.8692 61.2143 22.8692 62.5884 21.8422C65.0841 19.977 68.1815 18.8726 71.5368 18.8726C79.8004 18.8726 86.4993 25.5715 86.4993 33.8351C86.4993 42.0986 79.8004 48.7976 71.5368 48.7976C70.7251 48.7976 69.9692 49.2654 69.6658 50.0183C68.7401 52.3153 68.469 52.5593 67.818 56.4061C65.3516 56.4964 62.7585 56.5437 60.0497 56.5437C57.5239 56.5437 55.0968 56.5021 52.7778 56.4226C52.39 53.5877 52.0335 52.6183 51.1501 50.277Z" fill="url(#paint22_linear_237_9874)"/>
<path d="M51.1501 50.277C50.8022 49.3548 49.8724 48.7976 48.8868 48.7976C40.6233 48.7976 33.9243 42.0986 33.9243 33.8351C33.9243 25.5715 40.6233 18.8726 48.8868 18.8726C52.2422 18.8726 55.3395 19.977 57.8353 21.8422C59.2094 22.8692 61.2143 22.8692 62.5884 21.8422C65.0841 19.977 68.1815 18.8726 71.5368 18.8726C79.8004 18.8726 86.4993 25.5715 86.4993 33.8351C86.4993 42.0986 79.8004 48.7976 71.5368 48.7976C70.7251 48.7976 69.9692 49.2654 69.6658 50.0183C68.7401 52.3153 68.469 52.5593 67.818 56.4061C65.3516 56.4964 62.7585 56.5437 60.0497 56.5437C57.5239 56.5437 55.0968 56.5021 52.7778 56.4226C52.39 53.5877 52.0335 52.6183 51.1501 50.277Z" fill="url(#paint23_radial_237_9874)"/>
<path d="M51.1501 50.277C50.8022 49.3548 49.8724 48.7976 48.8868 48.7976C40.6233 48.7976 33.9243 42.0986 33.9243 33.8351C33.9243 25.5715 40.6233 18.8726 48.8868 18.8726C52.2422 18.8726 55.3395 19.977 57.8353 21.8422C59.2094 22.8692 61.2143 22.8692 62.5884 21.8422C65.0841 19.977 68.1815 18.8726 71.5368 18.8726C79.8004 18.8726 86.4993 25.5715 86.4993 33.8351C86.4993 42.0986 79.8004 48.7976 71.5368 48.7976C70.7251 48.7976 69.9692 49.2654 69.6658 50.0183C68.7401 52.3153 68.469 52.5593 67.818 56.4061C65.3516 56.4964 62.7585 56.5437 60.0497 56.5437C57.5239 56.5437 55.0968 56.5021 52.7778 56.4226C52.39 53.5877 52.0335 52.6183 51.1501 50.277Z" fill="url(#paint24_radial_237_9874)" style="mix-blend-mode:multiply"/>
<g filter="url(#filter4_f_237_9874)">
<path d="M70.6697 48.9851H67.9004C63.7583 48.9851 60.4004 45.6272 60.4004 41.4851V22.6082C61.1818 22.573 61.9532 22.3177 62.5895 21.8422C65.0852 19.977 68.1825 18.8726 71.5379 18.8726C79.8014 18.8726 86.5004 25.5715 86.5004 33.8351C86.5004 42.0986 79.8014 48.7976 71.5379 48.7976C71.2337 48.7976 70.9373 48.8633 70.6697 48.9851Z" fill="url(#paint25_radial_237_9874)"/>
<path d="M70.6697 48.9851H67.9004C63.7583 48.9851 60.4004 45.6272 60.4004 41.4851V22.6082C61.1818 22.573 61.9532 22.3177 62.5895 21.8422C65.0852 19.977 68.1825 18.8726 71.5379 18.8726C79.8014 18.8726 86.5004 25.5715 86.5004 33.8351C86.5004 42.0986 79.8014 48.7976 71.5379 48.7976C71.2337 48.7976 70.9373 48.8633 70.6697 48.9851Z" fill="url(#paint26_radial_237_9874)"/>
<path d="M70.6697 48.9851H67.9004C63.7583 48.9851 60.4004 45.6272 60.4004 41.4851V22.6082C61.1818 22.573 61.9532 22.3177 62.5895 21.8422C65.0852 19.977 68.1825 18.8726 71.5379 18.8726C79.8014 18.8726 86.5004 25.5715 86.5004 33.8351C86.5004 42.0986 79.8014 48.7976 71.5379 48.7976C71.2337 48.7976 70.9373 48.8633 70.6697 48.9851Z" fill="url(#paint27_radial_237_9874)" style="mix-blend-mode:multiply"/>
</g>
<g filter="url(#filter5_f_237_9874)">
<path d="M50.4214 49.3056C50.7436 49.5518 51.0002 49.8804 51.1495 50.2763C52.033 52.6176 52.3894 53.587 52.7772 56.4219C55.0963 56.5014 57.5233 56.543 60.0492 56.543C60.2052 56.543 60.3608 56.5428 60.516 56.5425V41.3672L50.4214 49.3056Z" fill="url(#paint28_linear_237_9874)" style="mix-blend-mode:multiply"/>
</g>
<g filter="url(#filter6_f_237_9874)">
<path d="M38.7611 95.6253C47.5839 95.6253 54.7361 88.473 54.7361 79.6503C54.7361 70.8275 47.5839 63.6753 38.7611 63.6753C29.9384 63.6753 22.7861 70.8275 22.7861 79.6503C22.7861 88.473 29.9384 95.6253 38.7611 95.6253Z" fill="#D66A46" fill-opacity="0.6"/>
</g>
<g filter="url(#filter7_f_237_9874)">
<path d="M78.3705 95.6253C87.1933 95.6253 94.3455 88.473 94.3455 79.6503C94.3455 70.8275 87.1933 63.6753 78.3705 63.6753C69.5478 63.6753 62.3955 70.8275 62.3955 79.6503C62.3955 88.473 69.5478 95.6253 78.3705 95.6253Z" fill="#FF7C32" fill-opacity="0.6"/>
</g>
<path d="M39.5861 93.5243C48.8645 93.5243 56.3861 86.0027 56.3861 76.7243C56.3861 67.4459 48.8645 59.9243 39.5861 59.9243C30.3077 59.9243 22.7861 67.4459 22.7861 76.7243C22.7861 86.0027 30.3077 93.5243 39.5861 93.5243Z" fill="white"/>
<path d="M45.2119 84.2261C49.3541 84.2261 52.7119 80.8682 52.7119 76.7261C52.7119 72.5839 49.3541 69.2261 45.2119 69.2261C41.0698 69.2261 37.7119 72.5839 37.7119 76.7261C37.7119 80.8682 41.0698 84.2261 45.2119 84.2261Z" fill="#402933"/>
<path d="M80.8361 93.5243C90.1145 93.5243 97.6361 86.0027 97.6361 76.7243C97.6361 67.4459 90.1145 59.9243 80.8361 59.9243C71.5578 59.9243 64.0361 67.4459 64.0361 76.7243C64.0361 86.0027 71.5578 93.5243 80.8361 93.5243Z" fill="white"/>
<path d="M75.2114 84.2261C79.3536 84.2261 82.7114 80.8682 82.7114 76.7261C82.7114 72.5839 79.3536 69.2261 75.2114 69.2261C71.0693 69.2261 67.7114 72.5839 67.7114 76.7261C67.7114 80.8682 71.0693 84.2261 75.2114 84.2261Z" fill="#412933"/>
<defs>
<filter id="filter0_f_237_9874" x="87.5259" y="46.2544" width="25.6411" height="20.7192" filterUnits="userSpaceOnUse" color-interpolation-filters="sRGB">
<feFlood flood-opacity="0" result="BackgroundImageFix"/>
<feBlend mode="normal" in="SourceGraphic" in2="BackgroundImageFix" result="shape"/>
<feGaussianBlur stdDeviation="2.35938" result="effect1_foregroundBlur_237_9874"/>
</filter>
<filter id="filter1_f_237_9874" x="42.5292" y="0.568262" width="36.3815" height="41.8791" filterUnits="userSpaceOnUse" color-interpolation-filters="sRGB">
<feFlood flood-opacity="0" result="BackgroundImageFix"/>
<feBlend mode="normal" in="SourceGraphic" in2="BackgroundImageFix" result="shape"/>
<feGaussianBlur stdDeviation="1.8875" result="effect1_foregroundBlur_237_9874"/>
</filter>
<filter id="filter2_f_237_9874" x="15.6138" y="4.12891" width="33.4453" height="36.5171" filterUnits="userSpaceOnUse" color-interpolation-filters="sRGB">
<feFlood flood-opacity="0" result="BackgroundImageFix"/>
<feBlend mode="normal" in="SourceGraphic" in2="BackgroundImageFix" result="shape"/>
<feGaussianBlur stdDeviation="2.35938" result="effect1_foregroundBlur_237_9874"/>
</filter>
<filter id="filter3_f_237_9874" x="70.418" y="3.71875" width="34.1724" height="37.3374" filterUnits="userSpaceOnUse" color-interpolation-filters="sRGB">
<feFlood flood-opacity="0" result="BackgroundImageFix"/>
<feBlend mode="normal" in="SourceGraphic" in2="BackgroundImageFix" result="shape"/>
<feGaussianBlur stdDeviation="2.35938" result="effect1_foregroundBlur_237_9874"/>
</filter>
<filter id="filter4_f_237_9874" x="55.6816" y="14.1538" width="35.5376" height="39.5498" filterUnits="userSpaceOnUse" color-interpolation-filters="sRGB">
<feFlood flood-opacity="0" result="BackgroundImageFix"/>
<feBlend mode="normal" in="SourceGraphic" in2="BackgroundImageFix" result="shape"/>
<feGaussianBlur stdDeviation="2.35938" result="effect1_foregroundBlur_237_9874"/>
</filter>
<filter id="filter5_f_237_9874" x="48.062" y="39.0078" width="14.8135" height="19.8945" filterUnits="userSpaceOnUse" color-interpolation-filters="sRGB">
<feFlood flood-opacity="0" result="BackgroundImageFix"/>
<feBlend mode="normal" in="SourceGraphic" in2="BackgroundImageFix" result="shape"/>
<feGaussianBlur stdDeviation="1.17969" result="effect1_foregroundBlur_237_9874"/>
</filter>
<filter id="filter6_f_237_9874" x="18.0674" y="58.9565" width="41.3877" height="41.3877" filterUnits="userSpaceOnUse" color-interpolation-filters="sRGB">
<feFlood flood-opacity="0" result="BackgroundImageFix"/>
<feBlend mode="normal" in="SourceGraphic" in2="BackgroundImageFix" result="shape"/>
<feGaussianBlur stdDeviation="2.35938" result="effect1_foregroundBlur_237_9874"/>
</filter>
<filter id="filter7_f_237_9874" x="57.6768" y="58.9565" width="41.3877" height="41.3877" filterUnits="userSpaceOnUse" color-interpolation-filters="sRGB">
<feFlood flood-opacity="0" result="BackgroundImageFix"/>
<feBlend mode="normal" in="SourceGraphic" in2="BackgroundImageFix" result="shape"/>
<feGaussianBlur stdDeviation="2.35938" result="effect1_foregroundBlur_237_9874"/>
</filter>
<radialGradient id="paint0_radial_237_9874" cx="0" cy="0" r="1" gradientUnits="userSpaceOnUse" gradientTransform="translate(61.8503 51.0468) rotate(90) scale(106.406 279.604)">
<stop stop-color="#F89C20"/>
<stop offset="0.171806" stop-color="#F8D51D"/>
<stop offset="0.489583" stop-color="#F89C20"/>
<stop offset="1" stop-color="#F5891F"/>
</radialGradient>
<radialGradient id="paint1_radial_237_9874" cx="0" cy="0" r="1" gradientUnits="userSpaceOnUse" gradientTransform="translate(60.1876 51.0468) rotate(91.8025) scale(66.361 263.235)">
<stop stop-color="#EB9037" stop-opacity="0"/>
<stop offset="1" stop-color="#EB9037"/>
</radialGradient>
<radialGradient id="paint2_radial_237_9874" cx="0" cy="0" r="1" gradientUnits="userSpaceOnUse" gradientTransform="translate(60.1876 60.6562) rotate(90) scale(52.0312 74.029)">
<stop offset="0.823911" stop-color="#FFB56D" stop-opacity="0"/>
<stop offset="1" stop-color="#FF63C4"/>
</radialGradient>
<radialGradient id="paint3_radial_237_9874" cx="0" cy="0" r="1" gradientUnits="userSpaceOnUse" gradientTransform="translate(59.9722 43.1272) rotate(89.9862) scale(17.0595 51.9537)">
<stop offset="0.222988" stop-color="#F89C20"/>
<stop offset="0.899786" stop-color="#BD824F"/>
</radialGradient>
<linearGradient id="paint4_linear_237_9874" x1="59.8752" y1="108.844" x2="59.8752" y2="90.3239" gradientUnits="userSpaceOnUse">
<stop stop-color="#D3037B"/>
<stop offset="1" stop-color="#B7039B"/>
</linearGradient>
<radialGradient id="paint5_radial_237_9874" cx="0" cy="0" r="1" gradientUnits="userSpaceOnUse" gradientTransform="translate(77.2751 5.15722) rotate(135.922) scale(72.1011 67.3866)">
<stop stop-color="white"/>
<stop offset="0.9832" stop-color="#D1D3D4"/>
</radialGradient>
<radialGradient id="paint6_radial_237_9874" cx="0" cy="0" r="1" gradientUnits="userSpaceOnUse" gradientTransform="translate(39.2749 33.0852) rotate(-27.8466) scale(47.5 39.717)">
<stop stop-color="#DCC4E7"/>
<stop offset="1" stop-color="#DCC4E7" stop-opacity="0"/>
</radialGradient>
<radialGradient id="paint7_radial_237_9874" cx="0" cy="0" r="1" gradientUnits="userSpaceOnUse" gradientTransform="translate(26.1813 36.4463) rotate(-61.1645) scale(35.7178 32.0873)">
<stop offset="0.140625" stop-color="#C6C6C6"/>
<stop offset="1" stop-color="#C1B4B8" stop-opacity="0"/>
</radialGradient>
<radialGradient id="paint8_radial_237_9874" cx="0" cy="0" r="1" gradientUnits="userSpaceOnUse" gradientTransform="translate(34.8532 39.6104) rotate(-53.5596) scale(40.6418 33.3388)">
<stop stop-color="#B076CB"/>
<stop offset="1" stop-color="#DCC4E7" stop-opacity="0"/>
</radialGradient>
<radialGradient id="paint9_radial_237_9874" cx="0" cy="0" r="1" gradientUnits="userSpaceOnUse" gradientTransform="translate(93.3298 46.29) rotate(-116.432) scale(22.6402 30.5216)">
<stop stop-color="#B076CB"/>
<stop offset="1" stop-color="#DCC4E7" stop-opacity="0"/>
</radialGradient>
<radialGradient id="paint10_radial_237_9874" cx="0" cy="0" r="1" gradientUnits="userSpaceOnUse" gradientTransform="translate(-9.41868 -12.4576) rotate(32.5759) scale(75.9109 158.103)">
<stop offset="0.140625" stop-color="#C6C6C6"/>
<stop offset="1" stop-color="#C1B4B8" stop-opacity="0"/>
</radialGradient>
<radialGradient id="paint11_radial_237_9874" cx="0" cy="0" r="1" gradientUnits="userSpaceOnUse" gradientTransform="translate(67.377 10.9251) rotate(121.697) scale(21.4882 20.1284)">
<stop stop-color="white"/>
<stop offset="0.9832" stop-color="#D1D3D4"/>
</radialGradient>
<radialGradient id="paint12_radial_237_9874" cx="0" cy="0" r="1" gradientUnits="userSpaceOnUse" gradientTransform="translate(53.3767 31.359) rotate(-54.31) scale(25.1591 24.1342)">
<stop stop-color="#DCC4E7"/>
<stop offset="1" stop-color="#DCC4E7" stop-opacity="0"/>
</radialGradient>
<radialGradient id="paint13_radial_237_9874" cx="0" cy="0" r="1" gradientUnits="userSpaceOnUse" gradientTransform="translate(42.8264 -10.0165) rotate(74.9816) scale(28.5737 85.3061)">
<stop offset="0.140625" stop-color="#C6C6C6"/>
<stop offset="1" stop-color="#C1B4B8" stop-opacity="0"/>
</radialGradient>
<radialGradient id="paint14_radial_237_9874" cx="0" cy="0" r="1" gradientUnits="userSpaceOnUse" gradientTransform="translate(40.1217 14.0396) rotate(126.323) scale(17.9002 17.8994)">
<stop stop-color="white"/>
<stop offset="0.9832" stop-color="#D1D3D4"/>
</radialGradient>
<radialGradient id="paint15_radial_237_9874" cx="0" cy="0" r="1" gradientUnits="userSpaceOnUse" gradientTransform="translate(26.9741 30.1585) rotate(-49.4653) scale(21.2087 21.2082)">
<stop stop-color="#DCC4E7"/>
<stop offset="1" stop-color="#DCC4E7" stop-opacity="0"/>
</radialGradient>
<radialGradient id="paint16_radial_237_9874" cx="0" cy="0" r="1" gradientUnits="userSpaceOnUse" gradientTransform="translate(10.9935 -2.9276) rotate(54.7385) scale(36.3646 78.689)">
<stop offset="0.140625" stop-color="#C6C6C6"/>
<stop offset="1" stop-color="#C1B4B8" stop-opacity="0"/>
</radialGradient>
<radialGradient id="paint17_radial_237_9874" cx="0" cy="0" r="1" gradientUnits="userSpaceOnUse" gradientTransform="translate(80.5564 33.6328) rotate(-43.0979) scale(22.4685 71.3819)">
<stop offset="0.140625" stop-color="#C6C6C6"/>
<stop offset="1" stop-color="#C1B4B8" stop-opacity="0"/>
</radialGradient>
<radialGradient id="paint18_radial_237_9874" cx="0" cy="0" r="1" gradientUnits="userSpaceOnUse" gradientTransform="translate(16.7961 32.3045) rotate(134.265) scale(4.82453 6.93844)">
<stop stop-color="#FFE363"/>
<stop offset="0.536458" stop-color="#F4C222"/>
<stop offset="1" stop-color="#ED8546"/>
</radialGradient>
<radialGradient id="paint19_radial_237_9874" cx="0" cy="0" r="1" gradientUnits="userSpaceOnUse" gradientTransform="translate(102.931 36.0954) rotate(134.265) scale(4.68401 6.73636)">
<stop stop-color="#FFE363"/>
<stop offset="0.536458" stop-color="#F4C222"/>
<stop offset="1" stop-color="#ED8546"/>
</radialGradient>
<radialGradient id="paint20_radial_237_9874" cx="0" cy="0" r="1" gradientUnits="userSpaceOnUse" gradientTransform="translate(92.1571 20.4481) rotate(134.265) scale(6.46393 9.29617)">
<stop stop-color="#FFE363"/>
<stop offset="0.536458" stop-color="#F4C222"/>
<stop offset="1" stop-color="#ED8546"/>
</radialGradient>
<radialGradient id="paint21_radial_237_9874" cx="0" cy="0" r="1" gradientUnits="userSpaceOnUse" gradientTransform="translate(22.7836 14.8241) rotate(134.265) scale(6.46393 9.29617)">
<stop stop-color="#FFE363"/>
<stop offset="0.536458" stop-color="#F4C222"/>
<stop offset="1" stop-color="#ED8546"/>
</radialGradient>
<linearGradient id="paint22_linear_237_9874" x1="58.0556" y1="49.9366" x2="38.8355" y2="65.6762" gradientUnits="userSpaceOnUse">
<stop stop-color="white"/>
<stop offset="0.9832" stop-color="#D1D3D4"/>
</linearGradient>
<radialGradient id="paint23_radial_237_9874" cx="0" cy="0" r="1" gradientUnits="userSpaceOnUse" gradientTransform="translate(46.5712 46.1726) rotate(-54.1338) scale(23.2817 48.1929)">
<stop stop-color="#DCC4E7"/>
<stop offset="1" stop-color="#DCC4E7" stop-opacity="0"/>
</radialGradient>
<radialGradient id="paint24_radial_237_9874" cx="0" cy="0" r="1" gradientUnits="userSpaceOnUse" gradientTransform="translate(32.0399 20.6257) rotate(48.743) scale(17.7708 36.9574)">
<stop offset="0.0416667" stop-color="#A6A2A2"/>
<stop offset="0.885417" stop-color="#C1B4B8" stop-opacity="0"/>
</radialGradient>
<radialGradient id="paint25_radial_237_9874" cx="0" cy="0" r="1" gradientUnits="userSpaceOnUse" gradientTransform="translate(79.4766 24.646) rotate(122.51) scale(19.0174 18.0598)">
<stop stop-color="white"/>
<stop offset="0.9832" stop-color="#D1D3D4"/>
</radialGradient>
<radialGradient id="paint26_radial_237_9874" cx="0" cy="0" r="1" gradientUnits="userSpaceOnUse" gradientTransform="translate(66.8027 42.5701) rotate(-53.4505) scale(22.3119 21.6097)">
<stop offset="0.15625" stop-color="#DCC4E7"/>
<stop offset="0.692708" stop-color="#DCC4E7" stop-opacity="0"/>
</radialGradient>
<radialGradient id="paint27_radial_237_9874" cx="0" cy="0" r="1" gradientUnits="userSpaceOnUse" gradientTransform="translate(51.3979 5.77853) rotate(57.0914) scale(30.806 63.0056)">
<stop stop-color="#DDDDDD"/>
<stop offset="1" stop-color="#C1B4B8" stop-opacity="0"/>
</radialGradient>
<linearGradient id="paint28_linear_237_9874" x1="55.4687" y1="35.7422" x2="61.957" y2="52.1628" gradientUnits="userSpaceOnUse">
<stop offset="0.140625" stop-color="#C6C6C6"/>
<stop offset="1" stop-color="#C1B4B8" stop-opacity="0"/>
</linearGradient>
</defs>
</svg>
