<svg width="122" height="120" viewBox="0 0 122 120" fill="none" xmlns="http://www.w3.org/2000/svg">
<g filter="url(#filter0_i_243_10016)">
<path d="M60.8574 116C90.8634 116 105.857 95.8523 105.857 70.9995C105.857 46.1467 90.8634 25.9995 60.8574 25.9995C30.8514 25.9995 15.8574 46.1467 15.8574 70.9995C15.8574 95.8523 30.8514 116 60.8574 116Z" fill="url(#paint0_radial_243_10016)"/>
</g>
<path d="M60.8574 116C90.8634 116 105.857 95.8523 105.857 70.9995C105.857 46.1467 90.8634 25.9995 60.8574 25.9995C30.8514 25.9995 15.8574 46.1467 15.8574 70.9995C15.8574 95.8523 30.8514 116 60.8574 116Z" fill="url(#paint1_radial_243_10016)" style="mix-blend-mode:multiply"/>
<path d="M60.8574 116C90.8634 116 105.857 95.8523 105.857 70.9995C105.857 46.1467 90.8634 25.9995 60.8574 25.9995C30.8514 25.9995 15.8574 46.1467 15.8574 70.9995C15.8574 95.8523 30.8514 116 60.8574 116Z" fill="url(#paint2_radial_243_10016)"/>
<path d="M71.7118 7.50001C69.1113 7.50001 66.7369 8.35151 64.8148 9.75835C62.6289 11.9056 59.0485 11.9056 56.8625 9.75835C54.9404 8.35151 52.566 7.50001 49.9655 7.50001C43.5584 7.50001 38.3574 12.6091 38.3574 18.9028V37.5249H83.3199V18.9028C83.3199 12.6091 78.1189 7.50001 71.7118 7.50001Z" fill="url(#paint3_linear_243_10016)"/>
<g filter="url(#filter1_f_243_10016)">
<ellipse cx="51.0635" cy="16.5454" rx="9.04545" ry="9.04545" fill="url(#paint4_radial_243_10016)" fill-opacity="0.75"/>
</g>
<g filter="url(#filter2_f_243_10016)">
<ellipse cx="74.4054" cy="17.3631" rx="8.30625" ry="8.22878" fill="url(#paint5_radial_243_10016)" fill-opacity="0.75"/>
</g>
<path d="M83.2581 18.5273H38.1276C37.8684 18.5273 37.6582 18.7375 37.6582 18.9968V22.2773H83.7275V18.9968C83.7275 18.7375 83.5174 18.5273 83.2581 18.5273Z" fill="url(#paint6_linear_243_10016)"/>
<path d="M83.2581 18.5273H38.1276C37.8684 18.5273 37.6582 18.7375 37.6582 18.9968V22.2773H83.7275V18.9968C83.7275 18.7375 83.5174 18.5273 83.2581 18.5273Z" fill="url(#paint7_linear_243_10016)"/>
<g opacity="0.8" filter="url(#filter3_f_243_10016)">
<path d="M40.8927 68.9119C48.1757 68.9119 54.0798 63.0078 54.0798 55.7247C54.0798 48.4417 48.1757 42.5376 40.8927 42.5376C33.6096 42.5376 27.7056 48.4417 27.7056 55.7247C27.7056 63.0078 33.6096 68.9119 40.8927 68.9119Z" fill="#D3751F"/>
</g>
<g filter="url(#filter4_f_243_10016)">
<path d="M75.8204 68.4626C83.1035 68.4626 89.0076 62.5586 89.0076 55.2755C89.0076 47.9925 83.1035 42.0884 75.8204 42.0884C68.5374 42.0884 62.6333 47.9925 62.6333 55.2755C62.6333 62.5586 68.5374 68.4626 75.8204 68.4626Z" fill="#FF9B40"/>
</g>
<path d="M44.0582 67.4011C51.5969 67.4011 57.7082 61.2898 57.7082 53.7511C57.7082 46.2124 51.5969 40.1011 44.0582 40.1011C36.5195 40.1011 30.4082 46.2124 30.4082 53.7511C30.4082 61.2898 36.5195 67.4011 44.0582 67.4011Z" fill="white"/>
<path d="M77.5831 67.4011C85.1218 67.4011 91.2331 61.2898 91.2331 53.7511C91.2331 46.2124 85.1218 40.1011 77.5831 40.1011C70.0444 40.1011 63.9331 46.2124 63.9331 53.7511C63.9331 61.2898 70.0444 67.4011 77.5831 67.4011Z" fill="white"/>
<path d="M36.6313 56.188C36.6313 51.1255 40.7563 47.0005 45.8188 47.0005C50.8813 47.0005 55.0063 51.1255 55.0063 56.188C55.0063 61.2505 50.8813 65.3755 45.8188 65.3755C40.7563 65.3755 36.6313 61.2505 36.6313 56.188Z" fill="#3F2931"/>
<path d="M66.6309 56.188C66.6309 51.1255 70.7559 47.0005 75.8184 47.0005C80.8809 47.0005 85.0059 51.1255 85.0059 56.188C85.0059 61.2505 80.8809 65.3755 75.8184 65.3755C70.7559 65.3755 66.6309 61.2505 66.6309 56.188Z" fill="#3F2931"/>
<path d="M100.326 30.3963H113.251C113.251 20.6088 108.126 12.6963 98.3383 12.6963C91.5133 12.6963 96.3133 16.5963 93.3883 22.2963L27.6133 22.2588C27.6133 18.3213 28.1008 12.6963 21.2383 12.6963C11.4508 12.6963 6.9502 20.6088 6.9502 30.3963H11.1133L21.2383 29.8164C32.2258 39.0789 41.6963 45.3437 60.915 45.3437C76.44 45.3437 89.3383 39.6963 100.326 30.3963Z" fill="url(#paint8_linear_243_10016)"/>
<path d="M100.326 30.3963H113.251C113.251 20.6088 108.126 12.6963 98.3383 12.6963C91.5133 12.6963 96.3133 16.5963 93.3883 22.2963L27.6133 22.2588C27.6133 18.3213 28.1008 12.6963 21.2383 12.6963C11.4508 12.6963 6.9502 20.6088 6.9502 30.3963H11.1133L21.2383 29.8164C32.2258 39.0789 41.6963 45.3437 60.915 45.3437C76.44 45.3437 89.3383 39.6963 100.326 30.3963Z" fill="url(#paint9_radial_243_10016)"/>
<path d="M100.326 30.3963H113.251C113.251 20.6088 108.126 12.6963 98.3383 12.6963C91.5133 12.6963 96.3133 16.5963 93.3883 22.2963L27.6133 22.2588C27.6133 18.3213 28.1008 12.6963 21.2383 12.6963C11.4508 12.6963 6.9502 20.6088 6.9502 30.3963H11.1133L21.2383 29.8164C32.2258 39.0789 41.6963 45.3437 60.915 45.3437C76.44 45.3437 89.3383 39.6963 100.326 30.3963Z" fill="url(#paint10_radial_243_10016)"/>
<path d="M31.2133 22.0249C31.2133 22.0249 31.1383 24.6874 31.2508 26.9374C31.7008 35.0749 38.2258 41.1874 38.2258 41.1874C38.2258 41.1874 35.2798 39.9195 32.5827 38.6459C30.7589 37.7846 28.5465 38.0446 27.1691 39.5181C23.3904 43.5608 21.5553 46.9702 21.5553 46.9702C21.5553 46.9702 15.8277 46.9702 10.2883 42.4999C5.56328 38.3749 4.92578 32.1499 4.92578 32.1499C4.92578 32.1499 2.37578 17.3374 16.7008 12.3124C28.2133 8.29987 31.1758 14.3749 31.1758 18.6499C31.1758 19.4749 31.2133 22.0249 31.2133 22.0249Z" fill="url(#paint11_linear_243_10016)"/>
<path d="M31.2133 22.0249C31.2133 22.0249 31.1383 24.6874 31.2508 26.9374C31.7008 35.0749 38.2258 41.1874 38.2258 41.1874C38.2258 41.1874 35.2798 39.9195 32.5827 38.6459C30.7589 37.7846 28.5465 38.0446 27.1691 39.5181C23.3904 43.5608 21.5553 46.9702 21.5553 46.9702C21.5553 46.9702 15.8277 46.9702 10.2883 42.4999C5.56328 38.3749 4.92578 32.1499 4.92578 32.1499C4.92578 32.1499 2.37578 17.3374 16.7008 12.3124C28.2133 8.29987 31.1758 14.3749 31.1758 18.6499C31.1758 19.4749 31.2133 22.0249 31.2133 22.0249Z" fill="url(#paint12_radial_243_10016)"/>
<g filter="url(#filter5_f_243_10016)">
<path d="M5.80894 30.9333C8.58098 21.18 22.176 27.9293 28.7239 35.6711C29.8234 36.9711 30.949 37.8662 32.1465 38.4297L32.1251 38.4905C32.029 38.4448 31.9334 38.3991 31.8384 38.3535C30.3858 37.6563 28.6212 37.8621 27.514 39.0326C23.5918 41.7109 20.8965 45.3438 20.8965 45.3438C20.8965 45.3438 16.0332 45.3438 10.584 40.7734C7.25514 37.9815 6.23226 34.4589 5.91822 32.511C5.76231 31.5439 5.54115 31.8755 5.80894 30.9333V30.9333Z" fill="url(#paint13_radial_243_10016)"/>
</g>
<path d="M90.5143 22.0342C90.5143 22.0342 90.5893 24.6967 90.4768 26.9467C90.0268 35.0842 83.473 40.9653 83.473 40.9653C83.473 40.9653 86.4229 39.8165 89.1246 38.613C90.967 37.7923 93.1847 38.0514 94.5456 39.5401C98.2345 43.5753 99.8143 46.9717 99.8143 46.9717C99.8143 46.9717 105.627 47.6092 111.439 42.5092C116.164 38.3842 116.802 32.1592 116.802 32.1592C116.802 32.1592 119.352 17.3467 105.027 12.3217C93.5143 8.30915 90.5518 14.3842 90.5518 18.6592C90.5518 19.4842 90.5143 22.0342 90.5143 22.0342Z" fill="url(#paint14_linear_243_10016)"/>
<path d="M90.5143 22.0342C90.5143 22.0342 90.5893 24.6967 90.4768 26.9467C90.0268 35.0842 83.473 40.9653 83.473 40.9653C83.473 40.9653 86.4229 39.8165 89.1246 38.613C90.967 37.7923 93.1847 38.0514 94.5456 39.5401C98.2345 43.5753 99.8143 46.9717 99.8143 46.9717C99.8143 46.9717 105.627 47.6092 111.439 42.5092C116.164 38.3842 116.802 32.1592 116.802 32.1592C116.802 32.1592 119.352 17.3467 105.027 12.3217C93.5143 8.30915 90.5518 14.3842 90.5518 18.6592C90.5518 19.4842 90.5143 22.0342 90.5143 22.0342Z" fill="url(#paint15_radial_243_10016)"/>
<g filter="url(#filter6_f_243_10016)">
<path d="M116.518 31.5859C112.473 22.5716 99.2006 27.5896 93.0425 35.316C91.8481 36.8147 90.6274 37.8238 89.3213 38.4385L89.3427 38.4993C89.4388 38.4535 89.5344 38.4078 89.6294 38.3623C91.082 37.6651 93.2666 37.3288 94.3738 38.4993C98.3938 42.7489 100.116 46.3404 100.116 46.3404C100.116 46.3404 104.968 47.456 110.78 42.356C113.343 40.1884 114.856 37.5294 115.719 35.4737C116.597 33.3785 117.449 33.6588 116.518 31.5859V31.5859Z" fill="url(#paint16_radial_243_10016)"/>
</g>
<g opacity="0.25" filter="url(#filter7_f_243_10016)">
<path d="M95.4521 37.0796C96.7607 35.771 100.034 32.2163 102.659 28.4663" stroke="white" stroke-width="2.34715" stroke-linecap="round"/>
</g>
<path d="M60.9383 104.619C31.2954 104.619 31.2954 74.9761 31.2954 74.9761H90.5813C90.5813 74.9761 90.5813 104.619 60.9383 104.619Z" fill="url(#paint17_radial_243_10016)"/>
<path d="M34.5889 75.2223V74.9761H87.2874V75.2223C87.2874 77.8149 85.1857 79.9166 82.5931 79.9166H39.2832C36.6906 79.9166 34.5889 77.8149 34.5889 75.2223Z" fill="url(#paint18_linear_243_10016)"/>
<defs>
<filter id="filter0_i_243_10016" x="15.8574" y="16.6109" width="99.3886" height="99.3886" filterUnits="userSpaceOnUse" color-interpolation-filters="sRGB">
<feFlood flood-opacity="0" result="BackgroundImageFix"/>
<feBlend mode="normal" in="SourceGraphic" in2="BackgroundImageFix" result="shape"/>
<feColorMatrix in="SourceAlpha" type="matrix" values="0 0 0 0 0 0 0 0 0 0 0 0 0 0 0 0 0 0 127 0" result="hardAlpha"/>
<feOffset dx="9.3886" dy="-9.3886"/>
<feGaussianBlur stdDeviation="9.3886"/>
<feComposite in2="hardAlpha" operator="arithmetic" k2="-1" k3="1"/>
<feColorMatrix type="matrix" values="0 0 0 0 0 0 0 0 0 0 0 0 0 0 0 0 0 0 0.08 0"/>
<feBlend mode="normal" in2="shape" result="effect1_innerShadow_243_10016"/>
</filter>
<filter id="filter1_f_243_10016" x="37.3238" y="2.8057" width="27.4794" height="27.4794" filterUnits="userSpaceOnUse" color-interpolation-filters="sRGB">
<feFlood flood-opacity="0" result="BackgroundImageFix"/>
<feBlend mode="normal" in="SourceGraphic" in2="BackgroundImageFix" result="shape"/>
<feGaussianBlur stdDeviation="2.34715" result="effect1_foregroundBlur_243_10016"/>
</filter>
<filter id="filter2_f_243_10016" x="61.4048" y="4.43998" width="26.0009" height="25.8461" filterUnits="userSpaceOnUse" color-interpolation-filters="sRGB">
<feFlood flood-opacity="0" result="BackgroundImageFix"/>
<feBlend mode="normal" in="SourceGraphic" in2="BackgroundImageFix" result="shape"/>
<feGaussianBlur stdDeviation="2.34715" result="effect1_foregroundBlur_243_10016"/>
</filter>
<filter id="filter3_f_243_10016" x="23.0113" y="37.8433" width="35.7626" height="35.7626" filterUnits="userSpaceOnUse" color-interpolation-filters="sRGB">
<feFlood flood-opacity="0" result="BackgroundImageFix"/>
<feBlend mode="normal" in="SourceGraphic" in2="BackgroundImageFix" result="shape"/>
<feGaussianBlur stdDeviation="2.34715" result="effect1_foregroundBlur_243_10016"/>
</filter>
<filter id="filter4_f_243_10016" x="57.939" y="37.3941" width="35.7626" height="35.7626" filterUnits="userSpaceOnUse" color-interpolation-filters="sRGB">
<feFlood flood-opacity="0" result="BackgroundImageFix"/>
<feBlend mode="normal" in="SourceGraphic" in2="BackgroundImageFix" result="shape"/>
<feGaussianBlur stdDeviation="2.34715" result="effect1_foregroundBlur_243_10016"/>
</filter>
<filter id="filter5_f_243_10016" x="0.989293" y="21.397" width="35.8515" height="28.641" filterUnits="userSpaceOnUse" color-interpolation-filters="sRGB">
<feFlood flood-opacity="0" result="BackgroundImageFix"/>
<feBlend mode="normal" in="SourceGraphic" in2="BackgroundImageFix" result="shape"/>
<feGaussianBlur stdDeviation="2.34715" result="effect1_foregroundBlur_243_10016"/>
</filter>
<filter id="filter6_f_243_10016" x="84.627" y="22.0728" width="36.9892" height="29.0654" filterUnits="userSpaceOnUse" color-interpolation-filters="sRGB">
<feFlood flood-opacity="0" result="BackgroundImageFix"/>
<feBlend mode="normal" in="SourceGraphic" in2="BackgroundImageFix" result="shape"/>
<feGaussianBlur stdDeviation="2.34715" result="effect1_foregroundBlur_243_10016"/>
</filter>
<filter id="filter7_f_243_10016" x="89.5845" y="22.5982" width="18.9428" height="20.3491" filterUnits="userSpaceOnUse" color-interpolation-filters="sRGB">
<feFlood flood-opacity="0" result="BackgroundImageFix"/>
<feBlend mode="normal" in="SourceGraphic" in2="BackgroundImageFix" result="shape"/>
<feGaussianBlur stdDeviation="2.34715" result="effect1_foregroundBlur_243_10016"/>
</filter>
<radialGradient id="paint0_radial_243_10016" cx="0" cy="0" r="1" gradientUnits="userSpaceOnUse" gradientTransform="translate(91.3992 48.5013) rotate(132.839) scale(120.556)">
<stop stop-color="#FFF478"/>
<stop offset="0.474827" stop-color="#FFB02E"/>
<stop offset="1" stop-color="#F70A8D"/>
</radialGradient>
<radialGradient id="paint1_radial_243_10016" cx="0" cy="0" r="1" gradientUnits="userSpaceOnUse" gradientTransform="translate(56.6642 -29.6299) rotate(90.4584) scale(112.323 187.699)">
<stop offset="0.54644" stop-color="#C47F18"/>
<stop offset="0.807292" stop-color="#C47F18" stop-opacity="0"/>
</radialGradient>
<radialGradient id="paint2_radial_243_10016" cx="0" cy="0" r="1" gradientUnits="userSpaceOnUse" gradientTransform="translate(60.861 59.7522) rotate(90) scale(57.4932)">
<stop offset="0.823911" stop-color="#F59639" stop-opacity="0"/>
<stop offset="1" stop-color="#FF63C4"/>
</radialGradient>
<linearGradient id="paint3_linear_243_10016" x1="60.8458" y1="-0.321481" x2="60.8458" y2="34.4971" gradientUnits="userSpaceOnUse">
<stop stop-color="#9C634D"/>
<stop offset="1" stop-color="#63332A"/>
</linearGradient>
<radialGradient id="paint4_radial_243_10016" cx="0" cy="0" r="1" gradientUnits="userSpaceOnUse" gradientTransform="translate(52.7052 16.5454) rotate(-48.3665) scale(7.26144 8.34072)">
<stop stop-color="#BA7D72"/>
<stop offset="0.8661" stop-color="#BA7D72" stop-opacity="0"/>
</radialGradient>
<radialGradient id="paint5_radial_243_10016" cx="0" cy="0" r="1" gradientUnits="userSpaceOnUse" gradientTransform="translate(75.9129 17.3631) rotate(-48.0997) scale(6.63336 7.62734)">
<stop stop-color="#BA7D72"/>
<stop offset="0.8661" stop-color="#BA7D72" stop-opacity="0"/>
</radialGradient>
<linearGradient id="paint6_linear_243_10016" x1="72.9284" y1="15.4607" x2="28.7487" y2="34.3279" gradientUnits="userSpaceOnUse">
<stop stop-color="#A97C50"/>
<stop offset="1" stop-color="#875236"/>
</linearGradient>
<linearGradient id="paint7_linear_243_10016" x1="60.6929" y1="17.2478" x2="60.6929" y2="19.533" gradientUnits="userSpaceOnUse">
<stop stop-color="#C59779"/>
<stop offset="1" stop-color="#C59779" stop-opacity="0"/>
</linearGradient>
<linearGradient id="paint8_linear_243_10016" x1="15.0479" y1="26.9453" x2="100.829" y2="26.9453" gradientUnits="userSpaceOnUse">
<stop stop-color="#63332A"/>
<stop offset="0.421875" stop-color="#9C634D"/>
<stop offset="0.896175" stop-color="#63332A"/>
</linearGradient>
<radialGradient id="paint9_radial_243_10016" cx="0" cy="0" r="1" gradientUnits="userSpaceOnUse" gradientTransform="translate(61.0908 17.8046) rotate(89.3538) scale(31.1739 50.8916)">
<stop offset="0.807292" stop-color="#BA7D72" stop-opacity="0"/>
<stop offset="1" stop-color="#BA7D72"/>
</radialGradient>
<radialGradient id="paint10_radial_243_10016" cx="0" cy="0" r="1" gradientUnits="userSpaceOnUse" gradientTransform="translate(60.2822 12.6963) rotate(90.2562) scale(40.6166 60.6426)">
<stop offset="0.697979" stop-color="#A30599" stop-opacity="0"/>
<stop offset="1" stop-color="#BF0AB4"/>
</radialGradient>
<linearGradient id="paint11_linear_243_10016" x1="23.4883" y1="16.0473" x2="20.5586" y2="48.8598" gradientUnits="userSpaceOnUse">
<stop stop-color="#9C634D"/>
<stop offset="1" stop-color="#63332A"/>
</linearGradient>
<radialGradient id="paint12_radial_243_10016" cx="0" cy="0" r="1" gradientUnits="userSpaceOnUse" gradientTransform="translate(38.2258 32.8051) rotate(169.551) scale(10.3386 28.1031)">
<stop stop-color="#BA7D72"/>
<stop offset="1" stop-color="#BA7D72" stop-opacity="0"/>
</radialGradient>
<radialGradient id="paint13_radial_243_10016" cx="0" cy="0" r="1" gradientUnits="userSpaceOnUse" gradientTransform="translate(28.2793 54.8359) rotate(-123.82) scale(28.6343 22.8763)">
<stop stop-color="#BF0AB4"/>
<stop offset="1" stop-color="#A30599" stop-opacity="0"/>
</radialGradient>
<linearGradient id="paint14_linear_243_10016" x1="98.2393" y1="16.0566" x2="101.169" y2="48.8691" gradientUnits="userSpaceOnUse">
<stop stop-color="#9C634D"/>
<stop offset="1" stop-color="#63332A"/>
</linearGradient>
<radialGradient id="paint15_radial_243_10016" cx="0" cy="0" r="1" gradientUnits="userSpaceOnUse" gradientTransform="translate(83.5018 32.8144) rotate(10.4489) scale(10.3386 28.1031)">
<stop stop-color="#BA7D72"/>
<stop offset="1" stop-color="#BA7D72" stop-opacity="0"/>
</radialGradient>
<radialGradient id="paint16_radial_243_10016" cx="0" cy="0" r="1" gradientUnits="userSpaceOnUse" gradientTransform="translate(93.1885 54.8447) rotate(-56.1799) scale(28.6343 22.8763)">
<stop stop-color="#BF0AB4"/>
<stop offset="1" stop-color="#A30599" stop-opacity="0"/>
</radialGradient>
<radialGradient id="paint17_radial_243_10016" cx="0" cy="0" r="1" gradientUnits="userSpaceOnUse" gradientTransform="translate(60.9383 111.206) rotate(-90) scale(36.2303 72.4605)">
<stop stop-color="#F70A8D"/>
<stop offset="1" stop-color="#89029C"/>
</radialGradient>
<linearGradient id="paint18_linear_243_10016" x1="60.9381" y1="74.9761" x2="60.9381" y2="79.9166" gradientUnits="userSpaceOnUse">
<stop stop-color="#ECCDFF"/>
<stop offset="1" stop-color="white"/>
</linearGradient>
</defs>
</svg>
