<svg width="121" height="120" viewBox="0 0 121 120" fill="none" xmlns="http://www.w3.org/2000/svg">
<g clip-path="url(#clip0_350_1086)">
<path d="M60.196 112.491C95.2002 112.491 112.692 88.9882 112.692 59.9956C112.692 31.0029 95.2002 7.49976 60.196 7.49976C25.1918 7.49976 7.7002 31.0029 7.7002 59.9956C7.7002 88.9882 25.1918 112.491 60.196 112.491Z" fill="url(#paint0_radial_350_1086)"/>
<path d="M60.196 112.491C95.2002 112.491 112.692 88.9882 112.692 59.9956C112.692 31.0029 95.2002 7.49976 60.196 7.49976C25.1918 7.49976 7.7002 31.0029 7.7002 59.9956C7.7002 88.9882 25.1918 112.491 60.196 112.491Z" fill="url(#paint1_radial_350_1086)"/>
<path d="M60.196 112.491C95.2002 112.491 112.692 88.9882 112.692 59.9956C112.692 31.0029 95.2002 7.49976 60.196 7.49976C25.1918 7.49976 7.7002 31.0029 7.7002 59.9956C7.7002 88.9882 25.1918 112.491 60.196 112.491Z" fill="url(#paint2_radial_350_1086)"/>
<path d="M60.196 112.491C95.2002 112.491 112.692 88.9882 112.692 59.9956C112.692 31.0029 95.2002 7.49976 60.196 7.49976C25.1918 7.49976 7.7002 31.0029 7.7002 59.9956C7.7002 88.9882 25.1918 112.491 60.196 112.491Z" fill="url(#paint3_radial_350_1086)" fill-opacity="0.6"/>
<path d="M60.196 112.491C95.2002 112.491 112.692 88.9882 112.692 59.9956C112.692 31.0029 95.2002 7.49976 60.196 7.49976C25.1918 7.49976 7.7002 31.0029 7.7002 59.9956C7.7002 88.9882 25.1918 112.491 60.196 112.491Z" fill="url(#paint4_radial_350_1086)"/>
<path d="M60.196 112.491C95.2002 112.491 112.692 88.9882 112.692 59.9956C112.692 31.0029 95.2002 7.49976 60.196 7.49976C25.1918 7.49976 7.7002 31.0029 7.7002 59.9956C7.7002 88.9882 25.1918 112.491 60.196 112.491Z" fill="url(#paint5_radial_350_1086)"/>
<path d="M60.196 112.491C95.2002 112.491 112.692 88.9882 112.692 59.9956C112.692 31.0029 95.2002 7.49976 60.196 7.49976C25.1918 7.49976 7.7002 31.0029 7.7002 59.9956C7.7002 88.9882 25.1918 112.491 60.196 112.491Z" fill="url(#paint6_radial_350_1086)"/>
<path d="M60.196 112.491C95.2002 112.491 112.692 88.9882 112.692 59.9956C112.692 31.0029 95.2002 7.49976 60.196 7.49976C25.1918 7.49976 7.7002 31.0029 7.7002 59.9956C7.7002 88.9882 25.1918 112.491 60.196 112.491Z" fill="url(#paint7_radial_350_1086)"/>
<path d="M26.45 63.7505C26.45 63.7505 30.2 67.5005 37.7 67.5005C45.2 67.5005 48.95 63.7505 48.95 63.7505" stroke="url(#paint8_linear_350_1086)" stroke-width="7.5625" stroke-linecap="round" stroke-linejoin="round"/>
<path d="M71.4501 63.7505C71.4501 63.7505 75.2001 67.5005 82.7001 67.5005C90.2001 67.5005 93.9501 63.7505 93.9501 63.7505" stroke="url(#paint9_linear_350_1086)" stroke-width="7.5625" stroke-linecap="round" stroke-linejoin="round"/>
<rect x="52.6998" y="82.4998" width="15" height="15" rx="7.5" fill="url(#paint10_radial_350_1086)"/>
<rect x="30.1998" width="75" height="75" rx="37.5" fill="url(#paint11_radial_350_1086)"/>
<path fill-rule="evenodd" clip-rule="evenodd" d="M108.125 8.90343C109.042 10.0458 109.209 11.6171 108.554 12.927L100.95 28.1344L108.04 26.3619C110.05 25.8596 112.086 27.0812 112.588 29.0904C113.09 31.0996 111.869 33.1356 109.859 33.6379L94.8595 37.3879C93.4387 37.7431 91.9412 37.2387 91.0248 36.0964C90.1085 34.954 89.9409 33.3827 90.5959 32.0729L98.1996 16.8654L91.1095 18.6379C89.1003 19.1402 87.0643 17.9186 86.5619 15.9094C86.0596 13.9002 87.2812 11.8642 89.2905 11.3619L104.29 7.61187C105.711 7.25668 107.209 7.76107 108.125 8.90343Z" fill="url(#paint12_linear_350_1086)"/>
<path fill-rule="evenodd" clip-rule="evenodd" d="M108.125 8.90343C109.042 10.0458 109.209 11.6171 108.554 12.927L100.95 28.1344L108.04 26.3619C110.05 25.8596 112.086 27.0812 112.588 29.0904C113.09 31.0996 111.869 33.1356 109.859 33.6379L94.8595 37.3879C93.4387 37.7431 91.9412 37.2387 91.0248 36.0964C90.1085 34.954 89.9409 33.3827 90.5959 32.0729L98.1996 16.8654L91.1095 18.6379C89.1003 19.1402 87.0643 17.9186 86.5619 15.9094C86.0596 13.9002 87.2812 11.8642 89.2905 11.3619L104.29 7.61187C105.711 7.25668 107.209 7.76107 108.125 8.90343Z" fill="url(#paint13_radial_350_1086)"/>
<path fill-rule="evenodd" clip-rule="evenodd" d="M97.9871 9.1877L104.29 7.61187C105.711 7.25668 107.209 7.76107 108.125 8.90343C109.042 10.0458 109.209 11.6171 108.554 12.927L105.649 18.7367C105.501 18.7454 105.351 18.7499 105.2 18.7499C101.058 18.7499 97.7001 15.392 97.7001 11.2499C97.7001 10.5347 97.8002 9.84289 97.9871 9.1877Z" fill="url(#paint14_radial_350_1086)"/>
<path fill-rule="evenodd" clip-rule="evenodd" d="M71.4501 24.375C71.4501 23.3395 72.2896 22.5 73.3251 22.5H84.5751C85.2853 22.5 85.9345 22.9013 86.2521 23.5365C86.5697 24.1717 86.5012 24.9318 86.0751 25.5L77.0751 37.5H84.5751C85.6106 37.5 86.4501 38.3395 86.4501 39.375C86.4501 40.4105 85.6106 41.25 84.5751 41.25H73.3251C72.6149 41.25 71.9656 40.8487 71.648 40.2135C71.3304 39.5783 71.399 38.8182 71.8251 38.25L80.8251 26.25H73.3251C72.2896 26.25 71.4501 25.4105 71.4501 24.375Z" fill="#00A6ED"/>
<path fill-rule="evenodd" clip-rule="evenodd" d="M52.7962 31.2823C53.1237 30.2999 54.1855 29.769 55.1679 30.0965L66.4179 33.8465C67.1194 34.0803 67.618 34.7046 67.6909 35.4405C67.7637 36.1764 67.3973 36.8863 66.7552 37.2532L57.2713 42.6726L64.5429 45.0965C65.5253 45.4239 66.0562 46.4858 65.7288 47.4682C65.4013 48.4506 64.3395 48.9815 63.3571 48.654L52.1071 44.904C51.4055 44.6702 50.907 44.0459 50.8341 43.31C50.7612 42.5742 51.1277 41.8642 51.7697 41.4973L61.2537 36.0779L53.9821 33.654C52.9997 33.3266 52.4687 32.2647 52.7962 31.2823Z" fill="#00A6ED"/>
</g>
<defs>
<radialGradient id="paint0_radial_350_1086" cx="0" cy="0" r="1" gradientUnits="userSpaceOnUse" gradientTransform="translate(95.8252 33.7498) rotate(132.839) scale(140.637)">
<stop stop-color="#FFF478"/>
<stop offset="0.474827" stop-color="#FFB02E"/>
<stop offset="1" stop-color="#F70A8D"/>
</radialGradient>
<radialGradient id="paint1_radial_350_1086" cx="0" cy="0" r="1" gradientUnits="userSpaceOnUse" gradientTransform="translate(95.8252 33.7498) rotate(131.878) scale(146.058)">
<stop stop-color="#FFF478"/>
<stop offset="0.474827" stop-color="#FFB02E"/>
<stop offset="1" stop-color="#F70A8D"/>
</radialGradient>
<radialGradient id="paint2_radial_350_1086" cx="0" cy="0" r="1" gradientUnits="userSpaceOnUse" gradientTransform="translate(60.2002 46.8748) rotate(101.31) scale(66.9246 85.7177)">
<stop offset="0.787821" stop-color="#F59639" stop-opacity="0"/>
<stop offset="0.972509" stop-color="#FF7DCE"/>
</radialGradient>
<radialGradient id="paint3_radial_350_1086" cx="0" cy="0" r="1" gradientUnits="userSpaceOnUse" gradientTransform="translate(67.7002 52.4998) rotate(135) scale(153.796)">
<stop offset="0.314853" stop-opacity="0"/>
<stop offset="1"/>
</radialGradient>
<radialGradient id="paint4_radial_350_1086" cx="0" cy="0" r="1" gradientUnits="userSpaceOnUse" gradientTransform="translate(60.2002 63.7498) rotate(77.692) scale(105.551)">
<stop offset="0.507903" stop-color="#7D6133" stop-opacity="0"/>
<stop offset="1" stop-color="#715B32"/>
</radialGradient>
<radialGradient id="paint5_radial_350_1086" cx="0" cy="0" r="1" gradientUnits="userSpaceOnUse" gradientTransform="translate(62.0752 61.8748) rotate(55.7131) scale(49.9257 36.1887)">
<stop stop-color="#FFB849"/>
<stop offset="1" stop-color="#FFB847" stop-opacity="0"/>
</radialGradient>
<radialGradient id="paint6_radial_350_1086" cx="0" cy="0" r="1" gradientUnits="userSpaceOnUse" gradientTransform="translate(77.0752 67.4998) rotate(9.86581) scale(43.7723)">
<stop stop-color="#FFA64B"/>
<stop offset="0.900412" stop-color="#FFAE46" stop-opacity="0"/>
</radialGradient>
<radialGradient id="paint7_radial_350_1086" cx="0" cy="0" r="1" gradientUnits="userSpaceOnUse" gradientTransform="translate(65.8252 56.2498) rotate(43.9708) scale(221.449)">
<stop offset="0.185425" stop-opacity="0"/>
<stop offset="1" stop-opacity="0.4"/>
</radialGradient>
<linearGradient id="paint8_linear_350_1086" x1="42.2" y1="62.813" x2="41.3182" y2="68.1035" gradientUnits="userSpaceOnUse">
<stop stop-color="#52383E"/>
<stop offset="1" stop-color="#432A35"/>
</linearGradient>
<linearGradient id="paint9_linear_350_1086" x1="87.2001" y1="62.813" x2="86.3183" y2="68.1035" gradientUnits="userSpaceOnUse">
<stop stop-color="#52383E"/>
<stop offset="1" stop-color="#432A35"/>
</linearGradient>
<radialGradient id="paint10_radial_350_1086" cx="0" cy="0" r="1" gradientUnits="userSpaceOnUse" gradientTransform="translate(60.1998 100.833) rotate(-90) scale(18.3333)">
<stop stop-color="#F70A8D"/>
<stop offset="1" stop-color="#89029C"/>
</radialGradient>
<radialGradient id="paint11_radial_350_1086" cx="0" cy="0" r="1" gradientUnits="userSpaceOnUse" gradientTransform="translate(62.0748 43.125) rotate(-21.8014) scale(30.2916 21.6208)">
<stop stop-color="#EFA031"/>
<stop offset="1" stop-color="#F0A83E" stop-opacity="0"/>
</radialGradient>
<linearGradient id="paint12_linear_350_1086" x1="90.2" y1="31.8749" x2="105.2" y2="24.3749" gradientUnits="userSpaceOnUse">
<stop stop-color="#2C80E2"/>
<stop offset="1" stop-color="#00A6ED"/>
</linearGradient>
<radialGradient id="paint13_radial_350_1086" cx="0" cy="0" r="1" gradientUnits="userSpaceOnUse" gradientTransform="translate(108.95 28.125) rotate(164.055) scale(13.6502 3.15365)">
<stop stop-color="#63BEFE"/>
<stop offset="1" stop-color="#63BEFE" stop-opacity="0"/>
</radialGradient>
<radialGradient id="paint14_radial_350_1086" cx="0" cy="0" r="1" gradientUnits="userSpaceOnUse" gradientTransform="translate(105.2 9.37498) rotate(45) scale(5.3033)">
<stop stop-color="#63BEFE"/>
<stop offset="1" stop-color="#4FB5FC" stop-opacity="0"/>
</radialGradient>
<clipPath id="clip0_350_1086">
<rect width="120" height="120" fill="white" transform="translate(0.199951)"/>
</clipPath>
</defs>
</svg>
