<svg width="121" height="120" viewBox="0 0 121 120" fill="none" xmlns="http://www.w3.org/2000/svg">
<path d="M60.7912 112.492C95.7954 112.492 113.287 88.9884 113.287 59.9958C113.287 31.0032 95.7954 7.5 60.7912 7.5C25.787 7.5 8.29541 31.0032 8.29541 59.9958C8.29541 88.9884 25.787 112.492 60.7912 112.492Z" fill="url(#paint0_radial_243_10017)"/>
<path d="M60.7912 112.492C95.7954 112.492 113.287 88.9884 113.287 59.9958C113.287 31.0032 95.7954 7.5 60.7912 7.5C25.787 7.5 8.29541 31.0032 8.29541 59.9958C8.29541 88.9884 25.787 112.492 60.7912 112.492Z" fill="url(#paint1_radial_243_10017)"/>
<path d="M60.7912 112.492C95.7954 112.492 113.287 88.9884 113.287 59.9958C113.287 31.0032 95.7954 7.5 60.7912 7.5C25.787 7.5 8.29541 31.0032 8.29541 59.9958C8.29541 88.9884 25.787 112.492 60.7912 112.492Z" fill="url(#paint2_radial_243_10017)"/>
<path d="M60.7912 112.492C95.7954 112.492 113.287 88.9884 113.287 59.9958C113.287 31.0032 95.7954 7.5 60.7912 7.5C25.787 7.5 8.29541 31.0032 8.29541 59.9958C8.29541 88.9884 25.787 112.492 60.7912 112.492Z" fill="url(#paint3_radial_243_10017)" fill-opacity="0.6"/>
<path d="M60.7912 112.492C95.7954 112.492 113.287 88.9884 113.287 59.9958C113.287 31.0032 95.7954 7.5 60.7912 7.5C25.787 7.5 8.29541 31.0032 8.29541 59.9958C8.29541 88.9884 25.787 112.492 60.7912 112.492Z" fill="url(#paint4_radial_243_10017)"/>
<path d="M60.7912 112.492C95.7954 112.492 113.287 88.9884 113.287 59.9958C113.287 31.0032 95.7954 7.5 60.7912 7.5C25.787 7.5 8.29541 31.0032 8.29541 59.9958C8.29541 88.9884 25.787 112.492 60.7912 112.492Z" fill="url(#paint5_radial_243_10017)"/>
<path d="M60.7912 112.492C95.7954 112.492 113.287 88.9884 113.287 59.9958C113.287 31.0032 95.7954 7.5 60.7912 7.5C25.787 7.5 8.29541 31.0032 8.29541 59.9958C8.29541 88.9884 25.787 112.492 60.7912 112.492Z" fill="url(#paint6_radial_243_10017)"/>
<path d="M60.7912 112.492C95.7954 112.492 113.287 88.9884 113.287 59.9958C113.287 31.0032 95.7954 7.5 60.7912 7.5C25.787 7.5 8.29541 31.0032 8.29541 59.9958C8.29541 88.9884 25.787 112.492 60.7912 112.492Z" fill="url(#paint7_radial_243_10017)"/>
<path d="M43.2759 71.251C43.2759 71.251 48.5317 78.751 60.7954 78.751C73.0591 78.751 78.3149 71.251 78.3149 71.251" stroke="url(#paint8_radial_243_10017)" stroke-width="9.3886" stroke-linecap="round" stroke-linejoin="round"/>
<g filter="url(#filter0_f_243_10017)">
<path d="M14.106 54.7343C14.9263 58.1327 17.2831 64.5888 24.8087 66.4519C25.9305 66.7296 27.0331 66.9316 28.139 67.0839C28.1928 67.0913 28.2467 67.0976 28.3007 67.1027C44.4446 68.6155 55.1171 54.9689 55.6383 40.1224C55.6815 38.8919 56.6288 37.8513 57.8599 37.8354C58.5156 37.8269 59.1954 37.8278 59.8952 37.84C61.1214 37.8614 62.0623 38.899 62.1058 40.1246C62.6329 54.9705 73.2952 68.6158 89.4424 67.1027C89.4965 67.0976 89.5504 67.0913 89.6041 67.0839C90.71 66.9316 91.8127 66.7296 92.9345 66.4519C102.904 63.9836 109.089 57.431 112.252 50.4026C111.761 47.4291 111.063 44.5485 110.156 41.7839C109.21 50.0467 104.786 51.09 92.9345 54.024C91.959 54.2655 88.6259 56.5895 87.6314 56.7265C76.3814 57.7812 73.2173 50.4026 66.8405 38.6208L66.8399 38.5038C66.8399 38.4497 66.8403 38.3956 66.8411 38.3416C67.2541 38.3956 67.6692 38.4545 68.0856 38.5187L69.1116 31.8606C70.2971 30.3327 71.882 29.1305 73.71 28.4111C74.1397 28.2255 75.1443 27.8038 78.251 27.2245C81.4562 26.627 90.0127 26.6338 95.2351 26.638L96.4004 26.6386C99.1579 26.6386 101.662 27.4392 103.28 28.1713C101.958 26.3521 100.504 24.634 98.9162 23.0289C98.0916 22.9394 97.2471 22.8886 96.4004 22.8886L95.2208 22.8879C92.6185 22.8859 89.1382 22.8831 85.9015 22.9566C82.7655 23.0277 78.12 23.2276 76.1673 23.5917C72.939 24.1936 71.6369 24.6758 70.8828 24.998C68.8095 25.8242 67.029 27.0978 65.6236 28.7034C64.6996 29.7591 63.3903 30.4639 61.9888 30.4018C59.7383 30.3021 57.6222 30.3135 55.7278 30.3902C54.3332 30.4467 53.0325 29.7446 52.1123 28.6951C50.708 27.0934 48.9301 25.8228 46.8603 24.998C46.1063 24.6758 44.8041 24.1936 41.5758 23.5917C39.6232 23.2276 34.9776 23.0277 31.8417 22.9566C28.605 22.8831 25.1247 22.8859 22.5224 22.8879L22.4742 22.888C21.2312 24.1333 20.069 25.4475 18.9876 26.8249C19.7399 26.7081 20.5303 26.6386 21.3427 26.6386L22.508 26.638C27.7305 26.6338 36.287 26.627 39.4921 27.2245C42.5989 27.8038 43.6035 28.2255 44.0332 28.4111C45.7938 29.104 47.329 30.2448 48.499 31.6931L49.7805 38.4976C50.0861 38.4401 50.4624 38.3788 50.9017 38.3177C50.9027 38.3796 50.9033 38.4417 50.9033 38.5038L50.9027 38.6208C51.5765 54.4119 39.5508 63.9293 28.3008 62.8747C27.3062 62.7376 26.3353 62.5589 25.3599 62.3174C16.7403 60.1835 17.3668 53.8516 14.9263 47.8202C14.4933 50.0354 14.3022 52.4183 14.106 54.7343Z" fill="url(#paint9_linear_243_10017)"/>
</g>
<path fill-rule="evenodd" clip-rule="evenodd" d="M48.7854 21.248C50.67 21.999 52.3126 23.1196 53.6516 24.5233C54.8576 25.7875 56.4779 26.6764 58.2242 26.6193C59.8033 26.5677 61.524 26.5625 63.3389 26.6286C65.0939 26.6924 66.725 25.8002 67.9365 24.5288C69.2764 23.1225 70.9209 22 72.8079 21.248C73.562 20.9258 74.8641 20.4436 78.0924 19.8417C80.045 19.4776 84.6906 19.2777 87.8266 19.2066C91.0632 19.1331 94.5436 19.1359 97.1459 19.1379L98.3255 19.1386C102.786 19.1386 107.186 20.5478 108.931 21.5995C112.857 23.5917 116.49 27.4003 116.75 33.9543C116.761 34.0523 116.768 34.1511 116.771 34.2505C117.08 44.3319 110.82 58.7505 94.8596 62.7019C93.7377 62.9796 92.6351 63.1816 91.5292 63.3339C91.4754 63.3413 91.4215 63.3476 91.3675 63.3526C75.4218 64.847 64.8249 51.5587 64.0553 36.9298C63.9747 35.3968 62.7993 34.0966 61.2642 34.0826C60.9531 34.0798 60.6463 34.0791 60.3442 34.0805C58.8029 34.0875 57.6195 35.3916 57.5389 36.9307C56.7735 51.559 46.167 64.8465 30.2258 63.3526C30.1718 63.3476 30.1179 63.3413 30.0641 63.3339C28.9582 63.1816 27.8556 62.9796 26.7337 62.7019C10.7734 58.7505 4.51315 44.3319 4.8224 34.2505C4.82545 34.1511 4.83243 34.0523 4.84323 33.9543C5.10377 27.4003 8.73658 23.5917 12.6624 21.5995C14.4073 20.5478 18.8076 19.1386 23.2678 19.1386L24.4474 19.1379C27.0497 19.1359 30.5301 19.1331 33.7667 19.2066C36.9027 19.2777 41.5483 19.4776 43.5009 19.8417C46.7292 20.4436 48.0313 20.9258 48.7854 21.248ZM10.1361 30.618C11.0732 28.3356 12.8126 26.4705 15.1542 25.0591C16.4709 24.2656 19.6515 22.8886 23.2678 22.8886L24.4331 22.888C29.6555 22.8838 38.2121 22.877 41.4172 23.4745C44.5239 24.0538 45.5285 24.4755 45.9582 24.6611C47.7189 25.354 49.2541 26.4948 50.424 27.9431L51.7055 34.7476C52.0112 34.6901 52.3874 34.6288 52.8268 34.5677C52.8278 34.6296 52.8283 34.6917 52.8283 34.7538L52.8277 34.8708C53.5016 50.6619 41.4758 60.1793 30.2258 59.1246C29.2313 58.9876 28.2604 58.8089 27.2849 58.5674C15.4338 55.6334 10.4584 46.2967 9.5118 38.0339C9.36603 36.7615 9.31581 35.5145 9.35074 34.3203L9.35174 34.2867L9.3593 34.287L9.3607 34.2505C9.41289 32.9433 9.67907 31.731 10.1361 30.618ZM68.7661 34.5916C68.7653 34.6456 68.765 34.6997 68.765 34.7538L68.7656 34.8708C68.0917 50.6619 80.1175 60.1793 91.3675 59.1246C92.362 58.9876 93.3329 58.8089 94.3084 58.5674C106.159 55.6334 111.135 46.2967 112.082 38.0339C112.227 36.7615 112.277 35.5145 112.243 34.3203L112.242 34.2867L112.234 34.287L112.233 34.2505C112.18 32.9433 111.914 31.731 111.457 30.618C110.52 28.3356 108.781 26.4705 106.439 25.0591C105.122 24.2656 101.942 22.8886 98.3255 22.8886L97.1602 22.888C91.9378 22.8838 83.3812 22.877 80.1761 23.4745C77.0694 24.0538 76.0648 24.4755 75.6351 24.6611C73.8071 25.3805 72.2221 26.5827 71.0367 28.1106L70.0107 34.7687C69.5942 34.7045 69.1792 34.6456 68.7661 34.5916Z" fill="url(#paint10_radial_243_10017)"/>
<path fill-rule="evenodd" clip-rule="evenodd" d="M48.7854 21.248C50.67 21.999 52.3126 23.1196 53.6516 24.5233C54.8576 25.7875 56.4779 26.6764 58.2242 26.6193C59.8033 26.5677 61.524 26.5625 63.3389 26.6286C65.0939 26.6924 66.725 25.8002 67.9365 24.5288C69.2764 23.1225 70.9209 22 72.8079 21.248C73.562 20.9258 74.8641 20.4436 78.0924 19.8417C80.045 19.4776 84.6906 19.2777 87.8266 19.2066C91.0632 19.1331 94.5436 19.1359 97.1459 19.1379L98.3255 19.1386C102.786 19.1386 107.186 20.5478 108.931 21.5995C112.857 23.5917 116.49 27.4003 116.75 33.9543C116.761 34.0523 116.768 34.1511 116.771 34.2505C117.08 44.3319 110.82 58.7505 94.8596 62.7019C93.7377 62.9796 92.6351 63.1816 91.5292 63.3339C91.4754 63.3413 91.4215 63.3476 91.3675 63.3526C75.4218 64.847 64.8249 51.5587 64.0553 36.9298C63.9747 35.3968 62.7993 34.0966 61.2642 34.0826C60.9531 34.0798 60.6463 34.0791 60.3442 34.0805C58.8029 34.0875 57.6195 35.3916 57.5389 36.9307C56.7735 51.559 46.167 64.8465 30.2258 63.3526C30.1718 63.3476 30.1179 63.3413 30.0641 63.3339C28.9582 63.1816 27.8556 62.9796 26.7337 62.7019C10.7734 58.7505 4.51315 44.3319 4.8224 34.2505C4.82545 34.1511 4.83243 34.0523 4.84323 33.9543C5.10377 27.4003 8.73658 23.5917 12.6624 21.5995C14.4073 20.5478 18.8076 19.1386 23.2678 19.1386L24.4474 19.1379C27.0497 19.1359 30.5301 19.1331 33.7667 19.2066C36.9027 19.2777 41.5483 19.4776 43.5009 19.8417C46.7292 20.4436 48.0313 20.9258 48.7854 21.248ZM10.1361 30.618C11.0732 28.3356 12.8126 26.4705 15.1542 25.0591C16.4709 24.2656 19.6515 22.8886 23.2678 22.8886L24.4331 22.888C29.6555 22.8838 38.2121 22.877 41.4172 23.4745C44.5239 24.0538 45.5285 24.4755 45.9582 24.6611C47.7189 25.354 49.2541 26.4948 50.424 27.9431L51.7055 34.7476C52.0112 34.6901 52.3874 34.6288 52.8268 34.5677C52.8278 34.6296 52.8283 34.6917 52.8283 34.7538L52.8277 34.8708C53.5016 50.6619 41.4758 60.1793 30.2258 59.1246C29.2313 58.9876 28.2604 58.8089 27.2849 58.5674C15.4338 55.6334 10.4584 46.2967 9.5118 38.0339C9.36603 36.7615 9.31581 35.5145 9.35074 34.3203L9.35174 34.2867L9.3593 34.287L9.3607 34.2505C9.41289 32.9433 9.67907 31.731 10.1361 30.618ZM68.7661 34.5916C68.7653 34.6456 68.765 34.6997 68.765 34.7538L68.7656 34.8708C68.0917 50.6619 80.1175 60.1793 91.3675 59.1246C92.362 58.9876 93.3329 58.8089 94.3084 58.5674C106.159 55.6334 111.135 46.2967 112.082 38.0339C112.227 36.7615 112.277 35.5145 112.243 34.3203L112.242 34.2867L112.234 34.287L112.233 34.2505C112.18 32.9433 111.914 31.731 111.457 30.618C110.52 28.3356 108.781 26.4705 106.439 25.0591C105.122 24.2656 101.942 22.8886 98.3255 22.8886L97.1602 22.888C91.9378 22.8838 83.3812 22.877 80.1761 23.4745C77.0694 24.0538 76.0648 24.4755 75.6351 24.6611C73.8071 25.3805 72.2221 26.5827 71.0367 28.1106L70.0107 34.7687C69.5942 34.7045 69.1792 34.6456 68.7661 34.5916Z" fill="url(#paint11_radial_243_10017)"/>
<path fill-rule="evenodd" clip-rule="evenodd" d="M48.7854 21.248C50.67 21.999 52.3126 23.1196 53.6516 24.5233C54.8576 25.7875 56.4779 26.6764 58.2242 26.6193C59.8033 26.5677 61.524 26.5625 63.3389 26.6286C65.0939 26.6924 66.725 25.8002 67.9365 24.5288C69.2764 23.1225 70.9209 22 72.8079 21.248C73.562 20.9258 74.8641 20.4436 78.0924 19.8417C80.045 19.4776 84.6906 19.2777 87.8266 19.2066C91.0632 19.1331 94.5436 19.1359 97.1459 19.1379L98.3255 19.1386C102.786 19.1386 107.186 20.5478 108.931 21.5995C112.857 23.5917 116.49 27.4003 116.75 33.9543C116.761 34.0523 116.768 34.1511 116.771 34.2505C117.08 44.3319 110.82 58.7505 94.8596 62.7019C93.7377 62.9796 92.6351 63.1816 91.5292 63.3339C91.4754 63.3413 91.4215 63.3476 91.3675 63.3526C75.4218 64.847 64.8249 51.5587 64.0553 36.9298C63.9747 35.3968 62.7993 34.0966 61.2642 34.0826C60.9531 34.0798 60.6463 34.0791 60.3442 34.0805C58.8029 34.0875 57.6195 35.3916 57.5389 36.9307C56.7735 51.559 46.167 64.8465 30.2258 63.3526C30.1718 63.3476 30.1179 63.3413 30.0641 63.3339C28.9582 63.1816 27.8556 62.9796 26.7337 62.7019C10.7734 58.7505 4.51315 44.3319 4.8224 34.2505C4.82545 34.1511 4.83243 34.0523 4.84323 33.9543C5.10377 27.4003 8.73658 23.5917 12.6624 21.5995C14.4073 20.5478 18.8076 19.1386 23.2678 19.1386L24.4474 19.1379C27.0497 19.1359 30.5301 19.1331 33.7667 19.2066C36.9027 19.2777 41.5483 19.4776 43.5009 19.8417C46.7292 20.4436 48.0313 20.9258 48.7854 21.248ZM10.1361 30.618C11.0732 28.3356 12.8126 26.4705 15.1542 25.0591C16.4709 24.2656 19.6515 22.8886 23.2678 22.8886L24.4331 22.888C29.6555 22.8838 38.2121 22.877 41.4172 23.4745C44.5239 24.0538 45.5285 24.4755 45.9582 24.6611C47.7189 25.354 49.2541 26.4948 50.424 27.9431L51.7055 34.7476C52.0112 34.6901 52.3874 34.6288 52.8268 34.5677C52.8278 34.6296 52.8283 34.6917 52.8283 34.7538L52.8277 34.8708C53.5016 50.6619 41.4758 60.1793 30.2258 59.1246C29.2313 58.9876 28.2604 58.8089 27.2849 58.5674C15.4338 55.6334 10.4584 46.2967 9.5118 38.0339C9.36603 36.7615 9.31581 35.5145 9.35074 34.3203L9.35174 34.2867L9.3593 34.287L9.3607 34.2505C9.41289 32.9433 9.67907 31.731 10.1361 30.618ZM68.7661 34.5916C68.7653 34.6456 68.765 34.6997 68.765 34.7538L68.7656 34.8708C68.0917 50.6619 80.1175 60.1793 91.3675 59.1246C92.362 58.9876 93.3329 58.8089 94.3084 58.5674C106.159 55.6334 111.135 46.2967 112.082 38.0339C112.227 36.7615 112.277 35.5145 112.243 34.3203L112.242 34.2867L112.234 34.287L112.233 34.2505C112.18 32.9433 111.914 31.731 111.457 30.618C110.52 28.3356 108.781 26.4705 106.439 25.0591C105.122 24.2656 101.942 22.8886 98.3255 22.8886L97.1602 22.888C91.9378 22.8838 83.3812 22.877 80.1761 23.4745C77.0694 24.0538 76.0648 24.4755 75.6351 24.6611C73.8071 25.3805 72.2221 26.5827 71.0367 28.1106L70.0107 34.7687C69.5942 34.7045 69.1792 34.6456 68.7661 34.5916Z" fill="url(#paint12_radial_243_10017)"/>
<path d="M15.155 25.0591C16.4717 24.2655 19.6523 22.8886 23.2685 22.8886C23.6336 22.8886 24.0234 22.8883 24.4338 22.888C29.6563 22.8838 38.2128 22.877 41.418 23.4745C44.5247 24.0537 45.5293 24.4755 45.959 24.6611C49.9828 26.2447 52.8291 30.1678 52.8291 34.7538L52.8285 34.8708C53.5023 50.6619 41.4766 60.1793 30.2266 59.1246C29.232 58.9876 28.2611 58.8089 27.2857 58.5674C13.5916 55.1771 9.0779 43.238 9.35253 34.2851L9.36004 34.287C9.50753 30.2816 11.6607 27.1652 15.155 25.0591Z" fill="url(#paint13_radial_243_10017)"/>
<path d="M15.155 25.0591C16.4717 24.2655 19.6523 22.8886 23.2685 22.8886C23.6336 22.8886 24.0234 22.8883 24.4338 22.888C29.6563 22.8838 38.2128 22.877 41.418 23.4745C44.5247 24.0537 45.5293 24.4755 45.959 24.6611C49.9828 26.2447 52.8291 30.1678 52.8291 34.7538L52.8285 34.8708C53.5023 50.6619 41.4766 60.1793 30.2266 59.1246C29.232 58.9876 28.2611 58.8089 27.2857 58.5674C13.5916 55.1771 9.0779 43.238 9.35253 34.2851L9.36004 34.287C9.50753 30.2816 11.6607 27.1652 15.155 25.0591Z" fill="url(#paint14_radial_243_10017)"/>
<path d="M15.155 25.0591C16.4717 24.2655 19.6523 22.8886 23.2685 22.8886C23.6336 22.8886 24.0234 22.8883 24.4338 22.888C29.6563 22.8838 38.2128 22.877 41.418 23.4745C44.5247 24.0537 45.5293 24.4755 45.959 24.6611C49.9828 26.2447 52.8291 30.1678 52.8291 34.7538L52.8285 34.8708C53.5023 50.6619 41.4766 60.1793 30.2266 59.1246C29.232 58.9876 28.2611 58.8089 27.2857 58.5674C13.5916 55.1771 9.0779 43.238 9.35253 34.2851L9.36004 34.287C9.50753 30.2816 11.6607 27.1652 15.155 25.0591Z" fill="url(#paint15_radial_243_10017)"/>
<path d="M15.155 25.0591C16.4717 24.2655 19.6523 22.8886 23.2685 22.8886C23.6336 22.8886 24.0234 22.8883 24.4338 22.888C29.6563 22.8838 38.2128 22.877 41.418 23.4745C44.5247 24.0537 45.5293 24.4755 45.959 24.6611C49.9828 26.2447 52.8291 30.1678 52.8291 34.7538L52.8285 34.8708C53.5023 50.6619 41.4766 60.1793 30.2266 59.1246C29.232 58.9876 28.2611 58.8089 27.2857 58.5674C13.5916 55.1771 9.0779 43.238 9.35253 34.2851L9.36004 34.287C9.50753 30.2816 11.6607 27.1652 15.155 25.0591Z" fill="url(#paint16_radial_243_10017)"/>
<ellipse cx="42.5684" cy="34.2854" rx="5.60319" ry="7.04664" transform="rotate(-25.8832 42.5684 34.2854)" fill="url(#paint17_linear_243_10017)"/>
<path d="M106.439 25.0591C105.123 24.2655 101.942 22.8886 98.3257 22.8886C97.9607 22.8886 97.5708 22.8883 97.1604 22.888C91.938 22.8838 83.3814 22.877 80.1763 23.4745C77.0696 24.0537 76.0649 24.4755 75.6353 24.6611C71.6115 26.2447 68.7651 30.1678 68.7651 34.7538L68.7658 34.8708C68.0919 50.6619 80.1177 60.1793 91.3677 59.1246C92.3622 58.9876 93.3331 58.8089 94.3086 58.5674C108.003 55.1771 112.516 43.238 112.242 34.2851L112.234 34.287C112.087 30.2816 109.934 27.1652 106.439 25.0591Z" fill="url(#paint18_radial_243_10017)"/>
<path d="M106.439 25.0591C105.123 24.2655 101.942 22.8886 98.3257 22.8886C97.9607 22.8886 97.5708 22.8883 97.1604 22.888C91.938 22.8838 83.3814 22.877 80.1763 23.4745C77.0696 24.0537 76.0649 24.4755 75.6353 24.6611C71.6115 26.2447 68.7651 30.1678 68.7651 34.7538L68.7658 34.8708C68.0919 50.6619 80.1177 60.1793 91.3677 59.1246C92.3622 58.9876 93.3331 58.8089 94.3086 58.5674C108.003 55.1771 112.516 43.238 112.242 34.2851L112.234 34.287C112.087 30.2816 109.934 27.1652 106.439 25.0591Z" fill="url(#paint19_radial_243_10017)"/>
<path d="M106.439 25.0591C105.123 24.2655 101.942 22.8886 98.3257 22.8886C97.9607 22.8886 97.5708 22.8883 97.1604 22.888C91.938 22.8838 83.3814 22.877 80.1763 23.4745C77.0696 24.0537 76.0649 24.4755 75.6353 24.6611C71.6115 26.2447 68.7651 30.1678 68.7651 34.7538L68.7658 34.8708C68.0919 50.6619 80.1177 60.1793 91.3677 59.1246C92.3622 58.9876 93.3331 58.8089 94.3086 58.5674C108.003 55.1771 112.516 43.238 112.242 34.2851L112.234 34.287C112.087 30.2816 109.934 27.1652 106.439 25.0591Z" fill="url(#paint20_radial_243_10017)"/>
<path d="M106.439 25.0591C105.123 24.2655 101.942 22.8886 98.3257 22.8886C97.9607 22.8886 97.5708 22.8883 97.1604 22.888C91.938 22.8838 83.3814 22.877 80.1763 23.4745C77.0696 24.0537 76.0649 24.4755 75.6353 24.6611C71.6115 26.2447 68.7651 30.1678 68.7651 34.7538L68.7658 34.8708C68.0919 50.6619 80.1177 60.1793 91.3677 59.1246C92.3622 58.9876 93.3331 58.8089 94.3086 58.5674C108.003 55.1771 112.516 43.238 112.242 34.2851L112.234 34.287C112.087 30.2816 109.934 27.1652 106.439 25.0591Z" fill="url(#paint21_radial_243_10017)"/>
<ellipse cx="102.696" cy="34.2854" rx="5.6032" ry="7.04664" transform="rotate(-25.8832 102.696 34.2854)" fill="url(#paint22_linear_243_10017)"/>
<defs>
<filter id="filter0_f_243_10017" x="8.4728" y="17.254" width="109.412" height="55.5969" filterUnits="userSpaceOnUse" color-interpolation-filters="sRGB">
<feFlood flood-opacity="0" result="BackgroundImageFix"/>
<feBlend mode="normal" in="SourceGraphic" in2="BackgroundImageFix" result="shape"/>
<feGaussianBlur stdDeviation="2.81658" result="effect1_foregroundBlur_243_10017"/>
</filter>
<radialGradient id="paint0_radial_243_10017" cx="0" cy="0" r="1" gradientUnits="userSpaceOnUse" gradientTransform="translate(96.4204 33.75) rotate(132.839) scale(140.637)">
<stop stop-color="#FFF478"/>
<stop offset="0.474827" stop-color="#FFB02E"/>
<stop offset="1" stop-color="#F70A8D"/>
</radialGradient>
<radialGradient id="paint1_radial_243_10017" cx="0" cy="0" r="1" gradientUnits="userSpaceOnUse" gradientTransform="translate(96.4204 33.75) rotate(131.878) scale(146.058 146.058)">
<stop stop-color="#FFF478"/>
<stop offset="0.474827" stop-color="#FFB02E"/>
<stop offset="1" stop-color="#F70A8D"/>
</radialGradient>
<radialGradient id="paint2_radial_243_10017" cx="0" cy="0" r="1" gradientUnits="userSpaceOnUse" gradientTransform="translate(60.7954 46.875) rotate(101.31) scale(66.9246 85.7177)">
<stop offset="0.787821" stop-color="#F59639" stop-opacity="0"/>
<stop offset="0.972509" stop-color="#FF7DCE"/>
</radialGradient>
<radialGradient id="paint3_radial_243_10017" cx="0" cy="0" r="1" gradientUnits="userSpaceOnUse" gradientTransform="translate(68.2954 52.5) rotate(135) scale(153.796)">
<stop offset="0.314853" stop-opacity="0"/>
<stop offset="1"/>
</radialGradient>
<radialGradient id="paint4_radial_243_10017" cx="0" cy="0" r="1" gradientUnits="userSpaceOnUse" gradientTransform="translate(60.7954 63.75) rotate(77.692) scale(105.551 105.551)">
<stop offset="0.507903" stop-color="#7D6133" stop-opacity="0"/>
<stop offset="1" stop-color="#715B32"/>
</radialGradient>
<radialGradient id="paint5_radial_243_10017" cx="0" cy="0" r="1" gradientUnits="userSpaceOnUse" gradientTransform="translate(62.6704 61.875) rotate(55.7131) scale(49.9257 36.1887)">
<stop stop-color="#FFB849"/>
<stop offset="1" stop-color="#FFB847" stop-opacity="0"/>
</radialGradient>
<radialGradient id="paint6_radial_243_10017" cx="0" cy="0" r="1" gradientUnits="userSpaceOnUse" gradientTransform="translate(77.6704 67.5) rotate(9.86581) scale(43.7723 43.7723)">
<stop stop-color="#FFA64B"/>
<stop offset="0.900412" stop-color="#FFAE46" stop-opacity="0"/>
</radialGradient>
<radialGradient id="paint7_radial_243_10017" cx="0" cy="0" r="1" gradientUnits="userSpaceOnUse" gradientTransform="translate(66.4204 56.25) rotate(43.9708) scale(221.449)">
<stop offset="0.185425" stop-opacity="0"/>
<stop offset="1" stop-opacity="0.4"/>
</radialGradient>
<radialGradient id="paint8_radial_243_10017" cx="0" cy="0" r="1" gradientUnits="userSpaceOnUse" gradientTransform="translate(60.7954 66.8062) rotate(90) scale(41.0156 63.2565)">
<stop offset="0.145833" stop-color="#2E1529"/>
<stop offset="0.276042" stop-color="#503A4A"/>
<stop offset="0.342857" stop-color="#4B2744"/>
</radialGradient>
<linearGradient id="paint9_linear_243_10017" x1="85.8736" y1="45.0525" x2="33.1392" y2="65.164" gradientUnits="userSpaceOnUse">
<stop stop-color="#E78F00"/>
<stop offset="1" stop-color="#D07000"/>
</linearGradient>
<radialGradient id="paint10_radial_243_10017" cx="0" cy="0" r="1" gradientUnits="userSpaceOnUse" gradientTransform="translate(80.0149 21.5702) rotate(78.8614) scale(46.1028 95.5359)">
<stop stop-color="#5F5B9B"/>
<stop offset="1" stop-color="#5C3085"/>
</radialGradient>
<radialGradient id="paint11_radial_243_10017" cx="0" cy="0" r="1" gradientUnits="userSpaceOnUse" gradientTransform="translate(90.3865 41.2996) rotate(78.0636) scale(20.6786 23.2305)">
<stop offset="0.776042" stop-color="#77579C"/>
<stop offset="0.9375" stop-color="#77579C" stop-opacity="0"/>
</radialGradient>
<radialGradient id="paint12_radial_243_10017" cx="0" cy="0" r="1" gradientUnits="userSpaceOnUse" gradientTransform="translate(82.8274 37.5077) rotate(-122.735) scale(17.5535 12.8852)">
<stop offset="0.769354" stop-color="#4E3D92"/>
<stop offset="1" stop-color="#534687" stop-opacity="0"/>
</radialGradient>
<radialGradient id="paint13_radial_243_10017" cx="0" cy="0" r="1" gradientUnits="userSpaceOnUse" gradientTransform="translate(40.8755 33.9921) rotate(121.845) scale(22.2104 25.2314)">
<stop stop-color="#4C3D70"/>
<stop offset="1" stop-color="#361C5D"/>
</radialGradient>
<radialGradient id="paint14_radial_243_10017" cx="0" cy="0" r="1" gradientUnits="userSpaceOnUse" gradientTransform="translate(36.3057 34.578) rotate(87.1376) scale(28.1601 41.816)">
<stop offset="0.647365" stop-color="#5B2B84" stop-opacity="0"/>
<stop offset="1" stop-color="#5B2B84"/>
</radialGradient>
<radialGradient id="paint15_radial_243_10017" cx="0" cy="0" r="1" gradientUnits="userSpaceOnUse" gradientTransform="translate(29.9775 62.9374) rotate(-99.5134) scale(43.2511 42.8308)">
<stop offset="0.858612" stop-color="#2E1D57" stop-opacity="0"/>
<stop offset="1" stop-color="#20143D"/>
</radialGradient>
<radialGradient id="paint16_radial_243_10017" cx="0" cy="0" r="1" gradientUnits="userSpaceOnUse" gradientTransform="translate(33.6103 31.7655) rotate(102.225) scale(28.7776 27.0083)">
<stop offset="0.872281" stop-color="#2E1D57" stop-opacity="0"/>
<stop offset="1" stop-color="#20143D" stop-opacity="0.6"/>
</radialGradient>
<linearGradient id="paint17_linear_243_10017" x1="45.0201" y1="29.2324" x2="39.7944" y2="41.0899" gradientUnits="userSpaceOnUse">
<stop stop-color="white"/>
<stop offset="0.973958" stop-color="white" stop-opacity="0"/>
</linearGradient>
<radialGradient id="paint18_radial_243_10017" cx="0" cy="0" r="1" gradientUnits="userSpaceOnUse" gradientTransform="translate(93.2578 32.4687) rotate(121.289) scale(24.8208 37.2829)">
<stop stop-color="#4C3D70"/>
<stop offset="1" stop-color="#361C5D"/>
</radialGradient>
<radialGradient id="paint19_radial_243_10017" cx="0" cy="0" r="1" gradientUnits="userSpaceOnUse" gradientTransform="translate(85.2886 34.578) rotate(92.8624) scale(28.1601 41.816)">
<stop offset="0.647365" stop-color="#5B2B84" stop-opacity="0"/>
<stop offset="1" stop-color="#5B2B84"/>
</radialGradient>
<radialGradient id="paint20_radial_243_10017" cx="0" cy="0" r="1" gradientUnits="userSpaceOnUse" gradientTransform="translate(90.4961 57.8984) rotate(-77.6023) scale(38.5153 38.1411)">
<stop offset="0.858612" stop-color="#2E1D57" stop-opacity="0"/>
<stop offset="1" stop-color="#20143D"/>
</radialGradient>
<radialGradient id="paint21_radial_243_10017" cx="0" cy="0" r="1" gradientUnits="userSpaceOnUse" gradientTransform="translate(87.9839 31.7655) rotate(77.7749) scale(28.7776 27.0083)">
<stop offset="0.872281" stop-color="#2E1D57" stop-opacity="0"/>
<stop offset="1" stop-color="#20143D" stop-opacity="0.6"/>
</radialGradient>
<linearGradient id="paint22_linear_243_10017" x1="105.148" y1="29.2324" x2="99.9219" y2="41.0899" gradientUnits="userSpaceOnUse">
<stop stop-color="white"/>
<stop offset="0.973958" stop-color="white" stop-opacity="0"/>
</linearGradient>
</defs>
</svg>
