<svg width="121" height="120" viewBox="0 0 121 120" fill="none" xmlns="http://www.w3.org/2000/svg">
<path d="M60.796 112.491C95.8002 112.491 113.292 88.9882 113.292 59.9956C113.292 31.0029 95.8002 7.49976 60.796 7.49976C25.7918 7.49976 8.30017 31.0029 8.30017 59.9956C8.30017 88.9882 25.7918 112.491 60.796 112.491Z" fill="url(#paint0_radial_350_1084)"/>
<path d="M60.796 112.491C95.8002 112.491 113.292 88.9882 113.292 59.9956C113.292 31.0029 95.8002 7.49976 60.796 7.49976C25.7918 7.49976 8.30017 31.0029 8.30017 59.9956C8.30017 88.9882 25.7918 112.491 60.796 112.491Z" fill="url(#paint1_radial_350_1084)"/>
<path d="M60.796 112.491C95.8002 112.491 113.292 88.9882 113.292 59.9956C113.292 31.0029 95.8002 7.49976 60.796 7.49976C25.7918 7.49976 8.30017 31.0029 8.30017 59.9956C8.30017 88.9882 25.7918 112.491 60.796 112.491Z" fill="url(#paint2_radial_350_1084)"/>
<path d="M60.796 112.491C95.8002 112.491 113.292 88.9882 113.292 59.9956C113.292 31.0029 95.8002 7.49976 60.796 7.49976C25.7918 7.49976 8.30017 31.0029 8.30017 59.9956C8.30017 88.9882 25.7918 112.491 60.796 112.491Z" fill="url(#paint3_radial_350_1084)" fill-opacity="0.6"/>
<path d="M60.796 112.491C95.8002 112.491 113.292 88.9882 113.292 59.9956C113.292 31.0029 95.8002 7.49976 60.796 7.49976C25.7918 7.49976 8.30017 31.0029 8.30017 59.9956C8.30017 88.9882 25.7918 112.491 60.796 112.491Z" fill="url(#paint4_radial_350_1084)"/>
<path d="M60.796 112.491C95.8002 112.491 113.292 88.9882 113.292 59.9956C113.292 31.0029 95.8002 7.49976 60.796 7.49976C25.7918 7.49976 8.30017 31.0029 8.30017 59.9956C8.30017 88.9882 25.7918 112.491 60.796 112.491Z" fill="url(#paint5_radial_350_1084)"/>
<path d="M60.796 112.491C95.8002 112.491 113.292 88.9882 113.292 59.9956C113.292 31.0029 95.8002 7.49976 60.796 7.49976C25.7918 7.49976 8.30017 31.0029 8.30017 59.9956C8.30017 88.9882 25.7918 112.491 60.796 112.491Z" fill="url(#paint6_radial_350_1084)"/>
<path d="M60.796 112.491C95.8002 112.491 113.292 88.9882 113.292 59.9956C113.292 31.0029 95.8002 7.49976 60.796 7.49976C25.7918 7.49976 8.30017 31.0029 8.30017 59.9956C8.30017 88.9882 25.7918 112.491 60.796 112.491Z" fill="url(#paint7_radial_350_1084)"/>
<path d="M60.796 112.491C95.8002 112.491 113.292 88.9882 113.292 59.9956C113.292 31.0029 95.8002 7.49976 60.796 7.49976C25.7918 7.49976 8.30017 31.0029 8.30017 59.9956C8.30017 88.9882 25.7918 112.491 60.796 112.491Z" fill="url(#paint8_radial_350_1084)"/>
<ellipse cx="98.2919" cy="55.3511" rx="15" ry="15" fill="url(#paint9_radial_350_1084)"/>
<ellipse cx="23.3002" cy="55.3511" rx="15" ry="15" fill="url(#paint10_radial_350_1084)"/>
<path d="M38.2999 56.2498C39.9071 59.2498 46.3356 67.4998 60.7999 67.4998C75.2642 67.4998 81.6928 59.2498 83.2999 56.2498" stroke="url(#paint11_radial_350_1084)" stroke-width="7.5625" stroke-linecap="round"/>
<g filter="url(#filter0_f_350_1084)">
<path d="M71.8157 39.9605C71.8157 39.9605 74.1298 34.2538 80.0188 35.273C87.6508 36.594 88.2219 44.0621 88.2219 44.0621" stroke="url(#paint12_radial_350_1084)" stroke-width="7.5625" stroke-linecap="round"/>
</g>
<g filter="url(#filter1_f_350_1084)">
<path d="M31.9717 39.9605C31.9717 39.9605 34.2858 34.2538 40.1748 35.273C47.8068 36.594 48.3779 44.0621 48.3779 44.0621" stroke="url(#paint13_radial_350_1084)" stroke-width="7.5625" stroke-linecap="round"/>
</g>
<path d="M30.7998 41.2498C30.7998 41.2498 31.7373 33.7498 40.1748 33.7498C48.6123 33.7498 49.5498 41.2498 49.5498 41.2498" stroke="url(#paint14_radial_350_1084)" stroke-width="7.5625" stroke-linecap="round"/>
<path d="M72.05 41.2498C72.05 41.2498 73.925 33.7498 81.425 33.7498C88.925 33.7498 90.8 41.2498 90.8 41.2498" stroke="url(#paint15_radial_350_1084)" stroke-width="7.5625" stroke-linecap="round"/>
<g filter="url(#filter2_i_350_1084)">
<path d="M16.1484 72.6081C17.6455 70.8239 20.3056 70.5912 22.0898 72.0883L33.2347 81.44L32.2952 78.0759C31.6432 75.7417 33.007 73.3209 35.3413 72.669C37.6881 72.0136 40.1195 73.3956 40.7571 75.7474L43.339 85.2718L46.4753 92.8171C46.533 92.9558 46.5839 93.0965 46.6281 93.2386C47.7453 95.3944 48.3781 97.8528 48.3781 100.462C48.3781 108.997 41.6089 115.916 33.2587 115.916C29.5853 115.916 26.2179 114.577 23.5982 112.351L6.78841 99.9853C4.81699 98.5351 4.42136 95.7484 5.91121 93.8068C6.55997 92.9613 7.45721 92.4189 8.4218 92.2033L6.82441 90.8629C4.95725 89.2962 4.71371 86.5124 6.28044 84.6453C6.94611 83.852 7.83148 83.3517 8.7729 83.1589L8.28227 82.7473C6.41511 81.1805 6.17157 78.3968 7.7383 76.5296C9.30504 74.6625 12.0888 74.4189 13.9559 75.9857L15.7761 77.5129C14.8607 76.0102 14.9547 74.0307 16.1484 72.6081Z" fill="url(#paint16_radial_350_1084)"/>
<path d="M16.1484 72.6081C17.6455 70.8239 20.3056 70.5912 22.0898 72.0883L33.2347 81.44L32.2952 78.0759C31.6432 75.7417 33.007 73.3209 35.3413 72.669C37.6881 72.0136 40.1195 73.3956 40.7571 75.7474L43.339 85.2718L46.4753 92.8171C46.533 92.9558 46.5839 93.0965 46.6281 93.2386C47.7453 95.3944 48.3781 97.8528 48.3781 100.462C48.3781 108.997 41.6089 115.916 33.2587 115.916C29.5853 115.916 26.2179 114.577 23.5982 112.351L6.78841 99.9853C4.81699 98.5351 4.42136 95.7484 5.91121 93.8068C6.55997 92.9613 7.45721 92.4189 8.4218 92.2033L6.82441 90.8629C4.95725 89.2962 4.71371 86.5124 6.28044 84.6453C6.94611 83.852 7.83148 83.3517 8.7729 83.1589L8.28227 82.7473C6.41511 81.1805 6.17157 78.3968 7.7383 76.5296C9.30504 74.6625 12.0888 74.4189 13.9559 75.9857L15.7761 77.5129C14.8607 76.0102 14.9547 74.0307 16.1484 72.6081Z" fill="url(#paint17_linear_350_1084)"/>
<path d="M16.1484 72.6081C17.6455 70.8239 20.3056 70.5912 22.0898 72.0883L33.2347 81.44L32.2952 78.0759C31.6432 75.7417 33.007 73.3209 35.3413 72.669C37.6881 72.0136 40.1195 73.3956 40.7571 75.7474L43.339 85.2718L46.4753 92.8171C46.533 92.9558 46.5839 93.0965 46.6281 93.2386C47.7453 95.3944 48.3781 97.8528 48.3781 100.462C48.3781 108.997 41.6089 115.916 33.2587 115.916C29.5853 115.916 26.2179 114.577 23.5982 112.351L6.78841 99.9853C4.81699 98.5351 4.42136 95.7484 5.91121 93.8068C6.55997 92.9613 7.45721 92.4189 8.4218 92.2033L6.82441 90.8629C4.95725 89.2962 4.71371 86.5124 6.28044 84.6453C6.94611 83.852 7.83148 83.3517 8.7729 83.1589L8.28227 82.7473C6.41511 81.1805 6.17157 78.3968 7.7383 76.5296C9.30504 74.6625 12.0888 74.4189 13.9559 75.9857L15.7761 77.5129C14.8607 76.0102 14.9547 74.0307 16.1484 72.6081Z" fill="url(#paint18_linear_350_1084)"/>
<path d="M16.1484 72.6081C17.6455 70.8239 20.3056 70.5912 22.0898 72.0883L33.2347 81.44L32.2952 78.0759C31.6432 75.7417 33.007 73.3209 35.3413 72.669C37.6881 72.0136 40.1195 73.3956 40.7571 75.7474L43.339 85.2718L46.4753 92.8171C46.533 92.9558 46.5839 93.0965 46.6281 93.2386C47.7453 95.3944 48.3781 97.8528 48.3781 100.462C48.3781 108.997 41.6089 115.916 33.2587 115.916C29.5853 115.916 26.2179 114.577 23.5982 112.351L6.78841 99.9853C4.81699 98.5351 4.42136 95.7484 5.91121 93.8068C6.55997 92.9613 7.45721 92.4189 8.4218 92.2033L6.82441 90.8629C4.95725 89.2962 4.71371 86.5124 6.28044 84.6453C6.94611 83.852 7.83148 83.3517 8.7729 83.1589L8.28227 82.7473C6.41511 81.1805 6.17157 78.3968 7.7383 76.5296C9.30504 74.6625 12.0888 74.4189 13.9559 75.9857L15.7761 77.5129C14.8607 76.0102 14.9547 74.0307 16.1484 72.6081Z" fill="url(#paint19_radial_350_1084)"/>
</g>
<path d="M12.1337 92.8629C10.1917 91.4583 7.48461 91.8538 6.02556 93.7552V93.7552C4.51461 95.7243 4.91695 98.5506 6.91736 100.02L8.92575 101.495C11.5077 103.391 15.0577 103.251 17.4817 101.156L20.2697 98.7476L12.1337 92.8629Z" fill="url(#paint20_linear_350_1084)"/>
<path d="M23.8857 94.3945C23.0654 94.8632 20.2155 95.9449 19.5498 96.7382C17.9831 98.6054 17.1099 99.1345 15.2427 97.5678L7.25159 90.8624C5.38443 89.2957 5.14088 86.5119 6.70762 84.6448V84.6448C8.31059 82.7344 10.417 82.7085 12.3006 84.3428L23.8857 94.3945Z" fill="url(#paint21_linear_350_1084)"/>
<path d="M28.4563 89.18C27.0501 89.9417 26.1125 90.8206 24.6477 92.0511C23.081 93.9182 22.1202 94.7433 20.253 93.1765L8.35805 82.7471C6.49089 81.1804 6.24733 78.3966 7.81409 76.5295C9.38081 74.6623 12.1645 74.4188 14.0317 75.9855L15.8519 77.5128C16.0845 77.8948 16.3824 78.2459 16.744 78.5493L28.4563 89.18Z" fill="url(#paint22_linear_350_1084)"/>
<path d="M21.9573 71.9125C20.2881 70.5123 17.7999 70.7302 16.3994 72.3992V72.3992C14.8694 74.2226 15.2903 76.9754 17.2952 78.2584L35.3705 89.8245L33.3074 81.4337L21.9573 71.9125Z" fill="url(#paint23_radial_350_1084)"/>
<g filter="url(#filter3_f_350_1084)">
<path d="M20.2703 74.5164L31.7546 84.4773" stroke="url(#paint24_linear_350_1084)" stroke-width="3.78125" stroke-linecap="round"/>
</g>
<g filter="url(#filter4_f_350_1084)">
<path d="M11.8768 78.2661L23.3612 88.2271" stroke="url(#paint25_linear_350_1084)" stroke-width="3.78125" stroke-linecap="round"/>
</g>
<g filter="url(#filter5_f_350_1084)">
<path d="M9.94336 85.8831L21.4277 95.844" stroke="url(#paint26_linear_350_1084)" stroke-width="3.78125" stroke-linecap="round"/>
</g>
<g filter="url(#filter6_f_350_1084)">
<path d="M9.94336 94.6873L18.4956 100.957" stroke="url(#paint27_linear_350_1084)" stroke-width="3.78125" stroke-linecap="round"/>
</g>
<g filter="url(#filter7_i_350_1084)">
<path d="M105.51 72.6486C104.013 70.8644 101.353 70.6317 99.5684 72.1288L88.4235 81.4805L89.3631 78.1165C90.015 75.7822 88.6512 73.3615 86.3169 72.7095C83.9701 72.0541 81.5387 73.4362 80.9011 75.7879L78.3192 85.3123L75.1829 92.8576C75.1252 92.9964 75.0743 93.137 75.0301 93.2791C73.9129 95.4349 73.2802 97.8933 73.2802 100.503C73.2802 109.038 80.0493 115.957 88.3995 115.957C92.0729 115.957 95.4403 114.618 98.06 112.391L114.87 100.026C116.841 98.5756 117.237 95.789 115.747 93.8474C115.098 93.0019 114.201 92.4594 113.236 92.2438L114.834 90.9034C116.701 89.3367 116.944 86.553 115.378 84.6858C114.712 83.8925 113.827 83.3923 112.885 83.1995L113.376 82.7878C115.243 81.2211 115.487 78.4373 113.92 76.5702C112.353 74.703 109.569 74.4595 107.702 76.0262L105.882 77.5535C106.798 76.0507 106.704 74.0713 105.51 72.6486Z" fill="url(#paint28_radial_350_1084)"/>
<path d="M105.51 72.6486C104.013 70.8644 101.353 70.6317 99.5684 72.1288L88.4235 81.4805L89.3631 78.1165C90.015 75.7822 88.6512 73.3615 86.3169 72.7095C83.9701 72.0541 81.5387 73.4362 80.9011 75.7879L78.3192 85.3123L75.1829 92.8576C75.1252 92.9964 75.0743 93.137 75.0301 93.2791C73.9129 95.4349 73.2802 97.8933 73.2802 100.503C73.2802 109.038 80.0493 115.957 88.3995 115.957C92.0729 115.957 95.4403 114.618 98.06 112.391L114.87 100.026C116.841 98.5756 117.237 95.789 115.747 93.8474C115.098 93.0019 114.201 92.4594 113.236 92.2438L114.834 90.9034C116.701 89.3367 116.944 86.553 115.378 84.6858C114.712 83.8925 113.827 83.3923 112.885 83.1995L113.376 82.7878C115.243 81.2211 115.487 78.4373 113.92 76.5702C112.353 74.703 109.569 74.4595 107.702 76.0262L105.882 77.5535C106.798 76.0507 106.704 74.0713 105.51 72.6486Z" fill="url(#paint29_linear_350_1084)"/>
<path d="M105.51 72.6486C104.013 70.8644 101.353 70.6317 99.5684 72.1288L88.4235 81.4805L89.3631 78.1165C90.015 75.7822 88.6512 73.3615 86.3169 72.7095C83.9701 72.0541 81.5387 73.4362 80.9011 75.7879L78.3192 85.3123L75.1829 92.8576C75.1252 92.9964 75.0743 93.137 75.0301 93.2791C73.9129 95.4349 73.2802 97.8933 73.2802 100.503C73.2802 109.038 80.0493 115.957 88.3995 115.957C92.0729 115.957 95.4403 114.618 98.06 112.391L114.87 100.026C116.841 98.5756 117.237 95.789 115.747 93.8474C115.098 93.0019 114.201 92.4594 113.236 92.2438L114.834 90.9034C116.701 89.3367 116.944 86.553 115.378 84.6858C114.712 83.8925 113.827 83.3923 112.885 83.1995L113.376 82.7878C115.243 81.2211 115.487 78.4373 113.92 76.5702C112.353 74.703 109.569 74.4595 107.702 76.0262L105.882 77.5535C106.798 76.0507 106.704 74.0713 105.51 72.6486Z" fill="url(#paint30_linear_350_1084)"/>
<path d="M105.51 72.6486C104.013 70.8644 101.353 70.6317 99.5684 72.1288L88.4235 81.4805L89.3631 78.1165C90.015 75.7822 88.6512 73.3615 86.3169 72.7095C83.9701 72.0541 81.5387 73.4362 80.9011 75.7879L78.3192 85.3123L75.1829 92.8576C75.1252 92.9964 75.0743 93.137 75.0301 93.2791C73.9129 95.4349 73.2802 97.8933 73.2802 100.503C73.2802 109.038 80.0493 115.957 88.3995 115.957C92.0729 115.957 95.4403 114.618 98.06 112.391L114.87 100.026C116.841 98.5756 117.237 95.789 115.747 93.8474C115.098 93.0019 114.201 92.4594 113.236 92.2438L114.834 90.9034C116.701 89.3367 116.944 86.553 115.378 84.6858C114.712 83.8925 113.827 83.3923 112.885 83.1995L113.376 82.7878C115.243 81.2211 115.487 78.4373 113.92 76.5702C112.353 74.703 109.569 74.4595 107.702 76.0262L105.882 77.5535C106.798 76.0507 106.704 74.0713 105.51 72.6486Z" fill="url(#paint31_radial_350_1084)"/>
</g>
<path d="M109.533 92.8572C111.47 91.4558 114.171 91.8503 115.627 93.7475V93.7475C117.139 95.7182 116.73 98.5479 114.722 100.009L112.36 101.728C108.813 104.309 103.805 103.182 101.706 99.329L101.389 98.7476L109.533 92.8572Z" fill="url(#paint32_linear_350_1084)"/>
<path d="M98.6407 93.8186C97.4292 94.8632 98.4335 96.7744 99.0991 97.5678C100.666 99.4349 104.548 99.1345 106.415 97.5678L114.407 90.8624C116.274 89.2957 116.838 86.4911 115.271 84.624V84.624C113.589 82.6195 111.191 82.7668 109.227 84.4961L98.6407 93.8186Z" fill="url(#paint33_linear_350_1084)"/>
<path d="M95.1877 87.0432C93.3063 88.6531 93.9311 91.1351 95.1877 92.6326C96.7544 94.4997 99.5381 94.7433 101.405 93.1765L113.3 82.7471C115.167 81.1804 115.411 78.3966 113.844 76.5295C112.277 74.6623 109.494 74.4188 107.627 75.9855L105.806 77.5128C105.574 77.8948 105.276 78.2459 104.914 78.5493L95.1877 87.0432Z" fill="url(#paint34_linear_350_1084)"/>
<path d="M99.4612 72.1141C101.263 70.6025 103.949 70.8377 105.461 72.6394V72.6394C106.952 74.4163 106.747 77.0596 105 78.5852L96.803 85.742C93.3318 88.7728 87.9379 86.0233 88.3513 81.4337V81.4337L99.4612 72.1141Z" fill="url(#paint35_linear_350_1084)"/>
<g filter="url(#filter8_f_350_1084)">
<ellipse cx="86.3394" cy="75.8079" rx="2.78928" ry="2.49539" transform="rotate(33.9797 86.3394 75.8079)" fill="url(#paint36_radial_350_1084)"/>
</g>
<g filter="url(#filter9_f_350_1084)">
<ellipse cx="103.075" cy="74.8903" rx="2.99216" ry="2.87608" transform="rotate(64.9239 103.075 74.8903)" fill="url(#paint37_radial_350_1084)"/>
</g>
<g filter="url(#filter10_f_350_1084)">
<ellipse cx="112.209" cy="79.1274" rx="2.99216" ry="2.36589" transform="rotate(64.9239 112.209 79.1274)" fill="url(#paint38_radial_350_1084)"/>
</g>
<g filter="url(#filter11_f_350_1084)">
<ellipse cx="113.593" cy="87.2724" rx="2.99216" ry="2.36589" transform="rotate(64.9239 113.593 87.2724)" fill="url(#paint39_radial_350_1084)"/>
</g>
<g filter="url(#filter12_f_350_1084)">
<ellipse cx="114.002" cy="96.3581" rx="2.99216" ry="2.36589" transform="rotate(64.9239 114.002 96.3581)" fill="url(#paint40_radial_350_1084)"/>
</g>
<g filter="url(#filter13_f_350_1084)">
<path d="M87.4095 86.7185C94.0892 89.531 99.597 96.4451 99.597 103.359" stroke="#FFEA6E" stroke-opacity="0.6" stroke-width="3.78125" stroke-linecap="round"/>
</g>
<defs>
<filter id="filter0_f_350_1084" x="66.1428" y="29.4778" width="27.7511" height="20.2563" filterUnits="userSpaceOnUse" color-interpolation-filters="sRGB">
<feFlood flood-opacity="0" result="BackgroundImageFix"/>
<feBlend mode="normal" in="SourceGraphic" in2="BackgroundImageFix" result="shape"/>
<feGaussianBlur stdDeviation="0.945313" result="effect1_foregroundBlur_350_1084"/>
</filter>
<filter id="filter1_f_350_1084" x="26.2988" y="29.4778" width="27.7511" height="20.2563" filterUnits="userSpaceOnUse" color-interpolation-filters="sRGB">
<feFlood flood-opacity="0" result="BackgroundImageFix"/>
<feBlend mode="normal" in="SourceGraphic" in2="BackgroundImageFix" result="shape"/>
<feGaussianBlur stdDeviation="0.945313" result="effect1_foregroundBlur_350_1084"/>
</filter>
<filter id="filter2_i_350_1084" x="5.00818" y="63.5391" width="50.9324" height="52.3772" filterUnits="userSpaceOnUse" color-interpolation-filters="sRGB">
<feFlood flood-opacity="0" result="BackgroundImageFix"/>
<feBlend mode="normal" in="SourceGraphic" in2="BackgroundImageFix" result="shape"/>
<feColorMatrix in="SourceAlpha" type="matrix" values="0 0 0 0 0 0 0 0 0 0 0 0 0 0 0 0 0 0 127 0" result="hardAlpha"/>
<feOffset dx="7.5625" dy="-7.5625"/>
<feGaussianBlur stdDeviation="7.5625"/>
<feComposite in2="hardAlpha" operator="arithmetic" k2="-1" k3="1"/>
<feColorMatrix type="matrix" values="0 0 0 0 0 0 0 0 0 0 0 0 0 0 0 0 0 0 0.08 0"/>
<feBlend mode="normal" in2="shape" result="effect1_innerShadow_350_1084"/>
</filter>
<filter id="filter3_f_350_1084" x="14.5984" y="68.8445" width="22.8281" height="21.3047" filterUnits="userSpaceOnUse" color-interpolation-filters="sRGB">
<feFlood flood-opacity="0" result="BackgroundImageFix"/>
<feBlend mode="normal" in="SourceGraphic" in2="BackgroundImageFix" result="shape"/>
<feGaussianBlur stdDeviation="1.89063" result="effect1_foregroundBlur_350_1084"/>
</filter>
<filter id="filter4_f_350_1084" x="6.20496" y="72.5942" width="22.8281" height="21.3047" filterUnits="userSpaceOnUse" color-interpolation-filters="sRGB">
<feFlood flood-opacity="0" result="BackgroundImageFix"/>
<feBlend mode="normal" in="SourceGraphic" in2="BackgroundImageFix" result="shape"/>
<feGaussianBlur stdDeviation="1.89063" result="effect1_foregroundBlur_350_1084"/>
</filter>
<filter id="filter5_f_350_1084" x="4.27148" y="80.2112" width="22.8281" height="21.3047" filterUnits="userSpaceOnUse" color-interpolation-filters="sRGB">
<feFlood flood-opacity="0" result="BackgroundImageFix"/>
<feBlend mode="normal" in="SourceGraphic" in2="BackgroundImageFix" result="shape"/>
<feGaussianBlur stdDeviation="1.89063" result="effect1_foregroundBlur_350_1084"/>
</filter>
<filter id="filter6_f_350_1084" x="4.27136" y="89.0151" width="19.8962" height="17.6133" filterUnits="userSpaceOnUse" color-interpolation-filters="sRGB">
<feFlood flood-opacity="0" result="BackgroundImageFix"/>
<feBlend mode="normal" in="SourceGraphic" in2="BackgroundImageFix" result="shape"/>
<feGaussianBlur stdDeviation="1.89063" result="effect1_foregroundBlur_350_1084"/>
</filter>
<filter id="filter7_i_350_1084" x="73.2802" y="63.5796" width="50.9324" height="52.3772" filterUnits="userSpaceOnUse" color-interpolation-filters="sRGB">
<feFlood flood-opacity="0" result="BackgroundImageFix"/>
<feBlend mode="normal" in="SourceGraphic" in2="BackgroundImageFix" result="shape"/>
<feColorMatrix in="SourceAlpha" type="matrix" values="0 0 0 0 0 0 0 0 0 0 0 0 0 0 0 0 0 0 127 0" result="hardAlpha"/>
<feOffset dx="7.5625" dy="-7.5625"/>
<feGaussianBlur stdDeviation="7.5625"/>
<feComposite in2="hardAlpha" operator="arithmetic" k2="-1" k3="1"/>
<feColorMatrix type="matrix" values="0 0 0 0 0 0 0 0 0 0 0 0 0 0 0 0 0 0 0.08 0"/>
<feBlend mode="normal" in2="shape" result="effect1_innerShadow_350_1084"/>
</filter>
<filter id="filter8_f_350_1084" x="81.7476" y="71.3264" width="9.18384" height="8.96289" filterUnits="userSpaceOnUse" color-interpolation-filters="sRGB">
<feFlood flood-opacity="0" result="BackgroundImageFix"/>
<feBlend mode="normal" in="SourceGraphic" in2="BackgroundImageFix" result="shape"/>
<feGaussianBlur stdDeviation="0.945313" result="effect1_foregroundBlur_350_1084"/>
</filter>
<filter id="filter9_f_350_1084" x="98.2865" y="70.0273" width="9.57703" height="9.72583" filterUnits="userSpaceOnUse" color-interpolation-filters="sRGB">
<feFlood flood-opacity="0" result="BackgroundImageFix"/>
<feBlend mode="normal" in="SourceGraphic" in2="BackgroundImageFix" result="shape"/>
<feGaussianBlur stdDeviation="0.945313" result="effect1_foregroundBlur_350_1084"/>
</filter>
<filter id="filter10_f_350_1084" x="107.828" y="74.3462" width="8.76196" height="9.56226" filterUnits="userSpaceOnUse" color-interpolation-filters="sRGB">
<feFlood flood-opacity="0" result="BackgroundImageFix"/>
<feBlend mode="normal" in="SourceGraphic" in2="BackgroundImageFix" result="shape"/>
<feGaussianBlur stdDeviation="0.945313" result="effect1_foregroundBlur_350_1084"/>
</filter>
<filter id="filter11_f_350_1084" x="109.212" y="82.4912" width="8.76196" height="9.56226" filterUnits="userSpaceOnUse" color-interpolation-filters="sRGB">
<feFlood flood-opacity="0" result="BackgroundImageFix"/>
<feBlend mode="normal" in="SourceGraphic" in2="BackgroundImageFix" result="shape"/>
<feGaussianBlur stdDeviation="0.945313" result="effect1_foregroundBlur_350_1084"/>
</filter>
<filter id="filter12_f_350_1084" x="109.621" y="91.5769" width="8.76196" height="9.56226" filterUnits="userSpaceOnUse" color-interpolation-filters="sRGB">
<feFlood flood-opacity="0" result="BackgroundImageFix"/>
<feBlend mode="normal" in="SourceGraphic" in2="BackgroundImageFix" result="shape"/>
<feGaussianBlur stdDeviation="0.945313" result="effect1_foregroundBlur_350_1084"/>
</filter>
<filter id="filter13_f_350_1084" x="79.8466" y="79.1555" width="27.313" height="31.7661" filterUnits="userSpaceOnUse" color-interpolation-filters="sRGB">
<feFlood flood-opacity="0" result="BackgroundImageFix"/>
<feBlend mode="normal" in="SourceGraphic" in2="BackgroundImageFix" result="shape"/>
<feGaussianBlur stdDeviation="2.83594" result="effect1_foregroundBlur_350_1084"/>
</filter>
<radialGradient id="paint0_radial_350_1084" cx="0" cy="0" r="1" gradientUnits="userSpaceOnUse" gradientTransform="translate(96.4252 33.7498) rotate(132.839) scale(140.637)">
<stop stop-color="#FFF478"/>
<stop offset="0.474827" stop-color="#FFB02E"/>
<stop offset="1" stop-color="#F70A8D"/>
</radialGradient>
<radialGradient id="paint1_radial_350_1084" cx="0" cy="0" r="1" gradientUnits="userSpaceOnUse" gradientTransform="translate(96.4252 33.7498) rotate(131.878) scale(146.058)">
<stop stop-color="#FFF478"/>
<stop offset="0.474827" stop-color="#FFB02E"/>
<stop offset="1" stop-color="#F70A8D"/>
</radialGradient>
<radialGradient id="paint2_radial_350_1084" cx="0" cy="0" r="1" gradientUnits="userSpaceOnUse" gradientTransform="translate(60.8002 46.8748) rotate(101.31) scale(66.9246 85.7177)">
<stop offset="0.787821" stop-color="#F59639" stop-opacity="0"/>
<stop offset="0.972509" stop-color="#FF7DCE"/>
</radialGradient>
<radialGradient id="paint3_radial_350_1084" cx="0" cy="0" r="1" gradientUnits="userSpaceOnUse" gradientTransform="translate(68.3002 52.4998) rotate(135) scale(153.796)">
<stop offset="0.314853" stop-opacity="0"/>
<stop offset="1"/>
</radialGradient>
<radialGradient id="paint4_radial_350_1084" cx="0" cy="0" r="1" gradientUnits="userSpaceOnUse" gradientTransform="translate(60.8002 63.7498) rotate(77.692) scale(105.551)">
<stop offset="0.507903" stop-color="#7D6133" stop-opacity="0"/>
<stop offset="1" stop-color="#715B32"/>
</radialGradient>
<radialGradient id="paint5_radial_350_1084" cx="0" cy="0" r="1" gradientUnits="userSpaceOnUse" gradientTransform="translate(62.6752 61.8748) rotate(55.7131) scale(49.9257 36.1887)">
<stop stop-color="#FFB849"/>
<stop offset="1" stop-color="#FFB847" stop-opacity="0"/>
</radialGradient>
<radialGradient id="paint6_radial_350_1084" cx="0" cy="0" r="1" gradientUnits="userSpaceOnUse" gradientTransform="translate(77.6752 67.4998) rotate(9.86581) scale(43.7723)">
<stop stop-color="#FFA64B"/>
<stop offset="0.900412" stop-color="#FFAE46" stop-opacity="0"/>
</radialGradient>
<radialGradient id="paint7_radial_350_1084" cx="0" cy="0" r="1" gradientUnits="userSpaceOnUse" gradientTransform="translate(66.4252 56.2498) rotate(43.9708) scale(221.449)">
<stop offset="0.185425" stop-opacity="0"/>
<stop offset="1" stop-opacity="0.4"/>
</radialGradient>
<radialGradient id="paint8_radial_350_1084" cx="0" cy="0" r="1" gradientUnits="userSpaceOnUse" gradientTransform="translate(72.9877 -17.1096) rotate(96.1759) scale(126.358)">
<stop offset="0.640625" stop-color="#F59639" stop-opacity="0"/>
<stop offset="1" stop-color="#F68354"/>
</radialGradient>
<radialGradient id="paint9_radial_350_1084" cx="0" cy="0" r="1" gradientUnits="userSpaceOnUse" gradientTransform="translate(98.2919 56.0586) rotate(89.9953) scale(14.7078 14.7078)">
<stop stop-color="#FF63C4" stop-opacity="0.5"/>
<stop offset="1" stop-color="#F59639" stop-opacity="0"/>
</radialGradient>
<radialGradient id="paint10_radial_350_1084" cx="0" cy="0" r="1" gradientUnits="userSpaceOnUse" gradientTransform="translate(23.3002 56.0586) rotate(89.9953) scale(14.7078 14.7078)">
<stop stop-color="#E840A8" stop-opacity="0.5"/>
<stop offset="1" stop-color="#F59639" stop-opacity="0"/>
</radialGradient>
<radialGradient id="paint11_radial_350_1084" cx="0" cy="0" r="1" gradientUnits="userSpaceOnUse" gradientTransform="translate(60.7999 47.2498) rotate(90) scale(27 29.5196)">
<stop offset="0.517632" stop-color="#4E2553"/>
<stop offset="0.702876" stop-color="#5B4852"/>
<stop offset="1" stop-color="#4E2553"/>
<stop offset="1" stop-color="#4E2553"/>
</radialGradient>
<radialGradient id="paint12_radial_350_1084" cx="0" cy="0" r="1" gradientUnits="userSpaceOnUse" gradientTransform="translate(85.175 37.734) rotate(124.912) scale(13.7189 24.6284)">
<stop stop-color="#CA7A1B"/>
<stop offset="0.633527" stop-color="#CA7A1B" stop-opacity="0"/>
</radialGradient>
<radialGradient id="paint13_radial_350_1084" cx="0" cy="0" r="1" gradientUnits="userSpaceOnUse" gradientTransform="translate(45.3311 37.734) rotate(124.912) scale(13.7189 24.6284)">
<stop stop-color="#CA7A1B"/>
<stop offset="0.633527" stop-color="#CA7A1B" stop-opacity="0"/>
</radialGradient>
<radialGradient id="paint14_radial_350_1084" cx="0" cy="0" r="1" gradientUnits="userSpaceOnUse" gradientTransform="translate(40.1748 41.9529) rotate(-91.3479) scale(29.8911 36.8537)">
<stop offset="0.166667" stop-color="#482641"/>
<stop offset="0.276042" stop-color="#503A4A"/>
<stop offset="0.401042" stop-color="#483637"/>
</radialGradient>
<radialGradient id="paint15_radial_350_1084" cx="0" cy="0" r="1" gradientUnits="userSpaceOnUse" gradientTransform="translate(81.425 41.9529) rotate(-91.3479) scale(29.8911 36.8537)">
<stop offset="0.166667" stop-color="#482641"/>
<stop offset="0.276042" stop-color="#503A4A"/>
<stop offset="0.401042" stop-color="#483637"/>
</radialGradient>
<radialGradient id="paint16_radial_350_1084" cx="0" cy="0" r="1" gradientUnits="userSpaceOnUse" gradientTransform="translate(-1.9146 68.8233) rotate(42.3946) scale(104.363 104.05)">
<stop offset="0.25" stop-color="#F9AF20"/>
<stop offset="0.640625" stop-color="#FFC83C"/>
</radialGradient>
<linearGradient id="paint17_linear_350_1084" x1="59.6281" y1="87.4223" x2="32.54" y2="98.9069" gradientUnits="userSpaceOnUse">
<stop offset="0.328125" stop-color="#FFF478"/>
<stop offset="0.723958" stop-color="#FFF478" stop-opacity="0"/>
</linearGradient>
<linearGradient id="paint18_linear_350_1084" x1="63.8682" y1="40.3502" x2="11.9947" y2="117.751" gradientUnits="userSpaceOnUse">
<stop offset="0.84375" stop-color="#FF63C4" stop-opacity="0"/>
<stop offset="0.941307" stop-color="#FF63C4"/>
</linearGradient>
<radialGradient id="paint19_radial_350_1084" cx="0" cy="0" r="1" gradientUnits="userSpaceOnUse" gradientTransform="translate(20.0688 64.9223) rotate(67.2716) scale(61.8751 48.0231)">
<stop offset="0.776042" stop-color="#FD61C2" stop-opacity="0"/>
<stop offset="0.941307" stop-color="#FF63C4"/>
</radialGradient>
<linearGradient id="paint20_linear_350_1084" x1="12.6941" y1="90.5857" x2="10.6234" y2="93.7441" gradientUnits="userSpaceOnUse">
<stop offset="0.385833" stop-color="#83480A"/>
<stop offset="0.545035" stop-color="#CD7313"/>
<stop offset="1" stop-color="#FA9428" stop-opacity="0"/>
</linearGradient>
<linearGradient id="paint21_linear_350_1084" x1="18.8467" y1="86.1913" x2="15.9021" y2="89.8336" gradientUnits="userSpaceOnUse">
<stop offset="0.385833" stop-color="#83480A"/>
<stop offset="0.545035" stop-color="#CD7313"/>
<stop offset="1" stop-color="#FA9428" stop-opacity="0"/>
</linearGradient>
<linearGradient id="paint22_linear_350_1084" x1="23.5344" y1="79.805" x2="20.0443" y2="83.6738" gradientUnits="userSpaceOnUse">
<stop offset="0.385833" stop-color="#83480A"/>
<stop offset="0.545035" stop-color="#CD7313"/>
<stop offset="1" stop-color="#FA9428" stop-opacity="0"/>
</linearGradient>
<radialGradient id="paint23_radial_350_1084" cx="0" cy="0" r="1" gradientUnits="userSpaceOnUse" gradientTransform="translate(36.5424 74.8831) rotate(152.835) scale(10.0104 24.8675)">
<stop offset="0.385833" stop-color="#83480A"/>
<stop offset="0.545035" stop-color="#CD7313"/>
<stop offset="1" stop-color="#FA9428" stop-opacity="0"/>
</radialGradient>
<linearGradient id="paint24_linear_350_1084" x1="15.4656" y1="74.5164" x2="27.752" y2="93.8607" gradientUnits="userSpaceOnUse">
<stop offset="0.328125" stop-color="#FFF478" stop-opacity="0.5"/>
<stop offset="0.723958" stop-color="#FFF478" stop-opacity="0"/>
</linearGradient>
<linearGradient id="paint25_linear_350_1084" x1="7.07214" y1="78.2661" x2="19.3586" y2="97.6105" gradientUnits="userSpaceOnUse">
<stop offset="0.328125" stop-color="#FFF478" stop-opacity="0.5"/>
<stop offset="0.723958" stop-color="#FFF478" stop-opacity="0"/>
</linearGradient>
<linearGradient id="paint26_linear_350_1084" x1="5.13867" y1="85.8831" x2="17.4251" y2="105.227" gradientUnits="userSpaceOnUse">
<stop offset="0.328125" stop-color="#FFF478" stop-opacity="0.5"/>
<stop offset="0.723958" stop-color="#FFF478" stop-opacity="0"/>
</linearGradient>
<linearGradient id="paint27_linear_350_1084" x1="5.13867" y1="94.6873" x2="17.4251" y2="114.032" gradientUnits="userSpaceOnUse">
<stop offset="0.328125" stop-color="#FFF478" stop-opacity="0.5"/>
<stop offset="0.723958" stop-color="#FFF478" stop-opacity="0"/>
</linearGradient>
<radialGradient id="paint28_radial_350_1084" cx="0" cy="0" r="1" gradientUnits="userSpaceOnUse" gradientTransform="translate(123.573 68.8638) rotate(137.605) scale(104.363 104.05)">
<stop offset="0.230303" stop-color="#F9AF20"/>
<stop offset="0.538057" stop-color="#FFD362"/>
<stop offset="0.82425" stop-color="#F9AF20"/>
</radialGradient>
<linearGradient id="paint29_linear_350_1084" x1="65.7216" y1="91.1717" x2="87.5184" y2="93.5495" gradientUnits="userSpaceOnUse">
<stop offset="0.213542" stop-color="#CC6C07"/>
<stop offset="0.328125" stop-color="#EE891E"/>
<stop offset="0.864583" stop-color="#FA9428" stop-opacity="0"/>
</linearGradient>
<linearGradient id="paint30_linear_350_1084" x1="57.7901" y1="40.3907" x2="109.664" y2="117.792" gradientUnits="userSpaceOnUse">
<stop offset="0.84375" stop-color="#FF63C4" stop-opacity="0"/>
<stop offset="0.941307" stop-color="#FF63C4"/>
</linearGradient>
<radialGradient id="paint31_radial_350_1084" cx="0" cy="0" r="1" gradientUnits="userSpaceOnUse" gradientTransform="translate(101.589 64.9629) rotate(112.728) scale(61.8751 48.0231)">
<stop offset="0.776042" stop-color="#FD61C2" stop-opacity="0"/>
<stop offset="0.941307" stop-color="#FF63C4"/>
</radialGradient>
<linearGradient id="paint32_linear_350_1084" x1="109.338" y1="90.0181" x2="111.362" y2="93.1283" gradientUnits="userSpaceOnUse">
<stop offset="0.385833" stop-color="#83480A"/>
<stop offset="0.545035" stop-color="#CD7313"/>
<stop offset="1" stop-color="#FA9428" stop-opacity="0"/>
</linearGradient>
<linearGradient id="paint33_linear_350_1084" x1="102.117" y1="85.4296" x2="105.687" y2="89.4021" gradientUnits="userSpaceOnUse">
<stop offset="0.385833" stop-color="#83480A"/>
<stop offset="0.545035" stop-color="#CD7313"/>
<stop offset="1" stop-color="#FA9428" stop-opacity="0"/>
</linearGradient>
<linearGradient id="paint34_linear_350_1084" x1="98.2671" y1="78.7316" x2="101.962" y2="83.1736" gradientUnits="userSpaceOnUse">
<stop offset="0.385833" stop-color="#83480A"/>
<stop offset="0.545035" stop-color="#CD7313"/>
<stop offset="1" stop-color="#FA9428" stop-opacity="0"/>
</linearGradient>
<linearGradient id="paint35_linear_350_1084" x1="98.7517" y1="69.6856" x2="101.904" y2="73.5239" gradientUnits="userSpaceOnUse">
<stop offset="0.328125" stop-color="#EE891E"/>
<stop offset="0.864583" stop-color="#FA9428" stop-opacity="0"/>
</linearGradient>
<radialGradient id="paint36_radial_350_1084" cx="0" cy="0" r="1" gradientUnits="userSpaceOnUse" gradientTransform="translate(86.3394 75.8079) rotate(118.681) scale(3.11016 3.41928)">
<stop offset="0.328125" stop-color="#FAF194" stop-opacity="0.2"/>
<stop offset="0.723958" stop-color="#FFF478" stop-opacity="0"/>
</radialGradient>
<radialGradient id="paint37_radial_350_1084" cx="0" cy="0" r="1" gradientUnits="userSpaceOnUse" gradientTransform="translate(103.075 74.8903) rotate(116.983) scale(3.52901 3.72581)">
<stop offset="0.328125" stop-color="#FAF194" stop-opacity="0.4"/>
<stop offset="0.723958" stop-color="#FFF478" stop-opacity="0"/>
</radialGradient>
<radialGradient id="paint38_radial_350_1084" cx="0" cy="0" r="1" gradientUnits="userSpaceOnUse" gradientTransform="translate(112.209 79.1274) rotate(121.756) scale(3.04242 3.55507)">
<stop offset="0.390625" stop-color="#FAF194" stop-opacity="0.3"/>
<stop offset="0.8125" stop-color="#FFF478" stop-opacity="0"/>
</radialGradient>
<radialGradient id="paint39_radial_350_1084" cx="0" cy="0" r="1" gradientUnits="userSpaceOnUse" gradientTransform="translate(113.593 87.2724) rotate(121.756) scale(3.04242 3.55507)">
<stop offset="0.328125" stop-color="#FAF194" stop-opacity="0.3"/>
<stop offset="0.723958" stop-color="#FFF478" stop-opacity="0"/>
</radialGradient>
<radialGradient id="paint40_radial_350_1084" cx="0" cy="0" r="1" gradientUnits="userSpaceOnUse" gradientTransform="translate(114.002 96.3581) rotate(121.756) scale(3.04242 3.55507)">
<stop offset="0.328125" stop-color="#FAF194" stop-opacity="0.3"/>
<stop offset="0.723958" stop-color="#FFF478" stop-opacity="0"/>
</radialGradient>
</defs>
</svg>
