<svg width="121" height="120" viewBox="0 0 121 120" fill="none" xmlns="http://www.w3.org/2000/svg">
<g clip-path="url(#clip0_243_10169)">
<path d="M60.195 112.491C95.1992 112.491 112.691 88.9875 112.691 59.9948C112.691 31.0022 95.1992 7.49902 60.195 7.49902C25.1908 7.49902 7.69922 31.0022 7.69922 59.9948C7.69922 88.9875 25.1908 112.491 60.195 112.491Z" fill="url(#paint0_radial_243_10169)"/>
<path d="M60.195 112.491C95.1992 112.491 112.691 88.9875 112.691 59.9948C112.691 31.0022 95.1992 7.49902 60.195 7.49902C25.1908 7.49902 7.69922 31.0022 7.69922 59.9948C7.69922 88.9875 25.1908 112.491 60.195 112.491Z" fill="url(#paint1_radial_243_10169)"/>
<path d="M60.195 112.491C95.1992 112.491 112.691 88.9875 112.691 59.9948C112.691 31.0022 95.1992 7.49902 60.195 7.49902C25.1908 7.49902 7.69922 31.0022 7.69922 59.9948C7.69922 88.9875 25.1908 112.491 60.195 112.491Z" fill="url(#paint2_radial_243_10169)"/>
<path d="M60.195 112.491C95.1992 112.491 112.691 88.9875 112.691 59.9948C112.691 31.0022 95.1992 7.49902 60.195 7.49902C25.1908 7.49902 7.69922 31.0022 7.69922 59.9948C7.69922 88.9875 25.1908 112.491 60.195 112.491Z" fill="url(#paint3_radial_243_10169)" fill-opacity="0.6"/>
<path d="M60.195 112.491C95.1992 112.491 112.691 88.9875 112.691 59.9948C112.691 31.0022 95.1992 7.49902 60.195 7.49902C25.1908 7.49902 7.69922 31.0022 7.69922 59.9948C7.69922 88.9875 25.1908 112.491 60.195 112.491Z" fill="url(#paint4_radial_243_10169)"/>
<path d="M60.195 112.491C95.1992 112.491 112.691 88.9875 112.691 59.9948C112.691 31.0022 95.1992 7.49902 60.195 7.49902C25.1908 7.49902 7.69922 31.0022 7.69922 59.9948C7.69922 88.9875 25.1908 112.491 60.195 112.491Z" fill="url(#paint5_radial_243_10169)"/>
<path d="M60.195 112.491C95.1992 112.491 112.691 88.9875 112.691 59.9948C112.691 31.0022 95.1992 7.49902 60.195 7.49902C25.1908 7.49902 7.69922 31.0022 7.69922 59.9948C7.69922 88.9875 25.1908 112.491 60.195 112.491Z" fill="url(#paint6_radial_243_10169)"/>
<path d="M60.195 112.491C95.1992 112.491 112.691 88.9875 112.691 59.9948C112.691 31.0022 95.1992 7.49902 60.195 7.49902C25.1908 7.49902 7.69922 31.0022 7.69922 59.9948C7.69922 88.9875 25.1908 112.491 60.195 112.491Z" fill="url(#paint7_radial_243_10169)"/>
<g filter="url(#filter0_f_243_10169)">
<path d="M95.8242 67.5005L71.4492 46.8755L93.9492 41.2505L95.8242 67.5005Z" fill="url(#paint8_linear_243_10169)"/>
</g>
<g filter="url(#filter1_f_243_10169)">
<path d="M50.8252 54.375L26.4502 52.5L43.3252 37.5L50.8252 54.375Z" fill="url(#paint9_linear_243_10169)"/>
</g>
<g filter="url(#filter2_f_243_10169)">
<path d="M62.0747 22.4995H69.5747C75.5747 28.4995 74.5747 39.9995 73.3247 44.9995L62.0747 48.7495L67.6997 35.6245L62.0747 22.4995Z" fill="url(#paint10_radial_243_10169)"/>
</g>
<g filter="url(#filter3_f_243_10169)">
<path d="M11.4497 30.0005H18.9497C24.9497 36.0005 23.9497 47.5005 22.6997 52.5005L11.4497 60.0005L17.0747 43.1255L11.4497 30.0005Z" fill="url(#paint11_radial_243_10169)"/>
</g>
<path d="M31.6974 48.5938L21.6551 56.4046C21.167 56.7842 20.4611 56.3984 20.5171 55.7826L21.4433 45.594C21.8233 41.4141 19.702 37.4035 16.0331 35.3652L11.0213 32.5809C9.2861 31.6169 9.44748 29.0706 11.2905 28.3334L18.3979 25.4905C21.7248 24.1597 24.1545 21.2388 24.8572 17.7252L26.1177 11.4229C26.4931 9.54555 28.9127 8.99673 30.0614 10.5283L33.6026 15.2499C35.8091 18.192 39.3826 19.7806 43.0451 19.4476L54.2096 18.4327C54.8195 18.3772 55.2065 19.0708 54.8391 19.5608L49.3112 26.9312C47.091 29.8915 46.5747 33.7952 47.949 37.231L52.6741 49.0437L40.2866 46.5662C37.2649 45.9619 34.1298 46.702 31.6974 48.5938Z" fill="url(#paint12_linear_243_10169)" stroke="url(#paint13_linear_243_10169)" stroke-width="2.35625"/>
<path d="M88.7034 48.5938L98.7458 56.4046C99.2339 56.7842 99.9398 56.3984 99.8838 55.7826L98.9575 45.594C98.5775 41.4141 100.699 37.4035 104.368 35.3652L109.38 32.5809C111.115 31.6169 110.953 29.0706 109.11 28.3334L102.003 25.4905C98.6761 24.1597 96.2464 21.2388 95.5437 17.7252L94.2832 11.4229C93.9078 9.54555 91.4882 8.99673 90.3395 10.5283L86.7983 15.2499C84.5917 18.192 81.0183 19.7806 77.3558 19.4476L66.1913 18.4327C65.5814 18.3772 65.1943 19.0708 65.5618 19.5608L71.0896 26.9312C73.3099 29.8915 73.8262 33.7952 72.4519 37.231L67.7268 49.0437L80.1143 46.5662C83.136 45.9619 86.2711 46.702 88.7034 48.5938Z" fill="url(#paint14_linear_243_10169)" stroke="url(#paint15_linear_243_10169)" stroke-width="2.35625"/>
<path d="M60.2002 97.5C26.4502 97.5 26.4502 63.75 26.4502 63.75H93.9502C93.9502 63.75 93.9502 97.5 60.2002 97.5Z" fill="url(#paint16_radial_243_10169)"/>
<path d="M30.2007 64.6625V63.75H90.2007V64.6625C90.2007 67.2651 88.0908 69.375 85.4882 69.375H34.9132C32.3105 69.375 30.2007 67.2651 30.2007 64.6625Z" fill="url(#paint17_linear_243_10169)"/>
</g>
<defs>
<filter id="filter0_f_243_10169" x="66.7367" y="36.538" width="33.8" height="35.675" filterUnits="userSpaceOnUse" color-interpolation-filters="sRGB">
<feFlood flood-opacity="0" result="BackgroundImageFix"/>
<feBlend mode="normal" in="SourceGraphic" in2="BackgroundImageFix" result="shape"/>
<feGaussianBlur stdDeviation="2.35625" result="effect1_foregroundBlur_243_10169"/>
</filter>
<filter id="filter1_f_243_10169" x="21.7377" y="32.7875" width="33.8" height="26.3" filterUnits="userSpaceOnUse" color-interpolation-filters="sRGB">
<feFlood flood-opacity="0" result="BackgroundImageFix"/>
<feBlend mode="normal" in="SourceGraphic" in2="BackgroundImageFix" result="shape"/>
<feGaussianBlur stdDeviation="2.35625" result="effect1_foregroundBlur_243_10169"/>
</filter>
<filter id="filter2_f_243_10169" x="57.3622" y="17.787" width="21.6232" height="35.675" filterUnits="userSpaceOnUse" color-interpolation-filters="sRGB">
<feFlood flood-opacity="0" result="BackgroundImageFix"/>
<feBlend mode="normal" in="SourceGraphic" in2="BackgroundImageFix" result="shape"/>
<feGaussianBlur stdDeviation="2.35625" result="effect1_foregroundBlur_243_10169"/>
</filter>
<filter id="filter3_f_243_10169" x="6.73721" y="25.288" width="21.6232" height="39.425" filterUnits="userSpaceOnUse" color-interpolation-filters="sRGB">
<feFlood flood-opacity="0" result="BackgroundImageFix"/>
<feBlend mode="normal" in="SourceGraphic" in2="BackgroundImageFix" result="shape"/>
<feGaussianBlur stdDeviation="2.35625" result="effect1_foregroundBlur_243_10169"/>
</filter>
<radialGradient id="paint0_radial_243_10169" cx="0" cy="0" r="1" gradientUnits="userSpaceOnUse" gradientTransform="translate(95.8242 33.749) rotate(132.839) scale(140.637)">
<stop stop-color="#FFF478"/>
<stop offset="0.474827" stop-color="#FFB02E"/>
<stop offset="1" stop-color="#F70A8D"/>
</radialGradient>
<radialGradient id="paint1_radial_243_10169" cx="0" cy="0" r="1" gradientUnits="userSpaceOnUse" gradientTransform="translate(95.8242 33.749) rotate(131.878) scale(146.058)">
<stop stop-color="#FFF478"/>
<stop offset="0.474827" stop-color="#FFB02E"/>
<stop offset="1" stop-color="#F70A8D"/>
</radialGradient>
<radialGradient id="paint2_radial_243_10169" cx="0" cy="0" r="1" gradientUnits="userSpaceOnUse" gradientTransform="translate(60.1992 46.874) rotate(101.31) scale(66.9246 85.7177)">
<stop offset="0.787821" stop-color="#F59639" stop-opacity="0"/>
<stop offset="0.972509" stop-color="#FF7DCE"/>
</radialGradient>
<radialGradient id="paint3_radial_243_10169" cx="0" cy="0" r="1" gradientUnits="userSpaceOnUse" gradientTransform="translate(67.6992 52.499) rotate(135) scale(153.796)">
<stop offset="0.314853" stop-opacity="0"/>
<stop offset="1"/>
</radialGradient>
<radialGradient id="paint4_radial_243_10169" cx="0" cy="0" r="1" gradientUnits="userSpaceOnUse" gradientTransform="translate(60.1992 63.749) rotate(77.692) scale(105.551)">
<stop offset="0.507903" stop-color="#7D6133" stop-opacity="0"/>
<stop offset="1" stop-color="#715B32"/>
</radialGradient>
<radialGradient id="paint5_radial_243_10169" cx="0" cy="0" r="1" gradientUnits="userSpaceOnUse" gradientTransform="translate(62.0742 61.874) rotate(55.7131) scale(49.9257 36.1887)">
<stop stop-color="#FFB849"/>
<stop offset="1" stop-color="#FFB847" stop-opacity="0"/>
</radialGradient>
<radialGradient id="paint6_radial_243_10169" cx="0" cy="0" r="1" gradientUnits="userSpaceOnUse" gradientTransform="translate(77.0742 67.499) rotate(9.86581) scale(43.7723)">
<stop stop-color="#FFA64B"/>
<stop offset="0.900412" stop-color="#FFAE46" stop-opacity="0"/>
</radialGradient>
<radialGradient id="paint7_radial_243_10169" cx="0" cy="0" r="1" gradientUnits="userSpaceOnUse" gradientTransform="translate(65.8242 56.249) rotate(43.9708) scale(221.449)">
<stop offset="0.185425" stop-opacity="0"/>
<stop offset="1" stop-opacity="0.4"/>
</radialGradient>
<linearGradient id="paint8_linear_243_10169" x1="88.3242" y1="43.1255" x2="82.0022" y2="55.0025" gradientUnits="userSpaceOnUse">
<stop offset="0.370082" stop-color="#EC812A"/>
<stop offset="1" stop-color="#FBA84C" stop-opacity="0"/>
</linearGradient>
<linearGradient id="paint9_linear_243_10169" x1="39.5752" y1="43.125" x2="38.6392" y2="52.5928" gradientUnits="userSpaceOnUse">
<stop stop-color="#C85F27"/>
<stop offset="1" stop-color="#C85F27" stop-opacity="0"/>
</linearGradient>
<radialGradient id="paint10_radial_243_10169" cx="0" cy="0" r="1" gradientUnits="userSpaceOnUse" gradientTransform="translate(75.1997 37.4995) rotate(146.31) scale(20.2812 20.2812)">
<stop offset="0.116396" stop-color="#EC812A"/>
<stop offset="1" stop-color="#FBA84C" stop-opacity="0"/>
</radialGradient>
<radialGradient id="paint11_radial_243_10169" cx="0" cy="0" r="1" gradientUnits="userSpaceOnUse" gradientTransform="translate(26.4497 48.7505) rotate(158.199) scale(20.1944)">
<stop stop-color="#CC7521"/>
<stop offset="1" stop-color="#E6872B" stop-opacity="0"/>
</radialGradient>
<linearGradient id="paint12_linear_243_10169" x1="28.3257" y1="3.75049" x2="37.7007" y2="56.2505" gradientUnits="userSpaceOnUse">
<stop stop-color="#7912B2"/>
<stop offset="1" stop-color="#CF1DA1"/>
</linearGradient>
<linearGradient id="paint13_linear_243_10169" x1="56.4507" y1="22.5005" x2="32.0757" y2="31.8755" gradientUnits="userSpaceOnUse">
<stop stop-color="#A82D9C"/>
<stop offset="1" stop-color="#BF33B1" stop-opacity="0"/>
</linearGradient>
<linearGradient id="paint14_linear_243_10169" x1="82.7002" y1="9.37549" x2="84.5752" y2="54.3755" gradientUnits="userSpaceOnUse">
<stop stop-color="#7912B2"/>
<stop offset="1" stop-color="#CF1DA1"/>
</linearGradient>
<linearGradient id="paint15_linear_243_10169" x1="110.825" y1="22.5005" x2="88.3252" y2="24.3755" gradientUnits="userSpaceOnUse">
<stop stop-color="#B51AA6"/>
<stop offset="1" stop-color="#BF33B1" stop-opacity="0"/>
</linearGradient>
<radialGradient id="paint16_radial_243_10169" cx="0" cy="0" r="1" gradientUnits="userSpaceOnUse" gradientTransform="translate(60.2002 105) rotate(-90) scale(41.25 82.5)">
<stop stop-color="#F70A8D"/>
<stop offset="1" stop-color="#89029C"/>
</radialGradient>
<linearGradient id="paint17_linear_243_10169" x1="60.2007" y1="63.75" x2="60.2007" y2="69.375" gradientUnits="userSpaceOnUse">
<stop stop-color="#D5A8FE"/>
<stop offset="1" stop-color="white"/>
</linearGradient>
<clipPath id="clip0_243_10169">
<rect width="120" height="120" fill="white" transform="translate(0.200195)"/>
</clipPath>
</defs>
</svg>
