<svg width="121" height="120" viewBox="0 0 121 120" fill="none" xmlns="http://www.w3.org/2000/svg">
<path d="M60.5959 112.492C95.6001 112.492 113.092 88.9884 113.092 59.9958C113.092 31.0032 95.6001 7.5 60.5959 7.5C25.5917 7.5 8.1001 31.0032 8.1001 59.9958C8.1001 88.9884 25.5917 112.492 60.5959 112.492Z" fill="url(#paint0_radial_243_10103)"/>
<path d="M60.5959 112.492C95.6001 112.492 113.092 88.9884 113.092 59.9958C113.092 31.0032 95.6001 7.5 60.5959 7.5C25.5917 7.5 8.1001 31.0032 8.1001 59.9958C8.1001 88.9884 25.5917 112.492 60.5959 112.492Z" fill="url(#paint1_radial_243_10103)"/>
<path d="M60.5959 112.492C95.6001 112.492 113.092 88.9884 113.092 59.9958C113.092 31.0032 95.6001 7.5 60.5959 7.5C25.5917 7.5 8.1001 31.0032 8.1001 59.9958C8.1001 88.9884 25.5917 112.492 60.5959 112.492Z" fill="url(#paint2_radial_243_10103)"/>
<path d="M60.5959 112.492C95.6001 112.492 113.092 88.9884 113.092 59.9958C113.092 31.0032 95.6001 7.5 60.5959 7.5C25.5917 7.5 8.1001 31.0032 8.1001 59.9958C8.1001 88.9884 25.5917 112.492 60.5959 112.492Z" fill="url(#paint3_radial_243_10103)" fill-opacity="0.6"/>
<path d="M60.5959 112.492C95.6001 112.492 113.092 88.9884 113.092 59.9958C113.092 31.0032 95.6001 7.5 60.5959 7.5C25.5917 7.5 8.1001 31.0032 8.1001 59.9958C8.1001 88.9884 25.5917 112.492 60.5959 112.492Z" fill="url(#paint4_radial_243_10103)"/>
<path d="M60.5959 112.492C95.6001 112.492 113.092 88.9884 113.092 59.9958C113.092 31.0032 95.6001 7.5 60.5959 7.5C25.5917 7.5 8.1001 31.0032 8.1001 59.9958C8.1001 88.9884 25.5917 112.492 60.5959 112.492Z" fill="url(#paint5_radial_243_10103)"/>
<path d="M60.5959 112.492C95.6001 112.492 113.092 88.9884 113.092 59.9958C113.092 31.0032 95.6001 7.5 60.5959 7.5C25.5917 7.5 8.1001 31.0032 8.1001 59.9958C8.1001 88.9884 25.5917 112.492 60.5959 112.492Z" fill="url(#paint6_radial_243_10103)"/>
<path d="M60.5959 112.492C95.6001 112.492 113.092 88.9884 113.092 59.9958C113.092 31.0032 95.6001 7.5 60.5959 7.5C25.5917 7.5 8.1001 31.0032 8.1001 59.9958C8.1001 88.9884 25.5917 112.492 60.5959 112.492Z" fill="url(#paint7_radial_243_10103)"/>
<g filter="url(#filter0_f_243_10103)">
<circle cx="34.9359" cy="60.4779" r="20.2713" fill="url(#paint8_radial_243_10103)"/>
</g>
<g filter="url(#filter1_f_243_10103)">
<ellipse rx="20.2713" ry="20.2713" transform="matrix(-1 0 0 1 78.7648 58.3666)" fill="url(#paint9_radial_243_10103)"/>
</g>
<path fill-rule="evenodd" clip-rule="evenodd" d="M37.6452 34.2049C34.5386 31.0984 30.4117 31.0983 27.3051 34.205C22.9117 38.5984 15.7886 38.5984 11.3952 34.2051C7.00176 29.8117 7.00173 22.6886 11.3951 18.2952C23.2885 6.40165 41.6616 6.40165 53.555 18.2949C57.9484 22.6883 57.9485 29.8114 53.5551 34.2048C49.1617 38.5983 42.0386 38.5983 37.6452 34.2049Z" fill="url(#paint10_radial_243_10103)"/>
<path fill-rule="evenodd" clip-rule="evenodd" d="M37.6452 34.2049C34.5386 31.0984 30.4117 31.0983 27.3051 34.205C22.9117 38.5984 15.7886 38.5984 11.3952 34.2051C7.00176 29.8117 7.00173 22.6886 11.3951 18.2952C23.2885 6.40165 41.6616 6.40165 53.555 18.2949C57.9484 22.6883 57.9485 29.8114 53.5551 34.2048C49.1617 38.5983 42.0386 38.5983 37.6452 34.2049Z" fill="url(#paint11_radial_243_10103)"/>
<path fill-rule="evenodd" clip-rule="evenodd" d="M37.6452 34.2049C34.5386 31.0984 30.4117 31.0983 27.3051 34.205C22.9117 38.5984 15.7886 38.5984 11.3952 34.2051C7.00176 29.8117 7.00173 22.6886 11.3951 18.2952C23.2885 6.40165 41.6616 6.40165 53.555 18.2949C57.9484 22.6883 57.9485 29.8114 53.5551 34.2048C49.1617 38.5983 42.0386 38.5983 37.6452 34.2049Z" fill="url(#paint12_radial_243_10103)"/>
<path fill-rule="evenodd" clip-rule="evenodd" d="M83.5555 34.2049C86.6621 31.0984 90.789 31.0983 93.8956 34.205C98.289 38.5984 105.412 38.5984 109.806 34.2051C114.199 29.8117 114.199 22.6886 109.806 18.2952C97.9122 6.40165 79.5391 6.40165 67.6457 18.2949C63.2523 22.6883 63.2522 29.8114 67.6456 34.2048C72.039 38.5983 79.1621 38.5983 83.5555 34.2049Z" fill="url(#paint13_radial_243_10103)"/>
<path fill-rule="evenodd" clip-rule="evenodd" d="M83.5555 34.2049C86.6621 31.0984 90.789 31.0983 93.8956 34.205C98.289 38.5984 105.412 38.5984 109.806 34.2051C114.199 29.8117 114.199 22.6886 109.806 18.2952C97.9122 6.40165 79.5391 6.40165 67.6457 18.2949C63.2523 22.6883 63.2522 29.8114 67.6456 34.2048C72.039 38.5983 79.1621 38.5983 83.5555 34.2049Z" fill="url(#paint14_radial_243_10103)"/>
<path fill-rule="evenodd" clip-rule="evenodd" d="M83.5555 34.2049C86.6621 31.0984 90.789 31.0983 93.8956 34.205C98.289 38.5984 105.412 38.5984 109.806 34.2051C114.199 29.8117 114.199 22.6886 109.806 18.2952C97.9122 6.40165 79.5391 6.40165 67.6457 18.2949C63.2523 22.6883 63.2522 29.8114 67.6456 34.2048C72.039 38.5983 79.1621 38.5983 83.5555 34.2049Z" fill="url(#paint15_radial_243_10103)"/>
<g filter="url(#filter2_f_243_10103)">
<ellipse cx="47.8265" cy="22.6867" rx="4.61242" ry="6.91863" transform="rotate(-48.6821 47.8265 22.6867)" fill="url(#paint16_radial_243_10103)" fill-opacity="0.4"/>
</g>
<g filter="url(#filter3_f_243_10103)">
<ellipse cx="104.002" cy="22.6867" rx="4.61242" ry="6.91863" transform="rotate(-48.6821 104.002 22.6867)" fill="url(#paint17_radial_243_10103)" fill-opacity="0.4"/>
</g>
<path d="M74.7203 105.001C72.2816 105.001 69.8429 104.285 67.6887 102.814L66.2661 101.82C62.8518 99.4348 58.2589 99.4746 54.8853 101.9L54.0317 102.496C49.2762 105.876 42.529 105.836 38.2612 101.86C32.4896 96.5325 33.3025 87.7459 39.3993 83.4123L53.3001 73.5125C57.5273 70.5306 63.2176 70.4908 67.4854 73.4329L81.3049 83.0147C86.4669 86.5929 88.4586 93.4313 85.4101 98.8385C83.134 102.854 78.9475 105.001 74.7203 105.001Z" fill="url(#paint18_radial_243_10103)"/>
<path d="M74.7203 105.001C72.2816 105.001 69.8429 104.285 67.6887 102.814L66.2661 101.82C62.8518 99.4348 58.2589 99.4746 54.8853 101.9L54.0317 102.496C49.2762 105.876 42.529 105.836 38.2612 101.86C32.4896 96.5325 33.3025 87.7459 39.3993 83.4123L53.3001 73.5125C57.5273 70.5306 63.2176 70.4908 67.4854 73.4329L81.3049 83.0147C86.4669 86.5929 88.4586 93.4313 85.4101 98.8385C83.134 102.854 78.9475 105.001 74.7203 105.001Z" fill="url(#paint19_radial_243_10103)"/>
<path d="M74.7203 105.001C72.2816 105.001 69.8429 104.285 67.6887 102.814L66.2661 101.82C62.8518 99.4348 58.2589 99.4746 54.8853 101.9L54.0317 102.496C49.2762 105.876 42.529 105.836 38.2612 101.86C32.4896 96.5325 33.3025 87.7459 39.3993 83.4123L53.3001 73.5125C57.5273 70.5306 63.2176 70.4908 67.4854 73.4329L81.3049 83.0147C86.4669 86.5929 88.4586 93.4313 85.4101 98.8385C83.134 102.854 78.9475 105.001 74.7203 105.001Z" fill="url(#paint20_radial_243_10103)"/>
<path d="M67.793 86.1423H53.4121C48.061 86.1423 44.1945 79.8142 47.6516 74.5533C47.6516 74.5533 56.2062 64.3454 56.7936 48.749H64.5229C64.1816 61.5493 70.9015 71.0464 73.0654 73.763C73.4935 74.3004 73.9168 74.8475 74.1871 75.4792C76.4059 80.6647 72.8071 86.1423 67.793 86.1423Z" fill="url(#paint21_radial_243_10103)"/>
<path d="M67.793 86.1423H53.4121C48.061 86.1423 44.1945 79.8142 47.6516 74.5533C47.6516 74.5533 56.2062 64.3454 56.7936 48.749H64.5229C64.1816 61.5493 70.9015 71.0464 73.0654 73.763C73.4935 74.3004 73.9168 74.8475 74.1871 75.4792C76.4059 80.6647 72.8071 86.1423 67.793 86.1423Z" fill="url(#paint22_linear_243_10103)"/>
<path d="M67.793 86.1423H53.4121C48.061 86.1423 44.1945 79.8142 47.6516 74.5533C47.6516 74.5533 56.2062 64.3454 56.7936 48.749H64.5229C64.1816 61.5493 70.9015 71.0464 73.0654 73.763C73.4935 74.3004 73.9168 74.8475 74.1871 75.4792C76.4059 80.6647 72.8071 86.1423 67.793 86.1423Z" fill="url(#paint23_radial_243_10103)"/>
<path d="M67.793 86.1423H53.4121C48.061 86.1423 44.1945 79.8142 47.6516 74.5533C47.6516 74.5533 56.2062 64.3454 56.7936 48.749H64.5229C64.1816 61.5493 70.9015 71.0464 73.0654 73.763C73.4935 74.3004 73.9168 74.8475 74.1871 75.4792C76.4059 80.6647 72.8071 86.1423 67.793 86.1423Z" fill="url(#paint24_radial_243_10103)"/>
<g filter="url(#filter4_f_243_10103)">
<path d="M68.335 72.1865C68.8818 73.3983 70.2803 76.2115 71.499 77.7695" stroke="url(#paint25_linear_243_10103)" stroke-opacity="0.75" stroke-width="4.6943" stroke-linecap="round"/>
</g>
<path d="M4.3501 48.7495C4.3501 46.6784 6.02903 44.9995 8.1001 44.9995H113.1C115.171 44.9995 116.85 46.6784 116.85 48.7495V48.7495C116.85 50.8206 115.171 52.4995 113.1 52.4995H8.1001C6.02903 52.4995 4.3501 50.8206 4.3501 48.7495V48.7495Z" fill="url(#paint26_linear_243_10103)"/>
<path fill-rule="evenodd" clip-rule="evenodd" d="M36.2251 33.7495C26.9053 33.7495 19.3501 41.3047 19.3501 50.6245C19.3501 59.9443 26.9053 67.4995 36.2251 67.4995C45.5449 67.4995 53.1001 59.9443 53.1001 50.6245C53.1001 41.3047 45.5449 33.7495 36.2251 33.7495ZM15.6001 50.6245C15.6001 39.2336 24.8342 29.9995 36.2251 29.9995C47.616 29.9995 56.8501 39.2336 56.8501 50.6245C56.8501 62.0154 47.616 71.2495 36.2251 71.2495C24.8342 71.2495 15.6001 62.0154 15.6001 50.6245Z" fill="url(#paint27_radial_243_10103)"/>
<path fill-rule="evenodd" clip-rule="evenodd" d="M84.9741 33.777C75.6695 33.777 68.1266 41.3199 68.1266 50.6245C68.1266 59.9291 75.6695 67.472 84.9741 67.472C94.2788 67.472 101.822 59.9291 101.822 50.6245C101.822 41.3199 94.2788 33.777 84.9741 33.777ZM64.3491 50.6245C64.3491 39.2336 73.5833 29.9995 84.9741 29.9995C96.365 29.9995 105.599 39.2336 105.599 50.6245C105.599 62.0154 96.365 71.2495 84.9741 71.2495C73.5833 71.2495 64.3491 62.0154 64.3491 50.6245Z" fill="url(#paint28_radial_243_10103)"/>
<path fill-rule="evenodd" clip-rule="evenodd" d="M101.849 50.6245C101.849 59.9443 94.2938 67.4995 84.974 67.4995C75.6542 67.4995 68.099 59.9443 68.099 50.6245C68.099 41.3047 75.6542 33.7495 84.974 33.7495C94.2938 33.7495 101.849 41.3047 101.849 50.6245ZM53.0996 50.6246C53.0996 59.9444 45.5444 67.4996 36.2246 67.4996C26.9048 67.4996 19.3496 59.9444 19.3496 50.6246C19.3496 41.3048 26.9048 33.7496 36.2246 33.7496C45.5444 33.7496 53.0996 41.3048 53.0996 50.6246Z" fill="white"/>
<path fill-rule="evenodd" clip-rule="evenodd" d="M81.2239 41.2495C76.045 41.2495 71.8489 45.4456 71.8489 50.6245C71.8489 55.8034 76.045 59.9995 81.2239 59.9995C86.4029 59.9995 90.5989 55.8034 90.5989 50.6245C90.5989 45.4456 86.4029 41.2495 81.2239 41.2495ZM39.9746 41.2497C34.7957 41.2497 30.5996 45.4458 30.5996 50.6247C30.5996 55.8036 34.7957 59.9997 39.9746 59.9997C45.1535 59.9997 49.3496 55.8036 49.3496 50.6247C49.3496 45.4458 45.1535 41.2497 39.9746 41.2497Z" fill="#402A32"/>
<defs>
<filter id="filter0_f_243_10103" x="7.6231" y="33.1651" width="54.6254" height="54.6254" filterUnits="userSpaceOnUse" color-interpolation-filters="sRGB">
<feFlood flood-opacity="0" result="BackgroundImageFix"/>
<feBlend mode="normal" in="SourceGraphic" in2="BackgroundImageFix" result="shape"/>
<feGaussianBlur stdDeviation="3.52073" result="effect1_foregroundBlur_243_10103"/>
</filter>
<filter id="filter1_f_243_10103" x="51.4522" y="31.0538" width="54.6254" height="54.6254" filterUnits="userSpaceOnUse" color-interpolation-filters="sRGB">
<feFlood flood-opacity="0" result="BackgroundImageFix"/>
<feBlend mode="normal" in="SourceGraphic" in2="BackgroundImageFix" result="shape"/>
<feGaussianBlur stdDeviation="3.52073" result="effect1_foregroundBlur_243_10103"/>
</filter>
<filter id="filter2_f_243_10103" x="37.1084" y="12.2593" width="21.4365" height="20.8549" filterUnits="userSpaceOnUse" color-interpolation-filters="sRGB">
<feFlood flood-opacity="0" result="BackgroundImageFix"/>
<feBlend mode="normal" in="SourceGraphic" in2="BackgroundImageFix" result="shape"/>
<feGaussianBlur stdDeviation="2.34715" result="effect1_foregroundBlur_243_10103"/>
</filter>
<filter id="filter3_f_243_10103" x="93.2842" y="12.2593" width="21.4365" height="20.8549" filterUnits="userSpaceOnUse" color-interpolation-filters="sRGB">
<feFlood flood-opacity="0" result="BackgroundImageFix"/>
<feBlend mode="normal" in="SourceGraphic" in2="BackgroundImageFix" result="shape"/>
<feGaussianBlur stdDeviation="2.34715" result="effect1_foregroundBlur_243_10103"/>
</filter>
<filter id="filter4_f_243_10103" x="61.293" y="65.1446" width="17.2475" height="19.6664" filterUnits="userSpaceOnUse" color-interpolation-filters="sRGB">
<feFlood flood-opacity="0" result="BackgroundImageFix"/>
<feBlend mode="normal" in="SourceGraphic" in2="BackgroundImageFix" result="shape"/>
<feGaussianBlur stdDeviation="2.34715" result="effect1_foregroundBlur_243_10103"/>
</filter>
<radialGradient id="paint0_radial_243_10103" cx="0" cy="0" r="1" gradientUnits="userSpaceOnUse" gradientTransform="translate(96.2251 33.75) rotate(132.839) scale(140.637)">
<stop stop-color="#FFF478"/>
<stop offset="0.474827" stop-color="#FFB02E"/>
<stop offset="1" stop-color="#F70A8D"/>
</radialGradient>
<radialGradient id="paint1_radial_243_10103" cx="0" cy="0" r="1" gradientUnits="userSpaceOnUse" gradientTransform="translate(96.2251 33.75) rotate(131.878) scale(146.058)">
<stop stop-color="#FFF478"/>
<stop offset="0.474827" stop-color="#FFB02E"/>
<stop offset="1" stop-color="#F70A8D"/>
</radialGradient>
<radialGradient id="paint2_radial_243_10103" cx="0" cy="0" r="1" gradientUnits="userSpaceOnUse" gradientTransform="translate(60.6001 46.875) rotate(101.31) scale(66.9246 85.7177)">
<stop offset="0.787821" stop-color="#F59639" stop-opacity="0"/>
<stop offset="0.972509" stop-color="#FF7DCE"/>
</radialGradient>
<radialGradient id="paint3_radial_243_10103" cx="0" cy="0" r="1" gradientUnits="userSpaceOnUse" gradientTransform="translate(68.1001 52.5) rotate(135) scale(153.796)">
<stop offset="0.314853" stop-opacity="0"/>
<stop offset="1"/>
</radialGradient>
<radialGradient id="paint4_radial_243_10103" cx="0" cy="0" r="1" gradientUnits="userSpaceOnUse" gradientTransform="translate(60.6001 63.75) rotate(77.692) scale(105.551)">
<stop offset="0.507903" stop-color="#7D6133" stop-opacity="0"/>
<stop offset="1" stop-color="#715B32"/>
</radialGradient>
<radialGradient id="paint5_radial_243_10103" cx="0" cy="0" r="1" gradientUnits="userSpaceOnUse" gradientTransform="translate(62.4751 61.875) rotate(55.7131) scale(49.9257 36.1887)">
<stop stop-color="#FFB849"/>
<stop offset="1" stop-color="#FFB847" stop-opacity="0"/>
</radialGradient>
<radialGradient id="paint6_radial_243_10103" cx="0" cy="0" r="1" gradientUnits="userSpaceOnUse" gradientTransform="translate(77.4751 67.5) rotate(9.86581) scale(43.7723)">
<stop stop-color="#FFA64B"/>
<stop offset="0.900412" stop-color="#FFAE46" stop-opacity="0"/>
</radialGradient>
<radialGradient id="paint7_radial_243_10103" cx="0" cy="0" r="1" gradientUnits="userSpaceOnUse" gradientTransform="translate(66.2251 56.25) rotate(43.9708) scale(221.449)">
<stop offset="0.185425" stop-opacity="0"/>
<stop offset="1" stop-opacity="0.4"/>
</radialGradient>
<radialGradient id="paint8_radial_243_10103" cx="0" cy="0" r="1" gradientUnits="userSpaceOnUse" gradientTransform="translate(37.6291 56.144) rotate(129.705) scale(35.9477 104.163)">
<stop stop-color="#A84D29"/>
<stop offset="0.895419" stop-color="#9C634D" stop-opacity="0"/>
</radialGradient>
<radialGradient id="paint9_radial_243_10103" cx="0" cy="0" r="1" gradientUnits="userSpaceOnUse" gradientTransform="translate(22.9646 15.9375) rotate(129.705) scale(35.9477 104.163)">
<stop stop-color="#CE5628"/>
<stop offset="0.802083" stop-color="#CE5628" stop-opacity="0"/>
</radialGradient>
<radialGradient id="paint10_radial_243_10103" cx="0" cy="0" r="1" gradientUnits="userSpaceOnUse" gradientTransform="translate(35.9907 54.737) rotate(-96.6882) scale(72.4461 66.5119)">
<stop stop-color="#482641"/>
<stop offset="0.521277" stop-color="#54414F"/>
<stop offset="0.9643" stop-color="#482641"/>
</radialGradient>
<radialGradient id="paint11_radial_243_10103" cx="0" cy="0" r="1" gradientUnits="userSpaceOnUse" gradientTransform="translate(36.6938 61.0651) rotate(-99.8336) scale(35.6805 32.7995)">
<stop offset="0.645833" stop-color="#1A1819"/>
<stop offset="1" stop-color="#1A1819" stop-opacity="0"/>
</radialGradient>
<radialGradient id="paint12_radial_243_10103" cx="0" cy="0" r="1" gradientUnits="userSpaceOnUse" gradientTransform="translate(40.3267 27.0808) rotate(157.221) scale(42.0705 43.8834)">
<stop offset="0.489068" stop-color="#1A1819" stop-opacity="0"/>
<stop offset="1" stop-color="#1A1819"/>
</radialGradient>
<radialGradient id="paint13_radial_243_10103" cx="0" cy="0" r="1" gradientUnits="userSpaceOnUse" gradientTransform="translate(85.21 54.737) rotate(-83.3118) scale(72.4461 66.5119)">
<stop stop-color="#482641"/>
<stop offset="0.521277" stop-color="#54414F"/>
<stop offset="0.9643" stop-color="#482641"/>
</radialGradient>
<radialGradient id="paint14_radial_243_10103" cx="0" cy="0" r="1" gradientUnits="userSpaceOnUse" gradientTransform="translate(84.5068 61.0651) rotate(-80.1664) scale(35.6805 32.7995)">
<stop offset="0.645833" stop-color="#1A1819"/>
<stop offset="1" stop-color="#1A1819" stop-opacity="0"/>
</radialGradient>
<radialGradient id="paint15_radial_243_10103" cx="0" cy="0" r="1" gradientUnits="userSpaceOnUse" gradientTransform="translate(95.1709 32.5886) rotate(-124.28) scale(37.8668 48.3989)">
<stop offset="0.489068" stop-color="#1A1819" stop-opacity="0"/>
<stop offset="1" stop-color="#1A1819"/>
</radialGradient>
<radialGradient id="paint16_radial_243_10103" cx="0" cy="0" r="1" gradientUnits="userSpaceOnUse" gradientTransform="translate(52.439 33.2294) rotate(-109.154) scale(20.7516 8.38964)">
<stop stop-color="#947F8E"/>
<stop offset="1" stop-color="#947F8E" stop-opacity="0"/>
</radialGradient>
<radialGradient id="paint17_radial_243_10103" cx="0" cy="0" r="1" gradientUnits="userSpaceOnUse" gradientTransform="translate(108.615 33.2294) rotate(-109.154) scale(20.7516 8.38963)">
<stop stop-color="#947F8E"/>
<stop offset="1" stop-color="#947F8E" stop-opacity="0"/>
</radialGradient>
<radialGradient id="paint18_radial_243_10103" cx="0" cy="0" r="1" gradientUnits="userSpaceOnUse" gradientTransform="translate(62.2402 64.8161) rotate(90) scale(55.0781 132.422)">
<stop stop-color="#482641"/>
<stop offset="0.521277" stop-color="#54414F"/>
<stop offset="0.780851" stop-color="#482641"/>
</radialGradient>
<radialGradient id="paint19_radial_243_10103" cx="0" cy="0" r="1" gradientUnits="userSpaceOnUse" gradientTransform="translate(55.209 77.238) rotate(139.467) scale(21.2778 20.4362)">
<stop stop-color="#3F2628"/>
<stop offset="1" stop-color="#3F2628" stop-opacity="0"/>
</radialGradient>
<radialGradient id="paint20_radial_243_10103" cx="0" cy="0" r="1" gradientUnits="userSpaceOnUse" gradientTransform="translate(60.6017 83.9082) rotate(90.003) scale(39.5016 75.1517)">
<stop offset="0.448199" stop-color="#A72274" stop-opacity="0"/>
<stop offset="1" stop-color="#A72274"/>
</radialGradient>
<radialGradient id="paint21_radial_243_10103" cx="0" cy="0" r="1" gradientUnits="userSpaceOnUse" gradientTransform="translate(62.1965 48.749) rotate(81.7642) scale(62.0649 68.2326)">
<stop stop-color="#FFC42E"/>
<stop offset="0.451939" stop-color="#FFB02E"/>
<stop offset="1" stop-color="#F70A8D"/>
</radialGradient>
<linearGradient id="paint22_linear_243_10103" x1="60.6007" y1="48.749" x2="60.6007" y2="64.471" gradientUnits="userSpaceOnUse">
<stop stop-color="#A84D29"/>
<stop offset="1" stop-color="#9C634D" stop-opacity="0"/>
</linearGradient>
<radialGradient id="paint23_radial_243_10103" cx="0" cy="0" r="1" gradientUnits="userSpaceOnUse" gradientTransform="translate(47.6067 60.0565) rotate(27.5684) scale(12.3439 39.605)">
<stop stop-color="#682E17"/>
<stop offset="0.157838" stop-color="#A84D29"/>
<stop offset="1" stop-color="#9C634D" stop-opacity="0"/>
</radialGradient>
<radialGradient id="paint24_radial_243_10103" cx="0" cy="0" r="1" gradientUnits="userSpaceOnUse" gradientTransform="translate(73.8228 52.6557) rotate(133.27) scale(14.8002 16.3724)">
<stop offset="0.174596" stop-color="#682E17"/>
<stop offset="0.608456" stop-color="#A84D29"/>
<stop offset="1" stop-color="#9C634D" stop-opacity="0"/>
</radialGradient>
<linearGradient id="paint25_linear_243_10103" x1="67.0001" y1="72.1865" x2="74.3802" y2="77.946" gradientUnits="userSpaceOnUse">
<stop offset="0.328125" stop-color="#FFF478" stop-opacity="0.5"/>
<stop offset="1" stop-color="#FFF478" stop-opacity="0"/>
</linearGradient>
<linearGradient id="paint26_linear_243_10103" x1="61.186" y1="33.9358" x2="61.186" y2="58.0178" gradientUnits="userSpaceOnUse">
<stop offset="0.450122" stop-color="#482641"/>
<stop offset="0.549878" stop-color="#5F4558"/>
<stop offset="0.673966" stop-color="#482641"/>
</linearGradient>
<radialGradient id="paint27_radial_243_10103" cx="0" cy="0" r="1" gradientUnits="userSpaceOnUse" gradientTransform="translate(33.8814 57.0803) rotate(-12.4982) scale(47.6527 47.7816)">
<stop offset="0.45176" stop-color="#482641"/>
<stop offset="0.554392" stop-color="#5F4558"/>
<stop offset="0.700358" stop-color="#482641"/>
<stop offset="1" stop-color="#482641"/>
</radialGradient>
<radialGradient id="paint28_radial_243_10103" cx="0" cy="0" r="1" gradientUnits="userSpaceOnUse" gradientTransform="translate(82.6304 57.0803) rotate(-12.4982) scale(47.6527 47.7816)">
<stop offset="0.45176" stop-color="#482641"/>
<stop offset="0.554392" stop-color="#5F4558"/>
<stop offset="0.700358" stop-color="#482641"/>
<stop offset="1" stop-color="#482641"/>
</radialGradient>
</defs>
</svg>
