<svg width="121" height="120" viewBox="0 0 121 120" fill="none" xmlns="http://www.w3.org/2000/svg">
<g clip-path="url(#clip0_350_1083)">
<path d="M60.596 112.491C95.6002 112.491 113.092 88.9882 113.092 59.9956C113.092 31.0029 95.6002 7.49976 60.596 7.49976C25.5918 7.49976 8.10022 31.0029 8.10022 59.9956C8.10022 88.9882 25.5918 112.491 60.596 112.491Z" fill="url(#paint0_radial_350_1083)"/>
<path d="M60.596 112.491C95.6002 112.491 113.092 88.9882 113.092 59.9956C113.092 31.0029 95.6002 7.49976 60.596 7.49976C25.5918 7.49976 8.10022 31.0029 8.10022 59.9956C8.10022 88.9882 25.5918 112.491 60.596 112.491Z" fill="url(#paint1_radial_350_1083)"/>
<path d="M60.596 112.491C95.6002 112.491 113.092 88.9882 113.092 59.9956C113.092 31.0029 95.6002 7.49976 60.596 7.49976C25.5918 7.49976 8.10022 31.0029 8.10022 59.9956C8.10022 88.9882 25.5918 112.491 60.596 112.491Z" fill="url(#paint2_radial_350_1083)"/>
<path d="M60.596 112.491C95.6002 112.491 113.092 88.9882 113.092 59.9956C113.092 31.0029 95.6002 7.49976 60.596 7.49976C25.5918 7.49976 8.10022 31.0029 8.10022 59.9956C8.10022 88.9882 25.5918 112.491 60.596 112.491Z" fill="url(#paint3_radial_350_1083)" fill-opacity="0.6"/>
<path d="M60.596 112.491C95.6002 112.491 113.092 88.9882 113.092 59.9956C113.092 31.0029 95.6002 7.49976 60.596 7.49976C25.5918 7.49976 8.10022 31.0029 8.10022 59.9956C8.10022 88.9882 25.5918 112.491 60.596 112.491Z" fill="url(#paint4_radial_350_1083)"/>
<path d="M60.596 112.491C95.6002 112.491 113.092 88.9882 113.092 59.9956C113.092 31.0029 95.6002 7.49976 60.596 7.49976C25.5918 7.49976 8.10022 31.0029 8.10022 59.9956C8.10022 88.9882 25.5918 112.491 60.596 112.491Z" fill="url(#paint5_radial_350_1083)"/>
<path d="M60.596 112.491C95.6002 112.491 113.092 88.9882 113.092 59.9956C113.092 31.0029 95.6002 7.49976 60.596 7.49976C25.5918 7.49976 8.10022 31.0029 8.10022 59.9956C8.10022 88.9882 25.5918 112.491 60.596 112.491Z" fill="url(#paint6_radial_350_1083)"/>
<path d="M60.596 112.491C95.6002 112.491 113.092 88.9882 113.092 59.9956C113.092 31.0029 95.6002 7.49976 60.596 7.49976C25.5918 7.49976 8.10022 31.0029 8.10022 59.9956C8.10022 88.9882 25.5918 112.491 60.596 112.491Z" fill="url(#paint7_radial_350_1083)"/>
<path opacity="0.5" d="M28.7249 86.2495C42.1868 86.2495 53.0999 75.3365 53.0999 61.8745C53.0999 48.4126 42.1868 37.4995 28.7249 37.4995C15.2629 37.4995 4.34985 48.4126 4.34985 61.8745C4.34985 75.3365 15.2629 86.2495 28.7249 86.2495Z" fill="url(#paint8_radial_350_1083)"/>
<path opacity="0.5" d="M92.4749 86.2495C105.937 86.2495 116.85 75.3365 116.85 61.8745C116.85 48.4126 105.937 37.4995 92.4749 37.4995C79.0129 37.4995 68.0999 48.4126 68.0999 61.8745C68.0999 75.3365 79.0129 86.2495 92.4749 86.2495Z" fill="url(#paint9_radial_350_1083)"/>
<g opacity="0.5" filter="url(#filter0_f_350_1083)">
<path d="M28.7249 50.6243C28.7249 50.6243 29.6624 43.1243 38.0999 43.1243C46.5374 43.1243 47.4749 50.6243 47.4749 50.6243" stroke="#9A4609" stroke-width="7.5625" stroke-linecap="round"/>
</g>
<g opacity="0.5" filter="url(#filter1_f_350_1083)">
<path d="M69.9747 50.6243C69.9747 50.6243 71.8497 43.1243 79.3497 43.1243C86.8497 43.1243 88.7247 50.6243 88.7247 50.6243" stroke="#9A4609" stroke-width="7.5625" stroke-linecap="round"/>
</g>
<path d="M30.5999 48.7495C30.5999 48.7495 31.5374 41.2495 39.9749 41.2495C48.4124 41.2495 49.3499 48.7495 49.3499 48.7495" stroke="#43273B" stroke-width="7.5625" stroke-linecap="round" stroke-linejoin="round"/>
<g opacity="0.26" filter="url(#filter2_f_350_1083)">
<path d="M31.5372 47.8125C31.5372 47.8125 32.4747 40.3125 40.9122 40.3125C49.3497 40.3125 50.2872 47.8125 50.2872 47.8125" stroke="white" stroke-width="2.83594" stroke-linecap="round" stroke-linejoin="round"/>
</g>
<path d="M71.8501 48.7495C71.8501 48.7495 73.7251 41.2495 81.2251 41.2495C88.7251 41.2495 90.6001 48.7495 90.6001 48.7495" stroke="#43273B" stroke-width="7.5625" stroke-linecap="round" stroke-linejoin="round"/>
<g opacity="0.26" filter="url(#filter3_f_350_1083)">
<path d="M72.7876 47.8125C72.7876 47.8125 73.7251 40.3125 82.1626 40.3125C90.6001 40.3125 91.5376 47.8125 91.5376 47.8125" stroke="white" stroke-width="2.83594" stroke-linecap="round" stroke-linejoin="round"/>
</g>
<path d="M24.975 35.625C26.225 31.875 30.975 24.375 39.975 24.375" stroke="url(#paint10_linear_350_1083)" stroke-width="3.78125" stroke-linecap="round" stroke-linejoin="round"/>
<path d="M96.2252 35.625C94.9752 31.875 90.2252 24.375 81.2252 24.375" stroke="url(#paint11_linear_350_1083)" stroke-width="3.78125" stroke-linecap="round" stroke-linejoin="round"/>
<path d="M38.1 71.2502C39.975 73.7502 47.475 80.6252 60.6 80.6252C73.725 80.6252 81.225 73.7502 83.1 71.2502" stroke="url(#paint12_radial_350_1083)" stroke-width="7.5625" stroke-linecap="round"/>
</g>
<defs>
<filter id="filter0_f_350_1083" x="19.2714" y="33.6711" width="37.657" height="26.4067" filterUnits="userSpaceOnUse" color-interpolation-filters="sRGB">
<feFlood flood-opacity="0" result="BackgroundImageFix"/>
<feBlend mode="normal" in="SourceGraphic" in2="BackgroundImageFix" result="shape"/>
<feGaussianBlur stdDeviation="2.83594" result="effect1_foregroundBlur_350_1083"/>
</filter>
<filter id="filter1_f_350_1083" x="60.5208" y="33.6711" width="37.658" height="26.4072" filterUnits="userSpaceOnUse" color-interpolation-filters="sRGB">
<feFlood flood-opacity="0" result="BackgroundImageFix"/>
<feBlend mode="normal" in="SourceGraphic" in2="BackgroundImageFix" result="shape"/>
<feGaussianBlur stdDeviation="2.83594" result="effect1_foregroundBlur_350_1083"/>
</filter>
<filter id="filter2_f_350_1083" x="24.4473" y="33.2227" width="32.9299" height="21.6799" filterUnits="userSpaceOnUse" color-interpolation-filters="sRGB">
<feFlood flood-opacity="0" result="BackgroundImageFix"/>
<feBlend mode="normal" in="SourceGraphic" in2="BackgroundImageFix" result="shape"/>
<feGaussianBlur stdDeviation="2.83594" result="effect1_foregroundBlur_350_1083"/>
</filter>
<filter id="filter3_f_350_1083" x="65.6976" y="33.2227" width="32.9299" height="21.6799" filterUnits="userSpaceOnUse" color-interpolation-filters="sRGB">
<feFlood flood-opacity="0" result="BackgroundImageFix"/>
<feBlend mode="normal" in="SourceGraphic" in2="BackgroundImageFix" result="shape"/>
<feGaussianBlur stdDeviation="2.83594" result="effect1_foregroundBlur_350_1083"/>
</filter>
<radialGradient id="paint0_radial_350_1083" cx="0" cy="0" r="1" gradientUnits="userSpaceOnUse" gradientTransform="translate(96.2252 33.7498) rotate(132.839) scale(140.637)">
<stop stop-color="#FFF478"/>
<stop offset="0.474827" stop-color="#FFB02E"/>
<stop offset="1" stop-color="#F70A8D"/>
</radialGradient>
<radialGradient id="paint1_radial_350_1083" cx="0" cy="0" r="1" gradientUnits="userSpaceOnUse" gradientTransform="translate(96.2252 33.7498) rotate(131.878) scale(146.058)">
<stop stop-color="#FFF478"/>
<stop offset="0.474827" stop-color="#FFB02E"/>
<stop offset="1" stop-color="#F70A8D"/>
</radialGradient>
<radialGradient id="paint2_radial_350_1083" cx="0" cy="0" r="1" gradientUnits="userSpaceOnUse" gradientTransform="translate(60.6002 46.8748) rotate(101.31) scale(66.9246 85.7177)">
<stop offset="0.787821" stop-color="#F59639" stop-opacity="0"/>
<stop offset="0.972509" stop-color="#FF7DCE"/>
</radialGradient>
<radialGradient id="paint3_radial_350_1083" cx="0" cy="0" r="1" gradientUnits="userSpaceOnUse" gradientTransform="translate(68.1002 52.4998) rotate(135) scale(153.796)">
<stop offset="0.314853" stop-opacity="0"/>
<stop offset="1"/>
</radialGradient>
<radialGradient id="paint4_radial_350_1083" cx="0" cy="0" r="1" gradientUnits="userSpaceOnUse" gradientTransform="translate(60.6002 63.7498) rotate(77.692) scale(105.551)">
<stop offset="0.507903" stop-color="#7D6133" stop-opacity="0"/>
<stop offset="1" stop-color="#715B32"/>
</radialGradient>
<radialGradient id="paint5_radial_350_1083" cx="0" cy="0" r="1" gradientUnits="userSpaceOnUse" gradientTransform="translate(62.4752 61.8748) rotate(55.7131) scale(49.9257 36.1887)">
<stop stop-color="#FFB849"/>
<stop offset="1" stop-color="#FFB847" stop-opacity="0"/>
</radialGradient>
<radialGradient id="paint6_radial_350_1083" cx="0" cy="0" r="1" gradientUnits="userSpaceOnUse" gradientTransform="translate(77.4752 67.4998) rotate(9.86581) scale(43.7723)">
<stop stop-color="#FFA64B"/>
<stop offset="0.900412" stop-color="#FFAE46" stop-opacity="0"/>
</radialGradient>
<radialGradient id="paint7_radial_350_1083" cx="0" cy="0" r="1" gradientUnits="userSpaceOnUse" gradientTransform="translate(66.2252 56.2498) rotate(43.9708) scale(221.449)">
<stop offset="0.185425" stop-opacity="0"/>
<stop offset="1" stop-opacity="0.4"/>
</radialGradient>
<radialGradient id="paint8_radial_350_1083" cx="0" cy="0" r="1" gradientUnits="userSpaceOnUse" gradientTransform="translate(28.7441 61.8789) scale(24.3558)">
<stop stop-color="#F70A8D" stop-opacity="0.59"/>
<stop offset="1" stop-color="#FF6DC6" stop-opacity="0"/>
</radialGradient>
<radialGradient id="paint9_radial_350_1083" cx="0" cy="0" r="1" gradientUnits="userSpaceOnUse" gradientTransform="translate(92.4941 61.8789) scale(24.3558)">
<stop stop-color="#F70A8D" stop-opacity="0.59"/>
<stop offset="1" stop-color="#FF6DC6" stop-opacity="0"/>
</radialGradient>
<linearGradient id="paint10_linear_350_1083" x1="26.225" y1="39" x2="26.225" y2="32.25" gradientUnits="userSpaceOnUse">
<stop offset="0.0299084" stop-color="#524049"/>
<stop offset="1" stop-color="#4A2C42"/>
</linearGradient>
<linearGradient id="paint11_linear_350_1083" x1="94.9752" y1="39" x2="94.9752" y2="32.25" gradientUnits="userSpaceOnUse">
<stop offset="0.0299084" stop-color="#524049"/>
<stop offset="1" stop-color="#4A2C42"/>
</linearGradient>
<radialGradient id="paint12_radial_350_1083" cx="0" cy="0" r="1" gradientUnits="userSpaceOnUse" gradientTransform="translate(67.6263 63.4479) rotate(90) scale(43.0857 43.0858)">
<stop offset="0.10265" stop-color="#482641"/>
<stop offset="0.298574" stop-color="#503A4A"/>
<stop offset="0.555606" stop-color="#483637"/>
</radialGradient>
<clipPath id="clip0_350_1083">
<rect width="120" height="120" fill="white" transform="translate(0.599976)"/>
</clipPath>
</defs>
</svg>
